G04 #@! TF.GenerationSoftware,KiCad,Pcbnew,(5.1.5)-3*
G04 #@! TF.CreationDate,2021-08-13T16:15:14-07:00*
G04 #@! TF.ProjectId,Xenigotchi-v1.5,58656e69-676f-4746-9368-692d76312e35,rev?*
G04 #@! TF.SameCoordinates,Original*
G04 #@! TF.FileFunction,Copper,L2,Bot*
G04 #@! TF.FilePolarity,Positive*
%FSLAX46Y46*%
G04 Gerber Fmt 4.6, Leading zero omitted, Abs format (unit mm)*
G04 Created by KiCad (PCBNEW (5.1.5)-3) date 2021-08-13 16:15:14*
%MOMM*%
%LPD*%
G04 APERTURE LIST*
%ADD10R,1.295400X1.905000*%
%ADD11R,0.660400X1.549400*%
%ADD12C,0.787000*%
%ADD13R,1.208000X1.208000*%
%ADD14C,1.208000*%
%ADD15C,0.100000*%
%ADD16R,0.440000X0.940000*%
%ADD17R,4.300000X3.400000*%
%ADD18C,0.800000*%
%ADD19C,0.250000*%
%ADD20C,0.381000*%
%ADD21C,0.254000*%
%ADD22C,0.400000*%
%ADD23C,0.177800*%
G04 APERTURE END LIST*
D10*
X178399999Y-109876501D03*
X172800001Y-109876501D03*
D11*
X174100000Y-106001500D03*
X175100001Y-106001500D03*
X176099999Y-106001500D03*
X177100000Y-106001500D03*
D10*
X169499999Y-109876501D03*
X163900001Y-109876501D03*
D11*
X165200000Y-106001500D03*
X166200001Y-106001500D03*
X167199999Y-106001500D03*
X168200000Y-106001500D03*
D12*
X144565000Y-102470000D03*
X145835000Y-102470000D03*
X144565000Y-101200000D03*
X145835000Y-101200000D03*
X144565000Y-99930000D03*
X145835000Y-99930000D03*
D13*
X181010000Y-118120000D03*
D14*
X179010000Y-118120000D03*
X177010000Y-118120000D03*
X175010000Y-118120000D03*
X173010000Y-118120000D03*
X171010000Y-118120000D03*
X169010000Y-118120000D03*
X181010000Y-116120000D03*
X179010000Y-116120000D03*
X177010000Y-116120000D03*
X175010000Y-116120000D03*
X173010000Y-116120000D03*
X171010000Y-116120000D03*
X169010000Y-116120000D03*
G04 #@! TA.AperFunction,SMDPad,CuDef*
D15*
G36*
X157427691Y-108626053D02*
G01*
X157448926Y-108629203D01*
X157469750Y-108634419D01*
X157489962Y-108641651D01*
X157509368Y-108650830D01*
X157527781Y-108661866D01*
X157545024Y-108674654D01*
X157560930Y-108689070D01*
X157575346Y-108704976D01*
X157588134Y-108722219D01*
X157599170Y-108740632D01*
X157608349Y-108760038D01*
X157615581Y-108780250D01*
X157620797Y-108801074D01*
X157623947Y-108822309D01*
X157625000Y-108843750D01*
X157625000Y-109356250D01*
X157623947Y-109377691D01*
X157620797Y-109398926D01*
X157615581Y-109419750D01*
X157608349Y-109439962D01*
X157599170Y-109459368D01*
X157588134Y-109477781D01*
X157575346Y-109495024D01*
X157560930Y-109510930D01*
X157545024Y-109525346D01*
X157527781Y-109538134D01*
X157509368Y-109549170D01*
X157489962Y-109558349D01*
X157469750Y-109565581D01*
X157448926Y-109570797D01*
X157427691Y-109573947D01*
X157406250Y-109575000D01*
X156968750Y-109575000D01*
X156947309Y-109573947D01*
X156926074Y-109570797D01*
X156905250Y-109565581D01*
X156885038Y-109558349D01*
X156865632Y-109549170D01*
X156847219Y-109538134D01*
X156829976Y-109525346D01*
X156814070Y-109510930D01*
X156799654Y-109495024D01*
X156786866Y-109477781D01*
X156775830Y-109459368D01*
X156766651Y-109439962D01*
X156759419Y-109419750D01*
X156754203Y-109398926D01*
X156751053Y-109377691D01*
X156750000Y-109356250D01*
X156750000Y-108843750D01*
X156751053Y-108822309D01*
X156754203Y-108801074D01*
X156759419Y-108780250D01*
X156766651Y-108760038D01*
X156775830Y-108740632D01*
X156786866Y-108722219D01*
X156799654Y-108704976D01*
X156814070Y-108689070D01*
X156829976Y-108674654D01*
X156847219Y-108661866D01*
X156865632Y-108650830D01*
X156885038Y-108641651D01*
X156905250Y-108634419D01*
X156926074Y-108629203D01*
X156947309Y-108626053D01*
X156968750Y-108625000D01*
X157406250Y-108625000D01*
X157427691Y-108626053D01*
G37*
G04 #@! TD.AperFunction*
G04 #@! TA.AperFunction,SMDPad,CuDef*
G36*
X155852691Y-108626053D02*
G01*
X155873926Y-108629203D01*
X155894750Y-108634419D01*
X155914962Y-108641651D01*
X155934368Y-108650830D01*
X155952781Y-108661866D01*
X155970024Y-108674654D01*
X155985930Y-108689070D01*
X156000346Y-108704976D01*
X156013134Y-108722219D01*
X156024170Y-108740632D01*
X156033349Y-108760038D01*
X156040581Y-108780250D01*
X156045797Y-108801074D01*
X156048947Y-108822309D01*
X156050000Y-108843750D01*
X156050000Y-109356250D01*
X156048947Y-109377691D01*
X156045797Y-109398926D01*
X156040581Y-109419750D01*
X156033349Y-109439962D01*
X156024170Y-109459368D01*
X156013134Y-109477781D01*
X156000346Y-109495024D01*
X155985930Y-109510930D01*
X155970024Y-109525346D01*
X155952781Y-109538134D01*
X155934368Y-109549170D01*
X155914962Y-109558349D01*
X155894750Y-109565581D01*
X155873926Y-109570797D01*
X155852691Y-109573947D01*
X155831250Y-109575000D01*
X155393750Y-109575000D01*
X155372309Y-109573947D01*
X155351074Y-109570797D01*
X155330250Y-109565581D01*
X155310038Y-109558349D01*
X155290632Y-109549170D01*
X155272219Y-109538134D01*
X155254976Y-109525346D01*
X155239070Y-109510930D01*
X155224654Y-109495024D01*
X155211866Y-109477781D01*
X155200830Y-109459368D01*
X155191651Y-109439962D01*
X155184419Y-109419750D01*
X155179203Y-109398926D01*
X155176053Y-109377691D01*
X155175000Y-109356250D01*
X155175000Y-108843750D01*
X155176053Y-108822309D01*
X155179203Y-108801074D01*
X155184419Y-108780250D01*
X155191651Y-108760038D01*
X155200830Y-108740632D01*
X155211866Y-108722219D01*
X155224654Y-108704976D01*
X155239070Y-108689070D01*
X155254976Y-108674654D01*
X155272219Y-108661866D01*
X155290632Y-108650830D01*
X155310038Y-108641651D01*
X155330250Y-108634419D01*
X155351074Y-108629203D01*
X155372309Y-108626053D01*
X155393750Y-108625000D01*
X155831250Y-108625000D01*
X155852691Y-108626053D01*
G37*
G04 #@! TD.AperFunction*
D16*
X151435000Y-111095000D03*
X150165000Y-111095000D03*
X148895000Y-111095000D03*
X152705000Y-111095000D03*
X151435000Y-103305000D03*
X150165000Y-103305000D03*
X148895000Y-103305000D03*
X152705000Y-103305000D03*
D17*
X150800000Y-107200000D03*
D18*
X185200000Y-110900000D03*
X182200000Y-108800000D03*
X182200000Y-113500000D03*
X170300000Y-107700000D03*
X168100000Y-100600000D03*
X177000000Y-102900000D03*
X160500000Y-100300000D03*
X164400000Y-100300000D03*
X165200000Y-117300000D03*
X166300000Y-116600000D03*
X176000000Y-102900000D03*
X175000000Y-102900000D03*
X176100000Y-99800000D03*
X176100000Y-100700000D03*
X175200000Y-100700000D03*
X175200000Y-99800000D03*
X165500000Y-110400000D03*
X166900000Y-109100000D03*
X187500000Y-97900000D03*
X187600000Y-115200000D03*
X186800000Y-115200000D03*
X188100000Y-109000000D03*
X187000000Y-108100000D03*
X144100000Y-103100000D03*
X151200000Y-98900000D03*
X156400000Y-105000000D03*
X168000000Y-104500000D03*
X159700000Y-102500000D03*
X159800000Y-111200000D03*
X157200000Y-110200000D03*
X166000000Y-111600000D03*
X160455000Y-107945000D03*
X160400000Y-106700000D03*
X166471126Y-104457042D03*
X158100000Y-102200000D03*
X186200000Y-103900000D03*
X156900000Y-101800000D03*
X186200000Y-102500000D03*
X143600000Y-101200000D03*
X146500000Y-112800000D03*
X169000000Y-113800000D03*
X145900000Y-111900000D03*
X170000000Y-114800000D03*
X156400000Y-112600000D03*
X146700000Y-105400000D03*
X150900000Y-104600000D03*
X152200000Y-104600000D03*
X152700000Y-112400000D03*
X146700000Y-109200000D03*
X151400000Y-110000000D03*
X154300000Y-101800000D03*
X158600000Y-103700000D03*
X155600000Y-101800000D03*
X174800000Y-112900000D03*
D19*
X144565000Y-102470000D02*
X144565000Y-102635000D01*
X144565000Y-102635000D02*
X144100000Y-103100000D01*
X152705000Y-102585000D02*
X151200000Y-101080000D01*
X152705000Y-103305000D02*
X152705000Y-102585000D01*
X151200000Y-101080000D02*
X151200000Y-98900000D01*
D20*
X154705000Y-103305000D02*
X156400000Y-105000000D01*
X152705000Y-103305000D02*
X154705000Y-103305000D01*
X168000000Y-104500000D02*
X168000000Y-103800000D01*
X168000000Y-103800000D02*
X167500000Y-103300000D01*
X167500000Y-103300000D02*
X160500000Y-103300000D01*
X160500000Y-103300000D02*
X159700000Y-102500000D01*
X167200000Y-106100000D02*
X167200000Y-104700000D01*
X167400000Y-104500000D02*
X168000000Y-104500000D01*
X167200000Y-104700000D02*
X167400000Y-104500000D01*
D21*
X157187500Y-109100000D02*
X157187500Y-109575000D01*
X157200000Y-109587500D02*
X157200000Y-110200000D01*
X157187500Y-109575000D02*
X157200000Y-109587500D01*
X160365685Y-111200000D02*
X159800000Y-111200000D01*
X165700000Y-111900000D02*
X161065685Y-111900000D01*
X161065685Y-111900000D02*
X160365685Y-111200000D01*
D19*
X166000000Y-111600000D02*
X165800000Y-111900000D01*
X165800000Y-111900000D02*
X165700000Y-111900000D01*
X166200000Y-106100000D02*
X166200000Y-107000000D01*
X165255000Y-107945000D02*
X160455000Y-107945000D01*
X166200000Y-107000000D02*
X165255000Y-107945000D01*
X164600000Y-106700000D02*
X165200000Y-106100000D01*
X160400000Y-106700000D02*
X164600000Y-106700000D01*
X165400000Y-104500000D02*
X166428168Y-104500000D01*
X165200000Y-106100000D02*
X165200000Y-104700000D01*
X166428168Y-104500000D02*
X166471126Y-104457042D01*
X165200000Y-104700000D02*
X165400000Y-104500000D01*
D20*
X181995000Y-118120000D02*
X182600000Y-117515000D01*
X181010000Y-118120000D02*
X181995000Y-118120000D01*
X182600000Y-117515000D02*
X182600000Y-115500000D01*
X182600000Y-115500000D02*
X180700000Y-113600000D01*
D22*
X180700000Y-108871300D02*
X177830200Y-106001500D01*
X177830200Y-106001500D02*
X177100000Y-106001500D01*
X180700000Y-113600000D02*
X180700000Y-108871300D01*
D19*
X158100000Y-99600000D02*
X158100000Y-102200000D01*
X159472190Y-98227810D02*
X158100000Y-99600000D01*
X177904609Y-98227810D02*
X159472190Y-98227810D01*
X179962125Y-98227810D02*
X177800000Y-98227810D01*
X186200000Y-103900000D02*
X185634315Y-103900000D01*
X185634315Y-103900000D02*
X179962125Y-98227810D01*
X156900000Y-98600000D02*
X157700000Y-97800000D01*
X156900000Y-101800000D02*
X156900000Y-98600000D01*
X157700000Y-97800000D02*
X181500000Y-97800000D01*
X181500000Y-97800000D02*
X186200000Y-102500000D01*
D23*
X144565000Y-101200000D02*
X143600000Y-101200000D01*
X146000000Y-104902908D02*
X146600000Y-104302908D01*
X146500000Y-112234315D02*
X146700000Y-112034315D01*
X146700000Y-112034315D02*
X146700000Y-111753960D01*
X146500000Y-112800000D02*
X146500000Y-112234315D01*
X146700000Y-111753960D02*
X146000000Y-111053960D01*
X146000000Y-111053960D02*
X146000000Y-104902908D01*
X146600000Y-101965000D02*
X145835000Y-101200000D01*
X146600000Y-104302908D02*
X146600000Y-101965000D01*
X177010000Y-118120000D02*
X175990000Y-117100000D01*
X174442764Y-117100000D02*
X174000000Y-116657236D01*
X175990000Y-117100000D02*
X174442764Y-117100000D01*
X174000000Y-116657236D02*
X174000000Y-115100000D01*
X174000000Y-115100000D02*
X173600000Y-114700000D01*
X173600000Y-114700000D02*
X172700000Y-113800000D01*
X172700000Y-113800000D02*
X169000000Y-113800000D01*
X146228499Y-102863499D02*
X145835000Y-102470000D01*
X146228499Y-104171501D02*
X146228499Y-102863499D01*
X145600000Y-111600000D02*
X145600000Y-104800000D01*
X145600000Y-104800000D02*
X146228499Y-104171501D01*
X145900000Y-111900000D02*
X145600000Y-111600000D01*
X174406001Y-117516001D02*
X174216001Y-117516001D01*
X175010000Y-118120000D02*
X174406001Y-117516001D01*
X174216001Y-117516001D02*
X173800000Y-117100000D01*
X173800000Y-117100000D02*
X172300000Y-117100000D01*
X172300000Y-117100000D02*
X172000000Y-116800000D01*
X172000000Y-116800000D02*
X172000000Y-115200000D01*
X172000000Y-115200000D02*
X172000000Y-115100000D01*
X172000000Y-115100000D02*
X171700000Y-114800000D01*
X171700000Y-114800000D02*
X170000000Y-114800000D01*
X145500001Y-112299999D02*
X145900000Y-111900000D01*
X154634315Y-113800000D02*
X146100000Y-113800000D01*
X156400000Y-112600000D02*
X155834315Y-112600000D01*
X155834315Y-112600000D02*
X154634315Y-113800000D01*
X145500001Y-113200001D02*
X145500001Y-112299999D01*
X146100000Y-113800000D02*
X145500001Y-113200001D01*
D19*
X147265685Y-105400000D02*
X146700000Y-105400000D01*
X148895000Y-104025000D02*
X147520000Y-105400000D01*
X147520000Y-105400000D02*
X147265685Y-105400000D01*
X148895000Y-103305000D02*
X148895000Y-104025000D01*
X150100000Y-103370000D02*
X150165000Y-103305000D01*
X150100000Y-104365685D02*
X150100000Y-103370000D01*
X150900000Y-104600000D02*
X150334315Y-104600000D01*
X150334315Y-104600000D02*
X150100000Y-104365685D01*
X151400000Y-103340000D02*
X151435000Y-103305000D01*
X151435000Y-103835000D02*
X151435000Y-103305000D01*
X152200000Y-104600000D02*
X151435000Y-103835000D01*
X152700000Y-111100000D02*
X152705000Y-111095000D01*
X152700000Y-112400000D02*
X152700000Y-111100000D01*
X146700000Y-109200000D02*
X146700000Y-111200000D01*
X146700000Y-111200000D02*
X147900000Y-112400000D01*
X147900000Y-112400000D02*
X149600000Y-112400000D01*
X150165000Y-111835000D02*
X150165000Y-111095000D01*
X149600000Y-112400000D02*
X150165000Y-111835000D01*
X151435000Y-111095000D02*
X151435000Y-110135000D01*
X151435000Y-110135000D02*
X151400000Y-110100000D01*
X151400000Y-110100000D02*
X151400000Y-110000000D01*
X169010000Y-115265816D02*
X166116374Y-112372190D01*
X169010000Y-116120000D02*
X169010000Y-115265816D01*
X166116374Y-112372190D02*
X159777204Y-112372190D01*
X159777204Y-112372190D02*
X158827810Y-111422796D01*
X158827810Y-110977204D02*
X159427810Y-110377204D01*
X158827810Y-111422796D02*
X158827810Y-110977204D01*
X159427810Y-110377204D02*
X159427810Y-104527810D01*
X159427810Y-104527810D02*
X158600000Y-103700000D01*
X167300000Y-114500000D02*
X167300000Y-117800000D01*
X165600000Y-112800000D02*
X167300000Y-114500000D01*
X167620000Y-118120000D02*
X169010000Y-118120000D01*
X167300000Y-117800000D02*
X167620000Y-118120000D01*
X159600000Y-112800000D02*
X165600000Y-112800000D01*
X159000000Y-105765685D02*
X159000000Y-110200000D01*
X155600000Y-102365685D02*
X159000000Y-105765685D01*
X155600000Y-101800000D02*
X155600000Y-102365685D01*
X158400000Y-111600000D02*
X159600000Y-112800000D01*
X159000000Y-110200000D02*
X158400000Y-110800000D01*
X158400000Y-110800000D02*
X158400000Y-111600000D01*
X175100001Y-106001500D02*
X175100001Y-111200001D01*
X175100001Y-111200001D02*
X175900000Y-112000000D01*
X175900000Y-115230000D02*
X175010000Y-116120000D01*
X175900000Y-112000000D02*
X175900000Y-115230000D01*
X174100000Y-106001500D02*
X174100000Y-112200000D01*
X174100000Y-112200000D02*
X174800000Y-112900000D01*
D21*
G36*
X166794000Y-114709592D02*
G01*
X166794001Y-117775144D01*
X166791553Y-117800000D01*
X166801322Y-117899192D01*
X166830255Y-117994574D01*
X166837414Y-118007967D01*
X166877242Y-118082479D01*
X166940474Y-118159527D01*
X166959781Y-118175372D01*
X167244624Y-118460215D01*
X167260473Y-118479527D01*
X167337521Y-118542759D01*
X167425425Y-118589745D01*
X167498607Y-118611944D01*
X167520806Y-118618678D01*
X167530694Y-118619652D01*
X167595146Y-118626000D01*
X167595153Y-118626000D01*
X167619999Y-118628447D01*
X167644845Y-118626000D01*
X168163449Y-118626000D01*
X168244901Y-118747901D01*
X168279206Y-118782206D01*
X164127000Y-118782206D01*
X164127000Y-113306000D01*
X165390409Y-113306000D01*
X166794000Y-114709592D01*
G37*
X166794000Y-114709592D02*
X166794001Y-117775144D01*
X166791553Y-117800000D01*
X166801322Y-117899192D01*
X166830255Y-117994574D01*
X166837414Y-118007967D01*
X166877242Y-118082479D01*
X166940474Y-118159527D01*
X166959781Y-118175372D01*
X167244624Y-118460215D01*
X167260473Y-118479527D01*
X167337521Y-118542759D01*
X167425425Y-118589745D01*
X167498607Y-118611944D01*
X167520806Y-118618678D01*
X167530694Y-118619652D01*
X167595146Y-118626000D01*
X167595153Y-118626000D01*
X167619999Y-118628447D01*
X167644845Y-118626000D01*
X168163449Y-118626000D01*
X168244901Y-118747901D01*
X168279206Y-118782206D01*
X164127000Y-118782206D01*
X164127000Y-113306000D01*
X165390409Y-113306000D01*
X166794000Y-114709592D01*
G36*
X167870664Y-90918777D02*
G01*
X168531619Y-91124913D01*
X169139950Y-91455506D01*
X169672479Y-91897956D01*
X170108929Y-92435420D01*
X170432674Y-93047423D01*
X170631950Y-93712546D01*
X170701403Y-94373357D01*
X170702557Y-94378980D01*
X170702749Y-94384701D01*
X170703578Y-94390662D01*
X170746639Y-94685161D01*
X170753947Y-94714652D01*
X170759640Y-94744492D01*
X170761379Y-94750254D01*
X170911431Y-95234991D01*
X170926566Y-95270996D01*
X170941202Y-95307221D01*
X170944027Y-95312535D01*
X171185373Y-95758896D01*
X171207229Y-95791298D01*
X171228607Y-95823968D01*
X171232405Y-95828625D01*
X171232410Y-95828632D01*
X171232416Y-95828638D01*
X171555860Y-96219614D01*
X171583575Y-96247137D01*
X171610909Y-96275049D01*
X171615535Y-96278875D01*
X171615546Y-96278886D01*
X171615558Y-96278894D01*
X172008778Y-96599596D01*
X172041308Y-96621209D01*
X172073546Y-96643283D01*
X172078836Y-96646144D01*
X172078844Y-96646148D01*
X172526874Y-96884370D01*
X172563010Y-96899264D01*
X172598896Y-96914645D01*
X172604637Y-96916423D01*
X172604643Y-96916425D01*
X172604649Y-96916426D01*
X173090419Y-97063088D01*
X173128736Y-97070675D01*
X173166947Y-97078797D01*
X173172932Y-97079426D01*
X173677942Y-97128943D01*
X173677948Y-97128943D01*
X173698832Y-97131000D01*
X187118920Y-97131000D01*
X187444352Y-97162909D01*
X187737113Y-97251299D01*
X188007126Y-97394868D01*
X188244115Y-97588151D01*
X188439045Y-97823781D01*
X188584498Y-98092791D01*
X188674928Y-98384924D01*
X188709000Y-98709092D01*
X188709001Y-114567062D01*
X188677091Y-114892504D01*
X188588701Y-115185266D01*
X188445132Y-115455278D01*
X188251849Y-115692267D01*
X188016219Y-115887197D01*
X187747209Y-116032650D01*
X187455076Y-116123080D01*
X187130908Y-116157152D01*
X183363366Y-116157152D01*
X183342198Y-116155067D01*
X183257707Y-116163389D01*
X183176464Y-116188034D01*
X183171500Y-116190687D01*
X183171500Y-115528074D01*
X183174265Y-115500000D01*
X183163231Y-115387966D01*
X183130552Y-115280238D01*
X183077484Y-115180955D01*
X183023963Y-115115739D01*
X183023961Y-115115737D01*
X183006067Y-115093933D01*
X182984262Y-115076039D01*
X181281000Y-113372778D01*
X181281000Y-108899839D01*
X181283811Y-108871299D01*
X181272593Y-108757404D01*
X181239371Y-108647885D01*
X181228955Y-108628399D01*
X181185421Y-108546952D01*
X181112817Y-108458483D01*
X181090645Y-108440287D01*
X178261217Y-105610860D01*
X178243017Y-105588683D01*
X178154548Y-105516079D01*
X178053615Y-105462129D01*
X177944096Y-105428907D01*
X177858740Y-105420500D01*
X177830200Y-105417689D01*
X177813043Y-105419379D01*
X177813043Y-105226800D01*
X177805687Y-105152111D01*
X177783901Y-105080292D01*
X177748522Y-105014104D01*
X177700911Y-104956089D01*
X177642896Y-104908478D01*
X177576708Y-104873099D01*
X177504889Y-104851313D01*
X177430200Y-104843957D01*
X176769800Y-104843957D01*
X176695111Y-104851313D01*
X176623292Y-104873099D01*
X176599999Y-104885549D01*
X176576707Y-104873099D01*
X176504888Y-104851313D01*
X176430199Y-104843957D01*
X176322249Y-104845800D01*
X176226999Y-104941050D01*
X176226999Y-105874500D01*
X176246999Y-105874500D01*
X176246999Y-106128500D01*
X176226999Y-106128500D01*
X176226999Y-107061950D01*
X176322249Y-107157200D01*
X176430199Y-107159043D01*
X176504888Y-107151687D01*
X176576707Y-107129901D01*
X176599999Y-107117451D01*
X176623292Y-107129901D01*
X176695111Y-107151687D01*
X176769800Y-107159043D01*
X177430200Y-107159043D01*
X177504889Y-107151687D01*
X177576708Y-107129901D01*
X177642896Y-107094522D01*
X177700911Y-107046911D01*
X177748522Y-106988896D01*
X177783901Y-106922708D01*
X177805687Y-106850889D01*
X177810371Y-106803328D01*
X180119001Y-109111959D01*
X180119000Y-113628539D01*
X180127407Y-113713895D01*
X180160629Y-113823414D01*
X180214579Y-113924347D01*
X180287183Y-114012817D01*
X180375652Y-114085421D01*
X180378975Y-114087197D01*
X182028501Y-115736725D01*
X182028500Y-117278277D01*
X181957106Y-117349671D01*
X181932322Y-117303304D01*
X181884711Y-117245289D01*
X181826696Y-117197678D01*
X181760508Y-117162299D01*
X181688689Y-117140513D01*
X181614000Y-117133157D01*
X180406000Y-117133157D01*
X180331311Y-117140513D01*
X180259492Y-117162299D01*
X180193304Y-117197678D01*
X180135289Y-117245289D01*
X180087678Y-117303304D01*
X180052299Y-117369492D01*
X180030513Y-117441311D01*
X180023157Y-117516000D01*
X180023157Y-118724000D01*
X180028890Y-118782206D01*
X179740794Y-118782206D01*
X179775099Y-118747901D01*
X179882896Y-118586572D01*
X179957147Y-118407314D01*
X179995000Y-118217014D01*
X179995000Y-118022986D01*
X179957147Y-117832686D01*
X179882896Y-117653428D01*
X179775099Y-117492099D01*
X179637901Y-117354901D01*
X179476572Y-117247104D01*
X179297314Y-117172853D01*
X179107014Y-117135000D01*
X178912986Y-117135000D01*
X178722686Y-117172853D01*
X178543428Y-117247104D01*
X178382099Y-117354901D01*
X178244901Y-117492099D01*
X178137104Y-117653428D01*
X178062853Y-117832686D01*
X178025000Y-118022986D01*
X178025000Y-118217014D01*
X178062853Y-118407314D01*
X178137104Y-118586572D01*
X178244901Y-118747901D01*
X178279206Y-118782206D01*
X177740794Y-118782206D01*
X177775099Y-118747901D01*
X177882896Y-118586572D01*
X177957147Y-118407314D01*
X177995000Y-118217014D01*
X177995000Y-118022986D01*
X177957147Y-117832686D01*
X177882896Y-117653428D01*
X177775099Y-117492099D01*
X177637901Y-117354901D01*
X177476572Y-117247104D01*
X177297314Y-117172853D01*
X177107014Y-117135000D01*
X176912986Y-117135000D01*
X176726611Y-117172072D01*
X176548854Y-116994316D01*
X176714384Y-117064589D01*
X176904344Y-117104110D01*
X177098364Y-117105813D01*
X177288989Y-117069632D01*
X177468893Y-116996957D01*
X177484216Y-116988767D01*
X177546309Y-116835914D01*
X177010000Y-116299605D01*
X176995858Y-116313748D01*
X176816253Y-116134143D01*
X176830395Y-116120000D01*
X177189605Y-116120000D01*
X177725914Y-116656309D01*
X177878767Y-116594216D01*
X177954589Y-116415616D01*
X177994110Y-116225656D01*
X177995813Y-116031636D01*
X177994172Y-116022986D01*
X178025000Y-116022986D01*
X178025000Y-116217014D01*
X178062853Y-116407314D01*
X178137104Y-116586572D01*
X178244901Y-116747901D01*
X178382099Y-116885099D01*
X178543428Y-116992896D01*
X178722686Y-117067147D01*
X178912986Y-117105000D01*
X179107014Y-117105000D01*
X179297314Y-117067147D01*
X179476572Y-116992896D01*
X179637901Y-116885099D01*
X179775099Y-116747901D01*
X179882896Y-116586572D01*
X179957147Y-116407314D01*
X179995000Y-116217014D01*
X179995000Y-116022986D01*
X180025000Y-116022986D01*
X180025000Y-116217014D01*
X180062853Y-116407314D01*
X180137104Y-116586572D01*
X180244901Y-116747901D01*
X180382099Y-116885099D01*
X180543428Y-116992896D01*
X180722686Y-117067147D01*
X180912986Y-117105000D01*
X181107014Y-117105000D01*
X181297314Y-117067147D01*
X181476572Y-116992896D01*
X181637901Y-116885099D01*
X181775099Y-116747901D01*
X181882896Y-116586572D01*
X181957147Y-116407314D01*
X181995000Y-116217014D01*
X181995000Y-116022986D01*
X181957147Y-115832686D01*
X181882896Y-115653428D01*
X181775099Y-115492099D01*
X181637901Y-115354901D01*
X181476572Y-115247104D01*
X181297314Y-115172853D01*
X181107014Y-115135000D01*
X180912986Y-115135000D01*
X180722686Y-115172853D01*
X180543428Y-115247104D01*
X180382099Y-115354901D01*
X180244901Y-115492099D01*
X180137104Y-115653428D01*
X180062853Y-115832686D01*
X180025000Y-116022986D01*
X179995000Y-116022986D01*
X179957147Y-115832686D01*
X179882896Y-115653428D01*
X179775099Y-115492099D01*
X179637901Y-115354901D01*
X179476572Y-115247104D01*
X179297314Y-115172853D01*
X179107014Y-115135000D01*
X178912986Y-115135000D01*
X178722686Y-115172853D01*
X178543428Y-115247104D01*
X178382099Y-115354901D01*
X178244901Y-115492099D01*
X178137104Y-115653428D01*
X178062853Y-115832686D01*
X178025000Y-116022986D01*
X177994172Y-116022986D01*
X177959632Y-115841011D01*
X177886957Y-115661107D01*
X177878767Y-115645784D01*
X177725914Y-115583691D01*
X177189605Y-116120000D01*
X176830395Y-116120000D01*
X176816253Y-116105858D01*
X176995858Y-115926253D01*
X177010000Y-115940395D01*
X177546309Y-115404086D01*
X177484216Y-115251233D01*
X177305616Y-115175411D01*
X177115656Y-115135890D01*
X176921636Y-115134187D01*
X176731011Y-115170368D01*
X176551107Y-115243043D01*
X176535784Y-115251233D01*
X176473692Y-115404084D01*
X176400369Y-115330761D01*
X176397259Y-115333871D01*
X176398678Y-115329193D01*
X176406000Y-115254854D01*
X176406000Y-115254847D01*
X176408447Y-115230001D01*
X176406000Y-115205155D01*
X176406000Y-112024845D01*
X176408447Y-111999999D01*
X176406000Y-111975153D01*
X176406000Y-111975146D01*
X176399375Y-111907887D01*
X176398678Y-111900806D01*
X176388177Y-111866190D01*
X176369745Y-111805425D01*
X176322759Y-111717521D01*
X176259527Y-111640473D01*
X176240220Y-111624628D01*
X175606001Y-110990410D01*
X175606001Y-108924001D01*
X177369456Y-108924001D01*
X177369456Y-110829001D01*
X177376812Y-110903690D01*
X177398598Y-110975509D01*
X177433977Y-111041697D01*
X177481588Y-111099712D01*
X177539603Y-111147323D01*
X177605791Y-111182702D01*
X177677610Y-111204488D01*
X177752299Y-111211844D01*
X179047699Y-111211844D01*
X179122388Y-111204488D01*
X179194207Y-111182702D01*
X179260395Y-111147323D01*
X179318410Y-111099712D01*
X179366021Y-111041697D01*
X179401400Y-110975509D01*
X179423186Y-110903690D01*
X179430542Y-110829001D01*
X179430542Y-108924001D01*
X179423186Y-108849312D01*
X179401400Y-108777493D01*
X179366021Y-108711305D01*
X179318410Y-108653290D01*
X179260395Y-108605679D01*
X179194207Y-108570300D01*
X179122388Y-108548514D01*
X179047699Y-108541158D01*
X177752299Y-108541158D01*
X177677610Y-108548514D01*
X177605791Y-108570300D01*
X177539603Y-108605679D01*
X177481588Y-108653290D01*
X177433977Y-108711305D01*
X177398598Y-108777493D01*
X177376812Y-108849312D01*
X177369456Y-108924001D01*
X175606001Y-108924001D01*
X175606001Y-107120659D01*
X175623291Y-107129901D01*
X175695110Y-107151687D01*
X175769799Y-107159043D01*
X175877749Y-107157200D01*
X175972999Y-107061950D01*
X175972999Y-106128500D01*
X175952999Y-106128500D01*
X175952999Y-105874500D01*
X175972999Y-105874500D01*
X175972999Y-104941050D01*
X175877749Y-104845800D01*
X175769799Y-104843957D01*
X175695110Y-104851313D01*
X175623291Y-104873099D01*
X175600000Y-104885549D01*
X175576709Y-104873099D01*
X175504890Y-104851313D01*
X175430201Y-104843957D01*
X174769801Y-104843957D01*
X174695112Y-104851313D01*
X174623293Y-104873099D01*
X174600000Y-104885549D01*
X174576708Y-104873099D01*
X174504889Y-104851313D01*
X174430200Y-104843957D01*
X173769800Y-104843957D01*
X173695111Y-104851313D01*
X173623292Y-104873099D01*
X173557104Y-104908478D01*
X173499089Y-104956089D01*
X173451478Y-105014104D01*
X173416099Y-105080292D01*
X173394313Y-105152111D01*
X173386957Y-105226800D01*
X173386957Y-106776200D01*
X173394313Y-106850889D01*
X173416099Y-106922708D01*
X173451478Y-106988896D01*
X173499089Y-107046911D01*
X173557104Y-107094522D01*
X173594000Y-107114244D01*
X173594000Y-108570237D01*
X173522390Y-108548514D01*
X173447701Y-108541158D01*
X172152301Y-108541158D01*
X172077612Y-108548514D01*
X172005793Y-108570300D01*
X171939605Y-108605679D01*
X171881590Y-108653290D01*
X171833979Y-108711305D01*
X171798600Y-108777493D01*
X171776814Y-108849312D01*
X171769458Y-108924001D01*
X171769458Y-110829001D01*
X171776814Y-110903690D01*
X171798600Y-110975509D01*
X171833979Y-111041697D01*
X171881590Y-111099712D01*
X171939605Y-111147323D01*
X172005793Y-111182702D01*
X172077612Y-111204488D01*
X172152301Y-111211844D01*
X173447701Y-111211844D01*
X173522390Y-111204488D01*
X173594001Y-111182765D01*
X173594001Y-112175144D01*
X173591553Y-112200000D01*
X173601322Y-112299192D01*
X173630255Y-112394574D01*
X173647541Y-112426913D01*
X173677242Y-112482479D01*
X173740474Y-112559527D01*
X173759780Y-112575371D01*
X174019000Y-112834591D01*
X174019000Y-112976922D01*
X174049013Y-113127809D01*
X174107887Y-113269942D01*
X174193358Y-113397859D01*
X174302141Y-113506642D01*
X174430058Y-113592113D01*
X174572191Y-113650987D01*
X174723078Y-113681000D01*
X174876922Y-113681000D01*
X175027809Y-113650987D01*
X175169942Y-113592113D01*
X175297859Y-113506642D01*
X175394000Y-113410501D01*
X175394001Y-115020407D01*
X175250806Y-115163602D01*
X175107014Y-115135000D01*
X174912986Y-115135000D01*
X174722686Y-115172853D01*
X174543428Y-115247104D01*
X174469900Y-115296234D01*
X174469900Y-115123076D01*
X174472173Y-115099999D01*
X174463100Y-115007882D01*
X174445010Y-114948249D01*
X174436231Y-114919307D01*
X174392598Y-114837675D01*
X174333877Y-114766123D01*
X174315948Y-114751409D01*
X173948591Y-114384053D01*
X173948587Y-114384048D01*
X173048595Y-113484057D01*
X173033877Y-113466123D01*
X172962325Y-113407402D01*
X172880693Y-113363769D01*
X172792116Y-113336900D01*
X172723077Y-113330100D01*
X172700000Y-113327827D01*
X172676923Y-113330100D01*
X169625324Y-113330100D01*
X169606642Y-113302141D01*
X169497859Y-113193358D01*
X169369942Y-113107887D01*
X169227809Y-113049013D01*
X169076922Y-113019000D01*
X168923078Y-113019000D01*
X168772191Y-113049013D01*
X168630058Y-113107887D01*
X168502141Y-113193358D01*
X168393358Y-113302141D01*
X168307887Y-113430058D01*
X168249013Y-113572191D01*
X168219000Y-113723078D01*
X168219000Y-113759224D01*
X166582138Y-112122363D01*
X166606642Y-112097859D01*
X166692113Y-111969942D01*
X166750987Y-111827809D01*
X166781000Y-111676922D01*
X166781000Y-111523078D01*
X166750987Y-111372191D01*
X166692113Y-111230058D01*
X166606642Y-111102141D01*
X166497859Y-110993358D01*
X166369942Y-110907887D01*
X166227809Y-110849013D01*
X166076922Y-110819000D01*
X165923078Y-110819000D01*
X165772191Y-110849013D01*
X165630058Y-110907887D01*
X165502141Y-110993358D01*
X165393358Y-111102141D01*
X165307887Y-111230058D01*
X165249013Y-111372191D01*
X165245073Y-111392000D01*
X161276106Y-111392000D01*
X160742540Y-110858435D01*
X160726633Y-110839052D01*
X160649280Y-110775571D01*
X160561028Y-110728399D01*
X160465270Y-110699351D01*
X160397142Y-110692641D01*
X160297859Y-110593358D01*
X160169942Y-110507887D01*
X160027809Y-110449013D01*
X159931080Y-110429773D01*
X159933810Y-110402058D01*
X159933810Y-110402051D01*
X159936257Y-110377205D01*
X159933810Y-110352359D01*
X159933810Y-108924001D01*
X162869458Y-108924001D01*
X162869458Y-110829001D01*
X162876814Y-110903690D01*
X162898600Y-110975509D01*
X162933979Y-111041697D01*
X162981590Y-111099712D01*
X163039605Y-111147323D01*
X163105793Y-111182702D01*
X163177612Y-111204488D01*
X163252301Y-111211844D01*
X164547701Y-111211844D01*
X164622390Y-111204488D01*
X164694209Y-111182702D01*
X164760397Y-111147323D01*
X164818412Y-111099712D01*
X164866023Y-111041697D01*
X164901402Y-110975509D01*
X164923188Y-110903690D01*
X164930544Y-110829001D01*
X164930544Y-108924001D01*
X168469456Y-108924001D01*
X168469456Y-110829001D01*
X168476812Y-110903690D01*
X168498598Y-110975509D01*
X168533977Y-111041697D01*
X168581588Y-111099712D01*
X168639603Y-111147323D01*
X168705791Y-111182702D01*
X168777610Y-111204488D01*
X168852299Y-111211844D01*
X170147699Y-111211844D01*
X170222388Y-111204488D01*
X170294207Y-111182702D01*
X170360395Y-111147323D01*
X170418410Y-111099712D01*
X170466021Y-111041697D01*
X170501400Y-110975509D01*
X170523186Y-110903690D01*
X170530542Y-110829001D01*
X170530542Y-108924001D01*
X170523186Y-108849312D01*
X170501400Y-108777493D01*
X170466021Y-108711305D01*
X170418410Y-108653290D01*
X170360395Y-108605679D01*
X170294207Y-108570300D01*
X170222388Y-108548514D01*
X170147699Y-108541158D01*
X168852299Y-108541158D01*
X168777610Y-108548514D01*
X168705791Y-108570300D01*
X168639603Y-108605679D01*
X168581588Y-108653290D01*
X168533977Y-108711305D01*
X168498598Y-108777493D01*
X168476812Y-108849312D01*
X168469456Y-108924001D01*
X164930544Y-108924001D01*
X164923188Y-108849312D01*
X164901402Y-108777493D01*
X164866023Y-108711305D01*
X164818412Y-108653290D01*
X164760397Y-108605679D01*
X164694209Y-108570300D01*
X164622390Y-108548514D01*
X164547701Y-108541158D01*
X163252301Y-108541158D01*
X163177612Y-108548514D01*
X163105793Y-108570300D01*
X163039605Y-108605679D01*
X162981590Y-108653290D01*
X162933979Y-108711305D01*
X162898600Y-108777493D01*
X162876814Y-108849312D01*
X162869458Y-108924001D01*
X159933810Y-108924001D01*
X159933810Y-108528311D01*
X159957141Y-108551642D01*
X160085058Y-108637113D01*
X160227191Y-108695987D01*
X160378078Y-108726000D01*
X160531922Y-108726000D01*
X160682809Y-108695987D01*
X160824942Y-108637113D01*
X160952859Y-108551642D01*
X161053501Y-108451000D01*
X165230154Y-108451000D01*
X165255000Y-108453447D01*
X165279846Y-108451000D01*
X165279854Y-108451000D01*
X165354193Y-108443678D01*
X165449575Y-108414745D01*
X165537479Y-108367759D01*
X165614527Y-108304527D01*
X165630376Y-108285215D01*
X166540220Y-107375372D01*
X166559527Y-107359527D01*
X166622759Y-107282479D01*
X166669745Y-107194575D01*
X166691812Y-107121828D01*
X166700000Y-107117451D01*
X166723291Y-107129901D01*
X166795110Y-107151687D01*
X166869799Y-107159043D01*
X167530199Y-107159043D01*
X167604888Y-107151687D01*
X167676707Y-107129901D01*
X167699999Y-107117451D01*
X167723292Y-107129901D01*
X167795111Y-107151687D01*
X167869800Y-107159043D01*
X167977750Y-107157200D01*
X168073000Y-107061950D01*
X168073000Y-106128500D01*
X168327000Y-106128500D01*
X168327000Y-107061950D01*
X168422250Y-107157200D01*
X168530200Y-107159043D01*
X168604889Y-107151687D01*
X168676708Y-107129901D01*
X168742896Y-107094522D01*
X168800911Y-107046911D01*
X168848522Y-106988896D01*
X168883901Y-106922708D01*
X168905687Y-106850889D01*
X168913043Y-106776200D01*
X168911200Y-106223750D01*
X168815950Y-106128500D01*
X168327000Y-106128500D01*
X168073000Y-106128500D01*
X168053000Y-106128500D01*
X168053000Y-105874500D01*
X168073000Y-105874500D01*
X168073000Y-105854500D01*
X168327000Y-105854500D01*
X168327000Y-105874500D01*
X168815950Y-105874500D01*
X168911200Y-105779250D01*
X168913043Y-105226800D01*
X168905687Y-105152111D01*
X168883901Y-105080292D01*
X168848522Y-105014104D01*
X168800911Y-104956089D01*
X168742896Y-104908478D01*
X168686505Y-104878336D01*
X168692113Y-104869942D01*
X168750987Y-104727809D01*
X168781000Y-104576922D01*
X168781000Y-104423078D01*
X168750987Y-104272191D01*
X168692113Y-104130058D01*
X168606642Y-104002141D01*
X168571500Y-103966999D01*
X168571500Y-103828074D01*
X168574265Y-103800000D01*
X168563231Y-103687966D01*
X168530552Y-103580238D01*
X168477484Y-103480955D01*
X168472985Y-103475473D01*
X168406067Y-103393933D01*
X168384257Y-103376034D01*
X167923970Y-102915748D01*
X167906067Y-102893933D01*
X167819045Y-102822516D01*
X167719762Y-102769448D01*
X167612034Y-102736769D01*
X167528074Y-102728500D01*
X167500000Y-102725735D01*
X167471926Y-102728500D01*
X160736723Y-102728500D01*
X160481000Y-102472778D01*
X160481000Y-102423078D01*
X160450987Y-102272191D01*
X160392113Y-102130058D01*
X160306642Y-102002141D01*
X160197859Y-101893358D01*
X160069942Y-101807887D01*
X159927809Y-101749013D01*
X159776922Y-101719000D01*
X159623078Y-101719000D01*
X159472191Y-101749013D01*
X159330058Y-101807887D01*
X159202141Y-101893358D01*
X159093358Y-102002141D01*
X159007887Y-102130058D01*
X158949013Y-102272191D01*
X158919000Y-102423078D01*
X158919000Y-102576922D01*
X158949013Y-102727809D01*
X159007887Y-102869942D01*
X159093358Y-102997859D01*
X159202141Y-103106642D01*
X159330058Y-103192113D01*
X159472191Y-103250987D01*
X159623078Y-103281000D01*
X159672778Y-103281000D01*
X160076034Y-103684257D01*
X160093933Y-103706067D01*
X160165657Y-103764929D01*
X160180955Y-103777484D01*
X160280238Y-103830552D01*
X160387966Y-103863231D01*
X160500000Y-103874265D01*
X160528074Y-103871500D01*
X165952167Y-103871500D01*
X165864484Y-103959183D01*
X165841220Y-103994000D01*
X165424854Y-103994000D01*
X165400000Y-103991552D01*
X165322422Y-103999193D01*
X165300807Y-104001322D01*
X165205425Y-104030255D01*
X165117521Y-104077241D01*
X165040473Y-104140473D01*
X165024624Y-104159785D01*
X164859781Y-104324628D01*
X164840474Y-104340473D01*
X164777242Y-104417521D01*
X164754494Y-104460080D01*
X164730255Y-104505426D01*
X164701322Y-104600808D01*
X164691553Y-104700000D01*
X164694001Y-104724856D01*
X164694001Y-104888756D01*
X164657104Y-104908478D01*
X164599089Y-104956089D01*
X164551478Y-105014104D01*
X164516099Y-105080292D01*
X164494313Y-105152111D01*
X164486957Y-105226800D01*
X164486957Y-106097452D01*
X164390409Y-106194000D01*
X160998501Y-106194000D01*
X160897859Y-106093358D01*
X160769942Y-106007887D01*
X160627809Y-105949013D01*
X160476922Y-105919000D01*
X160323078Y-105919000D01*
X160172191Y-105949013D01*
X160030058Y-106007887D01*
X159933810Y-106072198D01*
X159933810Y-104552655D01*
X159936257Y-104527809D01*
X159933810Y-104502963D01*
X159933810Y-104502956D01*
X159926488Y-104428617D01*
X159925947Y-104426831D01*
X159897555Y-104333235D01*
X159889156Y-104317522D01*
X159850569Y-104245331D01*
X159787337Y-104168283D01*
X159768030Y-104152438D01*
X159381000Y-103765408D01*
X159381000Y-103623078D01*
X159350987Y-103472191D01*
X159292113Y-103330058D01*
X159206642Y-103202141D01*
X159097859Y-103093358D01*
X158969942Y-103007887D01*
X158827809Y-102949013D01*
X158676922Y-102919000D01*
X158523078Y-102919000D01*
X158372191Y-102949013D01*
X158230058Y-103007887D01*
X158102141Y-103093358D01*
X157993358Y-103202141D01*
X157907887Y-103330058D01*
X157849013Y-103472191D01*
X157819000Y-103623078D01*
X157819000Y-103776922D01*
X157841886Y-103891980D01*
X156223114Y-102273207D01*
X156250000Y-102232969D01*
X156293358Y-102297859D01*
X156402141Y-102406642D01*
X156530058Y-102492113D01*
X156672191Y-102550987D01*
X156823078Y-102581000D01*
X156976922Y-102581000D01*
X157127809Y-102550987D01*
X157269942Y-102492113D01*
X157352734Y-102436793D01*
X157407887Y-102569942D01*
X157493358Y-102697859D01*
X157602141Y-102806642D01*
X157730058Y-102892113D01*
X157872191Y-102950987D01*
X158023078Y-102981000D01*
X158176922Y-102981000D01*
X158327809Y-102950987D01*
X158469942Y-102892113D01*
X158597859Y-102806642D01*
X158706642Y-102697859D01*
X158792113Y-102569942D01*
X158850987Y-102427809D01*
X158881000Y-102276922D01*
X158881000Y-102123078D01*
X158850987Y-101972191D01*
X158792113Y-101830058D01*
X158706642Y-101702141D01*
X158606000Y-101601499D01*
X158606000Y-99809591D01*
X159681782Y-98733810D01*
X179752534Y-98733810D01*
X185258943Y-104240220D01*
X185274788Y-104259527D01*
X185351836Y-104322759D01*
X185439740Y-104369745D01*
X185535122Y-104398678D01*
X185600629Y-104405130D01*
X185702141Y-104506642D01*
X185830058Y-104592113D01*
X185972191Y-104650987D01*
X186123078Y-104681000D01*
X186276922Y-104681000D01*
X186427809Y-104650987D01*
X186569942Y-104592113D01*
X186697859Y-104506642D01*
X186806642Y-104397859D01*
X186892113Y-104269942D01*
X186950987Y-104127809D01*
X186981000Y-103976922D01*
X186981000Y-103823078D01*
X186950987Y-103672191D01*
X186892113Y-103530058D01*
X186806642Y-103402141D01*
X186697859Y-103293358D01*
X186569942Y-103207887D01*
X186550901Y-103200000D01*
X186569942Y-103192113D01*
X186697859Y-103106642D01*
X186806642Y-102997859D01*
X186892113Y-102869942D01*
X186950987Y-102727809D01*
X186981000Y-102576922D01*
X186981000Y-102423078D01*
X186950987Y-102272191D01*
X186892113Y-102130058D01*
X186806642Y-102002141D01*
X186697859Y-101893358D01*
X186569942Y-101807887D01*
X186427809Y-101749013D01*
X186276922Y-101719000D01*
X186134592Y-101719000D01*
X181875376Y-97459785D01*
X181859527Y-97440473D01*
X181782479Y-97377241D01*
X181694575Y-97330255D01*
X181599193Y-97301322D01*
X181524854Y-97294000D01*
X181524846Y-97294000D01*
X181500000Y-97291553D01*
X181475154Y-97294000D01*
X157724854Y-97294000D01*
X157700000Y-97291552D01*
X157675146Y-97294000D01*
X157600807Y-97301322D01*
X157505425Y-97330255D01*
X157417521Y-97377241D01*
X157340473Y-97440473D01*
X157324628Y-97459780D01*
X156559780Y-98224629D01*
X156540474Y-98240473D01*
X156477242Y-98317521D01*
X156456249Y-98356796D01*
X156430255Y-98405426D01*
X156401322Y-98500808D01*
X156391553Y-98600000D01*
X156394001Y-98624856D01*
X156394000Y-101201499D01*
X156293358Y-101302141D01*
X156250000Y-101367031D01*
X156206642Y-101302141D01*
X156097859Y-101193358D01*
X155969942Y-101107887D01*
X155827809Y-101049013D01*
X155676922Y-101019000D01*
X155523078Y-101019000D01*
X155372191Y-101049013D01*
X155230058Y-101107887D01*
X155102141Y-101193358D01*
X154993358Y-101302141D01*
X154950000Y-101367031D01*
X154906642Y-101302141D01*
X154797859Y-101193358D01*
X154669942Y-101107887D01*
X154527809Y-101049013D01*
X154376922Y-101019000D01*
X154223078Y-101019000D01*
X154072191Y-101049013D01*
X153930058Y-101107887D01*
X153802141Y-101193358D01*
X153693358Y-101302141D01*
X153607887Y-101430058D01*
X153549013Y-101572191D01*
X153519000Y-101723078D01*
X153519000Y-101876922D01*
X153549013Y-102027809D01*
X153607887Y-102169942D01*
X153693358Y-102297859D01*
X153802141Y-102406642D01*
X153930058Y-102492113D01*
X154072191Y-102550987D01*
X154223078Y-102581000D01*
X154376922Y-102581000D01*
X154527809Y-102550987D01*
X154669942Y-102492113D01*
X154797859Y-102406642D01*
X154906642Y-102297859D01*
X154950000Y-102232969D01*
X154993358Y-102297859D01*
X155094871Y-102399372D01*
X155101322Y-102464877D01*
X155130255Y-102560259D01*
X155135431Y-102569942D01*
X155177242Y-102648164D01*
X155240474Y-102725212D01*
X155259781Y-102741057D01*
X158494000Y-105975277D01*
X158494001Y-109990407D01*
X158059785Y-110424624D01*
X158040473Y-110440473D01*
X157977241Y-110517521D01*
X157930255Y-110605426D01*
X157901322Y-110700808D01*
X157894000Y-110775147D01*
X157894000Y-110775154D01*
X157891553Y-110800000D01*
X157894000Y-110824847D01*
X157894001Y-111575144D01*
X157891553Y-111600000D01*
X157901322Y-111699192D01*
X157930255Y-111794574D01*
X157945491Y-111823078D01*
X157977242Y-111882479D01*
X158040474Y-111959527D01*
X158059780Y-111975371D01*
X159195426Y-113111018D01*
X156998961Y-113105540D01*
X157006642Y-113097859D01*
X157092113Y-112969942D01*
X157150987Y-112827809D01*
X157181000Y-112676922D01*
X157181000Y-112523078D01*
X157150987Y-112372191D01*
X157092113Y-112230058D01*
X157006642Y-112102141D01*
X156897859Y-111993358D01*
X156769942Y-111907887D01*
X156627809Y-111849013D01*
X156476922Y-111819000D01*
X156323078Y-111819000D01*
X156172191Y-111849013D01*
X156030058Y-111907887D01*
X155902141Y-111993358D01*
X155793358Y-112102141D01*
X155772101Y-112133955D01*
X155742197Y-112136900D01*
X155710367Y-112146556D01*
X155653622Y-112163769D01*
X155571990Y-112207402D01*
X155500438Y-112266123D01*
X155485724Y-112284052D01*
X154670044Y-113099732D01*
X153061233Y-113095720D01*
X153069942Y-113092113D01*
X153197859Y-113006642D01*
X153306642Y-112897859D01*
X153392113Y-112769942D01*
X153450987Y-112627809D01*
X153481000Y-112476922D01*
X153481000Y-112323078D01*
X153450987Y-112172191D01*
X153392113Y-112030058D01*
X153306642Y-111902141D01*
X153215770Y-111811269D01*
X153243322Y-111777696D01*
X153278701Y-111711508D01*
X153300487Y-111639689D01*
X153307843Y-111565000D01*
X153307843Y-110625000D01*
X153300487Y-110550311D01*
X153278701Y-110478492D01*
X153243322Y-110412304D01*
X153195711Y-110354289D01*
X153137696Y-110306678D01*
X153071508Y-110271299D01*
X152999689Y-110249513D01*
X152925000Y-110242157D01*
X152485000Y-110242157D01*
X152410311Y-110249513D01*
X152338492Y-110271299D01*
X152272304Y-110306678D01*
X152214289Y-110354289D01*
X152166678Y-110412304D01*
X152131299Y-110478492D01*
X152109513Y-110550311D01*
X152102157Y-110625000D01*
X152102157Y-111565000D01*
X152109513Y-111639689D01*
X152131299Y-111711508D01*
X152166678Y-111777696D01*
X152189723Y-111805776D01*
X152093358Y-111902141D01*
X152007887Y-112030058D01*
X151949013Y-112172191D01*
X151919000Y-112323078D01*
X151919000Y-112476922D01*
X151949013Y-112627809D01*
X152007887Y-112769942D01*
X152093358Y-112897859D01*
X152202141Y-113006642D01*
X152330058Y-113092113D01*
X152334391Y-113093908D01*
X147228881Y-113081176D01*
X147250987Y-113027809D01*
X147281000Y-112876922D01*
X147281000Y-112723078D01*
X147250987Y-112572191D01*
X147192113Y-112430058D01*
X147147101Y-112362693D01*
X147524628Y-112740220D01*
X147540473Y-112759527D01*
X147617521Y-112822759D01*
X147705425Y-112869745D01*
X147778607Y-112891944D01*
X147800806Y-112898678D01*
X147810694Y-112899652D01*
X147875146Y-112906000D01*
X147875153Y-112906000D01*
X147899999Y-112908447D01*
X147924845Y-112906000D01*
X149575154Y-112906000D01*
X149600000Y-112908447D01*
X149624846Y-112906000D01*
X149624854Y-112906000D01*
X149699193Y-112898678D01*
X149794575Y-112869745D01*
X149882479Y-112822759D01*
X149959527Y-112759527D01*
X149975376Y-112740215D01*
X150505220Y-112210372D01*
X150524527Y-112194527D01*
X150587759Y-112117479D01*
X150634745Y-112029575D01*
X150663678Y-111934193D01*
X150670376Y-111866190D01*
X150673448Y-111835000D01*
X150671610Y-111816338D01*
X150703322Y-111777696D01*
X150738701Y-111711508D01*
X150760487Y-111639689D01*
X150767843Y-111565000D01*
X150767843Y-110625000D01*
X150760487Y-110550311D01*
X150738701Y-110478492D01*
X150703322Y-110412304D01*
X150655711Y-110354289D01*
X150597696Y-110306678D01*
X150531508Y-110271299D01*
X150459689Y-110249513D01*
X150385000Y-110242157D01*
X149945000Y-110242157D01*
X149870311Y-110249513D01*
X149798492Y-110271299D01*
X149732304Y-110306678D01*
X149674289Y-110354289D01*
X149626678Y-110412304D01*
X149591299Y-110478492D01*
X149569513Y-110550311D01*
X149562157Y-110625000D01*
X149562157Y-111565000D01*
X149569513Y-111639689D01*
X149587017Y-111697392D01*
X149390409Y-111894000D01*
X149307719Y-111894000D01*
X149327696Y-111883322D01*
X149385711Y-111835711D01*
X149433322Y-111777696D01*
X149468701Y-111711508D01*
X149490487Y-111639689D01*
X149497843Y-111565000D01*
X149496000Y-111317250D01*
X149400750Y-111222000D01*
X148988000Y-111222000D01*
X148988000Y-111242000D01*
X148802000Y-111242000D01*
X148802000Y-111222000D01*
X148389250Y-111222000D01*
X148294000Y-111317250D01*
X148292157Y-111565000D01*
X148299513Y-111639689D01*
X148321299Y-111711508D01*
X148356678Y-111777696D01*
X148404289Y-111835711D01*
X148462304Y-111883322D01*
X148482281Y-111894000D01*
X148109592Y-111894000D01*
X147206000Y-110990409D01*
X147206000Y-110625000D01*
X148292157Y-110625000D01*
X148294000Y-110872750D01*
X148389250Y-110968000D01*
X148802000Y-110968000D01*
X148802000Y-110339250D01*
X148988000Y-110339250D01*
X148988000Y-110968000D01*
X149400750Y-110968000D01*
X149496000Y-110872750D01*
X149497843Y-110625000D01*
X149490487Y-110550311D01*
X149468701Y-110478492D01*
X149433322Y-110412304D01*
X149385711Y-110354289D01*
X149327696Y-110306678D01*
X149261508Y-110271299D01*
X149189689Y-110249513D01*
X149115000Y-110242157D01*
X149083250Y-110244000D01*
X148988000Y-110339250D01*
X148802000Y-110339250D01*
X148706750Y-110244000D01*
X148675000Y-110242157D01*
X148600311Y-110249513D01*
X148528492Y-110271299D01*
X148462304Y-110306678D01*
X148404289Y-110354289D01*
X148356678Y-110412304D01*
X148321299Y-110478492D01*
X148299513Y-110550311D01*
X148292157Y-110625000D01*
X147206000Y-110625000D01*
X147206000Y-109798501D01*
X147306642Y-109697859D01*
X147392113Y-109569942D01*
X147450987Y-109427809D01*
X147481000Y-109276922D01*
X147481000Y-109123078D01*
X147450987Y-108972191D01*
X147392113Y-108830058D01*
X147306642Y-108702141D01*
X147197859Y-108593358D01*
X147069942Y-108507887D01*
X146927809Y-108449013D01*
X146776922Y-108419000D01*
X146623078Y-108419000D01*
X146472191Y-108449013D01*
X146469900Y-108449962D01*
X146469900Y-106150038D01*
X146472191Y-106150987D01*
X146623078Y-106181000D01*
X146776922Y-106181000D01*
X146927809Y-106150987D01*
X147069942Y-106092113D01*
X147197859Y-106006642D01*
X147298501Y-105906000D01*
X147495154Y-105906000D01*
X147520000Y-105908447D01*
X147544846Y-105906000D01*
X147544854Y-105906000D01*
X147619193Y-105898678D01*
X147714575Y-105869745D01*
X147802479Y-105822759D01*
X147879527Y-105759527D01*
X147895376Y-105740215D01*
X148312605Y-105322986D01*
X148296299Y-105353492D01*
X148274513Y-105425311D01*
X148267157Y-105500000D01*
X148267157Y-108900000D01*
X148274513Y-108974689D01*
X148296299Y-109046508D01*
X148331678Y-109112696D01*
X148379289Y-109170711D01*
X148437304Y-109218322D01*
X148503492Y-109253701D01*
X148575311Y-109275487D01*
X148650000Y-109282843D01*
X151090519Y-109282843D01*
X151030058Y-109307887D01*
X150902141Y-109393358D01*
X150793358Y-109502141D01*
X150707887Y-109630058D01*
X150649013Y-109772191D01*
X150619000Y-109923078D01*
X150619000Y-110076922D01*
X150649013Y-110227809D01*
X150707887Y-110369942D01*
X150793358Y-110497859D01*
X150840979Y-110545480D01*
X150839513Y-110550311D01*
X150832157Y-110625000D01*
X150832157Y-111565000D01*
X150839513Y-111639689D01*
X150861299Y-111711508D01*
X150896678Y-111777696D01*
X150944289Y-111835711D01*
X151002304Y-111883322D01*
X151068492Y-111918701D01*
X151140311Y-111940487D01*
X151215000Y-111947843D01*
X151655000Y-111947843D01*
X151729689Y-111940487D01*
X151801508Y-111918701D01*
X151867696Y-111883322D01*
X151925711Y-111835711D01*
X151973322Y-111777696D01*
X152008701Y-111711508D01*
X152030487Y-111639689D01*
X152037843Y-111565000D01*
X152037843Y-110625000D01*
X152030487Y-110550311D01*
X152012099Y-110489693D01*
X152092113Y-110369942D01*
X152150987Y-110227809D01*
X152181000Y-110076922D01*
X152181000Y-109923078D01*
X152150987Y-109772191D01*
X152092113Y-109630058D01*
X152055325Y-109575000D01*
X154792157Y-109575000D01*
X154799513Y-109649689D01*
X154821299Y-109721508D01*
X154856678Y-109787696D01*
X154904289Y-109845711D01*
X154962304Y-109893322D01*
X155028492Y-109928701D01*
X155100311Y-109950487D01*
X155175000Y-109957843D01*
X155390250Y-109956000D01*
X155485500Y-109860750D01*
X155485500Y-109227000D01*
X154889250Y-109227000D01*
X154794000Y-109322250D01*
X154792157Y-109575000D01*
X152055325Y-109575000D01*
X152006642Y-109502141D01*
X151897859Y-109393358D01*
X151769942Y-109307887D01*
X151709481Y-109282843D01*
X152950000Y-109282843D01*
X153024689Y-109275487D01*
X153096508Y-109253701D01*
X153162696Y-109218322D01*
X153220711Y-109170711D01*
X153268322Y-109112696D01*
X153303701Y-109046508D01*
X153325487Y-108974689D01*
X153332843Y-108900000D01*
X153332843Y-108625000D01*
X154792157Y-108625000D01*
X154794000Y-108877750D01*
X154889250Y-108973000D01*
X155485500Y-108973000D01*
X155485500Y-108339250D01*
X155739500Y-108339250D01*
X155739500Y-108973000D01*
X155759500Y-108973000D01*
X155759500Y-109227000D01*
X155739500Y-109227000D01*
X155739500Y-109860750D01*
X155834750Y-109956000D01*
X156050000Y-109957843D01*
X156124689Y-109950487D01*
X156196508Y-109928701D01*
X156262696Y-109893322D01*
X156320711Y-109845711D01*
X156368322Y-109787696D01*
X156403701Y-109721508D01*
X156425487Y-109649689D01*
X156428794Y-109616110D01*
X156468544Y-109690477D01*
X156541639Y-109779544D01*
X156507887Y-109830058D01*
X156449013Y-109972191D01*
X156419000Y-110123078D01*
X156419000Y-110276922D01*
X156449013Y-110427809D01*
X156507887Y-110569942D01*
X156593358Y-110697859D01*
X156702141Y-110806642D01*
X156830058Y-110892113D01*
X156972191Y-110950987D01*
X157123078Y-110981000D01*
X157276922Y-110981000D01*
X157427809Y-110950987D01*
X157569942Y-110892113D01*
X157697859Y-110806642D01*
X157806642Y-110697859D01*
X157892113Y-110569942D01*
X157950987Y-110427809D01*
X157981000Y-110276922D01*
X157981000Y-110123078D01*
X157950987Y-109972191D01*
X157892113Y-109830058D01*
X157847141Y-109762752D01*
X157906456Y-109690477D01*
X157962049Y-109586470D01*
X157996284Y-109473615D01*
X158007843Y-109356250D01*
X158007843Y-108843750D01*
X157996284Y-108726385D01*
X157962049Y-108613530D01*
X157906456Y-108509523D01*
X157831640Y-108418360D01*
X157740477Y-108343544D01*
X157636470Y-108287951D01*
X157523615Y-108253716D01*
X157406250Y-108242157D01*
X156968750Y-108242157D01*
X156851385Y-108253716D01*
X156738530Y-108287951D01*
X156634523Y-108343544D01*
X156543360Y-108418360D01*
X156468544Y-108509523D01*
X156428794Y-108583890D01*
X156425487Y-108550311D01*
X156403701Y-108478492D01*
X156368322Y-108412304D01*
X156320711Y-108354289D01*
X156262696Y-108306678D01*
X156196508Y-108271299D01*
X156124689Y-108249513D01*
X156050000Y-108242157D01*
X155834750Y-108244000D01*
X155739500Y-108339250D01*
X155485500Y-108339250D01*
X155390250Y-108244000D01*
X155175000Y-108242157D01*
X155100311Y-108249513D01*
X155028492Y-108271299D01*
X154962304Y-108306678D01*
X154904289Y-108354289D01*
X154856678Y-108412304D01*
X154821299Y-108478492D01*
X154799513Y-108550311D01*
X154792157Y-108625000D01*
X153332843Y-108625000D01*
X153332843Y-105500000D01*
X153325487Y-105425311D01*
X153303701Y-105353492D01*
X153268322Y-105287304D01*
X153220711Y-105229289D01*
X153162696Y-105181678D01*
X153096508Y-105146299D01*
X153024689Y-105124513D01*
X152950000Y-105117157D01*
X152787344Y-105117157D01*
X152806642Y-105097859D01*
X152892113Y-104969942D01*
X152950987Y-104827809D01*
X152981000Y-104676922D01*
X152981000Y-104523078D01*
X152950987Y-104372191D01*
X152892113Y-104230058D01*
X152843861Y-104157843D01*
X152925000Y-104157843D01*
X152999689Y-104150487D01*
X153071508Y-104128701D01*
X153137696Y-104093322D01*
X153195711Y-104045711D01*
X153243322Y-103987696D01*
X153278701Y-103921508D01*
X153292354Y-103876500D01*
X154468278Y-103876500D01*
X155619000Y-105027223D01*
X155619000Y-105076922D01*
X155649013Y-105227809D01*
X155707887Y-105369942D01*
X155793358Y-105497859D01*
X155902141Y-105606642D01*
X156030058Y-105692113D01*
X156172191Y-105750987D01*
X156323078Y-105781000D01*
X156476922Y-105781000D01*
X156627809Y-105750987D01*
X156769942Y-105692113D01*
X156897859Y-105606642D01*
X157006642Y-105497859D01*
X157092113Y-105369942D01*
X157150987Y-105227809D01*
X157181000Y-105076922D01*
X157181000Y-104923078D01*
X157150987Y-104772191D01*
X157092113Y-104630058D01*
X157006642Y-104502141D01*
X156897859Y-104393358D01*
X156769942Y-104307887D01*
X156627809Y-104249013D01*
X156476922Y-104219000D01*
X156427223Y-104219000D01*
X155128970Y-102920748D01*
X155111067Y-102898933D01*
X155024045Y-102827516D01*
X154924762Y-102774448D01*
X154817034Y-102741769D01*
X154749722Y-102735140D01*
X154705000Y-102730735D01*
X154676926Y-102733500D01*
X153292354Y-102733500D01*
X153278701Y-102688492D01*
X153243322Y-102622304D01*
X153213368Y-102585804D01*
X153213447Y-102584999D01*
X153211000Y-102560153D01*
X153211000Y-102560146D01*
X153203678Y-102485807D01*
X153202669Y-102482479D01*
X153186085Y-102427809D01*
X153174745Y-102390425D01*
X153127759Y-102302521D01*
X153064527Y-102225473D01*
X153045220Y-102209628D01*
X151706000Y-100870409D01*
X151706000Y-99498501D01*
X151806642Y-99397859D01*
X151892113Y-99269942D01*
X151950987Y-99127809D01*
X151981000Y-98976922D01*
X151981000Y-98823078D01*
X151950987Y-98672191D01*
X151892113Y-98530058D01*
X151806642Y-98402141D01*
X151697859Y-98293358D01*
X151569942Y-98207887D01*
X151427809Y-98149013D01*
X151276922Y-98119000D01*
X151123078Y-98119000D01*
X150972191Y-98149013D01*
X150830058Y-98207887D01*
X150702141Y-98293358D01*
X150593358Y-98402141D01*
X150507887Y-98530058D01*
X150449013Y-98672191D01*
X150419000Y-98823078D01*
X150419000Y-98976922D01*
X150449013Y-99127809D01*
X150507887Y-99269942D01*
X150593358Y-99397859D01*
X150694001Y-99498502D01*
X150694000Y-101055154D01*
X150691553Y-101080000D01*
X150694000Y-101104846D01*
X150694000Y-101104853D01*
X150701322Y-101179192D01*
X150730255Y-101274574D01*
X150777241Y-101362479D01*
X150840473Y-101439527D01*
X150859785Y-101455376D01*
X152122362Y-102717954D01*
X152109513Y-102760311D01*
X152102157Y-102835000D01*
X152102157Y-103775000D01*
X152103421Y-103787829D01*
X152037843Y-103722252D01*
X152037843Y-102835000D01*
X152030487Y-102760311D01*
X152008701Y-102688492D01*
X151973322Y-102622304D01*
X151925711Y-102564289D01*
X151867696Y-102516678D01*
X151801508Y-102481299D01*
X151729689Y-102459513D01*
X151655000Y-102452157D01*
X151215000Y-102452157D01*
X151140311Y-102459513D01*
X151068492Y-102481299D01*
X151002304Y-102516678D01*
X150944289Y-102564289D01*
X150896678Y-102622304D01*
X150861299Y-102688492D01*
X150839513Y-102760311D01*
X150832157Y-102835000D01*
X150832157Y-103775000D01*
X150836490Y-103819000D01*
X150823078Y-103819000D01*
X150762319Y-103831086D01*
X150767843Y-103775000D01*
X150767843Y-102835000D01*
X150760487Y-102760311D01*
X150738701Y-102688492D01*
X150703322Y-102622304D01*
X150655711Y-102564289D01*
X150597696Y-102516678D01*
X150531508Y-102481299D01*
X150459689Y-102459513D01*
X150385000Y-102452157D01*
X149945000Y-102452157D01*
X149870311Y-102459513D01*
X149798492Y-102481299D01*
X149732304Y-102516678D01*
X149674289Y-102564289D01*
X149626678Y-102622304D01*
X149591299Y-102688492D01*
X149569513Y-102760311D01*
X149562157Y-102835000D01*
X149562157Y-103775000D01*
X149569513Y-103849689D01*
X149591299Y-103921508D01*
X149594000Y-103926562D01*
X149594000Y-104340838D01*
X149591553Y-104365685D01*
X149594000Y-104390531D01*
X149594000Y-104390538D01*
X149601322Y-104464877D01*
X149630255Y-104560259D01*
X149677241Y-104648164D01*
X149740473Y-104725212D01*
X149759785Y-104741061D01*
X149958939Y-104940215D01*
X149974788Y-104959527D01*
X150051836Y-105022759D01*
X150139740Y-105069745D01*
X150209721Y-105090973D01*
X150235121Y-105098678D01*
X150245009Y-105099652D01*
X150300629Y-105105130D01*
X150312656Y-105117157D01*
X148650000Y-105117157D01*
X148575311Y-105124513D01*
X148503492Y-105146299D01*
X148472987Y-105162605D01*
X149235220Y-104400372D01*
X149254527Y-104384527D01*
X149317759Y-104307479D01*
X149364745Y-104219575D01*
X149393678Y-104124193D01*
X149401000Y-104049854D01*
X149403448Y-104025000D01*
X149403369Y-104024195D01*
X149433322Y-103987696D01*
X149468701Y-103921508D01*
X149490487Y-103849689D01*
X149497843Y-103775000D01*
X149497843Y-102835000D01*
X149490487Y-102760311D01*
X149468701Y-102688492D01*
X149433322Y-102622304D01*
X149385711Y-102564289D01*
X149327696Y-102516678D01*
X149261508Y-102481299D01*
X149189689Y-102459513D01*
X149115000Y-102452157D01*
X148675000Y-102452157D01*
X148600311Y-102459513D01*
X148528492Y-102481299D01*
X148462304Y-102516678D01*
X148404289Y-102564289D01*
X148356678Y-102622304D01*
X148321299Y-102688492D01*
X148299513Y-102760311D01*
X148292157Y-102835000D01*
X148292157Y-103775000D01*
X148299513Y-103849689D01*
X148312362Y-103892046D01*
X147310409Y-104894000D01*
X147298501Y-104894000D01*
X147197859Y-104793358D01*
X147069942Y-104707887D01*
X146927809Y-104649013D01*
X146920700Y-104647599D01*
X146933877Y-104636785D01*
X146992598Y-104565233D01*
X147036231Y-104483601D01*
X147041794Y-104465261D01*
X147063100Y-104395026D01*
X147072173Y-104302909D01*
X147069900Y-104279832D01*
X147069900Y-101988076D01*
X147072173Y-101964999D01*
X147063100Y-101872882D01*
X147050109Y-101830058D01*
X147036231Y-101784307D01*
X146992598Y-101702675D01*
X146933877Y-101631123D01*
X146915948Y-101616409D01*
X146603912Y-101304374D01*
X146609500Y-101276282D01*
X146609500Y-101123718D01*
X146579736Y-100974087D01*
X146521353Y-100833137D01*
X146436593Y-100706285D01*
X146328715Y-100598407D01*
X146278718Y-100565000D01*
X146328715Y-100531593D01*
X146436593Y-100423715D01*
X146521353Y-100296863D01*
X146579736Y-100155913D01*
X146609500Y-100006282D01*
X146609500Y-99853718D01*
X146579736Y-99704087D01*
X146521353Y-99563137D01*
X146479014Y-99499773D01*
X146631178Y-99436744D01*
X146774736Y-99340822D01*
X146896822Y-99218736D01*
X146992744Y-99075178D01*
X147058817Y-98915666D01*
X147092500Y-98746328D01*
X147092500Y-98573672D01*
X147058817Y-98404334D01*
X146992744Y-98244822D01*
X146896822Y-98101264D01*
X146774736Y-97979178D01*
X146631178Y-97883256D01*
X146471666Y-97817183D01*
X146302328Y-97783500D01*
X146129672Y-97783500D01*
X145960334Y-97817183D01*
X145800822Y-97883256D01*
X145657264Y-97979178D01*
X145535178Y-98101264D01*
X145439256Y-98244822D01*
X145373183Y-98404334D01*
X145339500Y-98573672D01*
X145339500Y-98746328D01*
X145373183Y-98915666D01*
X145439256Y-99075178D01*
X145533682Y-99216497D01*
X145468137Y-99243647D01*
X145341285Y-99328407D01*
X145233407Y-99436285D01*
X145155732Y-99552533D01*
X145129332Y-99545273D01*
X144744605Y-99930000D01*
X145129332Y-100314727D01*
X145155732Y-100307467D01*
X145233407Y-100423715D01*
X145341285Y-100531593D01*
X145391282Y-100565000D01*
X145341285Y-100598407D01*
X145233407Y-100706285D01*
X145200000Y-100756282D01*
X145166593Y-100706285D01*
X145058715Y-100598407D01*
X144942467Y-100520732D01*
X144949727Y-100494332D01*
X144565000Y-100109605D01*
X144180273Y-100494332D01*
X144187533Y-100520732D01*
X144088350Y-100587004D01*
X143969942Y-100507887D01*
X143827809Y-100449013D01*
X143676922Y-100419000D01*
X143523078Y-100419000D01*
X143393000Y-100444874D01*
X143393000Y-99121080D01*
X143399368Y-99056135D01*
X143407256Y-99075178D01*
X143503178Y-99218736D01*
X143625264Y-99340822D01*
X143768822Y-99436744D01*
X143928334Y-99502817D01*
X143965627Y-99510235D01*
X144000666Y-99545274D01*
X143869176Y-99581435D01*
X143814544Y-99723880D01*
X143788752Y-99874247D01*
X143792791Y-100026757D01*
X143826505Y-100175548D01*
X143869176Y-100278565D01*
X144000668Y-100314727D01*
X144385395Y-99930000D01*
X144371253Y-99915858D01*
X144550858Y-99736253D01*
X144565000Y-99750395D01*
X144949727Y-99365668D01*
X144913565Y-99234176D01*
X144866553Y-99216145D01*
X144960744Y-99075178D01*
X145026817Y-98915666D01*
X145060500Y-98746328D01*
X145060500Y-98573672D01*
X145026817Y-98404334D01*
X144960744Y-98244822D01*
X144864822Y-98101264D01*
X144742736Y-97979178D01*
X144599178Y-97883256D01*
X144439666Y-97817183D01*
X144270328Y-97783500D01*
X144097672Y-97783500D01*
X143928334Y-97817183D01*
X143858654Y-97846046D01*
X143966322Y-97714031D01*
X144262107Y-97469337D01*
X144599783Y-97286756D01*
X144966494Y-97173241D01*
X145368385Y-97131000D01*
X160601107Y-97131000D01*
X160613405Y-97129789D01*
X160901750Y-97113258D01*
X160931753Y-97108570D01*
X160961994Y-97105518D01*
X160967886Y-97104291D01*
X161463928Y-96997383D01*
X161501161Y-96985456D01*
X161538493Y-96974069D01*
X161544031Y-96971723D01*
X161544035Y-96971722D01*
X161544039Y-96971720D01*
X162009863Y-96770502D01*
X162044032Y-96751592D01*
X162078480Y-96733150D01*
X162083452Y-96729775D01*
X162083460Y-96729771D01*
X162083466Y-96729766D01*
X162501334Y-96441902D01*
X162531178Y-96416715D01*
X162561389Y-96391933D01*
X162565617Y-96387651D01*
X162919619Y-96024101D01*
X162944002Y-95993598D01*
X162968825Y-95963418D01*
X162972137Y-95958402D01*
X162972141Y-95958397D01*
X162972144Y-95958392D01*
X163248787Y-95533009D01*
X163266795Y-95498325D01*
X163285269Y-95463925D01*
X163287542Y-95458364D01*
X163287547Y-95458355D01*
X163287550Y-95458346D01*
X163476298Y-94987337D01*
X163487215Y-94949854D01*
X163498667Y-94912483D01*
X163499819Y-94906576D01*
X163593489Y-94407865D01*
X163594587Y-94395413D01*
X163597382Y-94383229D01*
X163598107Y-94377255D01*
X163618245Y-94201089D01*
X165208364Y-94201089D01*
X165208364Y-94583551D01*
X165282978Y-94958665D01*
X165429341Y-95312015D01*
X165641826Y-95630021D01*
X165912268Y-95900463D01*
X166230274Y-96112948D01*
X166583624Y-96259311D01*
X166958738Y-96333925D01*
X167341200Y-96333925D01*
X167716314Y-96259311D01*
X168069664Y-96112948D01*
X168387670Y-95900463D01*
X168658112Y-95630021D01*
X168870597Y-95312015D01*
X169016960Y-94958665D01*
X169091574Y-94583551D01*
X169091574Y-94201089D01*
X169016960Y-93825975D01*
X168870597Y-93472625D01*
X168658112Y-93154619D01*
X168387670Y-92884177D01*
X168069664Y-92671692D01*
X167716314Y-92525329D01*
X167341200Y-92450715D01*
X166958738Y-92450715D01*
X166583624Y-92525329D01*
X166230274Y-92671692D01*
X165912268Y-92884177D01*
X165641826Y-93154619D01*
X165429341Y-93472625D01*
X165282978Y-93825975D01*
X165208364Y-94201089D01*
X163618245Y-94201089D01*
X163681541Y-93647394D01*
X163892288Y-92987892D01*
X164227118Y-92381886D01*
X164673279Y-91852457D01*
X165213776Y-91419769D01*
X165828021Y-91100305D01*
X166492622Y-90906234D01*
X167182259Y-90844946D01*
X167870664Y-90918777D01*
G37*
X167870664Y-90918777D02*
X168531619Y-91124913D01*
X169139950Y-91455506D01*
X169672479Y-91897956D01*
X170108929Y-92435420D01*
X170432674Y-93047423D01*
X170631950Y-93712546D01*
X170701403Y-94373357D01*
X170702557Y-94378980D01*
X170702749Y-94384701D01*
X170703578Y-94390662D01*
X170746639Y-94685161D01*
X170753947Y-94714652D01*
X170759640Y-94744492D01*
X170761379Y-94750254D01*
X170911431Y-95234991D01*
X170926566Y-95270996D01*
X170941202Y-95307221D01*
X170944027Y-95312535D01*
X171185373Y-95758896D01*
X171207229Y-95791298D01*
X171228607Y-95823968D01*
X171232405Y-95828625D01*
X171232410Y-95828632D01*
X171232416Y-95828638D01*
X171555860Y-96219614D01*
X171583575Y-96247137D01*
X171610909Y-96275049D01*
X171615535Y-96278875D01*
X171615546Y-96278886D01*
X171615558Y-96278894D01*
X172008778Y-96599596D01*
X172041308Y-96621209D01*
X172073546Y-96643283D01*
X172078836Y-96646144D01*
X172078844Y-96646148D01*
X172526874Y-96884370D01*
X172563010Y-96899264D01*
X172598896Y-96914645D01*
X172604637Y-96916423D01*
X172604643Y-96916425D01*
X172604649Y-96916426D01*
X173090419Y-97063088D01*
X173128736Y-97070675D01*
X173166947Y-97078797D01*
X173172932Y-97079426D01*
X173677942Y-97128943D01*
X173677948Y-97128943D01*
X173698832Y-97131000D01*
X187118920Y-97131000D01*
X187444352Y-97162909D01*
X187737113Y-97251299D01*
X188007126Y-97394868D01*
X188244115Y-97588151D01*
X188439045Y-97823781D01*
X188584498Y-98092791D01*
X188674928Y-98384924D01*
X188709000Y-98709092D01*
X188709001Y-114567062D01*
X188677091Y-114892504D01*
X188588701Y-115185266D01*
X188445132Y-115455278D01*
X188251849Y-115692267D01*
X188016219Y-115887197D01*
X187747209Y-116032650D01*
X187455076Y-116123080D01*
X187130908Y-116157152D01*
X183363366Y-116157152D01*
X183342198Y-116155067D01*
X183257707Y-116163389D01*
X183176464Y-116188034D01*
X183171500Y-116190687D01*
X183171500Y-115528074D01*
X183174265Y-115500000D01*
X183163231Y-115387966D01*
X183130552Y-115280238D01*
X183077484Y-115180955D01*
X183023963Y-115115739D01*
X183023961Y-115115737D01*
X183006067Y-115093933D01*
X182984262Y-115076039D01*
X181281000Y-113372778D01*
X181281000Y-108899839D01*
X181283811Y-108871299D01*
X181272593Y-108757404D01*
X181239371Y-108647885D01*
X181228955Y-108628399D01*
X181185421Y-108546952D01*
X181112817Y-108458483D01*
X181090645Y-108440287D01*
X178261217Y-105610860D01*
X178243017Y-105588683D01*
X178154548Y-105516079D01*
X178053615Y-105462129D01*
X177944096Y-105428907D01*
X177858740Y-105420500D01*
X177830200Y-105417689D01*
X177813043Y-105419379D01*
X177813043Y-105226800D01*
X177805687Y-105152111D01*
X177783901Y-105080292D01*
X177748522Y-105014104D01*
X177700911Y-104956089D01*
X177642896Y-104908478D01*
X177576708Y-104873099D01*
X177504889Y-104851313D01*
X177430200Y-104843957D01*
X176769800Y-104843957D01*
X176695111Y-104851313D01*
X176623292Y-104873099D01*
X176599999Y-104885549D01*
X176576707Y-104873099D01*
X176504888Y-104851313D01*
X176430199Y-104843957D01*
X176322249Y-104845800D01*
X176226999Y-104941050D01*
X176226999Y-105874500D01*
X176246999Y-105874500D01*
X176246999Y-106128500D01*
X176226999Y-106128500D01*
X176226999Y-107061950D01*
X176322249Y-107157200D01*
X176430199Y-107159043D01*
X176504888Y-107151687D01*
X176576707Y-107129901D01*
X176599999Y-107117451D01*
X176623292Y-107129901D01*
X176695111Y-107151687D01*
X176769800Y-107159043D01*
X177430200Y-107159043D01*
X177504889Y-107151687D01*
X177576708Y-107129901D01*
X177642896Y-107094522D01*
X177700911Y-107046911D01*
X177748522Y-106988896D01*
X177783901Y-106922708D01*
X177805687Y-106850889D01*
X177810371Y-106803328D01*
X180119001Y-109111959D01*
X180119000Y-113628539D01*
X180127407Y-113713895D01*
X180160629Y-113823414D01*
X180214579Y-113924347D01*
X180287183Y-114012817D01*
X180375652Y-114085421D01*
X180378975Y-114087197D01*
X182028501Y-115736725D01*
X182028500Y-117278277D01*
X181957106Y-117349671D01*
X181932322Y-117303304D01*
X181884711Y-117245289D01*
X181826696Y-117197678D01*
X181760508Y-117162299D01*
X181688689Y-117140513D01*
X181614000Y-117133157D01*
X180406000Y-117133157D01*
X180331311Y-117140513D01*
X180259492Y-117162299D01*
X180193304Y-117197678D01*
X180135289Y-117245289D01*
X180087678Y-117303304D01*
X180052299Y-117369492D01*
X180030513Y-117441311D01*
X180023157Y-117516000D01*
X180023157Y-118724000D01*
X180028890Y-118782206D01*
X179740794Y-118782206D01*
X179775099Y-118747901D01*
X179882896Y-118586572D01*
X179957147Y-118407314D01*
X179995000Y-118217014D01*
X179995000Y-118022986D01*
X179957147Y-117832686D01*
X179882896Y-117653428D01*
X179775099Y-117492099D01*
X179637901Y-117354901D01*
X179476572Y-117247104D01*
X179297314Y-117172853D01*
X179107014Y-117135000D01*
X178912986Y-117135000D01*
X178722686Y-117172853D01*
X178543428Y-117247104D01*
X178382099Y-117354901D01*
X178244901Y-117492099D01*
X178137104Y-117653428D01*
X178062853Y-117832686D01*
X178025000Y-118022986D01*
X178025000Y-118217014D01*
X178062853Y-118407314D01*
X178137104Y-118586572D01*
X178244901Y-118747901D01*
X178279206Y-118782206D01*
X177740794Y-118782206D01*
X177775099Y-118747901D01*
X177882896Y-118586572D01*
X177957147Y-118407314D01*
X177995000Y-118217014D01*
X177995000Y-118022986D01*
X177957147Y-117832686D01*
X177882896Y-117653428D01*
X177775099Y-117492099D01*
X177637901Y-117354901D01*
X177476572Y-117247104D01*
X177297314Y-117172853D01*
X177107014Y-117135000D01*
X176912986Y-117135000D01*
X176726611Y-117172072D01*
X176548854Y-116994316D01*
X176714384Y-117064589D01*
X176904344Y-117104110D01*
X177098364Y-117105813D01*
X177288989Y-117069632D01*
X177468893Y-116996957D01*
X177484216Y-116988767D01*
X177546309Y-116835914D01*
X177010000Y-116299605D01*
X176995858Y-116313748D01*
X176816253Y-116134143D01*
X176830395Y-116120000D01*
X177189605Y-116120000D01*
X177725914Y-116656309D01*
X177878767Y-116594216D01*
X177954589Y-116415616D01*
X177994110Y-116225656D01*
X177995813Y-116031636D01*
X177994172Y-116022986D01*
X178025000Y-116022986D01*
X178025000Y-116217014D01*
X178062853Y-116407314D01*
X178137104Y-116586572D01*
X178244901Y-116747901D01*
X178382099Y-116885099D01*
X178543428Y-116992896D01*
X178722686Y-117067147D01*
X178912986Y-117105000D01*
X179107014Y-117105000D01*
X179297314Y-117067147D01*
X179476572Y-116992896D01*
X179637901Y-116885099D01*
X179775099Y-116747901D01*
X179882896Y-116586572D01*
X179957147Y-116407314D01*
X179995000Y-116217014D01*
X179995000Y-116022986D01*
X180025000Y-116022986D01*
X180025000Y-116217014D01*
X180062853Y-116407314D01*
X180137104Y-116586572D01*
X180244901Y-116747901D01*
X180382099Y-116885099D01*
X180543428Y-116992896D01*
X180722686Y-117067147D01*
X180912986Y-117105000D01*
X181107014Y-117105000D01*
X181297314Y-117067147D01*
X181476572Y-116992896D01*
X181637901Y-116885099D01*
X181775099Y-116747901D01*
X181882896Y-116586572D01*
X181957147Y-116407314D01*
X181995000Y-116217014D01*
X181995000Y-116022986D01*
X181957147Y-115832686D01*
X181882896Y-115653428D01*
X181775099Y-115492099D01*
X181637901Y-115354901D01*
X181476572Y-115247104D01*
X181297314Y-115172853D01*
X181107014Y-115135000D01*
X180912986Y-115135000D01*
X180722686Y-115172853D01*
X180543428Y-115247104D01*
X180382099Y-115354901D01*
X180244901Y-115492099D01*
X180137104Y-115653428D01*
X180062853Y-115832686D01*
X180025000Y-116022986D01*
X179995000Y-116022986D01*
X179957147Y-115832686D01*
X179882896Y-115653428D01*
X179775099Y-115492099D01*
X179637901Y-115354901D01*
X179476572Y-115247104D01*
X179297314Y-115172853D01*
X179107014Y-115135000D01*
X178912986Y-115135000D01*
X178722686Y-115172853D01*
X178543428Y-115247104D01*
X178382099Y-115354901D01*
X178244901Y-115492099D01*
X178137104Y-115653428D01*
X178062853Y-115832686D01*
X178025000Y-116022986D01*
X177994172Y-116022986D01*
X177959632Y-115841011D01*
X177886957Y-115661107D01*
X177878767Y-115645784D01*
X177725914Y-115583691D01*
X177189605Y-116120000D01*
X176830395Y-116120000D01*
X176816253Y-116105858D01*
X176995858Y-115926253D01*
X177010000Y-115940395D01*
X177546309Y-115404086D01*
X177484216Y-115251233D01*
X177305616Y-115175411D01*
X177115656Y-115135890D01*
X176921636Y-115134187D01*
X176731011Y-115170368D01*
X176551107Y-115243043D01*
X176535784Y-115251233D01*
X176473692Y-115404084D01*
X176400369Y-115330761D01*
X176397259Y-115333871D01*
X176398678Y-115329193D01*
X176406000Y-115254854D01*
X176406000Y-115254847D01*
X176408447Y-115230001D01*
X176406000Y-115205155D01*
X176406000Y-112024845D01*
X176408447Y-111999999D01*
X176406000Y-111975153D01*
X176406000Y-111975146D01*
X176399375Y-111907887D01*
X176398678Y-111900806D01*
X176388177Y-111866190D01*
X176369745Y-111805425D01*
X176322759Y-111717521D01*
X176259527Y-111640473D01*
X176240220Y-111624628D01*
X175606001Y-110990410D01*
X175606001Y-108924001D01*
X177369456Y-108924001D01*
X177369456Y-110829001D01*
X177376812Y-110903690D01*
X177398598Y-110975509D01*
X177433977Y-111041697D01*
X177481588Y-111099712D01*
X177539603Y-111147323D01*
X177605791Y-111182702D01*
X177677610Y-111204488D01*
X177752299Y-111211844D01*
X179047699Y-111211844D01*
X179122388Y-111204488D01*
X179194207Y-111182702D01*
X179260395Y-111147323D01*
X179318410Y-111099712D01*
X179366021Y-111041697D01*
X179401400Y-110975509D01*
X179423186Y-110903690D01*
X179430542Y-110829001D01*
X179430542Y-108924001D01*
X179423186Y-108849312D01*
X179401400Y-108777493D01*
X179366021Y-108711305D01*
X179318410Y-108653290D01*
X179260395Y-108605679D01*
X179194207Y-108570300D01*
X179122388Y-108548514D01*
X179047699Y-108541158D01*
X177752299Y-108541158D01*
X177677610Y-108548514D01*
X177605791Y-108570300D01*
X177539603Y-108605679D01*
X177481588Y-108653290D01*
X177433977Y-108711305D01*
X177398598Y-108777493D01*
X177376812Y-108849312D01*
X177369456Y-108924001D01*
X175606001Y-108924001D01*
X175606001Y-107120659D01*
X175623291Y-107129901D01*
X175695110Y-107151687D01*
X175769799Y-107159043D01*
X175877749Y-107157200D01*
X175972999Y-107061950D01*
X175972999Y-106128500D01*
X175952999Y-106128500D01*
X175952999Y-105874500D01*
X175972999Y-105874500D01*
X175972999Y-104941050D01*
X175877749Y-104845800D01*
X175769799Y-104843957D01*
X175695110Y-104851313D01*
X175623291Y-104873099D01*
X175600000Y-104885549D01*
X175576709Y-104873099D01*
X175504890Y-104851313D01*
X175430201Y-104843957D01*
X174769801Y-104843957D01*
X174695112Y-104851313D01*
X174623293Y-104873099D01*
X174600000Y-104885549D01*
X174576708Y-104873099D01*
X174504889Y-104851313D01*
X174430200Y-104843957D01*
X173769800Y-104843957D01*
X173695111Y-104851313D01*
X173623292Y-104873099D01*
X173557104Y-104908478D01*
X173499089Y-104956089D01*
X173451478Y-105014104D01*
X173416099Y-105080292D01*
X173394313Y-105152111D01*
X173386957Y-105226800D01*
X173386957Y-106776200D01*
X173394313Y-106850889D01*
X173416099Y-106922708D01*
X173451478Y-106988896D01*
X173499089Y-107046911D01*
X173557104Y-107094522D01*
X173594000Y-107114244D01*
X173594000Y-108570237D01*
X173522390Y-108548514D01*
X173447701Y-108541158D01*
X172152301Y-108541158D01*
X172077612Y-108548514D01*
X172005793Y-108570300D01*
X171939605Y-108605679D01*
X171881590Y-108653290D01*
X171833979Y-108711305D01*
X171798600Y-108777493D01*
X171776814Y-108849312D01*
X171769458Y-108924001D01*
X171769458Y-110829001D01*
X171776814Y-110903690D01*
X171798600Y-110975509D01*
X171833979Y-111041697D01*
X171881590Y-111099712D01*
X171939605Y-111147323D01*
X172005793Y-111182702D01*
X172077612Y-111204488D01*
X172152301Y-111211844D01*
X173447701Y-111211844D01*
X173522390Y-111204488D01*
X173594001Y-111182765D01*
X173594001Y-112175144D01*
X173591553Y-112200000D01*
X173601322Y-112299192D01*
X173630255Y-112394574D01*
X173647541Y-112426913D01*
X173677242Y-112482479D01*
X173740474Y-112559527D01*
X173759780Y-112575371D01*
X174019000Y-112834591D01*
X174019000Y-112976922D01*
X174049013Y-113127809D01*
X174107887Y-113269942D01*
X174193358Y-113397859D01*
X174302141Y-113506642D01*
X174430058Y-113592113D01*
X174572191Y-113650987D01*
X174723078Y-113681000D01*
X174876922Y-113681000D01*
X175027809Y-113650987D01*
X175169942Y-113592113D01*
X175297859Y-113506642D01*
X175394000Y-113410501D01*
X175394001Y-115020407D01*
X175250806Y-115163602D01*
X175107014Y-115135000D01*
X174912986Y-115135000D01*
X174722686Y-115172853D01*
X174543428Y-115247104D01*
X174469900Y-115296234D01*
X174469900Y-115123076D01*
X174472173Y-115099999D01*
X174463100Y-115007882D01*
X174445010Y-114948249D01*
X174436231Y-114919307D01*
X174392598Y-114837675D01*
X174333877Y-114766123D01*
X174315948Y-114751409D01*
X173948591Y-114384053D01*
X173948587Y-114384048D01*
X173048595Y-113484057D01*
X173033877Y-113466123D01*
X172962325Y-113407402D01*
X172880693Y-113363769D01*
X172792116Y-113336900D01*
X172723077Y-113330100D01*
X172700000Y-113327827D01*
X172676923Y-113330100D01*
X169625324Y-113330100D01*
X169606642Y-113302141D01*
X169497859Y-113193358D01*
X169369942Y-113107887D01*
X169227809Y-113049013D01*
X169076922Y-113019000D01*
X168923078Y-113019000D01*
X168772191Y-113049013D01*
X168630058Y-113107887D01*
X168502141Y-113193358D01*
X168393358Y-113302141D01*
X168307887Y-113430058D01*
X168249013Y-113572191D01*
X168219000Y-113723078D01*
X168219000Y-113759224D01*
X166582138Y-112122363D01*
X166606642Y-112097859D01*
X166692113Y-111969942D01*
X166750987Y-111827809D01*
X166781000Y-111676922D01*
X166781000Y-111523078D01*
X166750987Y-111372191D01*
X166692113Y-111230058D01*
X166606642Y-111102141D01*
X166497859Y-110993358D01*
X166369942Y-110907887D01*
X166227809Y-110849013D01*
X166076922Y-110819000D01*
X165923078Y-110819000D01*
X165772191Y-110849013D01*
X165630058Y-110907887D01*
X165502141Y-110993358D01*
X165393358Y-111102141D01*
X165307887Y-111230058D01*
X165249013Y-111372191D01*
X165245073Y-111392000D01*
X161276106Y-111392000D01*
X160742540Y-110858435D01*
X160726633Y-110839052D01*
X160649280Y-110775571D01*
X160561028Y-110728399D01*
X160465270Y-110699351D01*
X160397142Y-110692641D01*
X160297859Y-110593358D01*
X160169942Y-110507887D01*
X160027809Y-110449013D01*
X159931080Y-110429773D01*
X159933810Y-110402058D01*
X159933810Y-110402051D01*
X159936257Y-110377205D01*
X159933810Y-110352359D01*
X159933810Y-108924001D01*
X162869458Y-108924001D01*
X162869458Y-110829001D01*
X162876814Y-110903690D01*
X162898600Y-110975509D01*
X162933979Y-111041697D01*
X162981590Y-111099712D01*
X163039605Y-111147323D01*
X163105793Y-111182702D01*
X163177612Y-111204488D01*
X163252301Y-111211844D01*
X164547701Y-111211844D01*
X164622390Y-111204488D01*
X164694209Y-111182702D01*
X164760397Y-111147323D01*
X164818412Y-111099712D01*
X164866023Y-111041697D01*
X164901402Y-110975509D01*
X164923188Y-110903690D01*
X164930544Y-110829001D01*
X164930544Y-108924001D01*
X168469456Y-108924001D01*
X168469456Y-110829001D01*
X168476812Y-110903690D01*
X168498598Y-110975509D01*
X168533977Y-111041697D01*
X168581588Y-111099712D01*
X168639603Y-111147323D01*
X168705791Y-111182702D01*
X168777610Y-111204488D01*
X168852299Y-111211844D01*
X170147699Y-111211844D01*
X170222388Y-111204488D01*
X170294207Y-111182702D01*
X170360395Y-111147323D01*
X170418410Y-111099712D01*
X170466021Y-111041697D01*
X170501400Y-110975509D01*
X170523186Y-110903690D01*
X170530542Y-110829001D01*
X170530542Y-108924001D01*
X170523186Y-108849312D01*
X170501400Y-108777493D01*
X170466021Y-108711305D01*
X170418410Y-108653290D01*
X170360395Y-108605679D01*
X170294207Y-108570300D01*
X170222388Y-108548514D01*
X170147699Y-108541158D01*
X168852299Y-108541158D01*
X168777610Y-108548514D01*
X168705791Y-108570300D01*
X168639603Y-108605679D01*
X168581588Y-108653290D01*
X168533977Y-108711305D01*
X168498598Y-108777493D01*
X168476812Y-108849312D01*
X168469456Y-108924001D01*
X164930544Y-108924001D01*
X164923188Y-108849312D01*
X164901402Y-108777493D01*
X164866023Y-108711305D01*
X164818412Y-108653290D01*
X164760397Y-108605679D01*
X164694209Y-108570300D01*
X164622390Y-108548514D01*
X164547701Y-108541158D01*
X163252301Y-108541158D01*
X163177612Y-108548514D01*
X163105793Y-108570300D01*
X163039605Y-108605679D01*
X162981590Y-108653290D01*
X162933979Y-108711305D01*
X162898600Y-108777493D01*
X162876814Y-108849312D01*
X162869458Y-108924001D01*
X159933810Y-108924001D01*
X159933810Y-108528311D01*
X159957141Y-108551642D01*
X160085058Y-108637113D01*
X160227191Y-108695987D01*
X160378078Y-108726000D01*
X160531922Y-108726000D01*
X160682809Y-108695987D01*
X160824942Y-108637113D01*
X160952859Y-108551642D01*
X161053501Y-108451000D01*
X165230154Y-108451000D01*
X165255000Y-108453447D01*
X165279846Y-108451000D01*
X165279854Y-108451000D01*
X165354193Y-108443678D01*
X165449575Y-108414745D01*
X165537479Y-108367759D01*
X165614527Y-108304527D01*
X165630376Y-108285215D01*
X166540220Y-107375372D01*
X166559527Y-107359527D01*
X166622759Y-107282479D01*
X166669745Y-107194575D01*
X166691812Y-107121828D01*
X166700000Y-107117451D01*
X166723291Y-107129901D01*
X166795110Y-107151687D01*
X166869799Y-107159043D01*
X167530199Y-107159043D01*
X167604888Y-107151687D01*
X167676707Y-107129901D01*
X167699999Y-107117451D01*
X167723292Y-107129901D01*
X167795111Y-107151687D01*
X167869800Y-107159043D01*
X167977750Y-107157200D01*
X168073000Y-107061950D01*
X168073000Y-106128500D01*
X168327000Y-106128500D01*
X168327000Y-107061950D01*
X168422250Y-107157200D01*
X168530200Y-107159043D01*
X168604889Y-107151687D01*
X168676708Y-107129901D01*
X168742896Y-107094522D01*
X168800911Y-107046911D01*
X168848522Y-106988896D01*
X168883901Y-106922708D01*
X168905687Y-106850889D01*
X168913043Y-106776200D01*
X168911200Y-106223750D01*
X168815950Y-106128500D01*
X168327000Y-106128500D01*
X168073000Y-106128500D01*
X168053000Y-106128500D01*
X168053000Y-105874500D01*
X168073000Y-105874500D01*
X168073000Y-105854500D01*
X168327000Y-105854500D01*
X168327000Y-105874500D01*
X168815950Y-105874500D01*
X168911200Y-105779250D01*
X168913043Y-105226800D01*
X168905687Y-105152111D01*
X168883901Y-105080292D01*
X168848522Y-105014104D01*
X168800911Y-104956089D01*
X168742896Y-104908478D01*
X168686505Y-104878336D01*
X168692113Y-104869942D01*
X168750987Y-104727809D01*
X168781000Y-104576922D01*
X168781000Y-104423078D01*
X168750987Y-104272191D01*
X168692113Y-104130058D01*
X168606642Y-104002141D01*
X168571500Y-103966999D01*
X168571500Y-103828074D01*
X168574265Y-103800000D01*
X168563231Y-103687966D01*
X168530552Y-103580238D01*
X168477484Y-103480955D01*
X168472985Y-103475473D01*
X168406067Y-103393933D01*
X168384257Y-103376034D01*
X167923970Y-102915748D01*
X167906067Y-102893933D01*
X167819045Y-102822516D01*
X167719762Y-102769448D01*
X167612034Y-102736769D01*
X167528074Y-102728500D01*
X167500000Y-102725735D01*
X167471926Y-102728500D01*
X160736723Y-102728500D01*
X160481000Y-102472778D01*
X160481000Y-102423078D01*
X160450987Y-102272191D01*
X160392113Y-102130058D01*
X160306642Y-102002141D01*
X160197859Y-101893358D01*
X160069942Y-101807887D01*
X159927809Y-101749013D01*
X159776922Y-101719000D01*
X159623078Y-101719000D01*
X159472191Y-101749013D01*
X159330058Y-101807887D01*
X159202141Y-101893358D01*
X159093358Y-102002141D01*
X159007887Y-102130058D01*
X158949013Y-102272191D01*
X158919000Y-102423078D01*
X158919000Y-102576922D01*
X158949013Y-102727809D01*
X159007887Y-102869942D01*
X159093358Y-102997859D01*
X159202141Y-103106642D01*
X159330058Y-103192113D01*
X159472191Y-103250987D01*
X159623078Y-103281000D01*
X159672778Y-103281000D01*
X160076034Y-103684257D01*
X160093933Y-103706067D01*
X160165657Y-103764929D01*
X160180955Y-103777484D01*
X160280238Y-103830552D01*
X160387966Y-103863231D01*
X160500000Y-103874265D01*
X160528074Y-103871500D01*
X165952167Y-103871500D01*
X165864484Y-103959183D01*
X165841220Y-103994000D01*
X165424854Y-103994000D01*
X165400000Y-103991552D01*
X165322422Y-103999193D01*
X165300807Y-104001322D01*
X165205425Y-104030255D01*
X165117521Y-104077241D01*
X165040473Y-104140473D01*
X165024624Y-104159785D01*
X164859781Y-104324628D01*
X164840474Y-104340473D01*
X164777242Y-104417521D01*
X164754494Y-104460080D01*
X164730255Y-104505426D01*
X164701322Y-104600808D01*
X164691553Y-104700000D01*
X164694001Y-104724856D01*
X164694001Y-104888756D01*
X164657104Y-104908478D01*
X164599089Y-104956089D01*
X164551478Y-105014104D01*
X164516099Y-105080292D01*
X164494313Y-105152111D01*
X164486957Y-105226800D01*
X164486957Y-106097452D01*
X164390409Y-106194000D01*
X160998501Y-106194000D01*
X160897859Y-106093358D01*
X160769942Y-106007887D01*
X160627809Y-105949013D01*
X160476922Y-105919000D01*
X160323078Y-105919000D01*
X160172191Y-105949013D01*
X160030058Y-106007887D01*
X159933810Y-106072198D01*
X159933810Y-104552655D01*
X159936257Y-104527809D01*
X159933810Y-104502963D01*
X159933810Y-104502956D01*
X159926488Y-104428617D01*
X159925947Y-104426831D01*
X159897555Y-104333235D01*
X159889156Y-104317522D01*
X159850569Y-104245331D01*
X159787337Y-104168283D01*
X159768030Y-104152438D01*
X159381000Y-103765408D01*
X159381000Y-103623078D01*
X159350987Y-103472191D01*
X159292113Y-103330058D01*
X159206642Y-103202141D01*
X159097859Y-103093358D01*
X158969942Y-103007887D01*
X158827809Y-102949013D01*
X158676922Y-102919000D01*
X158523078Y-102919000D01*
X158372191Y-102949013D01*
X158230058Y-103007887D01*
X158102141Y-103093358D01*
X157993358Y-103202141D01*
X157907887Y-103330058D01*
X157849013Y-103472191D01*
X157819000Y-103623078D01*
X157819000Y-103776922D01*
X157841886Y-103891980D01*
X156223114Y-102273207D01*
X156250000Y-102232969D01*
X156293358Y-102297859D01*
X156402141Y-102406642D01*
X156530058Y-102492113D01*
X156672191Y-102550987D01*
X156823078Y-102581000D01*
X156976922Y-102581000D01*
X157127809Y-102550987D01*
X157269942Y-102492113D01*
X157352734Y-102436793D01*
X157407887Y-102569942D01*
X157493358Y-102697859D01*
X157602141Y-102806642D01*
X157730058Y-102892113D01*
X157872191Y-102950987D01*
X158023078Y-102981000D01*
X158176922Y-102981000D01*
X158327809Y-102950987D01*
X158469942Y-102892113D01*
X158597859Y-102806642D01*
X158706642Y-102697859D01*
X158792113Y-102569942D01*
X158850987Y-102427809D01*
X158881000Y-102276922D01*
X158881000Y-102123078D01*
X158850987Y-101972191D01*
X158792113Y-101830058D01*
X158706642Y-101702141D01*
X158606000Y-101601499D01*
X158606000Y-99809591D01*
X159681782Y-98733810D01*
X179752534Y-98733810D01*
X185258943Y-104240220D01*
X185274788Y-104259527D01*
X185351836Y-104322759D01*
X185439740Y-104369745D01*
X185535122Y-104398678D01*
X185600629Y-104405130D01*
X185702141Y-104506642D01*
X185830058Y-104592113D01*
X185972191Y-104650987D01*
X186123078Y-104681000D01*
X186276922Y-104681000D01*
X186427809Y-104650987D01*
X186569942Y-104592113D01*
X186697859Y-104506642D01*
X186806642Y-104397859D01*
X186892113Y-104269942D01*
X186950987Y-104127809D01*
X186981000Y-103976922D01*
X186981000Y-103823078D01*
X186950987Y-103672191D01*
X186892113Y-103530058D01*
X186806642Y-103402141D01*
X186697859Y-103293358D01*
X186569942Y-103207887D01*
X186550901Y-103200000D01*
X186569942Y-103192113D01*
X186697859Y-103106642D01*
X186806642Y-102997859D01*
X186892113Y-102869942D01*
X186950987Y-102727809D01*
X186981000Y-102576922D01*
X186981000Y-102423078D01*
X186950987Y-102272191D01*
X186892113Y-102130058D01*
X186806642Y-102002141D01*
X186697859Y-101893358D01*
X186569942Y-101807887D01*
X186427809Y-101749013D01*
X186276922Y-101719000D01*
X186134592Y-101719000D01*
X181875376Y-97459785D01*
X181859527Y-97440473D01*
X181782479Y-97377241D01*
X181694575Y-97330255D01*
X181599193Y-97301322D01*
X181524854Y-97294000D01*
X181524846Y-97294000D01*
X181500000Y-97291553D01*
X181475154Y-97294000D01*
X157724854Y-97294000D01*
X157700000Y-97291552D01*
X157675146Y-97294000D01*
X157600807Y-97301322D01*
X157505425Y-97330255D01*
X157417521Y-97377241D01*
X157340473Y-97440473D01*
X157324628Y-97459780D01*
X156559780Y-98224629D01*
X156540474Y-98240473D01*
X156477242Y-98317521D01*
X156456249Y-98356796D01*
X156430255Y-98405426D01*
X156401322Y-98500808D01*
X156391553Y-98600000D01*
X156394001Y-98624856D01*
X156394000Y-101201499D01*
X156293358Y-101302141D01*
X156250000Y-101367031D01*
X156206642Y-101302141D01*
X156097859Y-101193358D01*
X155969942Y-101107887D01*
X155827809Y-101049013D01*
X155676922Y-101019000D01*
X155523078Y-101019000D01*
X155372191Y-101049013D01*
X155230058Y-101107887D01*
X155102141Y-101193358D01*
X154993358Y-101302141D01*
X154950000Y-101367031D01*
X154906642Y-101302141D01*
X154797859Y-101193358D01*
X154669942Y-101107887D01*
X154527809Y-101049013D01*
X154376922Y-101019000D01*
X154223078Y-101019000D01*
X154072191Y-101049013D01*
X153930058Y-101107887D01*
X153802141Y-101193358D01*
X153693358Y-101302141D01*
X153607887Y-101430058D01*
X153549013Y-101572191D01*
X153519000Y-101723078D01*
X153519000Y-101876922D01*
X153549013Y-102027809D01*
X153607887Y-102169942D01*
X153693358Y-102297859D01*
X153802141Y-102406642D01*
X153930058Y-102492113D01*
X154072191Y-102550987D01*
X154223078Y-102581000D01*
X154376922Y-102581000D01*
X154527809Y-102550987D01*
X154669942Y-102492113D01*
X154797859Y-102406642D01*
X154906642Y-102297859D01*
X154950000Y-102232969D01*
X154993358Y-102297859D01*
X155094871Y-102399372D01*
X155101322Y-102464877D01*
X155130255Y-102560259D01*
X155135431Y-102569942D01*
X155177242Y-102648164D01*
X155240474Y-102725212D01*
X155259781Y-102741057D01*
X158494000Y-105975277D01*
X158494001Y-109990407D01*
X158059785Y-110424624D01*
X158040473Y-110440473D01*
X157977241Y-110517521D01*
X157930255Y-110605426D01*
X157901322Y-110700808D01*
X157894000Y-110775147D01*
X157894000Y-110775154D01*
X157891553Y-110800000D01*
X157894000Y-110824847D01*
X157894001Y-111575144D01*
X157891553Y-111600000D01*
X157901322Y-111699192D01*
X157930255Y-111794574D01*
X157945491Y-111823078D01*
X157977242Y-111882479D01*
X158040474Y-111959527D01*
X158059780Y-111975371D01*
X159195426Y-113111018D01*
X156998961Y-113105540D01*
X157006642Y-113097859D01*
X157092113Y-112969942D01*
X157150987Y-112827809D01*
X157181000Y-112676922D01*
X157181000Y-112523078D01*
X157150987Y-112372191D01*
X157092113Y-112230058D01*
X157006642Y-112102141D01*
X156897859Y-111993358D01*
X156769942Y-111907887D01*
X156627809Y-111849013D01*
X156476922Y-111819000D01*
X156323078Y-111819000D01*
X156172191Y-111849013D01*
X156030058Y-111907887D01*
X155902141Y-111993358D01*
X155793358Y-112102141D01*
X155772101Y-112133955D01*
X155742197Y-112136900D01*
X155710367Y-112146556D01*
X155653622Y-112163769D01*
X155571990Y-112207402D01*
X155500438Y-112266123D01*
X155485724Y-112284052D01*
X154670044Y-113099732D01*
X153061233Y-113095720D01*
X153069942Y-113092113D01*
X153197859Y-113006642D01*
X153306642Y-112897859D01*
X153392113Y-112769942D01*
X153450987Y-112627809D01*
X153481000Y-112476922D01*
X153481000Y-112323078D01*
X153450987Y-112172191D01*
X153392113Y-112030058D01*
X153306642Y-111902141D01*
X153215770Y-111811269D01*
X153243322Y-111777696D01*
X153278701Y-111711508D01*
X153300487Y-111639689D01*
X153307843Y-111565000D01*
X153307843Y-110625000D01*
X153300487Y-110550311D01*
X153278701Y-110478492D01*
X153243322Y-110412304D01*
X153195711Y-110354289D01*
X153137696Y-110306678D01*
X153071508Y-110271299D01*
X152999689Y-110249513D01*
X152925000Y-110242157D01*
X152485000Y-110242157D01*
X152410311Y-110249513D01*
X152338492Y-110271299D01*
X152272304Y-110306678D01*
X152214289Y-110354289D01*
X152166678Y-110412304D01*
X152131299Y-110478492D01*
X152109513Y-110550311D01*
X152102157Y-110625000D01*
X152102157Y-111565000D01*
X152109513Y-111639689D01*
X152131299Y-111711508D01*
X152166678Y-111777696D01*
X152189723Y-111805776D01*
X152093358Y-111902141D01*
X152007887Y-112030058D01*
X151949013Y-112172191D01*
X151919000Y-112323078D01*
X151919000Y-112476922D01*
X151949013Y-112627809D01*
X152007887Y-112769942D01*
X152093358Y-112897859D01*
X152202141Y-113006642D01*
X152330058Y-113092113D01*
X152334391Y-113093908D01*
X147228881Y-113081176D01*
X147250987Y-113027809D01*
X147281000Y-112876922D01*
X147281000Y-112723078D01*
X147250987Y-112572191D01*
X147192113Y-112430058D01*
X147147101Y-112362693D01*
X147524628Y-112740220D01*
X147540473Y-112759527D01*
X147617521Y-112822759D01*
X147705425Y-112869745D01*
X147778607Y-112891944D01*
X147800806Y-112898678D01*
X147810694Y-112899652D01*
X147875146Y-112906000D01*
X147875153Y-112906000D01*
X147899999Y-112908447D01*
X147924845Y-112906000D01*
X149575154Y-112906000D01*
X149600000Y-112908447D01*
X149624846Y-112906000D01*
X149624854Y-112906000D01*
X149699193Y-112898678D01*
X149794575Y-112869745D01*
X149882479Y-112822759D01*
X149959527Y-112759527D01*
X149975376Y-112740215D01*
X150505220Y-112210372D01*
X150524527Y-112194527D01*
X150587759Y-112117479D01*
X150634745Y-112029575D01*
X150663678Y-111934193D01*
X150670376Y-111866190D01*
X150673448Y-111835000D01*
X150671610Y-111816338D01*
X150703322Y-111777696D01*
X150738701Y-111711508D01*
X150760487Y-111639689D01*
X150767843Y-111565000D01*
X150767843Y-110625000D01*
X150760487Y-110550311D01*
X150738701Y-110478492D01*
X150703322Y-110412304D01*
X150655711Y-110354289D01*
X150597696Y-110306678D01*
X150531508Y-110271299D01*
X150459689Y-110249513D01*
X150385000Y-110242157D01*
X149945000Y-110242157D01*
X149870311Y-110249513D01*
X149798492Y-110271299D01*
X149732304Y-110306678D01*
X149674289Y-110354289D01*
X149626678Y-110412304D01*
X149591299Y-110478492D01*
X149569513Y-110550311D01*
X149562157Y-110625000D01*
X149562157Y-111565000D01*
X149569513Y-111639689D01*
X149587017Y-111697392D01*
X149390409Y-111894000D01*
X149307719Y-111894000D01*
X149327696Y-111883322D01*
X149385711Y-111835711D01*
X149433322Y-111777696D01*
X149468701Y-111711508D01*
X149490487Y-111639689D01*
X149497843Y-111565000D01*
X149496000Y-111317250D01*
X149400750Y-111222000D01*
X148988000Y-111222000D01*
X148988000Y-111242000D01*
X148802000Y-111242000D01*
X148802000Y-111222000D01*
X148389250Y-111222000D01*
X148294000Y-111317250D01*
X148292157Y-111565000D01*
X148299513Y-111639689D01*
X148321299Y-111711508D01*
X148356678Y-111777696D01*
X148404289Y-111835711D01*
X148462304Y-111883322D01*
X148482281Y-111894000D01*
X148109592Y-111894000D01*
X147206000Y-110990409D01*
X147206000Y-110625000D01*
X148292157Y-110625000D01*
X148294000Y-110872750D01*
X148389250Y-110968000D01*
X148802000Y-110968000D01*
X148802000Y-110339250D01*
X148988000Y-110339250D01*
X148988000Y-110968000D01*
X149400750Y-110968000D01*
X149496000Y-110872750D01*
X149497843Y-110625000D01*
X149490487Y-110550311D01*
X149468701Y-110478492D01*
X149433322Y-110412304D01*
X149385711Y-110354289D01*
X149327696Y-110306678D01*
X149261508Y-110271299D01*
X149189689Y-110249513D01*
X149115000Y-110242157D01*
X149083250Y-110244000D01*
X148988000Y-110339250D01*
X148802000Y-110339250D01*
X148706750Y-110244000D01*
X148675000Y-110242157D01*
X148600311Y-110249513D01*
X148528492Y-110271299D01*
X148462304Y-110306678D01*
X148404289Y-110354289D01*
X148356678Y-110412304D01*
X148321299Y-110478492D01*
X148299513Y-110550311D01*
X148292157Y-110625000D01*
X147206000Y-110625000D01*
X147206000Y-109798501D01*
X147306642Y-109697859D01*
X147392113Y-109569942D01*
X147450987Y-109427809D01*
X147481000Y-109276922D01*
X147481000Y-109123078D01*
X147450987Y-108972191D01*
X147392113Y-108830058D01*
X147306642Y-108702141D01*
X147197859Y-108593358D01*
X147069942Y-108507887D01*
X146927809Y-108449013D01*
X146776922Y-108419000D01*
X146623078Y-108419000D01*
X146472191Y-108449013D01*
X146469900Y-108449962D01*
X146469900Y-106150038D01*
X146472191Y-106150987D01*
X146623078Y-106181000D01*
X146776922Y-106181000D01*
X146927809Y-106150987D01*
X147069942Y-106092113D01*
X147197859Y-106006642D01*
X147298501Y-105906000D01*
X147495154Y-105906000D01*
X147520000Y-105908447D01*
X147544846Y-105906000D01*
X147544854Y-105906000D01*
X147619193Y-105898678D01*
X147714575Y-105869745D01*
X147802479Y-105822759D01*
X147879527Y-105759527D01*
X147895376Y-105740215D01*
X148312605Y-105322986D01*
X148296299Y-105353492D01*
X148274513Y-105425311D01*
X148267157Y-105500000D01*
X148267157Y-108900000D01*
X148274513Y-108974689D01*
X148296299Y-109046508D01*
X148331678Y-109112696D01*
X148379289Y-109170711D01*
X148437304Y-109218322D01*
X148503492Y-109253701D01*
X148575311Y-109275487D01*
X148650000Y-109282843D01*
X151090519Y-109282843D01*
X151030058Y-109307887D01*
X150902141Y-109393358D01*
X150793358Y-109502141D01*
X150707887Y-109630058D01*
X150649013Y-109772191D01*
X150619000Y-109923078D01*
X150619000Y-110076922D01*
X150649013Y-110227809D01*
X150707887Y-110369942D01*
X150793358Y-110497859D01*
X150840979Y-110545480D01*
X150839513Y-110550311D01*
X150832157Y-110625000D01*
X150832157Y-111565000D01*
X150839513Y-111639689D01*
X150861299Y-111711508D01*
X150896678Y-111777696D01*
X150944289Y-111835711D01*
X151002304Y-111883322D01*
X151068492Y-111918701D01*
X151140311Y-111940487D01*
X151215000Y-111947843D01*
X151655000Y-111947843D01*
X151729689Y-111940487D01*
X151801508Y-111918701D01*
X151867696Y-111883322D01*
X151925711Y-111835711D01*
X151973322Y-111777696D01*
X152008701Y-111711508D01*
X152030487Y-111639689D01*
X152037843Y-111565000D01*
X152037843Y-110625000D01*
X152030487Y-110550311D01*
X152012099Y-110489693D01*
X152092113Y-110369942D01*
X152150987Y-110227809D01*
X152181000Y-110076922D01*
X152181000Y-109923078D01*
X152150987Y-109772191D01*
X152092113Y-109630058D01*
X152055325Y-109575000D01*
X154792157Y-109575000D01*
X154799513Y-109649689D01*
X154821299Y-109721508D01*
X154856678Y-109787696D01*
X154904289Y-109845711D01*
X154962304Y-109893322D01*
X155028492Y-109928701D01*
X155100311Y-109950487D01*
X155175000Y-109957843D01*
X155390250Y-109956000D01*
X155485500Y-109860750D01*
X155485500Y-109227000D01*
X154889250Y-109227000D01*
X154794000Y-109322250D01*
X154792157Y-109575000D01*
X152055325Y-109575000D01*
X152006642Y-109502141D01*
X151897859Y-109393358D01*
X151769942Y-109307887D01*
X151709481Y-109282843D01*
X152950000Y-109282843D01*
X153024689Y-109275487D01*
X153096508Y-109253701D01*
X153162696Y-109218322D01*
X153220711Y-109170711D01*
X153268322Y-109112696D01*
X153303701Y-109046508D01*
X153325487Y-108974689D01*
X153332843Y-108900000D01*
X153332843Y-108625000D01*
X154792157Y-108625000D01*
X154794000Y-108877750D01*
X154889250Y-108973000D01*
X155485500Y-108973000D01*
X155485500Y-108339250D01*
X155739500Y-108339250D01*
X155739500Y-108973000D01*
X155759500Y-108973000D01*
X155759500Y-109227000D01*
X155739500Y-109227000D01*
X155739500Y-109860750D01*
X155834750Y-109956000D01*
X156050000Y-109957843D01*
X156124689Y-109950487D01*
X156196508Y-109928701D01*
X156262696Y-109893322D01*
X156320711Y-109845711D01*
X156368322Y-109787696D01*
X156403701Y-109721508D01*
X156425487Y-109649689D01*
X156428794Y-109616110D01*
X156468544Y-109690477D01*
X156541639Y-109779544D01*
X156507887Y-109830058D01*
X156449013Y-109972191D01*
X156419000Y-110123078D01*
X156419000Y-110276922D01*
X156449013Y-110427809D01*
X156507887Y-110569942D01*
X156593358Y-110697859D01*
X156702141Y-110806642D01*
X156830058Y-110892113D01*
X156972191Y-110950987D01*
X157123078Y-110981000D01*
X157276922Y-110981000D01*
X157427809Y-110950987D01*
X157569942Y-110892113D01*
X157697859Y-110806642D01*
X157806642Y-110697859D01*
X157892113Y-110569942D01*
X157950987Y-110427809D01*
X157981000Y-110276922D01*
X157981000Y-110123078D01*
X157950987Y-109972191D01*
X157892113Y-109830058D01*
X157847141Y-109762752D01*
X157906456Y-109690477D01*
X157962049Y-109586470D01*
X157996284Y-109473615D01*
X158007843Y-109356250D01*
X158007843Y-108843750D01*
X157996284Y-108726385D01*
X157962049Y-108613530D01*
X157906456Y-108509523D01*
X157831640Y-108418360D01*
X157740477Y-108343544D01*
X157636470Y-108287951D01*
X157523615Y-108253716D01*
X157406250Y-108242157D01*
X156968750Y-108242157D01*
X156851385Y-108253716D01*
X156738530Y-108287951D01*
X156634523Y-108343544D01*
X156543360Y-108418360D01*
X156468544Y-108509523D01*
X156428794Y-108583890D01*
X156425487Y-108550311D01*
X156403701Y-108478492D01*
X156368322Y-108412304D01*
X156320711Y-108354289D01*
X156262696Y-108306678D01*
X156196508Y-108271299D01*
X156124689Y-108249513D01*
X156050000Y-108242157D01*
X155834750Y-108244000D01*
X155739500Y-108339250D01*
X155485500Y-108339250D01*
X155390250Y-108244000D01*
X155175000Y-108242157D01*
X155100311Y-108249513D01*
X155028492Y-108271299D01*
X154962304Y-108306678D01*
X154904289Y-108354289D01*
X154856678Y-108412304D01*
X154821299Y-108478492D01*
X154799513Y-108550311D01*
X154792157Y-108625000D01*
X153332843Y-108625000D01*
X153332843Y-105500000D01*
X153325487Y-105425311D01*
X153303701Y-105353492D01*
X153268322Y-105287304D01*
X153220711Y-105229289D01*
X153162696Y-105181678D01*
X153096508Y-105146299D01*
X153024689Y-105124513D01*
X152950000Y-105117157D01*
X152787344Y-105117157D01*
X152806642Y-105097859D01*
X152892113Y-104969942D01*
X152950987Y-104827809D01*
X152981000Y-104676922D01*
X152981000Y-104523078D01*
X152950987Y-104372191D01*
X152892113Y-104230058D01*
X152843861Y-104157843D01*
X152925000Y-104157843D01*
X152999689Y-104150487D01*
X153071508Y-104128701D01*
X153137696Y-104093322D01*
X153195711Y-104045711D01*
X153243322Y-103987696D01*
X153278701Y-103921508D01*
X153292354Y-103876500D01*
X154468278Y-103876500D01*
X155619000Y-105027223D01*
X155619000Y-105076922D01*
X155649013Y-105227809D01*
X155707887Y-105369942D01*
X155793358Y-105497859D01*
X155902141Y-105606642D01*
X156030058Y-105692113D01*
X156172191Y-105750987D01*
X156323078Y-105781000D01*
X156476922Y-105781000D01*
X156627809Y-105750987D01*
X156769942Y-105692113D01*
X156897859Y-105606642D01*
X157006642Y-105497859D01*
X157092113Y-105369942D01*
X157150987Y-105227809D01*
X157181000Y-105076922D01*
X157181000Y-104923078D01*
X157150987Y-104772191D01*
X157092113Y-104630058D01*
X157006642Y-104502141D01*
X156897859Y-104393358D01*
X156769942Y-104307887D01*
X156627809Y-104249013D01*
X156476922Y-104219000D01*
X156427223Y-104219000D01*
X155128970Y-102920748D01*
X155111067Y-102898933D01*
X155024045Y-102827516D01*
X154924762Y-102774448D01*
X154817034Y-102741769D01*
X154749722Y-102735140D01*
X154705000Y-102730735D01*
X154676926Y-102733500D01*
X153292354Y-102733500D01*
X153278701Y-102688492D01*
X153243322Y-102622304D01*
X153213368Y-102585804D01*
X153213447Y-102584999D01*
X153211000Y-102560153D01*
X153211000Y-102560146D01*
X153203678Y-102485807D01*
X153202669Y-102482479D01*
X153186085Y-102427809D01*
X153174745Y-102390425D01*
X153127759Y-102302521D01*
X153064527Y-102225473D01*
X153045220Y-102209628D01*
X151706000Y-100870409D01*
X151706000Y-99498501D01*
X151806642Y-99397859D01*
X151892113Y-99269942D01*
X151950987Y-99127809D01*
X151981000Y-98976922D01*
X151981000Y-98823078D01*
X151950987Y-98672191D01*
X151892113Y-98530058D01*
X151806642Y-98402141D01*
X151697859Y-98293358D01*
X151569942Y-98207887D01*
X151427809Y-98149013D01*
X151276922Y-98119000D01*
X151123078Y-98119000D01*
X150972191Y-98149013D01*
X150830058Y-98207887D01*
X150702141Y-98293358D01*
X150593358Y-98402141D01*
X150507887Y-98530058D01*
X150449013Y-98672191D01*
X150419000Y-98823078D01*
X150419000Y-98976922D01*
X150449013Y-99127809D01*
X150507887Y-99269942D01*
X150593358Y-99397859D01*
X150694001Y-99498502D01*
X150694000Y-101055154D01*
X150691553Y-101080000D01*
X150694000Y-101104846D01*
X150694000Y-101104853D01*
X150701322Y-101179192D01*
X150730255Y-101274574D01*
X150777241Y-101362479D01*
X150840473Y-101439527D01*
X150859785Y-101455376D01*
X152122362Y-102717954D01*
X152109513Y-102760311D01*
X152102157Y-102835000D01*
X152102157Y-103775000D01*
X152103421Y-103787829D01*
X152037843Y-103722252D01*
X152037843Y-102835000D01*
X152030487Y-102760311D01*
X152008701Y-102688492D01*
X151973322Y-102622304D01*
X151925711Y-102564289D01*
X151867696Y-102516678D01*
X151801508Y-102481299D01*
X151729689Y-102459513D01*
X151655000Y-102452157D01*
X151215000Y-102452157D01*
X151140311Y-102459513D01*
X151068492Y-102481299D01*
X151002304Y-102516678D01*
X150944289Y-102564289D01*
X150896678Y-102622304D01*
X150861299Y-102688492D01*
X150839513Y-102760311D01*
X150832157Y-102835000D01*
X150832157Y-103775000D01*
X150836490Y-103819000D01*
X150823078Y-103819000D01*
X150762319Y-103831086D01*
X150767843Y-103775000D01*
X150767843Y-102835000D01*
X150760487Y-102760311D01*
X150738701Y-102688492D01*
X150703322Y-102622304D01*
X150655711Y-102564289D01*
X150597696Y-102516678D01*
X150531508Y-102481299D01*
X150459689Y-102459513D01*
X150385000Y-102452157D01*
X149945000Y-102452157D01*
X149870311Y-102459513D01*
X149798492Y-102481299D01*
X149732304Y-102516678D01*
X149674289Y-102564289D01*
X149626678Y-102622304D01*
X149591299Y-102688492D01*
X149569513Y-102760311D01*
X149562157Y-102835000D01*
X149562157Y-103775000D01*
X149569513Y-103849689D01*
X149591299Y-103921508D01*
X149594000Y-103926562D01*
X149594000Y-104340838D01*
X149591553Y-104365685D01*
X149594000Y-104390531D01*
X149594000Y-104390538D01*
X149601322Y-104464877D01*
X149630255Y-104560259D01*
X149677241Y-104648164D01*
X149740473Y-104725212D01*
X149759785Y-104741061D01*
X149958939Y-104940215D01*
X149974788Y-104959527D01*
X150051836Y-105022759D01*
X150139740Y-105069745D01*
X150209721Y-105090973D01*
X150235121Y-105098678D01*
X150245009Y-105099652D01*
X150300629Y-105105130D01*
X150312656Y-105117157D01*
X148650000Y-105117157D01*
X148575311Y-105124513D01*
X148503492Y-105146299D01*
X148472987Y-105162605D01*
X149235220Y-104400372D01*
X149254527Y-104384527D01*
X149317759Y-104307479D01*
X149364745Y-104219575D01*
X149393678Y-104124193D01*
X149401000Y-104049854D01*
X149403448Y-104025000D01*
X149403369Y-104024195D01*
X149433322Y-103987696D01*
X149468701Y-103921508D01*
X149490487Y-103849689D01*
X149497843Y-103775000D01*
X149497843Y-102835000D01*
X149490487Y-102760311D01*
X149468701Y-102688492D01*
X149433322Y-102622304D01*
X149385711Y-102564289D01*
X149327696Y-102516678D01*
X149261508Y-102481299D01*
X149189689Y-102459513D01*
X149115000Y-102452157D01*
X148675000Y-102452157D01*
X148600311Y-102459513D01*
X148528492Y-102481299D01*
X148462304Y-102516678D01*
X148404289Y-102564289D01*
X148356678Y-102622304D01*
X148321299Y-102688492D01*
X148299513Y-102760311D01*
X148292157Y-102835000D01*
X148292157Y-103775000D01*
X148299513Y-103849689D01*
X148312362Y-103892046D01*
X147310409Y-104894000D01*
X147298501Y-104894000D01*
X147197859Y-104793358D01*
X147069942Y-104707887D01*
X146927809Y-104649013D01*
X146920700Y-104647599D01*
X146933877Y-104636785D01*
X146992598Y-104565233D01*
X147036231Y-104483601D01*
X147041794Y-104465261D01*
X147063100Y-104395026D01*
X147072173Y-104302909D01*
X147069900Y-104279832D01*
X147069900Y-101988076D01*
X147072173Y-101964999D01*
X147063100Y-101872882D01*
X147050109Y-101830058D01*
X147036231Y-101784307D01*
X146992598Y-101702675D01*
X146933877Y-101631123D01*
X146915948Y-101616409D01*
X146603912Y-101304374D01*
X146609500Y-101276282D01*
X146609500Y-101123718D01*
X146579736Y-100974087D01*
X146521353Y-100833137D01*
X146436593Y-100706285D01*
X146328715Y-100598407D01*
X146278718Y-100565000D01*
X146328715Y-100531593D01*
X146436593Y-100423715D01*
X146521353Y-100296863D01*
X146579736Y-100155913D01*
X146609500Y-100006282D01*
X146609500Y-99853718D01*
X146579736Y-99704087D01*
X146521353Y-99563137D01*
X146479014Y-99499773D01*
X146631178Y-99436744D01*
X146774736Y-99340822D01*
X146896822Y-99218736D01*
X146992744Y-99075178D01*
X147058817Y-98915666D01*
X147092500Y-98746328D01*
X147092500Y-98573672D01*
X147058817Y-98404334D01*
X146992744Y-98244822D01*
X146896822Y-98101264D01*
X146774736Y-97979178D01*
X146631178Y-97883256D01*
X146471666Y-97817183D01*
X146302328Y-97783500D01*
X146129672Y-97783500D01*
X145960334Y-97817183D01*
X145800822Y-97883256D01*
X145657264Y-97979178D01*
X145535178Y-98101264D01*
X145439256Y-98244822D01*
X145373183Y-98404334D01*
X145339500Y-98573672D01*
X145339500Y-98746328D01*
X145373183Y-98915666D01*
X145439256Y-99075178D01*
X145533682Y-99216497D01*
X145468137Y-99243647D01*
X145341285Y-99328407D01*
X145233407Y-99436285D01*
X145155732Y-99552533D01*
X145129332Y-99545273D01*
X144744605Y-99930000D01*
X145129332Y-100314727D01*
X145155732Y-100307467D01*
X145233407Y-100423715D01*
X145341285Y-100531593D01*
X145391282Y-100565000D01*
X145341285Y-100598407D01*
X145233407Y-100706285D01*
X145200000Y-100756282D01*
X145166593Y-100706285D01*
X145058715Y-100598407D01*
X144942467Y-100520732D01*
X144949727Y-100494332D01*
X144565000Y-100109605D01*
X144180273Y-100494332D01*
X144187533Y-100520732D01*
X144088350Y-100587004D01*
X143969942Y-100507887D01*
X143827809Y-100449013D01*
X143676922Y-100419000D01*
X143523078Y-100419000D01*
X143393000Y-100444874D01*
X143393000Y-99121080D01*
X143399368Y-99056135D01*
X143407256Y-99075178D01*
X143503178Y-99218736D01*
X143625264Y-99340822D01*
X143768822Y-99436744D01*
X143928334Y-99502817D01*
X143965627Y-99510235D01*
X144000666Y-99545274D01*
X143869176Y-99581435D01*
X143814544Y-99723880D01*
X143788752Y-99874247D01*
X143792791Y-100026757D01*
X143826505Y-100175548D01*
X143869176Y-100278565D01*
X144000668Y-100314727D01*
X144385395Y-99930000D01*
X144371253Y-99915858D01*
X144550858Y-99736253D01*
X144565000Y-99750395D01*
X144949727Y-99365668D01*
X144913565Y-99234176D01*
X144866553Y-99216145D01*
X144960744Y-99075178D01*
X145026817Y-98915666D01*
X145060500Y-98746328D01*
X145060500Y-98573672D01*
X145026817Y-98404334D01*
X144960744Y-98244822D01*
X144864822Y-98101264D01*
X144742736Y-97979178D01*
X144599178Y-97883256D01*
X144439666Y-97817183D01*
X144270328Y-97783500D01*
X144097672Y-97783500D01*
X143928334Y-97817183D01*
X143858654Y-97846046D01*
X143966322Y-97714031D01*
X144262107Y-97469337D01*
X144599783Y-97286756D01*
X144966494Y-97173241D01*
X145368385Y-97131000D01*
X160601107Y-97131000D01*
X160613405Y-97129789D01*
X160901750Y-97113258D01*
X160931753Y-97108570D01*
X160961994Y-97105518D01*
X160967886Y-97104291D01*
X161463928Y-96997383D01*
X161501161Y-96985456D01*
X161538493Y-96974069D01*
X161544031Y-96971723D01*
X161544035Y-96971722D01*
X161544039Y-96971720D01*
X162009863Y-96770502D01*
X162044032Y-96751592D01*
X162078480Y-96733150D01*
X162083452Y-96729775D01*
X162083460Y-96729771D01*
X162083466Y-96729766D01*
X162501334Y-96441902D01*
X162531178Y-96416715D01*
X162561389Y-96391933D01*
X162565617Y-96387651D01*
X162919619Y-96024101D01*
X162944002Y-95993598D01*
X162968825Y-95963418D01*
X162972137Y-95958402D01*
X162972141Y-95958397D01*
X162972144Y-95958392D01*
X163248787Y-95533009D01*
X163266795Y-95498325D01*
X163285269Y-95463925D01*
X163287542Y-95458364D01*
X163287547Y-95458355D01*
X163287550Y-95458346D01*
X163476298Y-94987337D01*
X163487215Y-94949854D01*
X163498667Y-94912483D01*
X163499819Y-94906576D01*
X163593489Y-94407865D01*
X163594587Y-94395413D01*
X163597382Y-94383229D01*
X163598107Y-94377255D01*
X163618245Y-94201089D01*
X165208364Y-94201089D01*
X165208364Y-94583551D01*
X165282978Y-94958665D01*
X165429341Y-95312015D01*
X165641826Y-95630021D01*
X165912268Y-95900463D01*
X166230274Y-96112948D01*
X166583624Y-96259311D01*
X166958738Y-96333925D01*
X167341200Y-96333925D01*
X167716314Y-96259311D01*
X168069664Y-96112948D01*
X168387670Y-95900463D01*
X168658112Y-95630021D01*
X168870597Y-95312015D01*
X169016960Y-94958665D01*
X169091574Y-94583551D01*
X169091574Y-94201089D01*
X169016960Y-93825975D01*
X168870597Y-93472625D01*
X168658112Y-93154619D01*
X168387670Y-92884177D01*
X168069664Y-92671692D01*
X167716314Y-92525329D01*
X167341200Y-92450715D01*
X166958738Y-92450715D01*
X166583624Y-92525329D01*
X166230274Y-92671692D01*
X165912268Y-92884177D01*
X165641826Y-93154619D01*
X165429341Y-93472625D01*
X165282978Y-93825975D01*
X165208364Y-94201089D01*
X163618245Y-94201089D01*
X163681541Y-93647394D01*
X163892288Y-92987892D01*
X164227118Y-92381886D01*
X164673279Y-91852457D01*
X165213776Y-91419769D01*
X165828021Y-91100305D01*
X166492622Y-90906234D01*
X167182259Y-90844946D01*
X167870664Y-90918777D01*
G36*
X173203748Y-118105858D02*
G01*
X173189605Y-118120000D01*
X173203748Y-118134143D01*
X173024143Y-118313748D01*
X173010000Y-118299605D01*
X172995858Y-118313748D01*
X172816253Y-118134143D01*
X172830395Y-118120000D01*
X172816253Y-118105858D01*
X172995858Y-117926253D01*
X173010000Y-117940395D01*
X173024143Y-117926253D01*
X173203748Y-118105858D01*
G37*
X173203748Y-118105858D02*
X173189605Y-118120000D01*
X173203748Y-118134143D01*
X173024143Y-118313748D01*
X173010000Y-118299605D01*
X172995858Y-118313748D01*
X172816253Y-118134143D01*
X172830395Y-118120000D01*
X172816253Y-118105858D01*
X172995858Y-117926253D01*
X173010000Y-117940395D01*
X173024143Y-117926253D01*
X173203748Y-118105858D01*
M02*
