G04 #@! TF.GenerationSoftware,KiCad,Pcbnew,(5.1.5)-3*
G04 #@! TF.CreationDate,2021-08-13T16:15:14-07:00*
G04 #@! TF.ProjectId,Xenigotchi-v1.5,58656e69-676f-4746-9368-692d76312e35,rev?*
G04 #@! TF.SameCoordinates,Original*
G04 #@! TF.FileFunction,Copper,L1,Top*
G04 #@! TF.FilePolarity,Positive*
%FSLAX46Y46*%
G04 Gerber Fmt 4.6, Leading zero omitted, Abs format (unit mm)*
G04 Created by KiCad (PCBNEW (5.1.5)-3) date 2021-08-13 16:15:14*
%MOMM*%
%LPD*%
G04 APERTURE LIST*
%ADD10R,1.200000X0.900000*%
%ADD11R,0.650000X1.060000*%
%ADD12C,0.100000*%
%ADD13R,1.905000X1.295400*%
%ADD14R,1.549400X0.660400*%
%ADD15R,2.500000X2.500000*%
%ADD16R,1.300000X0.600000*%
%ADD17R,2.000000X5.000000*%
%ADD18R,1.700000X4.000000*%
%ADD19R,3.000000X0.900000*%
%ADD20R,0.900000X3.000000*%
%ADD21R,0.500000X0.800000*%
%ADD22R,1.208000X1.208000*%
%ADD23C,1.208000*%
%ADD24C,0.800000*%
%ADD25C,0.250000*%
%ADD26C,0.381000*%
%ADD27C,0.400000*%
%ADD28C,0.254000*%
%ADD29C,0.177800*%
G04 APERTURE END LIST*
D10*
X181600000Y-97650000D03*
X181600000Y-100950000D03*
D11*
X184250000Y-109700000D03*
X186150000Y-109700000D03*
X186150000Y-111900000D03*
X185200000Y-111900000D03*
X184250000Y-111900000D03*
G04 #@! TA.AperFunction,SMDPad,CuDef*
D12*
G36*
X186852691Y-113026053D02*
G01*
X186873926Y-113029203D01*
X186894750Y-113034419D01*
X186914962Y-113041651D01*
X186934368Y-113050830D01*
X186952781Y-113061866D01*
X186970024Y-113074654D01*
X186985930Y-113089070D01*
X187000346Y-113104976D01*
X187013134Y-113122219D01*
X187024170Y-113140632D01*
X187033349Y-113160038D01*
X187040581Y-113180250D01*
X187045797Y-113201074D01*
X187048947Y-113222309D01*
X187050000Y-113243750D01*
X187050000Y-113756250D01*
X187048947Y-113777691D01*
X187045797Y-113798926D01*
X187040581Y-113819750D01*
X187033349Y-113839962D01*
X187024170Y-113859368D01*
X187013134Y-113877781D01*
X187000346Y-113895024D01*
X186985930Y-113910930D01*
X186970024Y-113925346D01*
X186952781Y-113938134D01*
X186934368Y-113949170D01*
X186914962Y-113958349D01*
X186894750Y-113965581D01*
X186873926Y-113970797D01*
X186852691Y-113973947D01*
X186831250Y-113975000D01*
X186393750Y-113975000D01*
X186372309Y-113973947D01*
X186351074Y-113970797D01*
X186330250Y-113965581D01*
X186310038Y-113958349D01*
X186290632Y-113949170D01*
X186272219Y-113938134D01*
X186254976Y-113925346D01*
X186239070Y-113910930D01*
X186224654Y-113895024D01*
X186211866Y-113877781D01*
X186200830Y-113859368D01*
X186191651Y-113839962D01*
X186184419Y-113819750D01*
X186179203Y-113798926D01*
X186176053Y-113777691D01*
X186175000Y-113756250D01*
X186175000Y-113243750D01*
X186176053Y-113222309D01*
X186179203Y-113201074D01*
X186184419Y-113180250D01*
X186191651Y-113160038D01*
X186200830Y-113140632D01*
X186211866Y-113122219D01*
X186224654Y-113104976D01*
X186239070Y-113089070D01*
X186254976Y-113074654D01*
X186272219Y-113061866D01*
X186290632Y-113050830D01*
X186310038Y-113041651D01*
X186330250Y-113034419D01*
X186351074Y-113029203D01*
X186372309Y-113026053D01*
X186393750Y-113025000D01*
X186831250Y-113025000D01*
X186852691Y-113026053D01*
G37*
G04 #@! TD.AperFunction*
G04 #@! TA.AperFunction,SMDPad,CuDef*
G36*
X188427691Y-113026053D02*
G01*
X188448926Y-113029203D01*
X188469750Y-113034419D01*
X188489962Y-113041651D01*
X188509368Y-113050830D01*
X188527781Y-113061866D01*
X188545024Y-113074654D01*
X188560930Y-113089070D01*
X188575346Y-113104976D01*
X188588134Y-113122219D01*
X188599170Y-113140632D01*
X188608349Y-113160038D01*
X188615581Y-113180250D01*
X188620797Y-113201074D01*
X188623947Y-113222309D01*
X188625000Y-113243750D01*
X188625000Y-113756250D01*
X188623947Y-113777691D01*
X188620797Y-113798926D01*
X188615581Y-113819750D01*
X188608349Y-113839962D01*
X188599170Y-113859368D01*
X188588134Y-113877781D01*
X188575346Y-113895024D01*
X188560930Y-113910930D01*
X188545024Y-113925346D01*
X188527781Y-113938134D01*
X188509368Y-113949170D01*
X188489962Y-113958349D01*
X188469750Y-113965581D01*
X188448926Y-113970797D01*
X188427691Y-113973947D01*
X188406250Y-113975000D01*
X187968750Y-113975000D01*
X187947309Y-113973947D01*
X187926074Y-113970797D01*
X187905250Y-113965581D01*
X187885038Y-113958349D01*
X187865632Y-113949170D01*
X187847219Y-113938134D01*
X187829976Y-113925346D01*
X187814070Y-113910930D01*
X187799654Y-113895024D01*
X187786866Y-113877781D01*
X187775830Y-113859368D01*
X187766651Y-113839962D01*
X187759419Y-113819750D01*
X187754203Y-113798926D01*
X187751053Y-113777691D01*
X187750000Y-113756250D01*
X187750000Y-113243750D01*
X187751053Y-113222309D01*
X187754203Y-113201074D01*
X187759419Y-113180250D01*
X187766651Y-113160038D01*
X187775830Y-113140632D01*
X187786866Y-113122219D01*
X187799654Y-113104976D01*
X187814070Y-113089070D01*
X187829976Y-113074654D01*
X187847219Y-113061866D01*
X187865632Y-113050830D01*
X187885038Y-113041651D01*
X187905250Y-113034419D01*
X187926074Y-113029203D01*
X187947309Y-113026053D01*
X187968750Y-113025000D01*
X188406250Y-113025000D01*
X188427691Y-113026053D01*
G37*
G04 #@! TD.AperFunction*
D13*
X187976501Y-105699999D03*
X187976501Y-100100001D03*
D14*
X184101500Y-101400000D03*
X184101500Y-102400001D03*
X184101500Y-103399999D03*
X184101500Y-104400000D03*
D15*
X178700000Y-98400000D03*
X178700000Y-105400000D03*
X171700000Y-105400000D03*
X171700000Y-98400000D03*
D16*
X169350000Y-98900000D03*
X167250000Y-97950000D03*
X167250000Y-99850000D03*
G04 #@! TA.AperFunction,SMDPad,CuDef*
D12*
G36*
X168377691Y-101176053D02*
G01*
X168398926Y-101179203D01*
X168419750Y-101184419D01*
X168439962Y-101191651D01*
X168459368Y-101200830D01*
X168477781Y-101211866D01*
X168495024Y-101224654D01*
X168510930Y-101239070D01*
X168525346Y-101254976D01*
X168538134Y-101272219D01*
X168549170Y-101290632D01*
X168558349Y-101310038D01*
X168565581Y-101330250D01*
X168570797Y-101351074D01*
X168573947Y-101372309D01*
X168575000Y-101393750D01*
X168575000Y-101831250D01*
X168573947Y-101852691D01*
X168570797Y-101873926D01*
X168565581Y-101894750D01*
X168558349Y-101914962D01*
X168549170Y-101934368D01*
X168538134Y-101952781D01*
X168525346Y-101970024D01*
X168510930Y-101985930D01*
X168495024Y-102000346D01*
X168477781Y-102013134D01*
X168459368Y-102024170D01*
X168439962Y-102033349D01*
X168419750Y-102040581D01*
X168398926Y-102045797D01*
X168377691Y-102048947D01*
X168356250Y-102050000D01*
X167843750Y-102050000D01*
X167822309Y-102048947D01*
X167801074Y-102045797D01*
X167780250Y-102040581D01*
X167760038Y-102033349D01*
X167740632Y-102024170D01*
X167722219Y-102013134D01*
X167704976Y-102000346D01*
X167689070Y-101985930D01*
X167674654Y-101970024D01*
X167661866Y-101952781D01*
X167650830Y-101934368D01*
X167641651Y-101914962D01*
X167634419Y-101894750D01*
X167629203Y-101873926D01*
X167626053Y-101852691D01*
X167625000Y-101831250D01*
X167625000Y-101393750D01*
X167626053Y-101372309D01*
X167629203Y-101351074D01*
X167634419Y-101330250D01*
X167641651Y-101310038D01*
X167650830Y-101290632D01*
X167661866Y-101272219D01*
X167674654Y-101254976D01*
X167689070Y-101239070D01*
X167704976Y-101224654D01*
X167722219Y-101211866D01*
X167740632Y-101200830D01*
X167760038Y-101191651D01*
X167780250Y-101184419D01*
X167801074Y-101179203D01*
X167822309Y-101176053D01*
X167843750Y-101175000D01*
X168356250Y-101175000D01*
X168377691Y-101176053D01*
G37*
G04 #@! TD.AperFunction*
G04 #@! TA.AperFunction,SMDPad,CuDef*
G36*
X168377691Y-102751053D02*
G01*
X168398926Y-102754203D01*
X168419750Y-102759419D01*
X168439962Y-102766651D01*
X168459368Y-102775830D01*
X168477781Y-102786866D01*
X168495024Y-102799654D01*
X168510930Y-102814070D01*
X168525346Y-102829976D01*
X168538134Y-102847219D01*
X168549170Y-102865632D01*
X168558349Y-102885038D01*
X168565581Y-102905250D01*
X168570797Y-102926074D01*
X168573947Y-102947309D01*
X168575000Y-102968750D01*
X168575000Y-103406250D01*
X168573947Y-103427691D01*
X168570797Y-103448926D01*
X168565581Y-103469750D01*
X168558349Y-103489962D01*
X168549170Y-103509368D01*
X168538134Y-103527781D01*
X168525346Y-103545024D01*
X168510930Y-103560930D01*
X168495024Y-103575346D01*
X168477781Y-103588134D01*
X168459368Y-103599170D01*
X168439962Y-103608349D01*
X168419750Y-103615581D01*
X168398926Y-103620797D01*
X168377691Y-103623947D01*
X168356250Y-103625000D01*
X167843750Y-103625000D01*
X167822309Y-103623947D01*
X167801074Y-103620797D01*
X167780250Y-103615581D01*
X167760038Y-103608349D01*
X167740632Y-103599170D01*
X167722219Y-103588134D01*
X167704976Y-103575346D01*
X167689070Y-103560930D01*
X167674654Y-103545024D01*
X167661866Y-103527781D01*
X167650830Y-103509368D01*
X167641651Y-103489962D01*
X167634419Y-103469750D01*
X167629203Y-103448926D01*
X167626053Y-103427691D01*
X167625000Y-103406250D01*
X167625000Y-102968750D01*
X167626053Y-102947309D01*
X167629203Y-102926074D01*
X167634419Y-102905250D01*
X167641651Y-102885038D01*
X167650830Y-102865632D01*
X167661866Y-102847219D01*
X167674654Y-102829976D01*
X167689070Y-102814070D01*
X167704976Y-102799654D01*
X167722219Y-102786866D01*
X167740632Y-102775830D01*
X167760038Y-102766651D01*
X167780250Y-102759419D01*
X167801074Y-102754203D01*
X167822309Y-102751053D01*
X167843750Y-102750000D01*
X168356250Y-102750000D01*
X168377691Y-102751053D01*
G37*
G04 #@! TD.AperFunction*
D17*
X172025000Y-111200000D03*
D18*
X182175000Y-111200000D03*
D19*
X148750000Y-113025000D03*
X148750000Y-111755000D03*
X148750000Y-110485000D03*
X148750000Y-109215000D03*
X148750000Y-107945000D03*
X148750000Y-106675000D03*
X148750000Y-105405000D03*
X148750000Y-104135000D03*
X148750000Y-102865000D03*
X148750000Y-101595000D03*
X148750000Y-100325000D03*
D20*
X158140000Y-99425000D03*
X156870000Y-99425000D03*
X153060000Y-99425000D03*
X154330000Y-99425000D03*
D19*
X162450000Y-111755000D03*
X162450000Y-110485000D03*
X162450000Y-109215000D03*
X162450000Y-107945000D03*
X162450000Y-106675000D03*
X162450000Y-105405000D03*
X162450000Y-104135000D03*
X162450000Y-102865000D03*
X162450000Y-101595000D03*
X162450000Y-100325000D03*
D20*
X155600000Y-99425000D03*
D21*
X168800000Y-105700000D03*
X168000000Y-105700000D03*
X167200000Y-105700000D03*
X166400000Y-105700000D03*
X165600000Y-105700000D03*
X165600000Y-107900000D03*
X166400000Y-107900000D03*
X167200000Y-107900000D03*
X168000000Y-107900000D03*
X168800000Y-107900000D03*
D22*
X181010000Y-118120000D03*
D23*
X179010000Y-118120000D03*
X177010000Y-118120000D03*
X175010000Y-118120000D03*
X173010000Y-118120000D03*
X171010000Y-118120000D03*
X169010000Y-118120000D03*
X181010000Y-116120000D03*
X179010000Y-116120000D03*
X177010000Y-116120000D03*
X175010000Y-116120000D03*
X173010000Y-116120000D03*
X171010000Y-116120000D03*
X169010000Y-116120000D03*
G04 #@! TA.AperFunction,SMDPad,CuDef*
D12*
G36*
X166877691Y-102751053D02*
G01*
X166898926Y-102754203D01*
X166919750Y-102759419D01*
X166939962Y-102766651D01*
X166959368Y-102775830D01*
X166977781Y-102786866D01*
X166995024Y-102799654D01*
X167010930Y-102814070D01*
X167025346Y-102829976D01*
X167038134Y-102847219D01*
X167049170Y-102865632D01*
X167058349Y-102885038D01*
X167065581Y-102905250D01*
X167070797Y-102926074D01*
X167073947Y-102947309D01*
X167075000Y-102968750D01*
X167075000Y-103406250D01*
X167073947Y-103427691D01*
X167070797Y-103448926D01*
X167065581Y-103469750D01*
X167058349Y-103489962D01*
X167049170Y-103509368D01*
X167038134Y-103527781D01*
X167025346Y-103545024D01*
X167010930Y-103560930D01*
X166995024Y-103575346D01*
X166977781Y-103588134D01*
X166959368Y-103599170D01*
X166939962Y-103608349D01*
X166919750Y-103615581D01*
X166898926Y-103620797D01*
X166877691Y-103623947D01*
X166856250Y-103625000D01*
X166343750Y-103625000D01*
X166322309Y-103623947D01*
X166301074Y-103620797D01*
X166280250Y-103615581D01*
X166260038Y-103608349D01*
X166240632Y-103599170D01*
X166222219Y-103588134D01*
X166204976Y-103575346D01*
X166189070Y-103560930D01*
X166174654Y-103545024D01*
X166161866Y-103527781D01*
X166150830Y-103509368D01*
X166141651Y-103489962D01*
X166134419Y-103469750D01*
X166129203Y-103448926D01*
X166126053Y-103427691D01*
X166125000Y-103406250D01*
X166125000Y-102968750D01*
X166126053Y-102947309D01*
X166129203Y-102926074D01*
X166134419Y-102905250D01*
X166141651Y-102885038D01*
X166150830Y-102865632D01*
X166161866Y-102847219D01*
X166174654Y-102829976D01*
X166189070Y-102814070D01*
X166204976Y-102799654D01*
X166222219Y-102786866D01*
X166240632Y-102775830D01*
X166260038Y-102766651D01*
X166280250Y-102759419D01*
X166301074Y-102754203D01*
X166322309Y-102751053D01*
X166343750Y-102750000D01*
X166856250Y-102750000D01*
X166877691Y-102751053D01*
G37*
G04 #@! TD.AperFunction*
G04 #@! TA.AperFunction,SMDPad,CuDef*
G36*
X166877691Y-101176053D02*
G01*
X166898926Y-101179203D01*
X166919750Y-101184419D01*
X166939962Y-101191651D01*
X166959368Y-101200830D01*
X166977781Y-101211866D01*
X166995024Y-101224654D01*
X167010930Y-101239070D01*
X167025346Y-101254976D01*
X167038134Y-101272219D01*
X167049170Y-101290632D01*
X167058349Y-101310038D01*
X167065581Y-101330250D01*
X167070797Y-101351074D01*
X167073947Y-101372309D01*
X167075000Y-101393750D01*
X167075000Y-101831250D01*
X167073947Y-101852691D01*
X167070797Y-101873926D01*
X167065581Y-101894750D01*
X167058349Y-101914962D01*
X167049170Y-101934368D01*
X167038134Y-101952781D01*
X167025346Y-101970024D01*
X167010930Y-101985930D01*
X166995024Y-102000346D01*
X166977781Y-102013134D01*
X166959368Y-102024170D01*
X166939962Y-102033349D01*
X166919750Y-102040581D01*
X166898926Y-102045797D01*
X166877691Y-102048947D01*
X166856250Y-102050000D01*
X166343750Y-102050000D01*
X166322309Y-102048947D01*
X166301074Y-102045797D01*
X166280250Y-102040581D01*
X166260038Y-102033349D01*
X166240632Y-102024170D01*
X166222219Y-102013134D01*
X166204976Y-102000346D01*
X166189070Y-101985930D01*
X166174654Y-101970024D01*
X166161866Y-101952781D01*
X166150830Y-101934368D01*
X166141651Y-101914962D01*
X166134419Y-101894750D01*
X166129203Y-101873926D01*
X166126053Y-101852691D01*
X166125000Y-101831250D01*
X166125000Y-101393750D01*
X166126053Y-101372309D01*
X166129203Y-101351074D01*
X166134419Y-101330250D01*
X166141651Y-101310038D01*
X166150830Y-101290632D01*
X166161866Y-101272219D01*
X166174654Y-101254976D01*
X166189070Y-101239070D01*
X166204976Y-101224654D01*
X166222219Y-101211866D01*
X166240632Y-101200830D01*
X166260038Y-101191651D01*
X166280250Y-101184419D01*
X166301074Y-101179203D01*
X166322309Y-101176053D01*
X166343750Y-101175000D01*
X166856250Y-101175000D01*
X166877691Y-101176053D01*
G37*
G04 #@! TD.AperFunction*
G04 #@! TA.AperFunction,SMDPad,CuDef*
G36*
X185380142Y-114888674D02*
G01*
X185403803Y-114892184D01*
X185427007Y-114897996D01*
X185449529Y-114906054D01*
X185471153Y-114916282D01*
X185491670Y-114928579D01*
X185510883Y-114942829D01*
X185528607Y-114958893D01*
X185544671Y-114976617D01*
X185558921Y-114995830D01*
X185571218Y-115016347D01*
X185581446Y-115037971D01*
X185589504Y-115060493D01*
X185595316Y-115083697D01*
X185598826Y-115107358D01*
X185600000Y-115131250D01*
X185600000Y-115618750D01*
X185598826Y-115642642D01*
X185595316Y-115666303D01*
X185589504Y-115689507D01*
X185581446Y-115712029D01*
X185571218Y-115733653D01*
X185558921Y-115754170D01*
X185544671Y-115773383D01*
X185528607Y-115791107D01*
X185510883Y-115807171D01*
X185491670Y-115821421D01*
X185471153Y-115833718D01*
X185449529Y-115843946D01*
X185427007Y-115852004D01*
X185403803Y-115857816D01*
X185380142Y-115861326D01*
X185356250Y-115862500D01*
X184443750Y-115862500D01*
X184419858Y-115861326D01*
X184396197Y-115857816D01*
X184372993Y-115852004D01*
X184350471Y-115843946D01*
X184328847Y-115833718D01*
X184308330Y-115821421D01*
X184289117Y-115807171D01*
X184271393Y-115791107D01*
X184255329Y-115773383D01*
X184241079Y-115754170D01*
X184228782Y-115733653D01*
X184218554Y-115712029D01*
X184210496Y-115689507D01*
X184204684Y-115666303D01*
X184201174Y-115642642D01*
X184200000Y-115618750D01*
X184200000Y-115131250D01*
X184201174Y-115107358D01*
X184204684Y-115083697D01*
X184210496Y-115060493D01*
X184218554Y-115037971D01*
X184228782Y-115016347D01*
X184241079Y-114995830D01*
X184255329Y-114976617D01*
X184271393Y-114958893D01*
X184289117Y-114942829D01*
X184308330Y-114928579D01*
X184328847Y-114916282D01*
X184350471Y-114906054D01*
X184372993Y-114897996D01*
X184396197Y-114892184D01*
X184419858Y-114888674D01*
X184443750Y-114887500D01*
X185356250Y-114887500D01*
X185380142Y-114888674D01*
G37*
G04 #@! TD.AperFunction*
G04 #@! TA.AperFunction,SMDPad,CuDef*
G36*
X185380142Y-113013674D02*
G01*
X185403803Y-113017184D01*
X185427007Y-113022996D01*
X185449529Y-113031054D01*
X185471153Y-113041282D01*
X185491670Y-113053579D01*
X185510883Y-113067829D01*
X185528607Y-113083893D01*
X185544671Y-113101617D01*
X185558921Y-113120830D01*
X185571218Y-113141347D01*
X185581446Y-113162971D01*
X185589504Y-113185493D01*
X185595316Y-113208697D01*
X185598826Y-113232358D01*
X185600000Y-113256250D01*
X185600000Y-113743750D01*
X185598826Y-113767642D01*
X185595316Y-113791303D01*
X185589504Y-113814507D01*
X185581446Y-113837029D01*
X185571218Y-113858653D01*
X185558921Y-113879170D01*
X185544671Y-113898383D01*
X185528607Y-113916107D01*
X185510883Y-113932171D01*
X185491670Y-113946421D01*
X185471153Y-113958718D01*
X185449529Y-113968946D01*
X185427007Y-113977004D01*
X185403803Y-113982816D01*
X185380142Y-113986326D01*
X185356250Y-113987500D01*
X184443750Y-113987500D01*
X184419858Y-113986326D01*
X184396197Y-113982816D01*
X184372993Y-113977004D01*
X184350471Y-113968946D01*
X184328847Y-113958718D01*
X184308330Y-113946421D01*
X184289117Y-113932171D01*
X184271393Y-113916107D01*
X184255329Y-113898383D01*
X184241079Y-113879170D01*
X184228782Y-113858653D01*
X184218554Y-113837029D01*
X184210496Y-113814507D01*
X184204684Y-113791303D01*
X184201174Y-113767642D01*
X184200000Y-113743750D01*
X184200000Y-113256250D01*
X184201174Y-113232358D01*
X184204684Y-113208697D01*
X184210496Y-113185493D01*
X184218554Y-113162971D01*
X184228782Y-113141347D01*
X184241079Y-113120830D01*
X184255329Y-113101617D01*
X184271393Y-113083893D01*
X184289117Y-113067829D01*
X184308330Y-113053579D01*
X184328847Y-113041282D01*
X184350471Y-113031054D01*
X184372993Y-113022996D01*
X184396197Y-113017184D01*
X184419858Y-113013674D01*
X184443750Y-113012500D01*
X185356250Y-113012500D01*
X185380142Y-113013674D01*
G37*
G04 #@! TD.AperFunction*
G04 #@! TA.AperFunction,SMDPad,CuDef*
G36*
X188580142Y-109576174D02*
G01*
X188603803Y-109579684D01*
X188627007Y-109585496D01*
X188649529Y-109593554D01*
X188671153Y-109603782D01*
X188691670Y-109616079D01*
X188710883Y-109630329D01*
X188728607Y-109646393D01*
X188744671Y-109664117D01*
X188758921Y-109683330D01*
X188771218Y-109703847D01*
X188781446Y-109725471D01*
X188789504Y-109747993D01*
X188795316Y-109771197D01*
X188798826Y-109794858D01*
X188800000Y-109818750D01*
X188800000Y-110306250D01*
X188798826Y-110330142D01*
X188795316Y-110353803D01*
X188789504Y-110377007D01*
X188781446Y-110399529D01*
X188771218Y-110421153D01*
X188758921Y-110441670D01*
X188744671Y-110460883D01*
X188728607Y-110478607D01*
X188710883Y-110494671D01*
X188691670Y-110508921D01*
X188671153Y-110521218D01*
X188649529Y-110531446D01*
X188627007Y-110539504D01*
X188603803Y-110545316D01*
X188580142Y-110548826D01*
X188556250Y-110550000D01*
X187643750Y-110550000D01*
X187619858Y-110548826D01*
X187596197Y-110545316D01*
X187572993Y-110539504D01*
X187550471Y-110531446D01*
X187528847Y-110521218D01*
X187508330Y-110508921D01*
X187489117Y-110494671D01*
X187471393Y-110478607D01*
X187455329Y-110460883D01*
X187441079Y-110441670D01*
X187428782Y-110421153D01*
X187418554Y-110399529D01*
X187410496Y-110377007D01*
X187404684Y-110353803D01*
X187401174Y-110330142D01*
X187400000Y-110306250D01*
X187400000Y-109818750D01*
X187401174Y-109794858D01*
X187404684Y-109771197D01*
X187410496Y-109747993D01*
X187418554Y-109725471D01*
X187428782Y-109703847D01*
X187441079Y-109683330D01*
X187455329Y-109664117D01*
X187471393Y-109646393D01*
X187489117Y-109630329D01*
X187508330Y-109616079D01*
X187528847Y-109603782D01*
X187550471Y-109593554D01*
X187572993Y-109585496D01*
X187596197Y-109579684D01*
X187619858Y-109576174D01*
X187643750Y-109575000D01*
X188556250Y-109575000D01*
X188580142Y-109576174D01*
G37*
G04 #@! TD.AperFunction*
G04 #@! TA.AperFunction,SMDPad,CuDef*
G36*
X188580142Y-111451174D02*
G01*
X188603803Y-111454684D01*
X188627007Y-111460496D01*
X188649529Y-111468554D01*
X188671153Y-111478782D01*
X188691670Y-111491079D01*
X188710883Y-111505329D01*
X188728607Y-111521393D01*
X188744671Y-111539117D01*
X188758921Y-111558330D01*
X188771218Y-111578847D01*
X188781446Y-111600471D01*
X188789504Y-111622993D01*
X188795316Y-111646197D01*
X188798826Y-111669858D01*
X188800000Y-111693750D01*
X188800000Y-112181250D01*
X188798826Y-112205142D01*
X188795316Y-112228803D01*
X188789504Y-112252007D01*
X188781446Y-112274529D01*
X188771218Y-112296153D01*
X188758921Y-112316670D01*
X188744671Y-112335883D01*
X188728607Y-112353607D01*
X188710883Y-112369671D01*
X188691670Y-112383921D01*
X188671153Y-112396218D01*
X188649529Y-112406446D01*
X188627007Y-112414504D01*
X188603803Y-112420316D01*
X188580142Y-112423826D01*
X188556250Y-112425000D01*
X187643750Y-112425000D01*
X187619858Y-112423826D01*
X187596197Y-112420316D01*
X187572993Y-112414504D01*
X187550471Y-112406446D01*
X187528847Y-112396218D01*
X187508330Y-112383921D01*
X187489117Y-112369671D01*
X187471393Y-112353607D01*
X187455329Y-112335883D01*
X187441079Y-112316670D01*
X187428782Y-112296153D01*
X187418554Y-112274529D01*
X187410496Y-112252007D01*
X187404684Y-112228803D01*
X187401174Y-112205142D01*
X187400000Y-112181250D01*
X187400000Y-111693750D01*
X187401174Y-111669858D01*
X187404684Y-111646197D01*
X187410496Y-111622993D01*
X187418554Y-111600471D01*
X187428782Y-111578847D01*
X187441079Y-111558330D01*
X187455329Y-111539117D01*
X187471393Y-111521393D01*
X187489117Y-111505329D01*
X187508330Y-111491079D01*
X187528847Y-111478782D01*
X187550471Y-111468554D01*
X187572993Y-111460496D01*
X187596197Y-111454684D01*
X187619858Y-111451174D01*
X187643750Y-111450000D01*
X188556250Y-111450000D01*
X188580142Y-111451174D01*
G37*
G04 #@! TD.AperFunction*
G04 #@! TA.AperFunction,SMDPad,CuDef*
G36*
X170240191Y-109726053D02*
G01*
X170261426Y-109729203D01*
X170282250Y-109734419D01*
X170302462Y-109741651D01*
X170321868Y-109750830D01*
X170340281Y-109761866D01*
X170357524Y-109774654D01*
X170373430Y-109789070D01*
X170387846Y-109804976D01*
X170400634Y-109822219D01*
X170411670Y-109840632D01*
X170420849Y-109860038D01*
X170428081Y-109880250D01*
X170433297Y-109901074D01*
X170436447Y-109922309D01*
X170437500Y-109943750D01*
X170437500Y-110456250D01*
X170436447Y-110477691D01*
X170433297Y-110498926D01*
X170428081Y-110519750D01*
X170420849Y-110539962D01*
X170411670Y-110559368D01*
X170400634Y-110577781D01*
X170387846Y-110595024D01*
X170373430Y-110610930D01*
X170357524Y-110625346D01*
X170340281Y-110638134D01*
X170321868Y-110649170D01*
X170302462Y-110658349D01*
X170282250Y-110665581D01*
X170261426Y-110670797D01*
X170240191Y-110673947D01*
X170218750Y-110675000D01*
X169781250Y-110675000D01*
X169759809Y-110673947D01*
X169738574Y-110670797D01*
X169717750Y-110665581D01*
X169697538Y-110658349D01*
X169678132Y-110649170D01*
X169659719Y-110638134D01*
X169642476Y-110625346D01*
X169626570Y-110610930D01*
X169612154Y-110595024D01*
X169599366Y-110577781D01*
X169588330Y-110559368D01*
X169579151Y-110539962D01*
X169571919Y-110519750D01*
X169566703Y-110498926D01*
X169563553Y-110477691D01*
X169562500Y-110456250D01*
X169562500Y-109943750D01*
X169563553Y-109922309D01*
X169566703Y-109901074D01*
X169571919Y-109880250D01*
X169579151Y-109860038D01*
X169588330Y-109840632D01*
X169599366Y-109822219D01*
X169612154Y-109804976D01*
X169626570Y-109789070D01*
X169642476Y-109774654D01*
X169659719Y-109761866D01*
X169678132Y-109750830D01*
X169697538Y-109741651D01*
X169717750Y-109734419D01*
X169738574Y-109729203D01*
X169759809Y-109726053D01*
X169781250Y-109725000D01*
X170218750Y-109725000D01*
X170240191Y-109726053D01*
G37*
G04 #@! TD.AperFunction*
G04 #@! TA.AperFunction,SMDPad,CuDef*
G36*
X168665191Y-109726053D02*
G01*
X168686426Y-109729203D01*
X168707250Y-109734419D01*
X168727462Y-109741651D01*
X168746868Y-109750830D01*
X168765281Y-109761866D01*
X168782524Y-109774654D01*
X168798430Y-109789070D01*
X168812846Y-109804976D01*
X168825634Y-109822219D01*
X168836670Y-109840632D01*
X168845849Y-109860038D01*
X168853081Y-109880250D01*
X168858297Y-109901074D01*
X168861447Y-109922309D01*
X168862500Y-109943750D01*
X168862500Y-110456250D01*
X168861447Y-110477691D01*
X168858297Y-110498926D01*
X168853081Y-110519750D01*
X168845849Y-110539962D01*
X168836670Y-110559368D01*
X168825634Y-110577781D01*
X168812846Y-110595024D01*
X168798430Y-110610930D01*
X168782524Y-110625346D01*
X168765281Y-110638134D01*
X168746868Y-110649170D01*
X168727462Y-110658349D01*
X168707250Y-110665581D01*
X168686426Y-110670797D01*
X168665191Y-110673947D01*
X168643750Y-110675000D01*
X168206250Y-110675000D01*
X168184809Y-110673947D01*
X168163574Y-110670797D01*
X168142750Y-110665581D01*
X168122538Y-110658349D01*
X168103132Y-110649170D01*
X168084719Y-110638134D01*
X168067476Y-110625346D01*
X168051570Y-110610930D01*
X168037154Y-110595024D01*
X168024366Y-110577781D01*
X168013330Y-110559368D01*
X168004151Y-110539962D01*
X167996919Y-110519750D01*
X167991703Y-110498926D01*
X167988553Y-110477691D01*
X167987500Y-110456250D01*
X167987500Y-109943750D01*
X167988553Y-109922309D01*
X167991703Y-109901074D01*
X167996919Y-109880250D01*
X168004151Y-109860038D01*
X168013330Y-109840632D01*
X168024366Y-109822219D01*
X168037154Y-109804976D01*
X168051570Y-109789070D01*
X168067476Y-109774654D01*
X168084719Y-109761866D01*
X168103132Y-109750830D01*
X168122538Y-109741651D01*
X168142750Y-109734419D01*
X168163574Y-109729203D01*
X168184809Y-109726053D01*
X168206250Y-109725000D01*
X168643750Y-109725000D01*
X168665191Y-109726053D01*
G37*
G04 #@! TD.AperFunction*
G04 #@! TA.AperFunction,SMDPad,CuDef*
G36*
X165977691Y-98851053D02*
G01*
X165998926Y-98854203D01*
X166019750Y-98859419D01*
X166039962Y-98866651D01*
X166059368Y-98875830D01*
X166077781Y-98886866D01*
X166095024Y-98899654D01*
X166110930Y-98914070D01*
X166125346Y-98929976D01*
X166138134Y-98947219D01*
X166149170Y-98965632D01*
X166158349Y-98985038D01*
X166165581Y-99005250D01*
X166170797Y-99026074D01*
X166173947Y-99047309D01*
X166175000Y-99068750D01*
X166175000Y-99506250D01*
X166173947Y-99527691D01*
X166170797Y-99548926D01*
X166165581Y-99569750D01*
X166158349Y-99589962D01*
X166149170Y-99609368D01*
X166138134Y-99627781D01*
X166125346Y-99645024D01*
X166110930Y-99660930D01*
X166095024Y-99675346D01*
X166077781Y-99688134D01*
X166059368Y-99699170D01*
X166039962Y-99708349D01*
X166019750Y-99715581D01*
X165998926Y-99720797D01*
X165977691Y-99723947D01*
X165956250Y-99725000D01*
X165443750Y-99725000D01*
X165422309Y-99723947D01*
X165401074Y-99720797D01*
X165380250Y-99715581D01*
X165360038Y-99708349D01*
X165340632Y-99699170D01*
X165322219Y-99688134D01*
X165304976Y-99675346D01*
X165289070Y-99660930D01*
X165274654Y-99645024D01*
X165261866Y-99627781D01*
X165250830Y-99609368D01*
X165241651Y-99589962D01*
X165234419Y-99569750D01*
X165229203Y-99548926D01*
X165226053Y-99527691D01*
X165225000Y-99506250D01*
X165225000Y-99068750D01*
X165226053Y-99047309D01*
X165229203Y-99026074D01*
X165234419Y-99005250D01*
X165241651Y-98985038D01*
X165250830Y-98965632D01*
X165261866Y-98947219D01*
X165274654Y-98929976D01*
X165289070Y-98914070D01*
X165304976Y-98899654D01*
X165322219Y-98886866D01*
X165340632Y-98875830D01*
X165360038Y-98866651D01*
X165380250Y-98859419D01*
X165401074Y-98854203D01*
X165422309Y-98851053D01*
X165443750Y-98850000D01*
X165956250Y-98850000D01*
X165977691Y-98851053D01*
G37*
G04 #@! TD.AperFunction*
G04 #@! TA.AperFunction,SMDPad,CuDef*
G36*
X165977691Y-97276053D02*
G01*
X165998926Y-97279203D01*
X166019750Y-97284419D01*
X166039962Y-97291651D01*
X166059368Y-97300830D01*
X166077781Y-97311866D01*
X166095024Y-97324654D01*
X166110930Y-97339070D01*
X166125346Y-97354976D01*
X166138134Y-97372219D01*
X166149170Y-97390632D01*
X166158349Y-97410038D01*
X166165581Y-97430250D01*
X166170797Y-97451074D01*
X166173947Y-97472309D01*
X166175000Y-97493750D01*
X166175000Y-97931250D01*
X166173947Y-97952691D01*
X166170797Y-97973926D01*
X166165581Y-97994750D01*
X166158349Y-98014962D01*
X166149170Y-98034368D01*
X166138134Y-98052781D01*
X166125346Y-98070024D01*
X166110930Y-98085930D01*
X166095024Y-98100346D01*
X166077781Y-98113134D01*
X166059368Y-98124170D01*
X166039962Y-98133349D01*
X166019750Y-98140581D01*
X165998926Y-98145797D01*
X165977691Y-98148947D01*
X165956250Y-98150000D01*
X165443750Y-98150000D01*
X165422309Y-98148947D01*
X165401074Y-98145797D01*
X165380250Y-98140581D01*
X165360038Y-98133349D01*
X165340632Y-98124170D01*
X165322219Y-98113134D01*
X165304976Y-98100346D01*
X165289070Y-98085930D01*
X165274654Y-98070024D01*
X165261866Y-98052781D01*
X165250830Y-98034368D01*
X165241651Y-98014962D01*
X165234419Y-97994750D01*
X165229203Y-97973926D01*
X165226053Y-97952691D01*
X165225000Y-97931250D01*
X165225000Y-97493750D01*
X165226053Y-97472309D01*
X165229203Y-97451074D01*
X165234419Y-97430250D01*
X165241651Y-97410038D01*
X165250830Y-97390632D01*
X165261866Y-97372219D01*
X165274654Y-97354976D01*
X165289070Y-97339070D01*
X165304976Y-97324654D01*
X165322219Y-97311866D01*
X165340632Y-97300830D01*
X165360038Y-97291651D01*
X165380250Y-97284419D01*
X165401074Y-97279203D01*
X165422309Y-97276053D01*
X165443750Y-97275000D01*
X165956250Y-97275000D01*
X165977691Y-97276053D01*
G37*
G04 #@! TD.AperFunction*
G04 #@! TA.AperFunction,SMDPad,CuDef*
G36*
X169877691Y-101176053D02*
G01*
X169898926Y-101179203D01*
X169919750Y-101184419D01*
X169939962Y-101191651D01*
X169959368Y-101200830D01*
X169977781Y-101211866D01*
X169995024Y-101224654D01*
X170010930Y-101239070D01*
X170025346Y-101254976D01*
X170038134Y-101272219D01*
X170049170Y-101290632D01*
X170058349Y-101310038D01*
X170065581Y-101330250D01*
X170070797Y-101351074D01*
X170073947Y-101372309D01*
X170075000Y-101393750D01*
X170075000Y-101831250D01*
X170073947Y-101852691D01*
X170070797Y-101873926D01*
X170065581Y-101894750D01*
X170058349Y-101914962D01*
X170049170Y-101934368D01*
X170038134Y-101952781D01*
X170025346Y-101970024D01*
X170010930Y-101985930D01*
X169995024Y-102000346D01*
X169977781Y-102013134D01*
X169959368Y-102024170D01*
X169939962Y-102033349D01*
X169919750Y-102040581D01*
X169898926Y-102045797D01*
X169877691Y-102048947D01*
X169856250Y-102050000D01*
X169343750Y-102050000D01*
X169322309Y-102048947D01*
X169301074Y-102045797D01*
X169280250Y-102040581D01*
X169260038Y-102033349D01*
X169240632Y-102024170D01*
X169222219Y-102013134D01*
X169204976Y-102000346D01*
X169189070Y-101985930D01*
X169174654Y-101970024D01*
X169161866Y-101952781D01*
X169150830Y-101934368D01*
X169141651Y-101914962D01*
X169134419Y-101894750D01*
X169129203Y-101873926D01*
X169126053Y-101852691D01*
X169125000Y-101831250D01*
X169125000Y-101393750D01*
X169126053Y-101372309D01*
X169129203Y-101351074D01*
X169134419Y-101330250D01*
X169141651Y-101310038D01*
X169150830Y-101290632D01*
X169161866Y-101272219D01*
X169174654Y-101254976D01*
X169189070Y-101239070D01*
X169204976Y-101224654D01*
X169222219Y-101211866D01*
X169240632Y-101200830D01*
X169260038Y-101191651D01*
X169280250Y-101184419D01*
X169301074Y-101179203D01*
X169322309Y-101176053D01*
X169343750Y-101175000D01*
X169856250Y-101175000D01*
X169877691Y-101176053D01*
G37*
G04 #@! TD.AperFunction*
G04 #@! TA.AperFunction,SMDPad,CuDef*
G36*
X169877691Y-102751053D02*
G01*
X169898926Y-102754203D01*
X169919750Y-102759419D01*
X169939962Y-102766651D01*
X169959368Y-102775830D01*
X169977781Y-102786866D01*
X169995024Y-102799654D01*
X170010930Y-102814070D01*
X170025346Y-102829976D01*
X170038134Y-102847219D01*
X170049170Y-102865632D01*
X170058349Y-102885038D01*
X170065581Y-102905250D01*
X170070797Y-102926074D01*
X170073947Y-102947309D01*
X170075000Y-102968750D01*
X170075000Y-103406250D01*
X170073947Y-103427691D01*
X170070797Y-103448926D01*
X170065581Y-103469750D01*
X170058349Y-103489962D01*
X170049170Y-103509368D01*
X170038134Y-103527781D01*
X170025346Y-103545024D01*
X170010930Y-103560930D01*
X169995024Y-103575346D01*
X169977781Y-103588134D01*
X169959368Y-103599170D01*
X169939962Y-103608349D01*
X169919750Y-103615581D01*
X169898926Y-103620797D01*
X169877691Y-103623947D01*
X169856250Y-103625000D01*
X169343750Y-103625000D01*
X169322309Y-103623947D01*
X169301074Y-103620797D01*
X169280250Y-103615581D01*
X169260038Y-103608349D01*
X169240632Y-103599170D01*
X169222219Y-103588134D01*
X169204976Y-103575346D01*
X169189070Y-103560930D01*
X169174654Y-103545024D01*
X169161866Y-103527781D01*
X169150830Y-103509368D01*
X169141651Y-103489962D01*
X169134419Y-103469750D01*
X169129203Y-103448926D01*
X169126053Y-103427691D01*
X169125000Y-103406250D01*
X169125000Y-102968750D01*
X169126053Y-102947309D01*
X169129203Y-102926074D01*
X169134419Y-102905250D01*
X169141651Y-102885038D01*
X169150830Y-102865632D01*
X169161866Y-102847219D01*
X169174654Y-102829976D01*
X169189070Y-102814070D01*
X169204976Y-102799654D01*
X169222219Y-102786866D01*
X169240632Y-102775830D01*
X169260038Y-102766651D01*
X169280250Y-102759419D01*
X169301074Y-102754203D01*
X169322309Y-102751053D01*
X169343750Y-102750000D01*
X169856250Y-102750000D01*
X169877691Y-102751053D01*
G37*
G04 #@! TD.AperFunction*
G04 #@! TA.AperFunction,SMDPad,CuDef*
G36*
X167177691Y-111351053D02*
G01*
X167198926Y-111354203D01*
X167219750Y-111359419D01*
X167239962Y-111366651D01*
X167259368Y-111375830D01*
X167277781Y-111386866D01*
X167295024Y-111399654D01*
X167310930Y-111414070D01*
X167325346Y-111429976D01*
X167338134Y-111447219D01*
X167349170Y-111465632D01*
X167358349Y-111485038D01*
X167365581Y-111505250D01*
X167370797Y-111526074D01*
X167373947Y-111547309D01*
X167375000Y-111568750D01*
X167375000Y-112006250D01*
X167373947Y-112027691D01*
X167370797Y-112048926D01*
X167365581Y-112069750D01*
X167358349Y-112089962D01*
X167349170Y-112109368D01*
X167338134Y-112127781D01*
X167325346Y-112145024D01*
X167310930Y-112160930D01*
X167295024Y-112175346D01*
X167277781Y-112188134D01*
X167259368Y-112199170D01*
X167239962Y-112208349D01*
X167219750Y-112215581D01*
X167198926Y-112220797D01*
X167177691Y-112223947D01*
X167156250Y-112225000D01*
X166643750Y-112225000D01*
X166622309Y-112223947D01*
X166601074Y-112220797D01*
X166580250Y-112215581D01*
X166560038Y-112208349D01*
X166540632Y-112199170D01*
X166522219Y-112188134D01*
X166504976Y-112175346D01*
X166489070Y-112160930D01*
X166474654Y-112145024D01*
X166461866Y-112127781D01*
X166450830Y-112109368D01*
X166441651Y-112089962D01*
X166434419Y-112069750D01*
X166429203Y-112048926D01*
X166426053Y-112027691D01*
X166425000Y-112006250D01*
X166425000Y-111568750D01*
X166426053Y-111547309D01*
X166429203Y-111526074D01*
X166434419Y-111505250D01*
X166441651Y-111485038D01*
X166450830Y-111465632D01*
X166461866Y-111447219D01*
X166474654Y-111429976D01*
X166489070Y-111414070D01*
X166504976Y-111399654D01*
X166522219Y-111386866D01*
X166540632Y-111375830D01*
X166560038Y-111366651D01*
X166580250Y-111359419D01*
X166601074Y-111354203D01*
X166622309Y-111351053D01*
X166643750Y-111350000D01*
X167156250Y-111350000D01*
X167177691Y-111351053D01*
G37*
G04 #@! TD.AperFunction*
G04 #@! TA.AperFunction,SMDPad,CuDef*
G36*
X167177691Y-109776053D02*
G01*
X167198926Y-109779203D01*
X167219750Y-109784419D01*
X167239962Y-109791651D01*
X167259368Y-109800830D01*
X167277781Y-109811866D01*
X167295024Y-109824654D01*
X167310930Y-109839070D01*
X167325346Y-109854976D01*
X167338134Y-109872219D01*
X167349170Y-109890632D01*
X167358349Y-109910038D01*
X167365581Y-109930250D01*
X167370797Y-109951074D01*
X167373947Y-109972309D01*
X167375000Y-109993750D01*
X167375000Y-110431250D01*
X167373947Y-110452691D01*
X167370797Y-110473926D01*
X167365581Y-110494750D01*
X167358349Y-110514962D01*
X167349170Y-110534368D01*
X167338134Y-110552781D01*
X167325346Y-110570024D01*
X167310930Y-110585930D01*
X167295024Y-110600346D01*
X167277781Y-110613134D01*
X167259368Y-110624170D01*
X167239962Y-110633349D01*
X167219750Y-110640581D01*
X167198926Y-110645797D01*
X167177691Y-110648947D01*
X167156250Y-110650000D01*
X166643750Y-110650000D01*
X166622309Y-110648947D01*
X166601074Y-110645797D01*
X166580250Y-110640581D01*
X166560038Y-110633349D01*
X166540632Y-110624170D01*
X166522219Y-110613134D01*
X166504976Y-110600346D01*
X166489070Y-110585930D01*
X166474654Y-110570024D01*
X166461866Y-110552781D01*
X166450830Y-110534368D01*
X166441651Y-110514962D01*
X166434419Y-110494750D01*
X166429203Y-110473926D01*
X166426053Y-110452691D01*
X166425000Y-110431250D01*
X166425000Y-109993750D01*
X166426053Y-109972309D01*
X166429203Y-109951074D01*
X166434419Y-109930250D01*
X166441651Y-109910038D01*
X166450830Y-109890632D01*
X166461866Y-109872219D01*
X166474654Y-109854976D01*
X166489070Y-109839070D01*
X166504976Y-109824654D01*
X166522219Y-109811866D01*
X166540632Y-109800830D01*
X166560038Y-109791651D01*
X166580250Y-109784419D01*
X166601074Y-109779203D01*
X166622309Y-109776053D01*
X166643750Y-109775000D01*
X167156250Y-109775000D01*
X167177691Y-109776053D01*
G37*
G04 #@! TD.AperFunction*
G04 #@! TA.AperFunction,SMDPad,CuDef*
G36*
X186127691Y-107626053D02*
G01*
X186148926Y-107629203D01*
X186169750Y-107634419D01*
X186189962Y-107641651D01*
X186209368Y-107650830D01*
X186227781Y-107661866D01*
X186245024Y-107674654D01*
X186260930Y-107689070D01*
X186275346Y-107704976D01*
X186288134Y-107722219D01*
X186299170Y-107740632D01*
X186308349Y-107760038D01*
X186315581Y-107780250D01*
X186320797Y-107801074D01*
X186323947Y-107822309D01*
X186325000Y-107843750D01*
X186325000Y-108356250D01*
X186323947Y-108377691D01*
X186320797Y-108398926D01*
X186315581Y-108419750D01*
X186308349Y-108439962D01*
X186299170Y-108459368D01*
X186288134Y-108477781D01*
X186275346Y-108495024D01*
X186260930Y-108510930D01*
X186245024Y-108525346D01*
X186227781Y-108538134D01*
X186209368Y-108549170D01*
X186189962Y-108558349D01*
X186169750Y-108565581D01*
X186148926Y-108570797D01*
X186127691Y-108573947D01*
X186106250Y-108575000D01*
X185668750Y-108575000D01*
X185647309Y-108573947D01*
X185626074Y-108570797D01*
X185605250Y-108565581D01*
X185585038Y-108558349D01*
X185565632Y-108549170D01*
X185547219Y-108538134D01*
X185529976Y-108525346D01*
X185514070Y-108510930D01*
X185499654Y-108495024D01*
X185486866Y-108477781D01*
X185475830Y-108459368D01*
X185466651Y-108439962D01*
X185459419Y-108419750D01*
X185454203Y-108398926D01*
X185451053Y-108377691D01*
X185450000Y-108356250D01*
X185450000Y-107843750D01*
X185451053Y-107822309D01*
X185454203Y-107801074D01*
X185459419Y-107780250D01*
X185466651Y-107760038D01*
X185475830Y-107740632D01*
X185486866Y-107722219D01*
X185499654Y-107704976D01*
X185514070Y-107689070D01*
X185529976Y-107674654D01*
X185547219Y-107661866D01*
X185565632Y-107650830D01*
X185585038Y-107641651D01*
X185605250Y-107634419D01*
X185626074Y-107629203D01*
X185647309Y-107626053D01*
X185668750Y-107625000D01*
X186106250Y-107625000D01*
X186127691Y-107626053D01*
G37*
G04 #@! TD.AperFunction*
G04 #@! TA.AperFunction,SMDPad,CuDef*
G36*
X184552691Y-107626053D02*
G01*
X184573926Y-107629203D01*
X184594750Y-107634419D01*
X184614962Y-107641651D01*
X184634368Y-107650830D01*
X184652781Y-107661866D01*
X184670024Y-107674654D01*
X184685930Y-107689070D01*
X184700346Y-107704976D01*
X184713134Y-107722219D01*
X184724170Y-107740632D01*
X184733349Y-107760038D01*
X184740581Y-107780250D01*
X184745797Y-107801074D01*
X184748947Y-107822309D01*
X184750000Y-107843750D01*
X184750000Y-108356250D01*
X184748947Y-108377691D01*
X184745797Y-108398926D01*
X184740581Y-108419750D01*
X184733349Y-108439962D01*
X184724170Y-108459368D01*
X184713134Y-108477781D01*
X184700346Y-108495024D01*
X184685930Y-108510930D01*
X184670024Y-108525346D01*
X184652781Y-108538134D01*
X184634368Y-108549170D01*
X184614962Y-108558349D01*
X184594750Y-108565581D01*
X184573926Y-108570797D01*
X184552691Y-108573947D01*
X184531250Y-108575000D01*
X184093750Y-108575000D01*
X184072309Y-108573947D01*
X184051074Y-108570797D01*
X184030250Y-108565581D01*
X184010038Y-108558349D01*
X183990632Y-108549170D01*
X183972219Y-108538134D01*
X183954976Y-108525346D01*
X183939070Y-108510930D01*
X183924654Y-108495024D01*
X183911866Y-108477781D01*
X183900830Y-108459368D01*
X183891651Y-108439962D01*
X183884419Y-108419750D01*
X183879203Y-108398926D01*
X183876053Y-108377691D01*
X183875000Y-108356250D01*
X183875000Y-107843750D01*
X183876053Y-107822309D01*
X183879203Y-107801074D01*
X183884419Y-107780250D01*
X183891651Y-107760038D01*
X183900830Y-107740632D01*
X183911866Y-107722219D01*
X183924654Y-107704976D01*
X183939070Y-107689070D01*
X183954976Y-107674654D01*
X183972219Y-107661866D01*
X183990632Y-107650830D01*
X184010038Y-107641651D01*
X184030250Y-107634419D01*
X184051074Y-107629203D01*
X184072309Y-107626053D01*
X184093750Y-107625000D01*
X184531250Y-107625000D01*
X184552691Y-107626053D01*
G37*
G04 #@! TD.AperFunction*
G04 #@! TA.AperFunction,SMDPad,CuDef*
G36*
X165377691Y-102751053D02*
G01*
X165398926Y-102754203D01*
X165419750Y-102759419D01*
X165439962Y-102766651D01*
X165459368Y-102775830D01*
X165477781Y-102786866D01*
X165495024Y-102799654D01*
X165510930Y-102814070D01*
X165525346Y-102829976D01*
X165538134Y-102847219D01*
X165549170Y-102865632D01*
X165558349Y-102885038D01*
X165565581Y-102905250D01*
X165570797Y-102926074D01*
X165573947Y-102947309D01*
X165575000Y-102968750D01*
X165575000Y-103406250D01*
X165573947Y-103427691D01*
X165570797Y-103448926D01*
X165565581Y-103469750D01*
X165558349Y-103489962D01*
X165549170Y-103509368D01*
X165538134Y-103527781D01*
X165525346Y-103545024D01*
X165510930Y-103560930D01*
X165495024Y-103575346D01*
X165477781Y-103588134D01*
X165459368Y-103599170D01*
X165439962Y-103608349D01*
X165419750Y-103615581D01*
X165398926Y-103620797D01*
X165377691Y-103623947D01*
X165356250Y-103625000D01*
X164843750Y-103625000D01*
X164822309Y-103623947D01*
X164801074Y-103620797D01*
X164780250Y-103615581D01*
X164760038Y-103608349D01*
X164740632Y-103599170D01*
X164722219Y-103588134D01*
X164704976Y-103575346D01*
X164689070Y-103560930D01*
X164674654Y-103545024D01*
X164661866Y-103527781D01*
X164650830Y-103509368D01*
X164641651Y-103489962D01*
X164634419Y-103469750D01*
X164629203Y-103448926D01*
X164626053Y-103427691D01*
X164625000Y-103406250D01*
X164625000Y-102968750D01*
X164626053Y-102947309D01*
X164629203Y-102926074D01*
X164634419Y-102905250D01*
X164641651Y-102885038D01*
X164650830Y-102865632D01*
X164661866Y-102847219D01*
X164674654Y-102829976D01*
X164689070Y-102814070D01*
X164704976Y-102799654D01*
X164722219Y-102786866D01*
X164740632Y-102775830D01*
X164760038Y-102766651D01*
X164780250Y-102759419D01*
X164801074Y-102754203D01*
X164822309Y-102751053D01*
X164843750Y-102750000D01*
X165356250Y-102750000D01*
X165377691Y-102751053D01*
G37*
G04 #@! TD.AperFunction*
G04 #@! TA.AperFunction,SMDPad,CuDef*
G36*
X165377691Y-101176053D02*
G01*
X165398926Y-101179203D01*
X165419750Y-101184419D01*
X165439962Y-101191651D01*
X165459368Y-101200830D01*
X165477781Y-101211866D01*
X165495024Y-101224654D01*
X165510930Y-101239070D01*
X165525346Y-101254976D01*
X165538134Y-101272219D01*
X165549170Y-101290632D01*
X165558349Y-101310038D01*
X165565581Y-101330250D01*
X165570797Y-101351074D01*
X165573947Y-101372309D01*
X165575000Y-101393750D01*
X165575000Y-101831250D01*
X165573947Y-101852691D01*
X165570797Y-101873926D01*
X165565581Y-101894750D01*
X165558349Y-101914962D01*
X165549170Y-101934368D01*
X165538134Y-101952781D01*
X165525346Y-101970024D01*
X165510930Y-101985930D01*
X165495024Y-102000346D01*
X165477781Y-102013134D01*
X165459368Y-102024170D01*
X165439962Y-102033349D01*
X165419750Y-102040581D01*
X165398926Y-102045797D01*
X165377691Y-102048947D01*
X165356250Y-102050000D01*
X164843750Y-102050000D01*
X164822309Y-102048947D01*
X164801074Y-102045797D01*
X164780250Y-102040581D01*
X164760038Y-102033349D01*
X164740632Y-102024170D01*
X164722219Y-102013134D01*
X164704976Y-102000346D01*
X164689070Y-101985930D01*
X164674654Y-101970024D01*
X164661866Y-101952781D01*
X164650830Y-101934368D01*
X164641651Y-101914962D01*
X164634419Y-101894750D01*
X164629203Y-101873926D01*
X164626053Y-101852691D01*
X164625000Y-101831250D01*
X164625000Y-101393750D01*
X164626053Y-101372309D01*
X164629203Y-101351074D01*
X164634419Y-101330250D01*
X164641651Y-101310038D01*
X164650830Y-101290632D01*
X164661866Y-101272219D01*
X164674654Y-101254976D01*
X164689070Y-101239070D01*
X164704976Y-101224654D01*
X164722219Y-101211866D01*
X164740632Y-101200830D01*
X164760038Y-101191651D01*
X164780250Y-101184419D01*
X164801074Y-101179203D01*
X164822309Y-101176053D01*
X164843750Y-101175000D01*
X165356250Y-101175000D01*
X165377691Y-101176053D01*
G37*
G04 #@! TD.AperFunction*
G04 #@! TA.AperFunction,SMDPad,CuDef*
G36*
X170227691Y-111226053D02*
G01*
X170248926Y-111229203D01*
X170269750Y-111234419D01*
X170289962Y-111241651D01*
X170309368Y-111250830D01*
X170327781Y-111261866D01*
X170345024Y-111274654D01*
X170360930Y-111289070D01*
X170375346Y-111304976D01*
X170388134Y-111322219D01*
X170399170Y-111340632D01*
X170408349Y-111360038D01*
X170415581Y-111380250D01*
X170420797Y-111401074D01*
X170423947Y-111422309D01*
X170425000Y-111443750D01*
X170425000Y-111956250D01*
X170423947Y-111977691D01*
X170420797Y-111998926D01*
X170415581Y-112019750D01*
X170408349Y-112039962D01*
X170399170Y-112059368D01*
X170388134Y-112077781D01*
X170375346Y-112095024D01*
X170360930Y-112110930D01*
X170345024Y-112125346D01*
X170327781Y-112138134D01*
X170309368Y-112149170D01*
X170289962Y-112158349D01*
X170269750Y-112165581D01*
X170248926Y-112170797D01*
X170227691Y-112173947D01*
X170206250Y-112175000D01*
X169768750Y-112175000D01*
X169747309Y-112173947D01*
X169726074Y-112170797D01*
X169705250Y-112165581D01*
X169685038Y-112158349D01*
X169665632Y-112149170D01*
X169647219Y-112138134D01*
X169629976Y-112125346D01*
X169614070Y-112110930D01*
X169599654Y-112095024D01*
X169586866Y-112077781D01*
X169575830Y-112059368D01*
X169566651Y-112039962D01*
X169559419Y-112019750D01*
X169554203Y-111998926D01*
X169551053Y-111977691D01*
X169550000Y-111956250D01*
X169550000Y-111443750D01*
X169551053Y-111422309D01*
X169554203Y-111401074D01*
X169559419Y-111380250D01*
X169566651Y-111360038D01*
X169575830Y-111340632D01*
X169586866Y-111322219D01*
X169599654Y-111304976D01*
X169614070Y-111289070D01*
X169629976Y-111274654D01*
X169647219Y-111261866D01*
X169665632Y-111250830D01*
X169685038Y-111241651D01*
X169705250Y-111234419D01*
X169726074Y-111229203D01*
X169747309Y-111226053D01*
X169768750Y-111225000D01*
X170206250Y-111225000D01*
X170227691Y-111226053D01*
G37*
G04 #@! TD.AperFunction*
G04 #@! TA.AperFunction,SMDPad,CuDef*
G36*
X168652691Y-111226053D02*
G01*
X168673926Y-111229203D01*
X168694750Y-111234419D01*
X168714962Y-111241651D01*
X168734368Y-111250830D01*
X168752781Y-111261866D01*
X168770024Y-111274654D01*
X168785930Y-111289070D01*
X168800346Y-111304976D01*
X168813134Y-111322219D01*
X168824170Y-111340632D01*
X168833349Y-111360038D01*
X168840581Y-111380250D01*
X168845797Y-111401074D01*
X168848947Y-111422309D01*
X168850000Y-111443750D01*
X168850000Y-111956250D01*
X168848947Y-111977691D01*
X168845797Y-111998926D01*
X168840581Y-112019750D01*
X168833349Y-112039962D01*
X168824170Y-112059368D01*
X168813134Y-112077781D01*
X168800346Y-112095024D01*
X168785930Y-112110930D01*
X168770024Y-112125346D01*
X168752781Y-112138134D01*
X168734368Y-112149170D01*
X168714962Y-112158349D01*
X168694750Y-112165581D01*
X168673926Y-112170797D01*
X168652691Y-112173947D01*
X168631250Y-112175000D01*
X168193750Y-112175000D01*
X168172309Y-112173947D01*
X168151074Y-112170797D01*
X168130250Y-112165581D01*
X168110038Y-112158349D01*
X168090632Y-112149170D01*
X168072219Y-112138134D01*
X168054976Y-112125346D01*
X168039070Y-112110930D01*
X168024654Y-112095024D01*
X168011866Y-112077781D01*
X168000830Y-112059368D01*
X167991651Y-112039962D01*
X167984419Y-112019750D01*
X167979203Y-111998926D01*
X167976053Y-111977691D01*
X167975000Y-111956250D01*
X167975000Y-111443750D01*
X167976053Y-111422309D01*
X167979203Y-111401074D01*
X167984419Y-111380250D01*
X167991651Y-111360038D01*
X168000830Y-111340632D01*
X168011866Y-111322219D01*
X168024654Y-111304976D01*
X168039070Y-111289070D01*
X168054976Y-111274654D01*
X168072219Y-111261866D01*
X168090632Y-111250830D01*
X168110038Y-111241651D01*
X168130250Y-111234419D01*
X168151074Y-111229203D01*
X168172309Y-111226053D01*
X168193750Y-111225000D01*
X168631250Y-111225000D01*
X168652691Y-111226053D01*
G37*
G04 #@! TD.AperFunction*
D24*
X185200000Y-110900000D03*
X182200000Y-108800000D03*
X182200000Y-113500000D03*
X170300000Y-107700000D03*
X168100000Y-100600000D03*
X177000000Y-102900000D03*
X160500000Y-100300000D03*
X164400000Y-100300000D03*
X165200000Y-117300000D03*
X166300000Y-116600000D03*
X176000000Y-102900000D03*
X175000000Y-102900000D03*
X176100000Y-99800000D03*
X176100000Y-100700000D03*
X175200000Y-100700000D03*
X175200000Y-99800000D03*
X165500000Y-110400000D03*
X166900000Y-109100000D03*
X187500000Y-97900000D03*
X187600000Y-115200000D03*
X186800000Y-115200000D03*
X188100000Y-109000000D03*
X187000000Y-108100000D03*
X144100000Y-103100000D03*
X151200000Y-98900000D03*
X156400000Y-105000000D03*
X168000000Y-104500000D03*
X159700000Y-102500000D03*
X159800000Y-111200000D03*
X157200000Y-110200000D03*
X166000000Y-111600000D03*
X160455000Y-107945000D03*
X160400000Y-106700000D03*
X166471126Y-104457042D03*
X158100000Y-102200000D03*
X186200000Y-103900000D03*
X156900000Y-101800000D03*
X186200000Y-102500000D03*
X143600000Y-101200000D03*
X146500000Y-112800000D03*
X169000000Y-113800000D03*
X145900000Y-111900000D03*
X170000000Y-114800000D03*
X156400000Y-112600000D03*
X146700000Y-105400000D03*
X150900000Y-104600000D03*
X152200000Y-104600000D03*
X152700000Y-112400000D03*
X146700000Y-109200000D03*
X151400000Y-110000000D03*
X154300000Y-101800000D03*
X158600000Y-103700000D03*
X155600000Y-101800000D03*
X174800000Y-112900000D03*
D25*
X144100000Y-101957486D02*
X147157486Y-98900000D01*
X144100000Y-103100000D02*
X144100000Y-101957486D01*
X147157486Y-98900000D02*
X151200000Y-98900000D01*
D26*
X160569000Y-110485000D02*
X156400000Y-106316000D01*
X162450000Y-110485000D02*
X160569000Y-110485000D01*
X156400000Y-106316000D02*
X156400000Y-105000000D01*
X179400000Y-97700000D02*
X178700000Y-98400000D01*
X168000000Y-103287500D02*
X168100000Y-103187500D01*
X168000000Y-105700000D02*
X168000000Y-103287500D01*
X168100000Y-103187500D02*
X169600000Y-103187500D01*
D25*
X168100000Y-103112500D02*
X166600000Y-101612500D01*
X168100000Y-103187500D02*
X168100000Y-103112500D01*
X165100000Y-101612500D02*
X166600000Y-101612500D01*
D26*
X178700000Y-98400000D02*
X178700000Y-100031000D01*
X176931000Y-101800000D02*
X172700000Y-101800000D01*
X171312500Y-103187500D02*
X169600000Y-103187500D01*
X172700000Y-101800000D02*
X171312500Y-103187500D01*
X159700000Y-102500000D02*
X159700000Y-104500000D01*
X159200000Y-105000000D02*
X156400000Y-105000000D01*
X159700000Y-104500000D02*
X159200000Y-105000000D01*
D27*
X184312500Y-109637500D02*
X184250000Y-109700000D01*
X184312500Y-108100000D02*
X184312500Y-109637500D01*
X181600000Y-98100000D02*
X181600000Y-97650000D01*
X178700000Y-98400000D02*
X181300000Y-98400000D01*
X181300000Y-98400000D02*
X181600000Y-98100000D01*
X178700000Y-101000000D02*
X178700000Y-98400000D01*
X178700000Y-101000000D02*
X177900000Y-101800000D01*
X177900000Y-101800000D02*
X176931000Y-101800000D01*
X184312500Y-107625000D02*
X184312500Y-108100000D01*
X178700000Y-101000000D02*
X181500000Y-103800000D01*
X184100000Y-107500000D02*
X184187500Y-107500000D01*
X184187500Y-107500000D02*
X184312500Y-107625000D01*
X181500000Y-103800000D02*
X181500000Y-104900000D01*
X181500000Y-104900000D02*
X184100000Y-107500000D01*
D28*
X157200000Y-110200000D02*
X158000000Y-111000000D01*
X158000000Y-111000000D02*
X159600000Y-111000000D01*
X159600000Y-111000000D02*
X159800000Y-111200000D01*
D25*
X166287500Y-111787500D02*
X167000000Y-111787500D01*
X166000000Y-111600000D02*
X166287500Y-111787500D01*
X165600000Y-105700000D02*
X165600000Y-104600000D01*
X165100000Y-104100000D02*
X165100000Y-103187500D01*
X165600000Y-104600000D02*
X165100000Y-104100000D01*
X165100000Y-105700000D02*
X164600000Y-106200000D01*
X165600000Y-105700000D02*
X165100000Y-105700000D01*
X164600000Y-106200000D02*
X164600000Y-107700000D01*
X164355000Y-107945000D02*
X162450000Y-107945000D01*
X164600000Y-107700000D02*
X164355000Y-107945000D01*
X162450000Y-107945000D02*
X160455000Y-107945000D01*
X166600000Y-103187500D02*
X166600000Y-104700000D01*
X166400000Y-104900000D02*
X166400000Y-105700000D01*
X166600000Y-104700000D02*
X166400000Y-104900000D01*
X160700000Y-106675000D02*
X160675000Y-106700000D01*
X162450000Y-106675000D02*
X160700000Y-106675000D01*
X160675000Y-106700000D02*
X160400000Y-106700000D01*
D27*
X182014000Y-118120000D02*
X182600000Y-117534000D01*
X181010000Y-118120000D02*
X182014000Y-118120000D01*
X182600000Y-117534000D02*
X182600000Y-114800000D01*
X183900000Y-113500000D02*
X184900000Y-113500000D01*
X182600000Y-114800000D02*
X183900000Y-113500000D01*
X184250000Y-112850000D02*
X184900000Y-113500000D01*
X184250000Y-111900000D02*
X184250000Y-112850000D01*
X186612500Y-113500000D02*
X184900000Y-113500000D01*
D26*
X168512500Y-110200000D02*
X168512500Y-111700000D01*
X168000000Y-107900000D02*
X168000000Y-109000000D01*
X168512500Y-109512500D02*
X168512500Y-110200000D01*
X168000000Y-109000000D02*
X168512500Y-109512500D01*
D25*
X158100000Y-99465000D02*
X158140000Y-99425000D01*
X158100000Y-102200000D02*
X158100000Y-99465000D01*
X184101500Y-103399999D02*
X185699999Y-103399999D01*
X185699999Y-103399999D02*
X186200000Y-103900000D01*
X156900000Y-99455000D02*
X156870000Y-99425000D01*
X156900000Y-101800000D02*
X156900000Y-99455000D01*
X184201499Y-102500000D02*
X184101500Y-102400001D01*
X186200000Y-102500000D02*
X184201499Y-102500000D01*
D29*
X145200000Y-97900000D02*
X145200000Y-99600000D01*
X145600000Y-97500000D02*
X145200000Y-97900000D01*
X151200000Y-97500000D02*
X145600000Y-97500000D01*
X152100000Y-98400000D02*
X151200000Y-97500000D01*
X169600000Y-113000000D02*
X160300000Y-113000000D01*
X170800000Y-114200000D02*
X169600000Y-113000000D01*
X160300000Y-113000000D02*
X158700000Y-111400000D01*
X173010000Y-116120000D02*
X173010000Y-115265816D01*
X171944184Y-114200000D02*
X170800000Y-114200000D01*
X173010000Y-115265816D02*
X171944184Y-114200000D01*
X145200000Y-99600000D02*
X143600000Y-101200000D01*
X158700000Y-111400000D02*
X154600000Y-111400000D01*
X154600000Y-111400000D02*
X154200000Y-111000000D01*
X154200000Y-103800000D02*
X152100000Y-101700000D01*
X154200000Y-111000000D02*
X154200000Y-103800000D01*
X152100000Y-101700000D02*
X152100000Y-98400000D01*
X147072200Y-107945000D02*
X145800000Y-106672800D01*
X145800000Y-106672800D02*
X145800000Y-105784276D01*
X145800000Y-105784276D02*
X143400000Y-103384276D01*
X143400000Y-101400000D02*
X143600000Y-101200000D01*
X148750000Y-107945000D02*
X147072200Y-107945000D01*
X143400000Y-103384276D02*
X143400000Y-101400000D01*
X147072200Y-113025000D02*
X146847200Y-112800000D01*
X148750000Y-113025000D02*
X147072200Y-113025000D01*
X146847200Y-112800000D02*
X146500000Y-112800000D01*
X169000000Y-113800000D02*
X160597092Y-113800000D01*
X158552702Y-111755610D02*
X155044390Y-111755610D01*
X160597092Y-113800000D02*
X158552702Y-111755610D01*
X155044390Y-111755610D02*
X153400000Y-113400000D01*
X153400000Y-113400000D02*
X152100000Y-113400000D01*
X151725000Y-113025000D02*
X148750000Y-113025000D01*
X152100000Y-113400000D02*
X151725000Y-113025000D01*
X148605000Y-111900000D02*
X148750000Y-111755000D01*
X145900000Y-111900000D02*
X148605000Y-111900000D01*
X170000000Y-114800000D02*
X168800000Y-114800000D01*
X168800000Y-114800000D02*
X168155610Y-114155610D01*
X168155610Y-114155610D02*
X160449793Y-114155609D01*
X160449793Y-114155609D02*
X158894184Y-112600000D01*
X158894184Y-112600000D02*
X156400000Y-112600000D01*
D25*
X147000000Y-105405000D02*
X146995000Y-105400000D01*
X148750000Y-105405000D02*
X147000000Y-105405000D01*
X146995000Y-105400000D02*
X146700000Y-105400000D01*
X148750000Y-104135000D02*
X150435000Y-104135000D01*
X150435000Y-104135000D02*
X150900000Y-104600000D01*
X150500000Y-110485000D02*
X151315000Y-111300000D01*
X148750000Y-110485000D02*
X150500000Y-110485000D01*
X151315000Y-111300000D02*
X152100000Y-111300000D01*
X152100000Y-111300000D02*
X152700000Y-110700000D01*
X152700000Y-110700000D02*
X152700000Y-105600000D01*
X152700000Y-105600000D02*
X152700000Y-105100000D01*
X152700000Y-105100000D02*
X152200000Y-104600000D01*
X148750000Y-102865000D02*
X152465000Y-102865000D01*
X152465000Y-102865000D02*
X153600000Y-104000000D01*
X153600000Y-104000000D02*
X153600000Y-111600000D01*
X153600000Y-111600000D02*
X152800000Y-112400000D01*
X152800000Y-112400000D02*
X152700000Y-112400000D01*
X147000000Y-109215000D02*
X146985000Y-109200000D01*
X148750000Y-109215000D02*
X147000000Y-109215000D01*
X146985000Y-109200000D02*
X146700000Y-109200000D01*
X151400000Y-110000000D02*
X151400000Y-107100000D01*
X150975000Y-106675000D02*
X148750000Y-106675000D01*
X151400000Y-107100000D02*
X150975000Y-106675000D01*
D26*
X171525000Y-111700000D02*
X172025000Y-111200000D01*
X170087500Y-111700000D02*
X171525000Y-111700000D01*
D25*
X171175000Y-98400000D02*
X171700000Y-98400000D01*
X170250000Y-98900000D02*
X170750000Y-98400000D01*
X170750000Y-98400000D02*
X171700000Y-98400000D01*
X169350000Y-98900000D02*
X170250000Y-98900000D01*
X169600000Y-99150000D02*
X169350000Y-98900000D01*
X169600000Y-101612500D02*
X169600000Y-99150000D01*
X154330000Y-101175000D02*
X154300000Y-101205000D01*
X154330000Y-99425000D02*
X154330000Y-101175000D01*
X154300000Y-101205000D02*
X154300000Y-101800000D01*
X154300000Y-102900000D02*
X154300000Y-101800000D01*
X158600000Y-103700000D02*
X155100000Y-103700000D01*
X155100000Y-103700000D02*
X154300000Y-102900000D01*
X155600000Y-99425000D02*
X155600000Y-101175000D01*
X155600000Y-101175000D02*
X155600000Y-101800000D01*
X153060000Y-97675000D02*
X153435000Y-97300000D01*
X153060000Y-99425000D02*
X153060000Y-97675000D01*
X165225000Y-99287500D02*
X165700000Y-99287500D01*
X163237500Y-97300000D02*
X165225000Y-99287500D01*
X153435000Y-97300000D02*
X163237500Y-97300000D01*
X167012500Y-97712500D02*
X167250000Y-97950000D01*
X165700000Y-97712500D02*
X167012500Y-97712500D01*
X164200000Y-109215000D02*
X162450000Y-109215000D01*
X165527500Y-109215000D02*
X164200000Y-109215000D01*
X166525000Y-110212500D02*
X165527500Y-109215000D01*
X167000000Y-110212500D02*
X166525000Y-110212500D01*
D27*
X182050000Y-101400000D02*
X181600000Y-100950000D01*
X184101500Y-101400000D02*
X182050000Y-101400000D01*
D25*
X179010000Y-114410000D02*
X179010000Y-116120000D01*
X174800000Y-112900000D02*
X177500000Y-112900000D01*
X177500000Y-112900000D02*
X179010000Y-114410000D01*
D27*
X188062500Y-111900000D02*
X188100000Y-111937500D01*
X186150000Y-111900000D02*
X188062500Y-111900000D01*
X188187500Y-112025000D02*
X188100000Y-111937500D01*
X188187500Y-113500000D02*
X188187500Y-112025000D01*
D28*
G36*
X187444352Y-97162909D02*
G01*
X187737113Y-97251299D01*
X188007126Y-97394868D01*
X188244115Y-97588151D01*
X188439045Y-97823781D01*
X188584498Y-98092791D01*
X188674928Y-98384924D01*
X188709000Y-98709092D01*
X188709000Y-99069458D01*
X187024001Y-99069458D01*
X186949312Y-99076814D01*
X186877493Y-99098600D01*
X186811305Y-99133979D01*
X186753290Y-99181590D01*
X186705679Y-99239605D01*
X186670300Y-99305793D01*
X186648514Y-99377612D01*
X186641158Y-99452301D01*
X186641158Y-100747701D01*
X186648514Y-100822390D01*
X186670300Y-100894209D01*
X186705679Y-100960397D01*
X186753290Y-101018412D01*
X186811305Y-101066023D01*
X186877493Y-101101402D01*
X186949312Y-101123188D01*
X187024001Y-101130544D01*
X188709000Y-101130544D01*
X188709000Y-104669456D01*
X187024001Y-104669456D01*
X186949312Y-104676812D01*
X186877493Y-104698598D01*
X186811305Y-104733977D01*
X186753290Y-104781588D01*
X186705679Y-104839603D01*
X186670300Y-104905791D01*
X186648514Y-104977610D01*
X186641158Y-105052299D01*
X186641158Y-106347699D01*
X186648514Y-106422388D01*
X186670300Y-106494207D01*
X186705679Y-106560395D01*
X186753290Y-106618410D01*
X186811305Y-106666021D01*
X186877493Y-106701400D01*
X186949312Y-106723186D01*
X187024001Y-106730542D01*
X188709001Y-106730542D01*
X188709001Y-109192447D01*
X188222250Y-109194000D01*
X188127000Y-109289250D01*
X188127000Y-110035500D01*
X188147000Y-110035500D01*
X188147000Y-110089500D01*
X188127000Y-110089500D01*
X188127000Y-110835750D01*
X188222250Y-110931000D01*
X188709001Y-110932553D01*
X188709001Y-111088452D01*
X188678492Y-111079197D01*
X188556250Y-111067157D01*
X187643750Y-111067157D01*
X187521508Y-111079197D01*
X187403963Y-111114854D01*
X187295634Y-111172757D01*
X187200682Y-111250682D01*
X187144615Y-111319000D01*
X186852820Y-111319000D01*
X186850487Y-111295311D01*
X186828701Y-111223492D01*
X186793322Y-111157304D01*
X186745711Y-111099289D01*
X186687696Y-111051678D01*
X186621508Y-111016299D01*
X186549689Y-110994513D01*
X186475000Y-110987157D01*
X185825000Y-110987157D01*
X185750311Y-110994513D01*
X185678492Y-111016299D01*
X185675000Y-111018166D01*
X185671508Y-111016299D01*
X185599689Y-110994513D01*
X185525000Y-110987157D01*
X185322250Y-110989000D01*
X185227000Y-111084250D01*
X185227000Y-111873000D01*
X185247000Y-111873000D01*
X185247000Y-111927000D01*
X185227000Y-111927000D01*
X185227000Y-111947000D01*
X185173000Y-111947000D01*
X185173000Y-111927000D01*
X185153000Y-111927000D01*
X185153000Y-111873000D01*
X185173000Y-111873000D01*
X185173000Y-111084250D01*
X185077750Y-110989000D01*
X184875000Y-110987157D01*
X184800311Y-110994513D01*
X184728492Y-111016299D01*
X184725000Y-111018166D01*
X184721508Y-111016299D01*
X184649689Y-110994513D01*
X184575000Y-110987157D01*
X183925000Y-110987157D01*
X183850311Y-110994513D01*
X183778492Y-111016299D01*
X183712304Y-111051678D01*
X183654289Y-111099289D01*
X183606678Y-111157304D01*
X183571299Y-111223492D01*
X183549513Y-111295311D01*
X183542157Y-111370000D01*
X183542157Y-112430000D01*
X183549513Y-112504689D01*
X183571299Y-112576508D01*
X183606678Y-112642696D01*
X183654289Y-112700711D01*
X183669001Y-112712785D01*
X183669001Y-112821451D01*
X183666189Y-112850000D01*
X183677071Y-112960482D01*
X183676585Y-112960629D01*
X183575652Y-113014579D01*
X183487183Y-113087183D01*
X183468987Y-113109355D01*
X183407814Y-113170528D01*
X183406000Y-111322250D01*
X183310750Y-111227000D01*
X182202000Y-111227000D01*
X182202000Y-113485750D01*
X182297250Y-113581000D01*
X182995574Y-113582768D01*
X182209355Y-114368988D01*
X182187184Y-114387183D01*
X182161948Y-114417934D01*
X182114579Y-114475653D01*
X182060629Y-114576586D01*
X182027407Y-114686105D01*
X182016189Y-114800000D01*
X182019001Y-114828550D01*
X182019000Y-117293342D01*
X181959045Y-117353298D01*
X181932322Y-117303304D01*
X181884711Y-117245289D01*
X181826696Y-117197678D01*
X181760508Y-117162299D01*
X181688689Y-117140513D01*
X181614000Y-117133157D01*
X180406000Y-117133157D01*
X180331311Y-117140513D01*
X180259492Y-117162299D01*
X180193304Y-117197678D01*
X180135289Y-117245289D01*
X180087678Y-117303304D01*
X180052299Y-117369492D01*
X180030513Y-117441311D01*
X180023157Y-117516000D01*
X180023157Y-118724000D01*
X180028890Y-118782206D01*
X179740794Y-118782206D01*
X179775099Y-118747901D01*
X179882896Y-118586572D01*
X179957147Y-118407314D01*
X179995000Y-118217014D01*
X179995000Y-118022986D01*
X179957147Y-117832686D01*
X179882896Y-117653428D01*
X179775099Y-117492099D01*
X179637901Y-117354901D01*
X179476572Y-117247104D01*
X179297314Y-117172853D01*
X179107014Y-117135000D01*
X178912986Y-117135000D01*
X178722686Y-117172853D01*
X178543428Y-117247104D01*
X178382099Y-117354901D01*
X178244901Y-117492099D01*
X178137104Y-117653428D01*
X178062853Y-117832686D01*
X178025000Y-118022986D01*
X178025000Y-118217014D01*
X178062853Y-118407314D01*
X178137104Y-118586572D01*
X178244901Y-118747901D01*
X178279206Y-118782206D01*
X177740794Y-118782206D01*
X177775099Y-118747901D01*
X177882896Y-118586572D01*
X177957147Y-118407314D01*
X177995000Y-118217014D01*
X177995000Y-118022986D01*
X177957147Y-117832686D01*
X177882896Y-117653428D01*
X177775099Y-117492099D01*
X177637901Y-117354901D01*
X177476572Y-117247104D01*
X177297314Y-117172853D01*
X177107014Y-117135000D01*
X176912986Y-117135000D01*
X176722686Y-117172853D01*
X176543428Y-117247104D01*
X176382099Y-117354901D01*
X176244901Y-117492099D01*
X176137104Y-117653428D01*
X176062853Y-117832686D01*
X176025000Y-118022986D01*
X176025000Y-118217014D01*
X176062853Y-118407314D01*
X176137104Y-118586572D01*
X176244901Y-118747901D01*
X176279206Y-118782206D01*
X175740794Y-118782206D01*
X175775099Y-118747901D01*
X175882896Y-118586572D01*
X175957147Y-118407314D01*
X175995000Y-118217014D01*
X175995000Y-118022986D01*
X175957147Y-117832686D01*
X175882896Y-117653428D01*
X175775099Y-117492099D01*
X175637901Y-117354901D01*
X175476572Y-117247104D01*
X175297314Y-117172853D01*
X175107014Y-117135000D01*
X174912986Y-117135000D01*
X174722686Y-117172853D01*
X174543428Y-117247104D01*
X174382099Y-117354901D01*
X174244901Y-117492099D01*
X174137104Y-117653428D01*
X174062853Y-117832686D01*
X174025000Y-118022986D01*
X174025000Y-118217014D01*
X174062853Y-118407314D01*
X174137104Y-118586572D01*
X174244901Y-118747901D01*
X174279206Y-118782206D01*
X173710393Y-118782206D01*
X173661324Y-118733137D01*
X173826310Y-118679710D01*
X173919819Y-118509701D01*
X173978364Y-118324715D01*
X173999694Y-118131863D01*
X173982992Y-117938555D01*
X173928897Y-117752220D01*
X173839491Y-117580019D01*
X173826310Y-117560290D01*
X173661322Y-117506862D01*
X173048184Y-118120000D01*
X173062326Y-118134142D01*
X173024142Y-118172326D01*
X173010000Y-118158184D01*
X172995858Y-118172326D01*
X172957674Y-118134142D01*
X172971816Y-118120000D01*
X172358678Y-117506862D01*
X172193690Y-117560290D01*
X172100181Y-117730299D01*
X172041636Y-117915285D01*
X172020306Y-118108137D01*
X172037008Y-118301445D01*
X172091103Y-118487780D01*
X172180509Y-118659981D01*
X172193690Y-118679710D01*
X172358676Y-118733137D01*
X172309607Y-118782206D01*
X171740794Y-118782206D01*
X171775099Y-118747901D01*
X171882896Y-118586572D01*
X171957147Y-118407314D01*
X171995000Y-118217014D01*
X171995000Y-118022986D01*
X171957147Y-117832686D01*
X171882896Y-117653428D01*
X171775099Y-117492099D01*
X171751678Y-117468678D01*
X172396862Y-117468678D01*
X173010000Y-118081816D01*
X173623138Y-117468678D01*
X173569710Y-117303690D01*
X173399701Y-117210181D01*
X173214715Y-117151636D01*
X173021863Y-117130306D01*
X172828555Y-117147008D01*
X172642220Y-117201103D01*
X172470019Y-117290509D01*
X172450290Y-117303690D01*
X172396862Y-117468678D01*
X171751678Y-117468678D01*
X171637901Y-117354901D01*
X171476572Y-117247104D01*
X171297314Y-117172853D01*
X171107014Y-117135000D01*
X170912986Y-117135000D01*
X170722686Y-117172853D01*
X170543428Y-117247104D01*
X170382099Y-117354901D01*
X170244901Y-117492099D01*
X170137104Y-117653428D01*
X170062853Y-117832686D01*
X170025000Y-118022986D01*
X170025000Y-118217014D01*
X170062853Y-118407314D01*
X170137104Y-118586572D01*
X170244901Y-118747901D01*
X170279206Y-118782206D01*
X169740794Y-118782206D01*
X169775099Y-118747901D01*
X169882896Y-118586572D01*
X169957147Y-118407314D01*
X169995000Y-118217014D01*
X169995000Y-118022986D01*
X169957147Y-117832686D01*
X169882896Y-117653428D01*
X169775099Y-117492099D01*
X169637901Y-117354901D01*
X169476572Y-117247104D01*
X169297314Y-117172853D01*
X169107014Y-117135000D01*
X168912986Y-117135000D01*
X168722686Y-117172853D01*
X168543428Y-117247104D01*
X168382099Y-117354901D01*
X168244901Y-117492099D01*
X168137104Y-117653428D01*
X168062853Y-117832686D01*
X168025000Y-118022986D01*
X168025000Y-118217014D01*
X168062853Y-118407314D01*
X168137104Y-118586572D01*
X168244901Y-118747901D01*
X168279206Y-118782206D01*
X164127000Y-118782206D01*
X164127000Y-114625509D01*
X167960972Y-114625510D01*
X168451409Y-115115948D01*
X168466123Y-115133877D01*
X168537675Y-115192598D01*
X168597639Y-115224649D01*
X168543428Y-115247104D01*
X168382099Y-115354901D01*
X168244901Y-115492099D01*
X168137104Y-115653428D01*
X168062853Y-115832686D01*
X168025000Y-116022986D01*
X168025000Y-116217014D01*
X168062853Y-116407314D01*
X168137104Y-116586572D01*
X168244901Y-116747901D01*
X168382099Y-116885099D01*
X168543428Y-116992896D01*
X168722686Y-117067147D01*
X168912986Y-117105000D01*
X169107014Y-117105000D01*
X169297314Y-117067147D01*
X169476572Y-116992896D01*
X169637901Y-116885099D01*
X169775099Y-116747901D01*
X169882896Y-116586572D01*
X169957147Y-116407314D01*
X169995000Y-116217014D01*
X169995000Y-116022986D01*
X169957147Y-115832686D01*
X169882896Y-115653428D01*
X169820924Y-115560680D01*
X169923078Y-115581000D01*
X170076922Y-115581000D01*
X170202142Y-115556092D01*
X170137104Y-115653428D01*
X170062853Y-115832686D01*
X170025000Y-116022986D01*
X170025000Y-116217014D01*
X170062853Y-116407314D01*
X170137104Y-116586572D01*
X170244901Y-116747901D01*
X170382099Y-116885099D01*
X170543428Y-116992896D01*
X170722686Y-117067147D01*
X170912986Y-117105000D01*
X171107014Y-117105000D01*
X171297314Y-117067147D01*
X171476572Y-116992896D01*
X171637901Y-116885099D01*
X171775099Y-116747901D01*
X171882896Y-116586572D01*
X171957147Y-116407314D01*
X171995000Y-116217014D01*
X171995000Y-116022986D01*
X171957147Y-115832686D01*
X171882896Y-115653428D01*
X171775099Y-115492099D01*
X171637901Y-115354901D01*
X171476572Y-115247104D01*
X171297314Y-115172853D01*
X171107014Y-115135000D01*
X170912986Y-115135000D01*
X170722686Y-115172853D01*
X170677724Y-115191477D01*
X170692113Y-115169942D01*
X170750987Y-115027809D01*
X170781000Y-114876922D01*
X170781000Y-114723078D01*
X170770292Y-114669247D01*
X170799999Y-114672173D01*
X170823076Y-114669900D01*
X171749546Y-114669900D01*
X172413539Y-115333894D01*
X172382099Y-115354901D01*
X172244901Y-115492099D01*
X172137104Y-115653428D01*
X172062853Y-115832686D01*
X172025000Y-116022986D01*
X172025000Y-116217014D01*
X172062853Y-116407314D01*
X172137104Y-116586572D01*
X172244901Y-116747901D01*
X172382099Y-116885099D01*
X172543428Y-116992896D01*
X172722686Y-117067147D01*
X172912986Y-117105000D01*
X173107014Y-117105000D01*
X173297314Y-117067147D01*
X173476572Y-116992896D01*
X173637901Y-116885099D01*
X173775099Y-116747901D01*
X173882896Y-116586572D01*
X173957147Y-116407314D01*
X173995000Y-116217014D01*
X173995000Y-116022986D01*
X174025000Y-116022986D01*
X174025000Y-116217014D01*
X174062853Y-116407314D01*
X174137104Y-116586572D01*
X174244901Y-116747901D01*
X174382099Y-116885099D01*
X174543428Y-116992896D01*
X174722686Y-117067147D01*
X174912986Y-117105000D01*
X175107014Y-117105000D01*
X175297314Y-117067147D01*
X175476572Y-116992896D01*
X175637901Y-116885099D01*
X175751678Y-116771322D01*
X176396862Y-116771322D01*
X176450290Y-116936310D01*
X176620299Y-117029819D01*
X176805285Y-117088364D01*
X176998137Y-117109694D01*
X177191445Y-117092992D01*
X177377780Y-117038897D01*
X177549981Y-116949491D01*
X177569710Y-116936310D01*
X177623138Y-116771322D01*
X177010000Y-116158184D01*
X176396862Y-116771322D01*
X175751678Y-116771322D01*
X175775099Y-116747901D01*
X175882896Y-116586572D01*
X175957147Y-116407314D01*
X175995000Y-116217014D01*
X175995000Y-116108137D01*
X176020306Y-116108137D01*
X176037008Y-116301445D01*
X176091103Y-116487780D01*
X176180509Y-116659981D01*
X176193690Y-116679710D01*
X176358678Y-116733138D01*
X176971816Y-116120000D01*
X177048184Y-116120000D01*
X177661322Y-116733138D01*
X177826310Y-116679710D01*
X177919819Y-116509701D01*
X177978364Y-116324715D01*
X177999694Y-116131863D01*
X177982992Y-115938555D01*
X177928897Y-115752220D01*
X177839491Y-115580019D01*
X177826310Y-115560290D01*
X177661322Y-115506862D01*
X177048184Y-116120000D01*
X176971816Y-116120000D01*
X176358678Y-115506862D01*
X176193690Y-115560290D01*
X176100181Y-115730299D01*
X176041636Y-115915285D01*
X176020306Y-116108137D01*
X175995000Y-116108137D01*
X175995000Y-116022986D01*
X175957147Y-115832686D01*
X175882896Y-115653428D01*
X175775099Y-115492099D01*
X175751678Y-115468678D01*
X176396862Y-115468678D01*
X177010000Y-116081816D01*
X177623138Y-115468678D01*
X177569710Y-115303690D01*
X177399701Y-115210181D01*
X177214715Y-115151636D01*
X177021863Y-115130306D01*
X176828555Y-115147008D01*
X176642220Y-115201103D01*
X176470019Y-115290509D01*
X176450290Y-115303690D01*
X176396862Y-115468678D01*
X175751678Y-115468678D01*
X175637901Y-115354901D01*
X175476572Y-115247104D01*
X175297314Y-115172853D01*
X175107014Y-115135000D01*
X174912986Y-115135000D01*
X174722686Y-115172853D01*
X174543428Y-115247104D01*
X174382099Y-115354901D01*
X174244901Y-115492099D01*
X174137104Y-115653428D01*
X174062853Y-115832686D01*
X174025000Y-116022986D01*
X173995000Y-116022986D01*
X173957147Y-115832686D01*
X173882896Y-115653428D01*
X173775099Y-115492099D01*
X173637901Y-115354901D01*
X173480595Y-115249792D01*
X173473100Y-115173698D01*
X173458129Y-115124347D01*
X173446231Y-115085123D01*
X173402598Y-115003491D01*
X173343877Y-114931939D01*
X173325948Y-114917225D01*
X172491565Y-114082843D01*
X173025000Y-114082843D01*
X173099689Y-114075487D01*
X173171508Y-114053701D01*
X173237696Y-114018322D01*
X173295711Y-113970711D01*
X173343322Y-113912696D01*
X173378701Y-113846508D01*
X173400487Y-113774689D01*
X173407843Y-113700000D01*
X173407843Y-112823078D01*
X174019000Y-112823078D01*
X174019000Y-112976922D01*
X174049013Y-113127809D01*
X174107887Y-113269942D01*
X174193358Y-113397859D01*
X174302141Y-113506642D01*
X174430058Y-113592113D01*
X174572191Y-113650987D01*
X174723078Y-113681000D01*
X174876922Y-113681000D01*
X175027809Y-113650987D01*
X175169942Y-113592113D01*
X175297859Y-113506642D01*
X175398501Y-113406000D01*
X177290409Y-113406000D01*
X178504000Y-114619592D01*
X178504001Y-115273449D01*
X178382099Y-115354901D01*
X178244901Y-115492099D01*
X178137104Y-115653428D01*
X178062853Y-115832686D01*
X178025000Y-116022986D01*
X178025000Y-116217014D01*
X178062853Y-116407314D01*
X178137104Y-116586572D01*
X178244901Y-116747901D01*
X178382099Y-116885099D01*
X178543428Y-116992896D01*
X178722686Y-117067147D01*
X178912986Y-117105000D01*
X179107014Y-117105000D01*
X179297314Y-117067147D01*
X179476572Y-116992896D01*
X179637901Y-116885099D01*
X179775099Y-116747901D01*
X179882896Y-116586572D01*
X179957147Y-116407314D01*
X179995000Y-116217014D01*
X179995000Y-116022986D01*
X180025000Y-116022986D01*
X180025000Y-116217014D01*
X180062853Y-116407314D01*
X180137104Y-116586572D01*
X180244901Y-116747901D01*
X180382099Y-116885099D01*
X180543428Y-116992896D01*
X180722686Y-117067147D01*
X180912986Y-117105000D01*
X181107014Y-117105000D01*
X181297314Y-117067147D01*
X181476572Y-116992896D01*
X181637901Y-116885099D01*
X181775099Y-116747901D01*
X181882896Y-116586572D01*
X181957147Y-116407314D01*
X181995000Y-116217014D01*
X181995000Y-116022986D01*
X181957147Y-115832686D01*
X181882896Y-115653428D01*
X181775099Y-115492099D01*
X181637901Y-115354901D01*
X181476572Y-115247104D01*
X181297314Y-115172853D01*
X181107014Y-115135000D01*
X180912986Y-115135000D01*
X180722686Y-115172853D01*
X180543428Y-115247104D01*
X180382099Y-115354901D01*
X180244901Y-115492099D01*
X180137104Y-115653428D01*
X180062853Y-115832686D01*
X180025000Y-116022986D01*
X179995000Y-116022986D01*
X179957147Y-115832686D01*
X179882896Y-115653428D01*
X179775099Y-115492099D01*
X179637901Y-115354901D01*
X179516000Y-115273449D01*
X179516000Y-114434845D01*
X179518447Y-114409999D01*
X179516000Y-114385153D01*
X179516000Y-114385146D01*
X179508678Y-114310807D01*
X179504751Y-114297859D01*
X179494705Y-114264743D01*
X179479745Y-114215425D01*
X179432759Y-114127521D01*
X179369527Y-114050473D01*
X179350220Y-114034628D01*
X178515592Y-113200000D01*
X180942157Y-113200000D01*
X180949513Y-113274689D01*
X180971299Y-113346508D01*
X181006678Y-113412696D01*
X181054289Y-113470711D01*
X181112304Y-113518322D01*
X181178492Y-113553701D01*
X181250311Y-113575487D01*
X181325000Y-113582843D01*
X182052750Y-113581000D01*
X182148000Y-113485750D01*
X182148000Y-111227000D01*
X181039250Y-111227000D01*
X180944000Y-111322250D01*
X180942157Y-113200000D01*
X178515592Y-113200000D01*
X177875376Y-112559785D01*
X177859527Y-112540473D01*
X177782479Y-112477241D01*
X177694575Y-112430255D01*
X177599193Y-112401322D01*
X177524854Y-112394000D01*
X177524846Y-112394000D01*
X177500000Y-112391553D01*
X177475154Y-112394000D01*
X175398501Y-112394000D01*
X175297859Y-112293358D01*
X175169942Y-112207887D01*
X175027809Y-112149013D01*
X174876922Y-112119000D01*
X174723078Y-112119000D01*
X174572191Y-112149013D01*
X174430058Y-112207887D01*
X174302141Y-112293358D01*
X174193358Y-112402141D01*
X174107887Y-112530058D01*
X174049013Y-112672191D01*
X174019000Y-112823078D01*
X173407843Y-112823078D01*
X173407843Y-109200000D01*
X180942157Y-109200000D01*
X180944000Y-111077750D01*
X181039250Y-111173000D01*
X182148000Y-111173000D01*
X182148000Y-108914250D01*
X182202000Y-108914250D01*
X182202000Y-111173000D01*
X183310750Y-111173000D01*
X183406000Y-111077750D01*
X183407843Y-109200000D01*
X183400487Y-109125311D01*
X183378701Y-109053492D01*
X183343322Y-108987304D01*
X183295711Y-108929289D01*
X183237696Y-108881678D01*
X183171508Y-108846299D01*
X183099689Y-108824513D01*
X183025000Y-108817157D01*
X182297250Y-108819000D01*
X182202000Y-108914250D01*
X182148000Y-108914250D01*
X182052750Y-108819000D01*
X181325000Y-108817157D01*
X181250311Y-108824513D01*
X181178492Y-108846299D01*
X181112304Y-108881678D01*
X181054289Y-108929289D01*
X181006678Y-108987304D01*
X180971299Y-109053492D01*
X180949513Y-109125311D01*
X180942157Y-109200000D01*
X173407843Y-109200000D01*
X173407843Y-108700000D01*
X173400487Y-108625311D01*
X173378701Y-108553492D01*
X173343322Y-108487304D01*
X173295711Y-108429289D01*
X173237696Y-108381678D01*
X173171508Y-108346299D01*
X173099689Y-108324513D01*
X173025000Y-108317157D01*
X171025000Y-108317157D01*
X170950311Y-108324513D01*
X170878492Y-108346299D01*
X170812304Y-108381678D01*
X170754289Y-108429289D01*
X170706678Y-108487304D01*
X170671299Y-108553492D01*
X170649513Y-108625311D01*
X170642157Y-108700000D01*
X170642157Y-109402381D01*
X170584008Y-109371299D01*
X170512189Y-109349513D01*
X170437500Y-109342157D01*
X170122250Y-109344000D01*
X170027000Y-109439250D01*
X170027000Y-110173000D01*
X170047000Y-110173000D01*
X170047000Y-110227000D01*
X170027000Y-110227000D01*
X170027000Y-110247000D01*
X169973000Y-110247000D01*
X169973000Y-110227000D01*
X169953000Y-110227000D01*
X169953000Y-110173000D01*
X169973000Y-110173000D01*
X169973000Y-109439250D01*
X169877750Y-109344000D01*
X169562500Y-109342157D01*
X169487811Y-109349513D01*
X169415992Y-109371299D01*
X169349804Y-109406678D01*
X169291789Y-109454289D01*
X169244178Y-109512304D01*
X169208799Y-109578492D01*
X169187013Y-109650311D01*
X169183706Y-109683890D01*
X169143956Y-109609523D01*
X169084361Y-109536907D01*
X169086765Y-109512499D01*
X169083228Y-109476586D01*
X169075731Y-109400466D01*
X169043052Y-109292738D01*
X168989984Y-109193455D01*
X168918567Y-109106433D01*
X168896758Y-109088535D01*
X168571500Y-108763278D01*
X168571500Y-108682843D01*
X169050000Y-108682843D01*
X169124689Y-108675487D01*
X169196508Y-108653701D01*
X169262696Y-108618322D01*
X169320711Y-108570711D01*
X169368322Y-108512696D01*
X169403701Y-108446508D01*
X169425487Y-108374689D01*
X169432843Y-108300000D01*
X169432843Y-107500000D01*
X169425487Y-107425311D01*
X169403701Y-107353492D01*
X169368322Y-107287304D01*
X169320711Y-107229289D01*
X169262696Y-107181678D01*
X169196508Y-107146299D01*
X169124689Y-107124513D01*
X169050000Y-107117157D01*
X168550000Y-107117157D01*
X168475311Y-107124513D01*
X168403492Y-107146299D01*
X168400000Y-107148166D01*
X168396508Y-107146299D01*
X168324689Y-107124513D01*
X168250000Y-107117157D01*
X167750000Y-107117157D01*
X167675311Y-107124513D01*
X167603492Y-107146299D01*
X167600000Y-107148166D01*
X167596508Y-107146299D01*
X167524689Y-107124513D01*
X167450000Y-107117157D01*
X166950000Y-107117157D01*
X166875311Y-107124513D01*
X166803492Y-107146299D01*
X166800000Y-107148166D01*
X166796508Y-107146299D01*
X166724689Y-107124513D01*
X166650000Y-107117157D01*
X166150000Y-107117157D01*
X166075311Y-107124513D01*
X166003492Y-107146299D01*
X166000000Y-107148166D01*
X165996508Y-107146299D01*
X165924689Y-107124513D01*
X165850000Y-107117157D01*
X165722250Y-107119000D01*
X165627000Y-107214250D01*
X165627000Y-107873000D01*
X165647000Y-107873000D01*
X165647000Y-107927000D01*
X165627000Y-107927000D01*
X165627000Y-108585750D01*
X165722250Y-108681000D01*
X165850000Y-108682843D01*
X165924689Y-108675487D01*
X165996508Y-108653701D01*
X166000000Y-108651834D01*
X166003492Y-108653701D01*
X166075311Y-108675487D01*
X166150000Y-108682843D01*
X166650000Y-108682843D01*
X166724689Y-108675487D01*
X166796508Y-108653701D01*
X166800000Y-108651834D01*
X166803492Y-108653701D01*
X166875311Y-108675487D01*
X166950000Y-108682843D01*
X167428501Y-108682843D01*
X167428501Y-108971916D01*
X167425735Y-109000000D01*
X167436769Y-109112033D01*
X167469448Y-109219761D01*
X167522516Y-109319044D01*
X167522517Y-109319045D01*
X167593934Y-109406067D01*
X167615743Y-109423966D01*
X167748982Y-109557204D01*
X167706044Y-109609523D01*
X167667887Y-109680909D01*
X167656456Y-109659523D01*
X167581640Y-109568360D01*
X167490477Y-109493544D01*
X167386470Y-109437951D01*
X167273615Y-109403716D01*
X167156250Y-109392157D01*
X166643750Y-109392157D01*
X166526385Y-109403716D01*
X166453820Y-109425729D01*
X165902876Y-108874785D01*
X165887027Y-108855473D01*
X165809979Y-108792241D01*
X165722075Y-108745255D01*
X165626693Y-108716322D01*
X165552354Y-108709000D01*
X165552346Y-108709000D01*
X165527500Y-108706553D01*
X165502654Y-108709000D01*
X164327328Y-108709000D01*
X164325487Y-108690311D01*
X164303701Y-108618492D01*
X164283126Y-108580000D01*
X164303701Y-108541508D01*
X164325487Y-108469689D01*
X164327328Y-108451000D01*
X164330154Y-108451000D01*
X164355000Y-108453447D01*
X164379846Y-108451000D01*
X164379854Y-108451000D01*
X164454193Y-108443678D01*
X164549575Y-108414745D01*
X164637479Y-108367759D01*
X164714527Y-108304527D01*
X164730376Y-108285215D01*
X164940215Y-108075376D01*
X164959527Y-108059527D01*
X164968828Y-108048194D01*
X164967157Y-108300000D01*
X164974513Y-108374689D01*
X164996299Y-108446508D01*
X165031678Y-108512696D01*
X165079289Y-108570711D01*
X165137304Y-108618322D01*
X165203492Y-108653701D01*
X165275311Y-108675487D01*
X165350000Y-108682843D01*
X165477750Y-108681000D01*
X165573000Y-108585750D01*
X165573000Y-107927000D01*
X165553000Y-107927000D01*
X165553000Y-107873000D01*
X165573000Y-107873000D01*
X165573000Y-107214250D01*
X165477750Y-107119000D01*
X165350000Y-107117157D01*
X165275311Y-107124513D01*
X165203492Y-107146299D01*
X165137304Y-107181678D01*
X165106000Y-107207368D01*
X165106000Y-106409591D01*
X165115315Y-106400276D01*
X165137304Y-106418322D01*
X165203492Y-106453701D01*
X165275311Y-106475487D01*
X165350000Y-106482843D01*
X165850000Y-106482843D01*
X165924689Y-106475487D01*
X165996508Y-106453701D01*
X166000000Y-106451834D01*
X166003492Y-106453701D01*
X166075311Y-106475487D01*
X166150000Y-106482843D01*
X166650000Y-106482843D01*
X166724689Y-106475487D01*
X166796508Y-106453701D01*
X166800000Y-106451834D01*
X166803492Y-106453701D01*
X166875311Y-106475487D01*
X166950000Y-106482843D01*
X167450000Y-106482843D01*
X167524689Y-106475487D01*
X167596508Y-106453701D01*
X167600000Y-106451834D01*
X167603492Y-106453701D01*
X167675311Y-106475487D01*
X167750000Y-106482843D01*
X168250000Y-106482843D01*
X168324689Y-106475487D01*
X168396508Y-106453701D01*
X168400000Y-106451834D01*
X168403492Y-106453701D01*
X168475311Y-106475487D01*
X168550000Y-106482843D01*
X169050000Y-106482843D01*
X169124689Y-106475487D01*
X169196508Y-106453701D01*
X169262696Y-106418322D01*
X169320711Y-106370711D01*
X169368322Y-106312696D01*
X169403701Y-106246508D01*
X169425487Y-106174689D01*
X169432843Y-106100000D01*
X169432843Y-105300000D01*
X169425487Y-105225311D01*
X169403701Y-105153492D01*
X169368322Y-105087304D01*
X169320711Y-105029289D01*
X169262696Y-104981678D01*
X169196508Y-104946299D01*
X169124689Y-104924513D01*
X169050000Y-104917157D01*
X168660565Y-104917157D01*
X168692113Y-104869942D01*
X168750987Y-104727809D01*
X168781000Y-104576922D01*
X168781000Y-104423078D01*
X168750987Y-104272191D01*
X168692113Y-104130058D01*
X168606642Y-104002141D01*
X168571500Y-103966999D01*
X168571500Y-103966590D01*
X168586470Y-103962049D01*
X168690477Y-103906456D01*
X168781640Y-103831640D01*
X168841254Y-103759000D01*
X168858746Y-103759000D01*
X168918360Y-103831640D01*
X169009523Y-103906456D01*
X169113530Y-103962049D01*
X169226385Y-103996284D01*
X169343750Y-104007843D01*
X169856250Y-104007843D01*
X169973615Y-103996284D01*
X170086470Y-103962049D01*
X170131243Y-103938117D01*
X170096299Y-104003492D01*
X170074513Y-104075311D01*
X170067157Y-104150000D01*
X170067157Y-106650000D01*
X170074513Y-106724689D01*
X170096299Y-106796508D01*
X170131678Y-106862696D01*
X170179289Y-106920711D01*
X170237304Y-106968322D01*
X170303492Y-107003701D01*
X170375311Y-107025487D01*
X170450000Y-107032843D01*
X172950000Y-107032843D01*
X173024689Y-107025487D01*
X173096508Y-107003701D01*
X173162696Y-106968322D01*
X173220711Y-106920711D01*
X173268322Y-106862696D01*
X173303701Y-106796508D01*
X173325487Y-106724689D01*
X173332843Y-106650000D01*
X173332843Y-104150000D01*
X177067157Y-104150000D01*
X177067157Y-106650000D01*
X177074513Y-106724689D01*
X177096299Y-106796508D01*
X177131678Y-106862696D01*
X177179289Y-106920711D01*
X177237304Y-106968322D01*
X177303492Y-107003701D01*
X177375311Y-107025487D01*
X177450000Y-107032843D01*
X179950000Y-107032843D01*
X180024689Y-107025487D01*
X180096508Y-107003701D01*
X180162696Y-106968322D01*
X180220711Y-106920711D01*
X180268322Y-106862696D01*
X180303701Y-106796508D01*
X180325487Y-106724689D01*
X180332843Y-106650000D01*
X180332843Y-104150000D01*
X180325487Y-104075311D01*
X180303701Y-104003492D01*
X180268322Y-103937304D01*
X180220711Y-103879289D01*
X180162696Y-103831678D01*
X180096508Y-103796299D01*
X180024689Y-103774513D01*
X179950000Y-103767157D01*
X177450000Y-103767157D01*
X177375311Y-103774513D01*
X177303492Y-103796299D01*
X177237304Y-103831678D01*
X177179289Y-103879289D01*
X177131678Y-103937304D01*
X177096299Y-104003492D01*
X177074513Y-104075311D01*
X177067157Y-104150000D01*
X173332843Y-104150000D01*
X173325487Y-104075311D01*
X173303701Y-104003492D01*
X173268322Y-103937304D01*
X173220711Y-103879289D01*
X173162696Y-103831678D01*
X173096508Y-103796299D01*
X173024689Y-103774513D01*
X172950000Y-103767157D01*
X170450000Y-103767157D01*
X170375311Y-103774513D01*
X170313014Y-103793410D01*
X170341254Y-103759000D01*
X171284426Y-103759000D01*
X171312500Y-103761765D01*
X171340574Y-103759000D01*
X171424534Y-103750731D01*
X171532262Y-103718052D01*
X171631545Y-103664984D01*
X171718567Y-103593567D01*
X171736470Y-103571752D01*
X172936723Y-102371500D01*
X176813501Y-102371500D01*
X176817104Y-102372593D01*
X176902460Y-102381000D01*
X177871460Y-102381000D01*
X177900000Y-102383811D01*
X177928540Y-102381000D01*
X178013896Y-102372593D01*
X178123415Y-102339371D01*
X178224348Y-102285421D01*
X178312817Y-102212817D01*
X178331017Y-102190640D01*
X178700000Y-101821657D01*
X180919000Y-104040658D01*
X180919001Y-104871451D01*
X180916189Y-104900000D01*
X180927407Y-105013895D01*
X180960629Y-105123414D01*
X181014579Y-105224347D01*
X181014580Y-105224348D01*
X181087184Y-105312817D01*
X181109356Y-105331013D01*
X183503951Y-107725609D01*
X183503716Y-107726385D01*
X183492157Y-107843750D01*
X183492157Y-108356250D01*
X183503716Y-108473615D01*
X183537951Y-108586470D01*
X183593544Y-108690477D01*
X183668360Y-108781640D01*
X183731500Y-108833458D01*
X183731500Y-108841417D01*
X183712304Y-108851678D01*
X183654289Y-108899289D01*
X183606678Y-108957304D01*
X183571299Y-109023492D01*
X183549513Y-109095311D01*
X183542157Y-109170000D01*
X183542157Y-110230000D01*
X183549513Y-110304689D01*
X183571299Y-110376508D01*
X183606678Y-110442696D01*
X183654289Y-110500711D01*
X183712304Y-110548322D01*
X183778492Y-110583701D01*
X183850311Y-110605487D01*
X183925000Y-110612843D01*
X184575000Y-110612843D01*
X184649689Y-110605487D01*
X184721508Y-110583701D01*
X184787696Y-110548322D01*
X184845711Y-110500711D01*
X184893322Y-110442696D01*
X184928701Y-110376508D01*
X184950487Y-110304689D01*
X184957843Y-110230000D01*
X184957843Y-109170000D01*
X184950487Y-109095311D01*
X184928701Y-109023492D01*
X184893500Y-108957637D01*
X184893500Y-108833458D01*
X184956640Y-108781640D01*
X185031456Y-108690477D01*
X185071206Y-108616110D01*
X185074513Y-108649689D01*
X185096299Y-108721508D01*
X185131678Y-108787696D01*
X185179289Y-108845711D01*
X185237304Y-108893322D01*
X185303492Y-108928701D01*
X185375311Y-108950487D01*
X185450000Y-108957843D01*
X185506567Y-108957512D01*
X185471299Y-109023492D01*
X185449513Y-109095311D01*
X185442157Y-109170000D01*
X185442157Y-110230000D01*
X185449513Y-110304689D01*
X185471299Y-110376508D01*
X185506678Y-110442696D01*
X185554289Y-110500711D01*
X185612304Y-110548322D01*
X185678492Y-110583701D01*
X185750311Y-110605487D01*
X185825000Y-110612843D01*
X186475000Y-110612843D01*
X186549689Y-110605487D01*
X186621508Y-110583701D01*
X186684556Y-110550000D01*
X187017157Y-110550000D01*
X187024513Y-110624689D01*
X187046299Y-110696508D01*
X187081678Y-110762696D01*
X187129289Y-110820711D01*
X187187304Y-110868322D01*
X187253492Y-110903701D01*
X187325311Y-110925487D01*
X187400000Y-110932843D01*
X187977750Y-110931000D01*
X188073000Y-110835750D01*
X188073000Y-110089500D01*
X187114250Y-110089500D01*
X187019000Y-110184750D01*
X187017157Y-110550000D01*
X186684556Y-110550000D01*
X186687696Y-110548322D01*
X186745711Y-110500711D01*
X186793322Y-110442696D01*
X186828701Y-110376508D01*
X186850487Y-110304689D01*
X186857843Y-110230000D01*
X186857843Y-109575000D01*
X187017157Y-109575000D01*
X187019000Y-109940250D01*
X187114250Y-110035500D01*
X188073000Y-110035500D01*
X188073000Y-109289250D01*
X187977750Y-109194000D01*
X187400000Y-109192157D01*
X187325311Y-109199513D01*
X187253492Y-109221299D01*
X187187304Y-109256678D01*
X187129289Y-109304289D01*
X187081678Y-109362304D01*
X187046299Y-109428492D01*
X187024513Y-109500311D01*
X187017157Y-109575000D01*
X186857843Y-109575000D01*
X186857843Y-109170000D01*
X186850487Y-109095311D01*
X186828701Y-109023492D01*
X186793322Y-108957304D01*
X186745711Y-108899289D01*
X186687696Y-108851678D01*
X186621508Y-108816299D01*
X186620179Y-108815896D01*
X186643322Y-108787696D01*
X186678701Y-108721508D01*
X186700487Y-108649689D01*
X186707843Y-108575000D01*
X186706000Y-108222250D01*
X186610750Y-108127000D01*
X185914500Y-108127000D01*
X185914500Y-108147000D01*
X185860500Y-108147000D01*
X185860500Y-108127000D01*
X185840500Y-108127000D01*
X185840500Y-108073000D01*
X185860500Y-108073000D01*
X185860500Y-107339250D01*
X185914500Y-107339250D01*
X185914500Y-108073000D01*
X186610750Y-108073000D01*
X186706000Y-107977750D01*
X186707843Y-107625000D01*
X186700487Y-107550311D01*
X186678701Y-107478492D01*
X186643322Y-107412304D01*
X186595711Y-107354289D01*
X186537696Y-107306678D01*
X186471508Y-107271299D01*
X186399689Y-107249513D01*
X186325000Y-107242157D01*
X186009750Y-107244000D01*
X185914500Y-107339250D01*
X185860500Y-107339250D01*
X185765250Y-107244000D01*
X185450000Y-107242157D01*
X185375311Y-107249513D01*
X185303492Y-107271299D01*
X185237304Y-107306678D01*
X185179289Y-107354289D01*
X185131678Y-107412304D01*
X185096299Y-107478492D01*
X185074513Y-107550311D01*
X185071206Y-107583890D01*
X185031456Y-107509523D01*
X184956640Y-107418360D01*
X184865477Y-107343544D01*
X184802996Y-107310147D01*
X184797921Y-107300652D01*
X184725317Y-107212183D01*
X184703141Y-107193984D01*
X184618517Y-107109360D01*
X184600317Y-107087183D01*
X184511848Y-107014579D01*
X184410915Y-106960629D01*
X184369821Y-106948163D01*
X182151858Y-104730200D01*
X182943957Y-104730200D01*
X182951313Y-104804889D01*
X182973099Y-104876708D01*
X183008478Y-104942896D01*
X183056089Y-105000911D01*
X183114104Y-105048522D01*
X183180292Y-105083901D01*
X183252111Y-105105687D01*
X183326800Y-105113043D01*
X183979250Y-105111200D01*
X184074500Y-105015950D01*
X184074500Y-104427000D01*
X184128500Y-104427000D01*
X184128500Y-105015950D01*
X184223750Y-105111200D01*
X184876200Y-105113043D01*
X184950889Y-105105687D01*
X185022708Y-105083901D01*
X185088896Y-105048522D01*
X185146911Y-105000911D01*
X185194522Y-104942896D01*
X185229901Y-104876708D01*
X185251687Y-104804889D01*
X185259043Y-104730200D01*
X185257200Y-104522250D01*
X185161950Y-104427000D01*
X184128500Y-104427000D01*
X184074500Y-104427000D01*
X183041050Y-104427000D01*
X182945800Y-104522250D01*
X182943957Y-104730200D01*
X182151858Y-104730200D01*
X182081000Y-104659343D01*
X182081000Y-103828540D01*
X182083811Y-103800000D01*
X182072593Y-103686104D01*
X182039371Y-103576585D01*
X181985421Y-103475652D01*
X181945206Y-103426650D01*
X181912817Y-103387183D01*
X181890646Y-103368988D01*
X179281000Y-100759343D01*
X179281000Y-100500000D01*
X180617157Y-100500000D01*
X180617157Y-101400000D01*
X180624513Y-101474689D01*
X180646299Y-101546508D01*
X180681678Y-101612696D01*
X180729289Y-101670711D01*
X180787304Y-101718322D01*
X180853492Y-101753701D01*
X180925311Y-101775487D01*
X181000000Y-101782843D01*
X181611185Y-101782843D01*
X181618987Y-101790645D01*
X181637183Y-101812817D01*
X181725652Y-101885421D01*
X181801074Y-101925735D01*
X181826585Y-101939371D01*
X181936104Y-101972593D01*
X182049999Y-101983811D01*
X182078539Y-101981000D01*
X182955594Y-101981000D01*
X182951313Y-101995112D01*
X182943957Y-102069801D01*
X182943957Y-102730201D01*
X182951313Y-102804890D01*
X182973099Y-102876709D01*
X182985549Y-102900000D01*
X182973099Y-102923291D01*
X182951313Y-102995110D01*
X182943957Y-103069799D01*
X182943957Y-103730199D01*
X182951313Y-103804888D01*
X182973099Y-103876707D01*
X182985549Y-103900000D01*
X182973099Y-103923292D01*
X182951313Y-103995111D01*
X182943957Y-104069800D01*
X182945800Y-104277750D01*
X183041050Y-104373000D01*
X184074500Y-104373000D01*
X184074500Y-104353000D01*
X184128500Y-104353000D01*
X184128500Y-104373000D01*
X185161950Y-104373000D01*
X185257200Y-104277750D01*
X185259043Y-104069800D01*
X185251687Y-103995111D01*
X185229901Y-103923292D01*
X185220657Y-103905999D01*
X185419000Y-103905999D01*
X185419000Y-103976922D01*
X185449013Y-104127809D01*
X185507887Y-104269942D01*
X185593358Y-104397859D01*
X185702141Y-104506642D01*
X185830058Y-104592113D01*
X185972191Y-104650987D01*
X186123078Y-104681000D01*
X186276922Y-104681000D01*
X186427809Y-104650987D01*
X186569942Y-104592113D01*
X186697859Y-104506642D01*
X186806642Y-104397859D01*
X186892113Y-104269942D01*
X186950987Y-104127809D01*
X186981000Y-103976922D01*
X186981000Y-103823078D01*
X186950987Y-103672191D01*
X186892113Y-103530058D01*
X186806642Y-103402141D01*
X186697859Y-103293358D01*
X186569942Y-103207887D01*
X186550901Y-103200000D01*
X186569942Y-103192113D01*
X186697859Y-103106642D01*
X186806642Y-102997859D01*
X186892113Y-102869942D01*
X186950987Y-102727809D01*
X186981000Y-102576922D01*
X186981000Y-102423078D01*
X186950987Y-102272191D01*
X186892113Y-102130058D01*
X186806642Y-102002141D01*
X186697859Y-101893358D01*
X186569942Y-101807887D01*
X186427809Y-101749013D01*
X186276922Y-101719000D01*
X186123078Y-101719000D01*
X185972191Y-101749013D01*
X185830058Y-101807887D01*
X185702141Y-101893358D01*
X185601499Y-101994000D01*
X185251350Y-101994000D01*
X185229901Y-101923293D01*
X185217451Y-101900001D01*
X185229901Y-101876708D01*
X185251687Y-101804889D01*
X185259043Y-101730200D01*
X185259043Y-101069800D01*
X185251687Y-100995111D01*
X185229901Y-100923292D01*
X185194522Y-100857104D01*
X185146911Y-100799089D01*
X185088896Y-100751478D01*
X185022708Y-100716099D01*
X184950889Y-100694313D01*
X184876200Y-100686957D01*
X183326800Y-100686957D01*
X183252111Y-100694313D01*
X183180292Y-100716099D01*
X183114104Y-100751478D01*
X183056089Y-100799089D01*
X183039749Y-100819000D01*
X182582843Y-100819000D01*
X182582843Y-100500000D01*
X182575487Y-100425311D01*
X182553701Y-100353492D01*
X182518322Y-100287304D01*
X182470711Y-100229289D01*
X182412696Y-100181678D01*
X182346508Y-100146299D01*
X182274689Y-100124513D01*
X182200000Y-100117157D01*
X181000000Y-100117157D01*
X180925311Y-100124513D01*
X180853492Y-100146299D01*
X180787304Y-100181678D01*
X180729289Y-100229289D01*
X180681678Y-100287304D01*
X180646299Y-100353492D01*
X180624513Y-100425311D01*
X180617157Y-100500000D01*
X179281000Y-100500000D01*
X179281000Y-100032843D01*
X179950000Y-100032843D01*
X180024689Y-100025487D01*
X180096508Y-100003701D01*
X180162696Y-99968322D01*
X180220711Y-99920711D01*
X180268322Y-99862696D01*
X180303701Y-99796508D01*
X180325487Y-99724689D01*
X180332843Y-99650000D01*
X180332843Y-98981000D01*
X181271460Y-98981000D01*
X181300000Y-98983811D01*
X181328540Y-98981000D01*
X181413896Y-98972593D01*
X181523415Y-98939371D01*
X181624348Y-98885421D01*
X181712817Y-98812817D01*
X181731017Y-98790640D01*
X181990641Y-98531016D01*
X182012817Y-98512817D01*
X182037416Y-98482843D01*
X182200000Y-98482843D01*
X182274689Y-98475487D01*
X182346508Y-98453701D01*
X182412696Y-98418322D01*
X182470711Y-98370711D01*
X182518322Y-98312696D01*
X182553701Y-98246508D01*
X182575487Y-98174689D01*
X182582843Y-98100000D01*
X182582843Y-97200000D01*
X182576047Y-97131000D01*
X187118920Y-97131000D01*
X187444352Y-97162909D01*
G37*
X187444352Y-97162909D02*
X187737113Y-97251299D01*
X188007126Y-97394868D01*
X188244115Y-97588151D01*
X188439045Y-97823781D01*
X188584498Y-98092791D01*
X188674928Y-98384924D01*
X188709000Y-98709092D01*
X188709000Y-99069458D01*
X187024001Y-99069458D01*
X186949312Y-99076814D01*
X186877493Y-99098600D01*
X186811305Y-99133979D01*
X186753290Y-99181590D01*
X186705679Y-99239605D01*
X186670300Y-99305793D01*
X186648514Y-99377612D01*
X186641158Y-99452301D01*
X186641158Y-100747701D01*
X186648514Y-100822390D01*
X186670300Y-100894209D01*
X186705679Y-100960397D01*
X186753290Y-101018412D01*
X186811305Y-101066023D01*
X186877493Y-101101402D01*
X186949312Y-101123188D01*
X187024001Y-101130544D01*
X188709000Y-101130544D01*
X188709000Y-104669456D01*
X187024001Y-104669456D01*
X186949312Y-104676812D01*
X186877493Y-104698598D01*
X186811305Y-104733977D01*
X186753290Y-104781588D01*
X186705679Y-104839603D01*
X186670300Y-104905791D01*
X186648514Y-104977610D01*
X186641158Y-105052299D01*
X186641158Y-106347699D01*
X186648514Y-106422388D01*
X186670300Y-106494207D01*
X186705679Y-106560395D01*
X186753290Y-106618410D01*
X186811305Y-106666021D01*
X186877493Y-106701400D01*
X186949312Y-106723186D01*
X187024001Y-106730542D01*
X188709001Y-106730542D01*
X188709001Y-109192447D01*
X188222250Y-109194000D01*
X188127000Y-109289250D01*
X188127000Y-110035500D01*
X188147000Y-110035500D01*
X188147000Y-110089500D01*
X188127000Y-110089500D01*
X188127000Y-110835750D01*
X188222250Y-110931000D01*
X188709001Y-110932553D01*
X188709001Y-111088452D01*
X188678492Y-111079197D01*
X188556250Y-111067157D01*
X187643750Y-111067157D01*
X187521508Y-111079197D01*
X187403963Y-111114854D01*
X187295634Y-111172757D01*
X187200682Y-111250682D01*
X187144615Y-111319000D01*
X186852820Y-111319000D01*
X186850487Y-111295311D01*
X186828701Y-111223492D01*
X186793322Y-111157304D01*
X186745711Y-111099289D01*
X186687696Y-111051678D01*
X186621508Y-111016299D01*
X186549689Y-110994513D01*
X186475000Y-110987157D01*
X185825000Y-110987157D01*
X185750311Y-110994513D01*
X185678492Y-111016299D01*
X185675000Y-111018166D01*
X185671508Y-111016299D01*
X185599689Y-110994513D01*
X185525000Y-110987157D01*
X185322250Y-110989000D01*
X185227000Y-111084250D01*
X185227000Y-111873000D01*
X185247000Y-111873000D01*
X185247000Y-111927000D01*
X185227000Y-111927000D01*
X185227000Y-111947000D01*
X185173000Y-111947000D01*
X185173000Y-111927000D01*
X185153000Y-111927000D01*
X185153000Y-111873000D01*
X185173000Y-111873000D01*
X185173000Y-111084250D01*
X185077750Y-110989000D01*
X184875000Y-110987157D01*
X184800311Y-110994513D01*
X184728492Y-111016299D01*
X184725000Y-111018166D01*
X184721508Y-111016299D01*
X184649689Y-110994513D01*
X184575000Y-110987157D01*
X183925000Y-110987157D01*
X183850311Y-110994513D01*
X183778492Y-111016299D01*
X183712304Y-111051678D01*
X183654289Y-111099289D01*
X183606678Y-111157304D01*
X183571299Y-111223492D01*
X183549513Y-111295311D01*
X183542157Y-111370000D01*
X183542157Y-112430000D01*
X183549513Y-112504689D01*
X183571299Y-112576508D01*
X183606678Y-112642696D01*
X183654289Y-112700711D01*
X183669001Y-112712785D01*
X183669001Y-112821451D01*
X183666189Y-112850000D01*
X183677071Y-112960482D01*
X183676585Y-112960629D01*
X183575652Y-113014579D01*
X183487183Y-113087183D01*
X183468987Y-113109355D01*
X183407814Y-113170528D01*
X183406000Y-111322250D01*
X183310750Y-111227000D01*
X182202000Y-111227000D01*
X182202000Y-113485750D01*
X182297250Y-113581000D01*
X182995574Y-113582768D01*
X182209355Y-114368988D01*
X182187184Y-114387183D01*
X182161948Y-114417934D01*
X182114579Y-114475653D01*
X182060629Y-114576586D01*
X182027407Y-114686105D01*
X182016189Y-114800000D01*
X182019001Y-114828550D01*
X182019000Y-117293342D01*
X181959045Y-117353298D01*
X181932322Y-117303304D01*
X181884711Y-117245289D01*
X181826696Y-117197678D01*
X181760508Y-117162299D01*
X181688689Y-117140513D01*
X181614000Y-117133157D01*
X180406000Y-117133157D01*
X180331311Y-117140513D01*
X180259492Y-117162299D01*
X180193304Y-117197678D01*
X180135289Y-117245289D01*
X180087678Y-117303304D01*
X180052299Y-117369492D01*
X180030513Y-117441311D01*
X180023157Y-117516000D01*
X180023157Y-118724000D01*
X180028890Y-118782206D01*
X179740794Y-118782206D01*
X179775099Y-118747901D01*
X179882896Y-118586572D01*
X179957147Y-118407314D01*
X179995000Y-118217014D01*
X179995000Y-118022986D01*
X179957147Y-117832686D01*
X179882896Y-117653428D01*
X179775099Y-117492099D01*
X179637901Y-117354901D01*
X179476572Y-117247104D01*
X179297314Y-117172853D01*
X179107014Y-117135000D01*
X178912986Y-117135000D01*
X178722686Y-117172853D01*
X178543428Y-117247104D01*
X178382099Y-117354901D01*
X178244901Y-117492099D01*
X178137104Y-117653428D01*
X178062853Y-117832686D01*
X178025000Y-118022986D01*
X178025000Y-118217014D01*
X178062853Y-118407314D01*
X178137104Y-118586572D01*
X178244901Y-118747901D01*
X178279206Y-118782206D01*
X177740794Y-118782206D01*
X177775099Y-118747901D01*
X177882896Y-118586572D01*
X177957147Y-118407314D01*
X177995000Y-118217014D01*
X177995000Y-118022986D01*
X177957147Y-117832686D01*
X177882896Y-117653428D01*
X177775099Y-117492099D01*
X177637901Y-117354901D01*
X177476572Y-117247104D01*
X177297314Y-117172853D01*
X177107014Y-117135000D01*
X176912986Y-117135000D01*
X176722686Y-117172853D01*
X176543428Y-117247104D01*
X176382099Y-117354901D01*
X176244901Y-117492099D01*
X176137104Y-117653428D01*
X176062853Y-117832686D01*
X176025000Y-118022986D01*
X176025000Y-118217014D01*
X176062853Y-118407314D01*
X176137104Y-118586572D01*
X176244901Y-118747901D01*
X176279206Y-118782206D01*
X175740794Y-118782206D01*
X175775099Y-118747901D01*
X175882896Y-118586572D01*
X175957147Y-118407314D01*
X175995000Y-118217014D01*
X175995000Y-118022986D01*
X175957147Y-117832686D01*
X175882896Y-117653428D01*
X175775099Y-117492099D01*
X175637901Y-117354901D01*
X175476572Y-117247104D01*
X175297314Y-117172853D01*
X175107014Y-117135000D01*
X174912986Y-117135000D01*
X174722686Y-117172853D01*
X174543428Y-117247104D01*
X174382099Y-117354901D01*
X174244901Y-117492099D01*
X174137104Y-117653428D01*
X174062853Y-117832686D01*
X174025000Y-118022986D01*
X174025000Y-118217014D01*
X174062853Y-118407314D01*
X174137104Y-118586572D01*
X174244901Y-118747901D01*
X174279206Y-118782206D01*
X173710393Y-118782206D01*
X173661324Y-118733137D01*
X173826310Y-118679710D01*
X173919819Y-118509701D01*
X173978364Y-118324715D01*
X173999694Y-118131863D01*
X173982992Y-117938555D01*
X173928897Y-117752220D01*
X173839491Y-117580019D01*
X173826310Y-117560290D01*
X173661322Y-117506862D01*
X173048184Y-118120000D01*
X173062326Y-118134142D01*
X173024142Y-118172326D01*
X173010000Y-118158184D01*
X172995858Y-118172326D01*
X172957674Y-118134142D01*
X172971816Y-118120000D01*
X172358678Y-117506862D01*
X172193690Y-117560290D01*
X172100181Y-117730299D01*
X172041636Y-117915285D01*
X172020306Y-118108137D01*
X172037008Y-118301445D01*
X172091103Y-118487780D01*
X172180509Y-118659981D01*
X172193690Y-118679710D01*
X172358676Y-118733137D01*
X172309607Y-118782206D01*
X171740794Y-118782206D01*
X171775099Y-118747901D01*
X171882896Y-118586572D01*
X171957147Y-118407314D01*
X171995000Y-118217014D01*
X171995000Y-118022986D01*
X171957147Y-117832686D01*
X171882896Y-117653428D01*
X171775099Y-117492099D01*
X171751678Y-117468678D01*
X172396862Y-117468678D01*
X173010000Y-118081816D01*
X173623138Y-117468678D01*
X173569710Y-117303690D01*
X173399701Y-117210181D01*
X173214715Y-117151636D01*
X173021863Y-117130306D01*
X172828555Y-117147008D01*
X172642220Y-117201103D01*
X172470019Y-117290509D01*
X172450290Y-117303690D01*
X172396862Y-117468678D01*
X171751678Y-117468678D01*
X171637901Y-117354901D01*
X171476572Y-117247104D01*
X171297314Y-117172853D01*
X171107014Y-117135000D01*
X170912986Y-117135000D01*
X170722686Y-117172853D01*
X170543428Y-117247104D01*
X170382099Y-117354901D01*
X170244901Y-117492099D01*
X170137104Y-117653428D01*
X170062853Y-117832686D01*
X170025000Y-118022986D01*
X170025000Y-118217014D01*
X170062853Y-118407314D01*
X170137104Y-118586572D01*
X170244901Y-118747901D01*
X170279206Y-118782206D01*
X169740794Y-118782206D01*
X169775099Y-118747901D01*
X169882896Y-118586572D01*
X169957147Y-118407314D01*
X169995000Y-118217014D01*
X169995000Y-118022986D01*
X169957147Y-117832686D01*
X169882896Y-117653428D01*
X169775099Y-117492099D01*
X169637901Y-117354901D01*
X169476572Y-117247104D01*
X169297314Y-117172853D01*
X169107014Y-117135000D01*
X168912986Y-117135000D01*
X168722686Y-117172853D01*
X168543428Y-117247104D01*
X168382099Y-117354901D01*
X168244901Y-117492099D01*
X168137104Y-117653428D01*
X168062853Y-117832686D01*
X168025000Y-118022986D01*
X168025000Y-118217014D01*
X168062853Y-118407314D01*
X168137104Y-118586572D01*
X168244901Y-118747901D01*
X168279206Y-118782206D01*
X164127000Y-118782206D01*
X164127000Y-114625509D01*
X167960972Y-114625510D01*
X168451409Y-115115948D01*
X168466123Y-115133877D01*
X168537675Y-115192598D01*
X168597639Y-115224649D01*
X168543428Y-115247104D01*
X168382099Y-115354901D01*
X168244901Y-115492099D01*
X168137104Y-115653428D01*
X168062853Y-115832686D01*
X168025000Y-116022986D01*
X168025000Y-116217014D01*
X168062853Y-116407314D01*
X168137104Y-116586572D01*
X168244901Y-116747901D01*
X168382099Y-116885099D01*
X168543428Y-116992896D01*
X168722686Y-117067147D01*
X168912986Y-117105000D01*
X169107014Y-117105000D01*
X169297314Y-117067147D01*
X169476572Y-116992896D01*
X169637901Y-116885099D01*
X169775099Y-116747901D01*
X169882896Y-116586572D01*
X169957147Y-116407314D01*
X169995000Y-116217014D01*
X169995000Y-116022986D01*
X169957147Y-115832686D01*
X169882896Y-115653428D01*
X169820924Y-115560680D01*
X169923078Y-115581000D01*
X170076922Y-115581000D01*
X170202142Y-115556092D01*
X170137104Y-115653428D01*
X170062853Y-115832686D01*
X170025000Y-116022986D01*
X170025000Y-116217014D01*
X170062853Y-116407314D01*
X170137104Y-116586572D01*
X170244901Y-116747901D01*
X170382099Y-116885099D01*
X170543428Y-116992896D01*
X170722686Y-117067147D01*
X170912986Y-117105000D01*
X171107014Y-117105000D01*
X171297314Y-117067147D01*
X171476572Y-116992896D01*
X171637901Y-116885099D01*
X171775099Y-116747901D01*
X171882896Y-116586572D01*
X171957147Y-116407314D01*
X171995000Y-116217014D01*
X171995000Y-116022986D01*
X171957147Y-115832686D01*
X171882896Y-115653428D01*
X171775099Y-115492099D01*
X171637901Y-115354901D01*
X171476572Y-115247104D01*
X171297314Y-115172853D01*
X171107014Y-115135000D01*
X170912986Y-115135000D01*
X170722686Y-115172853D01*
X170677724Y-115191477D01*
X170692113Y-115169942D01*
X170750987Y-115027809D01*
X170781000Y-114876922D01*
X170781000Y-114723078D01*
X170770292Y-114669247D01*
X170799999Y-114672173D01*
X170823076Y-114669900D01*
X171749546Y-114669900D01*
X172413539Y-115333894D01*
X172382099Y-115354901D01*
X172244901Y-115492099D01*
X172137104Y-115653428D01*
X172062853Y-115832686D01*
X172025000Y-116022986D01*
X172025000Y-116217014D01*
X172062853Y-116407314D01*
X172137104Y-116586572D01*
X172244901Y-116747901D01*
X172382099Y-116885099D01*
X172543428Y-116992896D01*
X172722686Y-117067147D01*
X172912986Y-117105000D01*
X173107014Y-117105000D01*
X173297314Y-117067147D01*
X173476572Y-116992896D01*
X173637901Y-116885099D01*
X173775099Y-116747901D01*
X173882896Y-116586572D01*
X173957147Y-116407314D01*
X173995000Y-116217014D01*
X173995000Y-116022986D01*
X174025000Y-116022986D01*
X174025000Y-116217014D01*
X174062853Y-116407314D01*
X174137104Y-116586572D01*
X174244901Y-116747901D01*
X174382099Y-116885099D01*
X174543428Y-116992896D01*
X174722686Y-117067147D01*
X174912986Y-117105000D01*
X175107014Y-117105000D01*
X175297314Y-117067147D01*
X175476572Y-116992896D01*
X175637901Y-116885099D01*
X175751678Y-116771322D01*
X176396862Y-116771322D01*
X176450290Y-116936310D01*
X176620299Y-117029819D01*
X176805285Y-117088364D01*
X176998137Y-117109694D01*
X177191445Y-117092992D01*
X177377780Y-117038897D01*
X177549981Y-116949491D01*
X177569710Y-116936310D01*
X177623138Y-116771322D01*
X177010000Y-116158184D01*
X176396862Y-116771322D01*
X175751678Y-116771322D01*
X175775099Y-116747901D01*
X175882896Y-116586572D01*
X175957147Y-116407314D01*
X175995000Y-116217014D01*
X175995000Y-116108137D01*
X176020306Y-116108137D01*
X176037008Y-116301445D01*
X176091103Y-116487780D01*
X176180509Y-116659981D01*
X176193690Y-116679710D01*
X176358678Y-116733138D01*
X176971816Y-116120000D01*
X177048184Y-116120000D01*
X177661322Y-116733138D01*
X177826310Y-116679710D01*
X177919819Y-116509701D01*
X177978364Y-116324715D01*
X177999694Y-116131863D01*
X177982992Y-115938555D01*
X177928897Y-115752220D01*
X177839491Y-115580019D01*
X177826310Y-115560290D01*
X177661322Y-115506862D01*
X177048184Y-116120000D01*
X176971816Y-116120000D01*
X176358678Y-115506862D01*
X176193690Y-115560290D01*
X176100181Y-115730299D01*
X176041636Y-115915285D01*
X176020306Y-116108137D01*
X175995000Y-116108137D01*
X175995000Y-116022986D01*
X175957147Y-115832686D01*
X175882896Y-115653428D01*
X175775099Y-115492099D01*
X175751678Y-115468678D01*
X176396862Y-115468678D01*
X177010000Y-116081816D01*
X177623138Y-115468678D01*
X177569710Y-115303690D01*
X177399701Y-115210181D01*
X177214715Y-115151636D01*
X177021863Y-115130306D01*
X176828555Y-115147008D01*
X176642220Y-115201103D01*
X176470019Y-115290509D01*
X176450290Y-115303690D01*
X176396862Y-115468678D01*
X175751678Y-115468678D01*
X175637901Y-115354901D01*
X175476572Y-115247104D01*
X175297314Y-115172853D01*
X175107014Y-115135000D01*
X174912986Y-115135000D01*
X174722686Y-115172853D01*
X174543428Y-115247104D01*
X174382099Y-115354901D01*
X174244901Y-115492099D01*
X174137104Y-115653428D01*
X174062853Y-115832686D01*
X174025000Y-116022986D01*
X173995000Y-116022986D01*
X173957147Y-115832686D01*
X173882896Y-115653428D01*
X173775099Y-115492099D01*
X173637901Y-115354901D01*
X173480595Y-115249792D01*
X173473100Y-115173698D01*
X173458129Y-115124347D01*
X173446231Y-115085123D01*
X173402598Y-115003491D01*
X173343877Y-114931939D01*
X173325948Y-114917225D01*
X172491565Y-114082843D01*
X173025000Y-114082843D01*
X173099689Y-114075487D01*
X173171508Y-114053701D01*
X173237696Y-114018322D01*
X173295711Y-113970711D01*
X173343322Y-113912696D01*
X173378701Y-113846508D01*
X173400487Y-113774689D01*
X173407843Y-113700000D01*
X173407843Y-112823078D01*
X174019000Y-112823078D01*
X174019000Y-112976922D01*
X174049013Y-113127809D01*
X174107887Y-113269942D01*
X174193358Y-113397859D01*
X174302141Y-113506642D01*
X174430058Y-113592113D01*
X174572191Y-113650987D01*
X174723078Y-113681000D01*
X174876922Y-113681000D01*
X175027809Y-113650987D01*
X175169942Y-113592113D01*
X175297859Y-113506642D01*
X175398501Y-113406000D01*
X177290409Y-113406000D01*
X178504000Y-114619592D01*
X178504001Y-115273449D01*
X178382099Y-115354901D01*
X178244901Y-115492099D01*
X178137104Y-115653428D01*
X178062853Y-115832686D01*
X178025000Y-116022986D01*
X178025000Y-116217014D01*
X178062853Y-116407314D01*
X178137104Y-116586572D01*
X178244901Y-116747901D01*
X178382099Y-116885099D01*
X178543428Y-116992896D01*
X178722686Y-117067147D01*
X178912986Y-117105000D01*
X179107014Y-117105000D01*
X179297314Y-117067147D01*
X179476572Y-116992896D01*
X179637901Y-116885099D01*
X179775099Y-116747901D01*
X179882896Y-116586572D01*
X179957147Y-116407314D01*
X179995000Y-116217014D01*
X179995000Y-116022986D01*
X180025000Y-116022986D01*
X180025000Y-116217014D01*
X180062853Y-116407314D01*
X180137104Y-116586572D01*
X180244901Y-116747901D01*
X180382099Y-116885099D01*
X180543428Y-116992896D01*
X180722686Y-117067147D01*
X180912986Y-117105000D01*
X181107014Y-117105000D01*
X181297314Y-117067147D01*
X181476572Y-116992896D01*
X181637901Y-116885099D01*
X181775099Y-116747901D01*
X181882896Y-116586572D01*
X181957147Y-116407314D01*
X181995000Y-116217014D01*
X181995000Y-116022986D01*
X181957147Y-115832686D01*
X181882896Y-115653428D01*
X181775099Y-115492099D01*
X181637901Y-115354901D01*
X181476572Y-115247104D01*
X181297314Y-115172853D01*
X181107014Y-115135000D01*
X180912986Y-115135000D01*
X180722686Y-115172853D01*
X180543428Y-115247104D01*
X180382099Y-115354901D01*
X180244901Y-115492099D01*
X180137104Y-115653428D01*
X180062853Y-115832686D01*
X180025000Y-116022986D01*
X179995000Y-116022986D01*
X179957147Y-115832686D01*
X179882896Y-115653428D01*
X179775099Y-115492099D01*
X179637901Y-115354901D01*
X179516000Y-115273449D01*
X179516000Y-114434845D01*
X179518447Y-114409999D01*
X179516000Y-114385153D01*
X179516000Y-114385146D01*
X179508678Y-114310807D01*
X179504751Y-114297859D01*
X179494705Y-114264743D01*
X179479745Y-114215425D01*
X179432759Y-114127521D01*
X179369527Y-114050473D01*
X179350220Y-114034628D01*
X178515592Y-113200000D01*
X180942157Y-113200000D01*
X180949513Y-113274689D01*
X180971299Y-113346508D01*
X181006678Y-113412696D01*
X181054289Y-113470711D01*
X181112304Y-113518322D01*
X181178492Y-113553701D01*
X181250311Y-113575487D01*
X181325000Y-113582843D01*
X182052750Y-113581000D01*
X182148000Y-113485750D01*
X182148000Y-111227000D01*
X181039250Y-111227000D01*
X180944000Y-111322250D01*
X180942157Y-113200000D01*
X178515592Y-113200000D01*
X177875376Y-112559785D01*
X177859527Y-112540473D01*
X177782479Y-112477241D01*
X177694575Y-112430255D01*
X177599193Y-112401322D01*
X177524854Y-112394000D01*
X177524846Y-112394000D01*
X177500000Y-112391553D01*
X177475154Y-112394000D01*
X175398501Y-112394000D01*
X175297859Y-112293358D01*
X175169942Y-112207887D01*
X175027809Y-112149013D01*
X174876922Y-112119000D01*
X174723078Y-112119000D01*
X174572191Y-112149013D01*
X174430058Y-112207887D01*
X174302141Y-112293358D01*
X174193358Y-112402141D01*
X174107887Y-112530058D01*
X174049013Y-112672191D01*
X174019000Y-112823078D01*
X173407843Y-112823078D01*
X173407843Y-109200000D01*
X180942157Y-109200000D01*
X180944000Y-111077750D01*
X181039250Y-111173000D01*
X182148000Y-111173000D01*
X182148000Y-108914250D01*
X182202000Y-108914250D01*
X182202000Y-111173000D01*
X183310750Y-111173000D01*
X183406000Y-111077750D01*
X183407843Y-109200000D01*
X183400487Y-109125311D01*
X183378701Y-109053492D01*
X183343322Y-108987304D01*
X183295711Y-108929289D01*
X183237696Y-108881678D01*
X183171508Y-108846299D01*
X183099689Y-108824513D01*
X183025000Y-108817157D01*
X182297250Y-108819000D01*
X182202000Y-108914250D01*
X182148000Y-108914250D01*
X182052750Y-108819000D01*
X181325000Y-108817157D01*
X181250311Y-108824513D01*
X181178492Y-108846299D01*
X181112304Y-108881678D01*
X181054289Y-108929289D01*
X181006678Y-108987304D01*
X180971299Y-109053492D01*
X180949513Y-109125311D01*
X180942157Y-109200000D01*
X173407843Y-109200000D01*
X173407843Y-108700000D01*
X173400487Y-108625311D01*
X173378701Y-108553492D01*
X173343322Y-108487304D01*
X173295711Y-108429289D01*
X173237696Y-108381678D01*
X173171508Y-108346299D01*
X173099689Y-108324513D01*
X173025000Y-108317157D01*
X171025000Y-108317157D01*
X170950311Y-108324513D01*
X170878492Y-108346299D01*
X170812304Y-108381678D01*
X170754289Y-108429289D01*
X170706678Y-108487304D01*
X170671299Y-108553492D01*
X170649513Y-108625311D01*
X170642157Y-108700000D01*
X170642157Y-109402381D01*
X170584008Y-109371299D01*
X170512189Y-109349513D01*
X170437500Y-109342157D01*
X170122250Y-109344000D01*
X170027000Y-109439250D01*
X170027000Y-110173000D01*
X170047000Y-110173000D01*
X170047000Y-110227000D01*
X170027000Y-110227000D01*
X170027000Y-110247000D01*
X169973000Y-110247000D01*
X169973000Y-110227000D01*
X169953000Y-110227000D01*
X169953000Y-110173000D01*
X169973000Y-110173000D01*
X169973000Y-109439250D01*
X169877750Y-109344000D01*
X169562500Y-109342157D01*
X169487811Y-109349513D01*
X169415992Y-109371299D01*
X169349804Y-109406678D01*
X169291789Y-109454289D01*
X169244178Y-109512304D01*
X169208799Y-109578492D01*
X169187013Y-109650311D01*
X169183706Y-109683890D01*
X169143956Y-109609523D01*
X169084361Y-109536907D01*
X169086765Y-109512499D01*
X169083228Y-109476586D01*
X169075731Y-109400466D01*
X169043052Y-109292738D01*
X168989984Y-109193455D01*
X168918567Y-109106433D01*
X168896758Y-109088535D01*
X168571500Y-108763278D01*
X168571500Y-108682843D01*
X169050000Y-108682843D01*
X169124689Y-108675487D01*
X169196508Y-108653701D01*
X169262696Y-108618322D01*
X169320711Y-108570711D01*
X169368322Y-108512696D01*
X169403701Y-108446508D01*
X169425487Y-108374689D01*
X169432843Y-108300000D01*
X169432843Y-107500000D01*
X169425487Y-107425311D01*
X169403701Y-107353492D01*
X169368322Y-107287304D01*
X169320711Y-107229289D01*
X169262696Y-107181678D01*
X169196508Y-107146299D01*
X169124689Y-107124513D01*
X169050000Y-107117157D01*
X168550000Y-107117157D01*
X168475311Y-107124513D01*
X168403492Y-107146299D01*
X168400000Y-107148166D01*
X168396508Y-107146299D01*
X168324689Y-107124513D01*
X168250000Y-107117157D01*
X167750000Y-107117157D01*
X167675311Y-107124513D01*
X167603492Y-107146299D01*
X167600000Y-107148166D01*
X167596508Y-107146299D01*
X167524689Y-107124513D01*
X167450000Y-107117157D01*
X166950000Y-107117157D01*
X166875311Y-107124513D01*
X166803492Y-107146299D01*
X166800000Y-107148166D01*
X166796508Y-107146299D01*
X166724689Y-107124513D01*
X166650000Y-107117157D01*
X166150000Y-107117157D01*
X166075311Y-107124513D01*
X166003492Y-107146299D01*
X166000000Y-107148166D01*
X165996508Y-107146299D01*
X165924689Y-107124513D01*
X165850000Y-107117157D01*
X165722250Y-107119000D01*
X165627000Y-107214250D01*
X165627000Y-107873000D01*
X165647000Y-107873000D01*
X165647000Y-107927000D01*
X165627000Y-107927000D01*
X165627000Y-108585750D01*
X165722250Y-108681000D01*
X165850000Y-108682843D01*
X165924689Y-108675487D01*
X165996508Y-108653701D01*
X166000000Y-108651834D01*
X166003492Y-108653701D01*
X166075311Y-108675487D01*
X166150000Y-108682843D01*
X166650000Y-108682843D01*
X166724689Y-108675487D01*
X166796508Y-108653701D01*
X166800000Y-108651834D01*
X166803492Y-108653701D01*
X166875311Y-108675487D01*
X166950000Y-108682843D01*
X167428501Y-108682843D01*
X167428501Y-108971916D01*
X167425735Y-109000000D01*
X167436769Y-109112033D01*
X167469448Y-109219761D01*
X167522516Y-109319044D01*
X167522517Y-109319045D01*
X167593934Y-109406067D01*
X167615743Y-109423966D01*
X167748982Y-109557204D01*
X167706044Y-109609523D01*
X167667887Y-109680909D01*
X167656456Y-109659523D01*
X167581640Y-109568360D01*
X167490477Y-109493544D01*
X167386470Y-109437951D01*
X167273615Y-109403716D01*
X167156250Y-109392157D01*
X166643750Y-109392157D01*
X166526385Y-109403716D01*
X166453820Y-109425729D01*
X165902876Y-108874785D01*
X165887027Y-108855473D01*
X165809979Y-108792241D01*
X165722075Y-108745255D01*
X165626693Y-108716322D01*
X165552354Y-108709000D01*
X165552346Y-108709000D01*
X165527500Y-108706553D01*
X165502654Y-108709000D01*
X164327328Y-108709000D01*
X164325487Y-108690311D01*
X164303701Y-108618492D01*
X164283126Y-108580000D01*
X164303701Y-108541508D01*
X164325487Y-108469689D01*
X164327328Y-108451000D01*
X164330154Y-108451000D01*
X164355000Y-108453447D01*
X164379846Y-108451000D01*
X164379854Y-108451000D01*
X164454193Y-108443678D01*
X164549575Y-108414745D01*
X164637479Y-108367759D01*
X164714527Y-108304527D01*
X164730376Y-108285215D01*
X164940215Y-108075376D01*
X164959527Y-108059527D01*
X164968828Y-108048194D01*
X164967157Y-108300000D01*
X164974513Y-108374689D01*
X164996299Y-108446508D01*
X165031678Y-108512696D01*
X165079289Y-108570711D01*
X165137304Y-108618322D01*
X165203492Y-108653701D01*
X165275311Y-108675487D01*
X165350000Y-108682843D01*
X165477750Y-108681000D01*
X165573000Y-108585750D01*
X165573000Y-107927000D01*
X165553000Y-107927000D01*
X165553000Y-107873000D01*
X165573000Y-107873000D01*
X165573000Y-107214250D01*
X165477750Y-107119000D01*
X165350000Y-107117157D01*
X165275311Y-107124513D01*
X165203492Y-107146299D01*
X165137304Y-107181678D01*
X165106000Y-107207368D01*
X165106000Y-106409591D01*
X165115315Y-106400276D01*
X165137304Y-106418322D01*
X165203492Y-106453701D01*
X165275311Y-106475487D01*
X165350000Y-106482843D01*
X165850000Y-106482843D01*
X165924689Y-106475487D01*
X165996508Y-106453701D01*
X166000000Y-106451834D01*
X166003492Y-106453701D01*
X166075311Y-106475487D01*
X166150000Y-106482843D01*
X166650000Y-106482843D01*
X166724689Y-106475487D01*
X166796508Y-106453701D01*
X166800000Y-106451834D01*
X166803492Y-106453701D01*
X166875311Y-106475487D01*
X166950000Y-106482843D01*
X167450000Y-106482843D01*
X167524689Y-106475487D01*
X167596508Y-106453701D01*
X167600000Y-106451834D01*
X167603492Y-106453701D01*
X167675311Y-106475487D01*
X167750000Y-106482843D01*
X168250000Y-106482843D01*
X168324689Y-106475487D01*
X168396508Y-106453701D01*
X168400000Y-106451834D01*
X168403492Y-106453701D01*
X168475311Y-106475487D01*
X168550000Y-106482843D01*
X169050000Y-106482843D01*
X169124689Y-106475487D01*
X169196508Y-106453701D01*
X169262696Y-106418322D01*
X169320711Y-106370711D01*
X169368322Y-106312696D01*
X169403701Y-106246508D01*
X169425487Y-106174689D01*
X169432843Y-106100000D01*
X169432843Y-105300000D01*
X169425487Y-105225311D01*
X169403701Y-105153492D01*
X169368322Y-105087304D01*
X169320711Y-105029289D01*
X169262696Y-104981678D01*
X169196508Y-104946299D01*
X169124689Y-104924513D01*
X169050000Y-104917157D01*
X168660565Y-104917157D01*
X168692113Y-104869942D01*
X168750987Y-104727809D01*
X168781000Y-104576922D01*
X168781000Y-104423078D01*
X168750987Y-104272191D01*
X168692113Y-104130058D01*
X168606642Y-104002141D01*
X168571500Y-103966999D01*
X168571500Y-103966590D01*
X168586470Y-103962049D01*
X168690477Y-103906456D01*
X168781640Y-103831640D01*
X168841254Y-103759000D01*
X168858746Y-103759000D01*
X168918360Y-103831640D01*
X169009523Y-103906456D01*
X169113530Y-103962049D01*
X169226385Y-103996284D01*
X169343750Y-104007843D01*
X169856250Y-104007843D01*
X169973615Y-103996284D01*
X170086470Y-103962049D01*
X170131243Y-103938117D01*
X170096299Y-104003492D01*
X170074513Y-104075311D01*
X170067157Y-104150000D01*
X170067157Y-106650000D01*
X170074513Y-106724689D01*
X170096299Y-106796508D01*
X170131678Y-106862696D01*
X170179289Y-106920711D01*
X170237304Y-106968322D01*
X170303492Y-107003701D01*
X170375311Y-107025487D01*
X170450000Y-107032843D01*
X172950000Y-107032843D01*
X173024689Y-107025487D01*
X173096508Y-107003701D01*
X173162696Y-106968322D01*
X173220711Y-106920711D01*
X173268322Y-106862696D01*
X173303701Y-106796508D01*
X173325487Y-106724689D01*
X173332843Y-106650000D01*
X173332843Y-104150000D01*
X177067157Y-104150000D01*
X177067157Y-106650000D01*
X177074513Y-106724689D01*
X177096299Y-106796508D01*
X177131678Y-106862696D01*
X177179289Y-106920711D01*
X177237304Y-106968322D01*
X177303492Y-107003701D01*
X177375311Y-107025487D01*
X177450000Y-107032843D01*
X179950000Y-107032843D01*
X180024689Y-107025487D01*
X180096508Y-107003701D01*
X180162696Y-106968322D01*
X180220711Y-106920711D01*
X180268322Y-106862696D01*
X180303701Y-106796508D01*
X180325487Y-106724689D01*
X180332843Y-106650000D01*
X180332843Y-104150000D01*
X180325487Y-104075311D01*
X180303701Y-104003492D01*
X180268322Y-103937304D01*
X180220711Y-103879289D01*
X180162696Y-103831678D01*
X180096508Y-103796299D01*
X180024689Y-103774513D01*
X179950000Y-103767157D01*
X177450000Y-103767157D01*
X177375311Y-103774513D01*
X177303492Y-103796299D01*
X177237304Y-103831678D01*
X177179289Y-103879289D01*
X177131678Y-103937304D01*
X177096299Y-104003492D01*
X177074513Y-104075311D01*
X177067157Y-104150000D01*
X173332843Y-104150000D01*
X173325487Y-104075311D01*
X173303701Y-104003492D01*
X173268322Y-103937304D01*
X173220711Y-103879289D01*
X173162696Y-103831678D01*
X173096508Y-103796299D01*
X173024689Y-103774513D01*
X172950000Y-103767157D01*
X170450000Y-103767157D01*
X170375311Y-103774513D01*
X170313014Y-103793410D01*
X170341254Y-103759000D01*
X171284426Y-103759000D01*
X171312500Y-103761765D01*
X171340574Y-103759000D01*
X171424534Y-103750731D01*
X171532262Y-103718052D01*
X171631545Y-103664984D01*
X171718567Y-103593567D01*
X171736470Y-103571752D01*
X172936723Y-102371500D01*
X176813501Y-102371500D01*
X176817104Y-102372593D01*
X176902460Y-102381000D01*
X177871460Y-102381000D01*
X177900000Y-102383811D01*
X177928540Y-102381000D01*
X178013896Y-102372593D01*
X178123415Y-102339371D01*
X178224348Y-102285421D01*
X178312817Y-102212817D01*
X178331017Y-102190640D01*
X178700000Y-101821657D01*
X180919000Y-104040658D01*
X180919001Y-104871451D01*
X180916189Y-104900000D01*
X180927407Y-105013895D01*
X180960629Y-105123414D01*
X181014579Y-105224347D01*
X181014580Y-105224348D01*
X181087184Y-105312817D01*
X181109356Y-105331013D01*
X183503951Y-107725609D01*
X183503716Y-107726385D01*
X183492157Y-107843750D01*
X183492157Y-108356250D01*
X183503716Y-108473615D01*
X183537951Y-108586470D01*
X183593544Y-108690477D01*
X183668360Y-108781640D01*
X183731500Y-108833458D01*
X183731500Y-108841417D01*
X183712304Y-108851678D01*
X183654289Y-108899289D01*
X183606678Y-108957304D01*
X183571299Y-109023492D01*
X183549513Y-109095311D01*
X183542157Y-109170000D01*
X183542157Y-110230000D01*
X183549513Y-110304689D01*
X183571299Y-110376508D01*
X183606678Y-110442696D01*
X183654289Y-110500711D01*
X183712304Y-110548322D01*
X183778492Y-110583701D01*
X183850311Y-110605487D01*
X183925000Y-110612843D01*
X184575000Y-110612843D01*
X184649689Y-110605487D01*
X184721508Y-110583701D01*
X184787696Y-110548322D01*
X184845711Y-110500711D01*
X184893322Y-110442696D01*
X184928701Y-110376508D01*
X184950487Y-110304689D01*
X184957843Y-110230000D01*
X184957843Y-109170000D01*
X184950487Y-109095311D01*
X184928701Y-109023492D01*
X184893500Y-108957637D01*
X184893500Y-108833458D01*
X184956640Y-108781640D01*
X185031456Y-108690477D01*
X185071206Y-108616110D01*
X185074513Y-108649689D01*
X185096299Y-108721508D01*
X185131678Y-108787696D01*
X185179289Y-108845711D01*
X185237304Y-108893322D01*
X185303492Y-108928701D01*
X185375311Y-108950487D01*
X185450000Y-108957843D01*
X185506567Y-108957512D01*
X185471299Y-109023492D01*
X185449513Y-109095311D01*
X185442157Y-109170000D01*
X185442157Y-110230000D01*
X185449513Y-110304689D01*
X185471299Y-110376508D01*
X185506678Y-110442696D01*
X185554289Y-110500711D01*
X185612304Y-110548322D01*
X185678492Y-110583701D01*
X185750311Y-110605487D01*
X185825000Y-110612843D01*
X186475000Y-110612843D01*
X186549689Y-110605487D01*
X186621508Y-110583701D01*
X186684556Y-110550000D01*
X187017157Y-110550000D01*
X187024513Y-110624689D01*
X187046299Y-110696508D01*
X187081678Y-110762696D01*
X187129289Y-110820711D01*
X187187304Y-110868322D01*
X187253492Y-110903701D01*
X187325311Y-110925487D01*
X187400000Y-110932843D01*
X187977750Y-110931000D01*
X188073000Y-110835750D01*
X188073000Y-110089500D01*
X187114250Y-110089500D01*
X187019000Y-110184750D01*
X187017157Y-110550000D01*
X186684556Y-110550000D01*
X186687696Y-110548322D01*
X186745711Y-110500711D01*
X186793322Y-110442696D01*
X186828701Y-110376508D01*
X186850487Y-110304689D01*
X186857843Y-110230000D01*
X186857843Y-109575000D01*
X187017157Y-109575000D01*
X187019000Y-109940250D01*
X187114250Y-110035500D01*
X188073000Y-110035500D01*
X188073000Y-109289250D01*
X187977750Y-109194000D01*
X187400000Y-109192157D01*
X187325311Y-109199513D01*
X187253492Y-109221299D01*
X187187304Y-109256678D01*
X187129289Y-109304289D01*
X187081678Y-109362304D01*
X187046299Y-109428492D01*
X187024513Y-109500311D01*
X187017157Y-109575000D01*
X186857843Y-109575000D01*
X186857843Y-109170000D01*
X186850487Y-109095311D01*
X186828701Y-109023492D01*
X186793322Y-108957304D01*
X186745711Y-108899289D01*
X186687696Y-108851678D01*
X186621508Y-108816299D01*
X186620179Y-108815896D01*
X186643322Y-108787696D01*
X186678701Y-108721508D01*
X186700487Y-108649689D01*
X186707843Y-108575000D01*
X186706000Y-108222250D01*
X186610750Y-108127000D01*
X185914500Y-108127000D01*
X185914500Y-108147000D01*
X185860500Y-108147000D01*
X185860500Y-108127000D01*
X185840500Y-108127000D01*
X185840500Y-108073000D01*
X185860500Y-108073000D01*
X185860500Y-107339250D01*
X185914500Y-107339250D01*
X185914500Y-108073000D01*
X186610750Y-108073000D01*
X186706000Y-107977750D01*
X186707843Y-107625000D01*
X186700487Y-107550311D01*
X186678701Y-107478492D01*
X186643322Y-107412304D01*
X186595711Y-107354289D01*
X186537696Y-107306678D01*
X186471508Y-107271299D01*
X186399689Y-107249513D01*
X186325000Y-107242157D01*
X186009750Y-107244000D01*
X185914500Y-107339250D01*
X185860500Y-107339250D01*
X185765250Y-107244000D01*
X185450000Y-107242157D01*
X185375311Y-107249513D01*
X185303492Y-107271299D01*
X185237304Y-107306678D01*
X185179289Y-107354289D01*
X185131678Y-107412304D01*
X185096299Y-107478492D01*
X185074513Y-107550311D01*
X185071206Y-107583890D01*
X185031456Y-107509523D01*
X184956640Y-107418360D01*
X184865477Y-107343544D01*
X184802996Y-107310147D01*
X184797921Y-107300652D01*
X184725317Y-107212183D01*
X184703141Y-107193984D01*
X184618517Y-107109360D01*
X184600317Y-107087183D01*
X184511848Y-107014579D01*
X184410915Y-106960629D01*
X184369821Y-106948163D01*
X182151858Y-104730200D01*
X182943957Y-104730200D01*
X182951313Y-104804889D01*
X182973099Y-104876708D01*
X183008478Y-104942896D01*
X183056089Y-105000911D01*
X183114104Y-105048522D01*
X183180292Y-105083901D01*
X183252111Y-105105687D01*
X183326800Y-105113043D01*
X183979250Y-105111200D01*
X184074500Y-105015950D01*
X184074500Y-104427000D01*
X184128500Y-104427000D01*
X184128500Y-105015950D01*
X184223750Y-105111200D01*
X184876200Y-105113043D01*
X184950889Y-105105687D01*
X185022708Y-105083901D01*
X185088896Y-105048522D01*
X185146911Y-105000911D01*
X185194522Y-104942896D01*
X185229901Y-104876708D01*
X185251687Y-104804889D01*
X185259043Y-104730200D01*
X185257200Y-104522250D01*
X185161950Y-104427000D01*
X184128500Y-104427000D01*
X184074500Y-104427000D01*
X183041050Y-104427000D01*
X182945800Y-104522250D01*
X182943957Y-104730200D01*
X182151858Y-104730200D01*
X182081000Y-104659343D01*
X182081000Y-103828540D01*
X182083811Y-103800000D01*
X182072593Y-103686104D01*
X182039371Y-103576585D01*
X181985421Y-103475652D01*
X181945206Y-103426650D01*
X181912817Y-103387183D01*
X181890646Y-103368988D01*
X179281000Y-100759343D01*
X179281000Y-100500000D01*
X180617157Y-100500000D01*
X180617157Y-101400000D01*
X180624513Y-101474689D01*
X180646299Y-101546508D01*
X180681678Y-101612696D01*
X180729289Y-101670711D01*
X180787304Y-101718322D01*
X180853492Y-101753701D01*
X180925311Y-101775487D01*
X181000000Y-101782843D01*
X181611185Y-101782843D01*
X181618987Y-101790645D01*
X181637183Y-101812817D01*
X181725652Y-101885421D01*
X181801074Y-101925735D01*
X181826585Y-101939371D01*
X181936104Y-101972593D01*
X182049999Y-101983811D01*
X182078539Y-101981000D01*
X182955594Y-101981000D01*
X182951313Y-101995112D01*
X182943957Y-102069801D01*
X182943957Y-102730201D01*
X182951313Y-102804890D01*
X182973099Y-102876709D01*
X182985549Y-102900000D01*
X182973099Y-102923291D01*
X182951313Y-102995110D01*
X182943957Y-103069799D01*
X182943957Y-103730199D01*
X182951313Y-103804888D01*
X182973099Y-103876707D01*
X182985549Y-103900000D01*
X182973099Y-103923292D01*
X182951313Y-103995111D01*
X182943957Y-104069800D01*
X182945800Y-104277750D01*
X183041050Y-104373000D01*
X184074500Y-104373000D01*
X184074500Y-104353000D01*
X184128500Y-104353000D01*
X184128500Y-104373000D01*
X185161950Y-104373000D01*
X185257200Y-104277750D01*
X185259043Y-104069800D01*
X185251687Y-103995111D01*
X185229901Y-103923292D01*
X185220657Y-103905999D01*
X185419000Y-103905999D01*
X185419000Y-103976922D01*
X185449013Y-104127809D01*
X185507887Y-104269942D01*
X185593358Y-104397859D01*
X185702141Y-104506642D01*
X185830058Y-104592113D01*
X185972191Y-104650987D01*
X186123078Y-104681000D01*
X186276922Y-104681000D01*
X186427809Y-104650987D01*
X186569942Y-104592113D01*
X186697859Y-104506642D01*
X186806642Y-104397859D01*
X186892113Y-104269942D01*
X186950987Y-104127809D01*
X186981000Y-103976922D01*
X186981000Y-103823078D01*
X186950987Y-103672191D01*
X186892113Y-103530058D01*
X186806642Y-103402141D01*
X186697859Y-103293358D01*
X186569942Y-103207887D01*
X186550901Y-103200000D01*
X186569942Y-103192113D01*
X186697859Y-103106642D01*
X186806642Y-102997859D01*
X186892113Y-102869942D01*
X186950987Y-102727809D01*
X186981000Y-102576922D01*
X186981000Y-102423078D01*
X186950987Y-102272191D01*
X186892113Y-102130058D01*
X186806642Y-102002141D01*
X186697859Y-101893358D01*
X186569942Y-101807887D01*
X186427809Y-101749013D01*
X186276922Y-101719000D01*
X186123078Y-101719000D01*
X185972191Y-101749013D01*
X185830058Y-101807887D01*
X185702141Y-101893358D01*
X185601499Y-101994000D01*
X185251350Y-101994000D01*
X185229901Y-101923293D01*
X185217451Y-101900001D01*
X185229901Y-101876708D01*
X185251687Y-101804889D01*
X185259043Y-101730200D01*
X185259043Y-101069800D01*
X185251687Y-100995111D01*
X185229901Y-100923292D01*
X185194522Y-100857104D01*
X185146911Y-100799089D01*
X185088896Y-100751478D01*
X185022708Y-100716099D01*
X184950889Y-100694313D01*
X184876200Y-100686957D01*
X183326800Y-100686957D01*
X183252111Y-100694313D01*
X183180292Y-100716099D01*
X183114104Y-100751478D01*
X183056089Y-100799089D01*
X183039749Y-100819000D01*
X182582843Y-100819000D01*
X182582843Y-100500000D01*
X182575487Y-100425311D01*
X182553701Y-100353492D01*
X182518322Y-100287304D01*
X182470711Y-100229289D01*
X182412696Y-100181678D01*
X182346508Y-100146299D01*
X182274689Y-100124513D01*
X182200000Y-100117157D01*
X181000000Y-100117157D01*
X180925311Y-100124513D01*
X180853492Y-100146299D01*
X180787304Y-100181678D01*
X180729289Y-100229289D01*
X180681678Y-100287304D01*
X180646299Y-100353492D01*
X180624513Y-100425311D01*
X180617157Y-100500000D01*
X179281000Y-100500000D01*
X179281000Y-100032843D01*
X179950000Y-100032843D01*
X180024689Y-100025487D01*
X180096508Y-100003701D01*
X180162696Y-99968322D01*
X180220711Y-99920711D01*
X180268322Y-99862696D01*
X180303701Y-99796508D01*
X180325487Y-99724689D01*
X180332843Y-99650000D01*
X180332843Y-98981000D01*
X181271460Y-98981000D01*
X181300000Y-98983811D01*
X181328540Y-98981000D01*
X181413896Y-98972593D01*
X181523415Y-98939371D01*
X181624348Y-98885421D01*
X181712817Y-98812817D01*
X181731017Y-98790640D01*
X181990641Y-98531016D01*
X182012817Y-98512817D01*
X182037416Y-98482843D01*
X182200000Y-98482843D01*
X182274689Y-98475487D01*
X182346508Y-98453701D01*
X182412696Y-98418322D01*
X182470711Y-98370711D01*
X182518322Y-98312696D01*
X182553701Y-98246508D01*
X182575487Y-98174689D01*
X182582843Y-98100000D01*
X182582843Y-97200000D01*
X182576047Y-97131000D01*
X187118920Y-97131000D01*
X187444352Y-97162909D01*
G36*
X187412951Y-113986470D02*
G01*
X187468544Y-114090477D01*
X187543360Y-114181640D01*
X187634523Y-114256456D01*
X187738530Y-114312049D01*
X187851385Y-114346284D01*
X187968750Y-114357843D01*
X188406250Y-114357843D01*
X188523615Y-114346284D01*
X188636470Y-114312049D01*
X188709001Y-114273280D01*
X188709001Y-114567062D01*
X188677091Y-114892504D01*
X188588701Y-115185266D01*
X188445132Y-115455278D01*
X188251849Y-115692267D01*
X188016219Y-115887197D01*
X187747209Y-116032650D01*
X187455076Y-116123080D01*
X187130908Y-116157152D01*
X185841538Y-116157152D01*
X185870711Y-116133211D01*
X185918322Y-116075196D01*
X185953701Y-116009008D01*
X185975487Y-115937189D01*
X185982843Y-115862500D01*
X185981000Y-115497250D01*
X185885750Y-115402000D01*
X184927000Y-115402000D01*
X184927000Y-115422000D01*
X184873000Y-115422000D01*
X184873000Y-115402000D01*
X183914250Y-115402000D01*
X183819000Y-115497250D01*
X183817157Y-115862500D01*
X183824513Y-115937189D01*
X183846299Y-116009008D01*
X183881678Y-116075196D01*
X183929289Y-116133211D01*
X183958462Y-116157152D01*
X183363366Y-116157152D01*
X183342198Y-116155067D01*
X183257707Y-116163389D01*
X183181000Y-116186658D01*
X183181000Y-115040657D01*
X183334157Y-114887500D01*
X183817157Y-114887500D01*
X183819000Y-115252750D01*
X183914250Y-115348000D01*
X184873000Y-115348000D01*
X184873000Y-114601750D01*
X184927000Y-114601750D01*
X184927000Y-115348000D01*
X185885750Y-115348000D01*
X185981000Y-115252750D01*
X185982843Y-114887500D01*
X185975487Y-114812811D01*
X185953701Y-114740992D01*
X185918322Y-114674804D01*
X185870711Y-114616789D01*
X185812696Y-114569178D01*
X185746508Y-114533799D01*
X185674689Y-114512013D01*
X185600000Y-114504657D01*
X185022250Y-114506500D01*
X184927000Y-114601750D01*
X184873000Y-114601750D01*
X184777750Y-114506500D01*
X184200000Y-114504657D01*
X184125311Y-114512013D01*
X184053492Y-114533799D01*
X183987304Y-114569178D01*
X183929289Y-114616789D01*
X183881678Y-114674804D01*
X183846299Y-114740992D01*
X183824513Y-114812811D01*
X183817157Y-114887500D01*
X183334157Y-114887500D01*
X184019443Y-114202215D01*
X184095634Y-114264743D01*
X184203963Y-114322646D01*
X184321508Y-114358303D01*
X184443750Y-114370343D01*
X185356250Y-114370343D01*
X185478492Y-114358303D01*
X185596037Y-114322646D01*
X185704366Y-114264743D01*
X185799318Y-114186818D01*
X185877243Y-114091866D01*
X185883051Y-114081000D01*
X185888478Y-114081000D01*
X185893544Y-114090477D01*
X185968360Y-114181640D01*
X186059523Y-114256456D01*
X186163530Y-114312049D01*
X186276385Y-114346284D01*
X186393750Y-114357843D01*
X186831250Y-114357843D01*
X186948615Y-114346284D01*
X187061470Y-114312049D01*
X187165477Y-114256456D01*
X187256640Y-114181640D01*
X187331456Y-114090477D01*
X187387049Y-113986470D01*
X187400000Y-113943777D01*
X187412951Y-113986470D01*
G37*
X187412951Y-113986470D02*
X187468544Y-114090477D01*
X187543360Y-114181640D01*
X187634523Y-114256456D01*
X187738530Y-114312049D01*
X187851385Y-114346284D01*
X187968750Y-114357843D01*
X188406250Y-114357843D01*
X188523615Y-114346284D01*
X188636470Y-114312049D01*
X188709001Y-114273280D01*
X188709001Y-114567062D01*
X188677091Y-114892504D01*
X188588701Y-115185266D01*
X188445132Y-115455278D01*
X188251849Y-115692267D01*
X188016219Y-115887197D01*
X187747209Y-116032650D01*
X187455076Y-116123080D01*
X187130908Y-116157152D01*
X185841538Y-116157152D01*
X185870711Y-116133211D01*
X185918322Y-116075196D01*
X185953701Y-116009008D01*
X185975487Y-115937189D01*
X185982843Y-115862500D01*
X185981000Y-115497250D01*
X185885750Y-115402000D01*
X184927000Y-115402000D01*
X184927000Y-115422000D01*
X184873000Y-115422000D01*
X184873000Y-115402000D01*
X183914250Y-115402000D01*
X183819000Y-115497250D01*
X183817157Y-115862500D01*
X183824513Y-115937189D01*
X183846299Y-116009008D01*
X183881678Y-116075196D01*
X183929289Y-116133211D01*
X183958462Y-116157152D01*
X183363366Y-116157152D01*
X183342198Y-116155067D01*
X183257707Y-116163389D01*
X183181000Y-116186658D01*
X183181000Y-115040657D01*
X183334157Y-114887500D01*
X183817157Y-114887500D01*
X183819000Y-115252750D01*
X183914250Y-115348000D01*
X184873000Y-115348000D01*
X184873000Y-114601750D01*
X184927000Y-114601750D01*
X184927000Y-115348000D01*
X185885750Y-115348000D01*
X185981000Y-115252750D01*
X185982843Y-114887500D01*
X185975487Y-114812811D01*
X185953701Y-114740992D01*
X185918322Y-114674804D01*
X185870711Y-114616789D01*
X185812696Y-114569178D01*
X185746508Y-114533799D01*
X185674689Y-114512013D01*
X185600000Y-114504657D01*
X185022250Y-114506500D01*
X184927000Y-114601750D01*
X184873000Y-114601750D01*
X184777750Y-114506500D01*
X184200000Y-114504657D01*
X184125311Y-114512013D01*
X184053492Y-114533799D01*
X183987304Y-114569178D01*
X183929289Y-114616789D01*
X183881678Y-114674804D01*
X183846299Y-114740992D01*
X183824513Y-114812811D01*
X183817157Y-114887500D01*
X183334157Y-114887500D01*
X184019443Y-114202215D01*
X184095634Y-114264743D01*
X184203963Y-114322646D01*
X184321508Y-114358303D01*
X184443750Y-114370343D01*
X185356250Y-114370343D01*
X185478492Y-114358303D01*
X185596037Y-114322646D01*
X185704366Y-114264743D01*
X185799318Y-114186818D01*
X185877243Y-114091866D01*
X185883051Y-114081000D01*
X185888478Y-114081000D01*
X185893544Y-114090477D01*
X185968360Y-114181640D01*
X186059523Y-114256456D01*
X186163530Y-114312049D01*
X186276385Y-114346284D01*
X186393750Y-114357843D01*
X186831250Y-114357843D01*
X186948615Y-114346284D01*
X187061470Y-114312049D01*
X187165477Y-114256456D01*
X187256640Y-114181640D01*
X187331456Y-114090477D01*
X187387049Y-113986470D01*
X187400000Y-113943777D01*
X187412951Y-113986470D01*
G36*
X166043686Y-110446778D02*
G01*
X166053716Y-110548615D01*
X166087951Y-110661470D01*
X166143544Y-110765477D01*
X166209036Y-110845279D01*
X166076922Y-110819000D01*
X165923078Y-110819000D01*
X165772191Y-110849013D01*
X165630058Y-110907887D01*
X165502141Y-110993358D01*
X165393358Y-111102141D01*
X165307887Y-111230058D01*
X165249013Y-111372191D01*
X165219000Y-111523078D01*
X165219000Y-111676922D01*
X165249013Y-111827809D01*
X165307887Y-111969942D01*
X165393358Y-112097859D01*
X165502141Y-112206642D01*
X165630058Y-112292113D01*
X165772191Y-112350987D01*
X165923078Y-112381000D01*
X166076922Y-112381000D01*
X166162784Y-112363921D01*
X166218360Y-112431640D01*
X166309523Y-112506456D01*
X166353758Y-112530100D01*
X164150016Y-112530100D01*
X164162696Y-112523322D01*
X164220711Y-112475711D01*
X164268322Y-112417696D01*
X164303701Y-112351508D01*
X164325487Y-112279689D01*
X164332843Y-112205000D01*
X164331000Y-111877250D01*
X164235750Y-111782000D01*
X162477000Y-111782000D01*
X162477000Y-111802000D01*
X162423000Y-111802000D01*
X162423000Y-111782000D01*
X160664250Y-111782000D01*
X160569000Y-111877250D01*
X160567157Y-112205000D01*
X160574513Y-112279689D01*
X160596299Y-112351508D01*
X160631678Y-112417696D01*
X160679289Y-112475711D01*
X160737304Y-112523322D01*
X160749984Y-112530100D01*
X160494639Y-112530100D01*
X159934154Y-111969616D01*
X160027809Y-111950987D01*
X160169942Y-111892113D01*
X160297859Y-111806642D01*
X160406642Y-111697859D01*
X160492113Y-111569942D01*
X160550987Y-111427809D01*
X160567384Y-111345375D01*
X160569000Y-111632750D01*
X160664250Y-111728000D01*
X162423000Y-111728000D01*
X162423000Y-111708000D01*
X162477000Y-111708000D01*
X162477000Y-111728000D01*
X164235750Y-111728000D01*
X164331000Y-111632750D01*
X164332843Y-111305000D01*
X164325487Y-111230311D01*
X164303701Y-111158492D01*
X164283126Y-111120000D01*
X164303701Y-111081508D01*
X164325487Y-111009689D01*
X164332843Y-110935000D01*
X164332843Y-110035000D01*
X164325487Y-109960311D01*
X164303701Y-109888492D01*
X164283126Y-109850000D01*
X164303701Y-109811508D01*
X164325487Y-109739689D01*
X164327328Y-109721000D01*
X165317909Y-109721000D01*
X166043686Y-110446778D01*
G37*
X166043686Y-110446778D02*
X166053716Y-110548615D01*
X166087951Y-110661470D01*
X166143544Y-110765477D01*
X166209036Y-110845279D01*
X166076922Y-110819000D01*
X165923078Y-110819000D01*
X165772191Y-110849013D01*
X165630058Y-110907887D01*
X165502141Y-110993358D01*
X165393358Y-111102141D01*
X165307887Y-111230058D01*
X165249013Y-111372191D01*
X165219000Y-111523078D01*
X165219000Y-111676922D01*
X165249013Y-111827809D01*
X165307887Y-111969942D01*
X165393358Y-112097859D01*
X165502141Y-112206642D01*
X165630058Y-112292113D01*
X165772191Y-112350987D01*
X165923078Y-112381000D01*
X166076922Y-112381000D01*
X166162784Y-112363921D01*
X166218360Y-112431640D01*
X166309523Y-112506456D01*
X166353758Y-112530100D01*
X164150016Y-112530100D01*
X164162696Y-112523322D01*
X164220711Y-112475711D01*
X164268322Y-112417696D01*
X164303701Y-112351508D01*
X164325487Y-112279689D01*
X164332843Y-112205000D01*
X164331000Y-111877250D01*
X164235750Y-111782000D01*
X162477000Y-111782000D01*
X162477000Y-111802000D01*
X162423000Y-111802000D01*
X162423000Y-111782000D01*
X160664250Y-111782000D01*
X160569000Y-111877250D01*
X160567157Y-112205000D01*
X160574513Y-112279689D01*
X160596299Y-112351508D01*
X160631678Y-112417696D01*
X160679289Y-112475711D01*
X160737304Y-112523322D01*
X160749984Y-112530100D01*
X160494639Y-112530100D01*
X159934154Y-111969616D01*
X160027809Y-111950987D01*
X160169942Y-111892113D01*
X160297859Y-111806642D01*
X160406642Y-111697859D01*
X160492113Y-111569942D01*
X160550987Y-111427809D01*
X160567384Y-111345375D01*
X160569000Y-111632750D01*
X160664250Y-111728000D01*
X162423000Y-111728000D01*
X162423000Y-111708000D01*
X162477000Y-111708000D01*
X162477000Y-111728000D01*
X164235750Y-111728000D01*
X164331000Y-111632750D01*
X164332843Y-111305000D01*
X164325487Y-111230311D01*
X164303701Y-111158492D01*
X164283126Y-111120000D01*
X164303701Y-111081508D01*
X164325487Y-111009689D01*
X164332843Y-110935000D01*
X164332843Y-110035000D01*
X164325487Y-109960311D01*
X164303701Y-109888492D01*
X164283126Y-109850000D01*
X164303701Y-109811508D01*
X164325487Y-109739689D01*
X164327328Y-109721000D01*
X165317909Y-109721000D01*
X166043686Y-110446778D01*
G36*
X167870664Y-90918777D02*
G01*
X168531619Y-91124913D01*
X169139950Y-91455506D01*
X169672479Y-91897956D01*
X170108929Y-92435420D01*
X170432674Y-93047423D01*
X170631950Y-93712546D01*
X170701403Y-94373357D01*
X170702557Y-94378980D01*
X170702749Y-94384701D01*
X170703578Y-94390662D01*
X170746639Y-94685161D01*
X170753947Y-94714652D01*
X170759640Y-94744492D01*
X170761379Y-94750254D01*
X170911431Y-95234991D01*
X170926566Y-95270996D01*
X170941202Y-95307221D01*
X170944027Y-95312535D01*
X171185373Y-95758896D01*
X171207229Y-95791298D01*
X171228607Y-95823968D01*
X171232405Y-95828625D01*
X171232410Y-95828632D01*
X171232416Y-95828638D01*
X171555860Y-96219614D01*
X171583575Y-96247137D01*
X171610909Y-96275049D01*
X171615535Y-96278875D01*
X171615546Y-96278886D01*
X171615558Y-96278894D01*
X172008778Y-96599596D01*
X172041308Y-96621209D01*
X172073546Y-96643283D01*
X172078836Y-96646144D01*
X172078844Y-96646148D01*
X172306429Y-96767157D01*
X170450000Y-96767157D01*
X170375311Y-96774513D01*
X170303492Y-96796299D01*
X170237304Y-96831678D01*
X170179289Y-96879289D01*
X170131678Y-96937304D01*
X170096299Y-97003492D01*
X170074513Y-97075311D01*
X170067157Y-97150000D01*
X170067157Y-98223771D01*
X170000000Y-98217157D01*
X168700000Y-98217157D01*
X168625311Y-98224513D01*
X168553492Y-98246299D01*
X168487304Y-98281678D01*
X168429289Y-98329289D01*
X168381678Y-98387304D01*
X168346299Y-98453492D01*
X168324513Y-98525311D01*
X168317157Y-98600000D01*
X168317157Y-99200000D01*
X168324513Y-99274689D01*
X168346299Y-99346508D01*
X168381678Y-99412696D01*
X168429289Y-99470711D01*
X168487304Y-99518322D01*
X168553492Y-99553701D01*
X168625311Y-99575487D01*
X168700000Y-99582843D01*
X169094001Y-99582843D01*
X169094000Y-100848390D01*
X169009523Y-100893544D01*
X168918360Y-100968360D01*
X168905158Y-100984447D01*
X168893322Y-100962304D01*
X168845711Y-100904289D01*
X168787696Y-100856678D01*
X168721508Y-100821299D01*
X168649689Y-100799513D01*
X168575000Y-100792157D01*
X168222250Y-100794000D01*
X168127000Y-100889250D01*
X168127000Y-101585500D01*
X168147000Y-101585500D01*
X168147000Y-101639500D01*
X168127000Y-101639500D01*
X168127000Y-101659500D01*
X168073000Y-101659500D01*
X168073000Y-101639500D01*
X168053000Y-101639500D01*
X168053000Y-101585500D01*
X168073000Y-101585500D01*
X168073000Y-100889250D01*
X167977750Y-100794000D01*
X167625000Y-100792157D01*
X167550311Y-100799513D01*
X167478492Y-100821299D01*
X167412304Y-100856678D01*
X167354289Y-100904289D01*
X167306678Y-100962304D01*
X167294842Y-100984447D01*
X167281640Y-100968360D01*
X167190477Y-100893544D01*
X167086470Y-100837951D01*
X166973615Y-100803716D01*
X166856250Y-100792157D01*
X166343750Y-100792157D01*
X166226385Y-100803716D01*
X166113530Y-100837951D01*
X166009523Y-100893544D01*
X165918360Y-100968360D01*
X165850000Y-101051656D01*
X165781640Y-100968360D01*
X165690477Y-100893544D01*
X165586470Y-100837951D01*
X165473615Y-100803716D01*
X165356250Y-100792157D01*
X164843750Y-100792157D01*
X164726385Y-100803716D01*
X164613530Y-100837951D01*
X164509523Y-100893544D01*
X164418360Y-100968360D01*
X164343544Y-101059523D01*
X164327399Y-101089728D01*
X164325487Y-101070311D01*
X164303701Y-100998492D01*
X164283126Y-100960000D01*
X164303701Y-100921508D01*
X164325487Y-100849689D01*
X164332843Y-100775000D01*
X164331000Y-100447250D01*
X164235750Y-100352000D01*
X162477000Y-100352000D01*
X162477000Y-100372000D01*
X162423000Y-100372000D01*
X162423000Y-100352000D01*
X160664250Y-100352000D01*
X160569000Y-100447250D01*
X160567157Y-100775000D01*
X160574513Y-100849689D01*
X160596299Y-100921508D01*
X160616874Y-100960000D01*
X160596299Y-100998492D01*
X160574513Y-101070311D01*
X160567157Y-101145000D01*
X160567157Y-102045000D01*
X160574513Y-102119689D01*
X160596299Y-102191508D01*
X160616874Y-102230000D01*
X160596299Y-102268492D01*
X160574513Y-102340311D01*
X160567157Y-102415000D01*
X160567157Y-103315000D01*
X160574513Y-103389689D01*
X160596299Y-103461508D01*
X160616874Y-103500000D01*
X160596299Y-103538492D01*
X160574513Y-103610311D01*
X160567157Y-103685000D01*
X160567157Y-104585000D01*
X160574513Y-104659689D01*
X160596299Y-104731508D01*
X160616874Y-104770000D01*
X160596299Y-104808492D01*
X160574513Y-104880311D01*
X160567157Y-104955000D01*
X160567157Y-105855000D01*
X160574513Y-105929689D01*
X160577329Y-105938972D01*
X160476922Y-105919000D01*
X160323078Y-105919000D01*
X160172191Y-105949013D01*
X160030058Y-106007887D01*
X159902141Y-106093358D01*
X159793358Y-106202141D01*
X159707887Y-106330058D01*
X159649013Y-106472191D01*
X159619000Y-106623078D01*
X159619000Y-106776922D01*
X159649013Y-106927809D01*
X159707887Y-107069942D01*
X159793358Y-107197859D01*
X159902141Y-107306642D01*
X159954124Y-107341375D01*
X159848358Y-107447141D01*
X159762887Y-107575058D01*
X159704013Y-107717191D01*
X159674000Y-107868078D01*
X159674000Y-108021922D01*
X159704013Y-108172809D01*
X159762887Y-108314942D01*
X159848358Y-108442859D01*
X159957141Y-108551642D01*
X160085058Y-108637113D01*
X160227191Y-108695987D01*
X160378078Y-108726000D01*
X160531922Y-108726000D01*
X160571779Y-108718072D01*
X160567157Y-108765000D01*
X160567157Y-109665000D01*
X160568242Y-109676019D01*
X156971500Y-106079278D01*
X156971500Y-105571500D01*
X159171926Y-105571500D01*
X159200000Y-105574265D01*
X159228074Y-105571500D01*
X159312034Y-105563231D01*
X159419762Y-105530552D01*
X159519045Y-105477484D01*
X159606067Y-105406067D01*
X159623970Y-105384252D01*
X160084257Y-104923966D01*
X160106067Y-104906067D01*
X160177484Y-104819045D01*
X160230552Y-104719762D01*
X160263231Y-104612034D01*
X160271500Y-104528074D01*
X160274265Y-104500000D01*
X160271500Y-104471926D01*
X160271500Y-103033001D01*
X160306642Y-102997859D01*
X160392113Y-102869942D01*
X160450987Y-102727809D01*
X160481000Y-102576922D01*
X160481000Y-102423078D01*
X160450987Y-102272191D01*
X160392113Y-102130058D01*
X160306642Y-102002141D01*
X160197859Y-101893358D01*
X160069942Y-101807887D01*
X159927809Y-101749013D01*
X159776922Y-101719000D01*
X159623078Y-101719000D01*
X159472191Y-101749013D01*
X159330058Y-101807887D01*
X159202141Y-101893358D01*
X159093358Y-102002141D01*
X159007887Y-102130058D01*
X158949013Y-102272191D01*
X158919000Y-102423078D01*
X158919000Y-102576922D01*
X158949013Y-102727809D01*
X159007887Y-102869942D01*
X159093358Y-102997859D01*
X159128500Y-103033001D01*
X159128500Y-103123999D01*
X159097859Y-103093358D01*
X158969942Y-103007887D01*
X158827809Y-102949013D01*
X158676922Y-102919000D01*
X158523078Y-102919000D01*
X158372191Y-102949013D01*
X158230058Y-103007887D01*
X158102141Y-103093358D01*
X158001499Y-103194000D01*
X155309592Y-103194000D01*
X154806000Y-102690409D01*
X154806000Y-102398501D01*
X154906642Y-102297859D01*
X154950000Y-102232969D01*
X154993358Y-102297859D01*
X155102141Y-102406642D01*
X155230058Y-102492113D01*
X155372191Y-102550987D01*
X155523078Y-102581000D01*
X155676922Y-102581000D01*
X155827809Y-102550987D01*
X155969942Y-102492113D01*
X156097859Y-102406642D01*
X156206642Y-102297859D01*
X156250000Y-102232969D01*
X156293358Y-102297859D01*
X156402141Y-102406642D01*
X156530058Y-102492113D01*
X156672191Y-102550987D01*
X156823078Y-102581000D01*
X156976922Y-102581000D01*
X157127809Y-102550987D01*
X157269942Y-102492113D01*
X157352734Y-102436793D01*
X157407887Y-102569942D01*
X157493358Y-102697859D01*
X157602141Y-102806642D01*
X157730058Y-102892113D01*
X157872191Y-102950987D01*
X158023078Y-102981000D01*
X158176922Y-102981000D01*
X158327809Y-102950987D01*
X158469942Y-102892113D01*
X158597859Y-102806642D01*
X158706642Y-102697859D01*
X158792113Y-102569942D01*
X158850987Y-102427809D01*
X158881000Y-102276922D01*
X158881000Y-102123078D01*
X158850987Y-101972191D01*
X158792113Y-101830058D01*
X158706642Y-101702141D01*
X158606000Y-101601499D01*
X158606000Y-101306267D01*
X158664689Y-101300487D01*
X158736508Y-101278701D01*
X158802696Y-101243322D01*
X158860711Y-101195711D01*
X158908322Y-101137696D01*
X158943701Y-101071508D01*
X158965487Y-100999689D01*
X158972843Y-100925000D01*
X158972843Y-99875000D01*
X160567157Y-99875000D01*
X160569000Y-100202750D01*
X160664250Y-100298000D01*
X162423000Y-100298000D01*
X162423000Y-99589250D01*
X162477000Y-99589250D01*
X162477000Y-100298000D01*
X164235750Y-100298000D01*
X164331000Y-100202750D01*
X164332843Y-99875000D01*
X164325487Y-99800311D01*
X164303701Y-99728492D01*
X164268322Y-99662304D01*
X164220711Y-99604289D01*
X164162696Y-99556678D01*
X164096508Y-99521299D01*
X164024689Y-99499513D01*
X163950000Y-99492157D01*
X162572250Y-99494000D01*
X162477000Y-99589250D01*
X162423000Y-99589250D01*
X162327750Y-99494000D01*
X160950000Y-99492157D01*
X160875311Y-99499513D01*
X160803492Y-99521299D01*
X160737304Y-99556678D01*
X160679289Y-99604289D01*
X160631678Y-99662304D01*
X160596299Y-99728492D01*
X160574513Y-99800311D01*
X160567157Y-99875000D01*
X158972843Y-99875000D01*
X158972843Y-97925000D01*
X158965487Y-97850311D01*
X158952045Y-97806000D01*
X163027909Y-97806000D01*
X164849628Y-99627720D01*
X164858089Y-99638029D01*
X164887951Y-99736470D01*
X164943544Y-99840477D01*
X165018360Y-99931640D01*
X165109523Y-100006456D01*
X165213530Y-100062049D01*
X165326385Y-100096284D01*
X165443750Y-100107843D01*
X165956250Y-100107843D01*
X166073615Y-100096284D01*
X166186470Y-100062049D01*
X166218245Y-100045065D01*
X166217157Y-100150000D01*
X166224513Y-100224689D01*
X166246299Y-100296508D01*
X166281678Y-100362696D01*
X166329289Y-100420711D01*
X166387304Y-100468322D01*
X166453492Y-100503701D01*
X166525311Y-100525487D01*
X166600000Y-100532843D01*
X167127750Y-100531000D01*
X167223000Y-100435750D01*
X167223000Y-99877000D01*
X167277000Y-99877000D01*
X167277000Y-100435750D01*
X167372250Y-100531000D01*
X167900000Y-100532843D01*
X167974689Y-100525487D01*
X168046508Y-100503701D01*
X168112696Y-100468322D01*
X168170711Y-100420711D01*
X168218322Y-100362696D01*
X168253701Y-100296508D01*
X168275487Y-100224689D01*
X168282843Y-100150000D01*
X168281000Y-99972250D01*
X168185750Y-99877000D01*
X167277000Y-99877000D01*
X167223000Y-99877000D01*
X167203000Y-99877000D01*
X167203000Y-99823000D01*
X167223000Y-99823000D01*
X167223000Y-99264250D01*
X167277000Y-99264250D01*
X167277000Y-99823000D01*
X168185750Y-99823000D01*
X168281000Y-99727750D01*
X168282843Y-99550000D01*
X168275487Y-99475311D01*
X168253701Y-99403492D01*
X168218322Y-99337304D01*
X168170711Y-99279289D01*
X168112696Y-99231678D01*
X168046508Y-99196299D01*
X167974689Y-99174513D01*
X167900000Y-99167157D01*
X167372250Y-99169000D01*
X167277000Y-99264250D01*
X167223000Y-99264250D01*
X167127750Y-99169000D01*
X166600000Y-99167157D01*
X166557843Y-99171309D01*
X166557843Y-99068750D01*
X166546284Y-98951385D01*
X166512049Y-98838530D01*
X166456456Y-98734523D01*
X166381640Y-98643360D01*
X166290477Y-98568544D01*
X166186470Y-98512951D01*
X166143777Y-98500000D01*
X166186470Y-98487049D01*
X166270646Y-98442056D01*
X166281678Y-98462696D01*
X166329289Y-98520711D01*
X166387304Y-98568322D01*
X166453492Y-98603701D01*
X166525311Y-98625487D01*
X166600000Y-98632843D01*
X167900000Y-98632843D01*
X167974689Y-98625487D01*
X168046508Y-98603701D01*
X168112696Y-98568322D01*
X168170711Y-98520711D01*
X168218322Y-98462696D01*
X168253701Y-98396508D01*
X168275487Y-98324689D01*
X168282843Y-98250000D01*
X168282843Y-97650000D01*
X168275487Y-97575311D01*
X168253701Y-97503492D01*
X168218322Y-97437304D01*
X168170711Y-97379289D01*
X168112696Y-97331678D01*
X168046508Y-97296299D01*
X167974689Y-97274513D01*
X167900000Y-97267157D01*
X167252728Y-97267157D01*
X167207075Y-97242755D01*
X167111693Y-97213822D01*
X167037354Y-97206500D01*
X167037346Y-97206500D01*
X167012500Y-97204053D01*
X166987654Y-97206500D01*
X166481566Y-97206500D01*
X166456456Y-97159523D01*
X166381640Y-97068360D01*
X166290477Y-96993544D01*
X166186470Y-96937951D01*
X166073615Y-96903716D01*
X165956250Y-96892157D01*
X165443750Y-96892157D01*
X165326385Y-96903716D01*
X165213530Y-96937951D01*
X165109523Y-96993544D01*
X165018360Y-97068360D01*
X164943544Y-97159523D01*
X164887951Y-97263530D01*
X164853716Y-97376385D01*
X164842157Y-97493750D01*
X164842157Y-97931250D01*
X164853716Y-98048615D01*
X164887951Y-98161470D01*
X164943544Y-98265477D01*
X165018360Y-98356640D01*
X165109523Y-98431456D01*
X165213530Y-98487049D01*
X165256223Y-98500000D01*
X165213530Y-98512951D01*
X165182584Y-98529492D01*
X163612876Y-96959785D01*
X163597027Y-96940473D01*
X163519979Y-96877241D01*
X163432075Y-96830255D01*
X163336693Y-96801322D01*
X163262354Y-96794000D01*
X163262346Y-96794000D01*
X163237500Y-96791553D01*
X163212654Y-96794000D01*
X161955465Y-96794000D01*
X162009863Y-96770502D01*
X162044032Y-96751592D01*
X162078480Y-96733150D01*
X162083452Y-96729775D01*
X162083460Y-96729771D01*
X162083466Y-96729766D01*
X162501334Y-96441902D01*
X162531178Y-96416715D01*
X162561389Y-96391933D01*
X162565617Y-96387651D01*
X162919619Y-96024101D01*
X162944002Y-95993598D01*
X162968825Y-95963418D01*
X162972137Y-95958402D01*
X162972141Y-95958397D01*
X162972144Y-95958392D01*
X163248787Y-95533009D01*
X163266795Y-95498325D01*
X163285269Y-95463925D01*
X163287542Y-95458364D01*
X163287547Y-95458355D01*
X163287550Y-95458346D01*
X163476298Y-94987337D01*
X163487215Y-94949854D01*
X163498667Y-94912483D01*
X163499819Y-94906576D01*
X163593489Y-94407865D01*
X163594587Y-94395413D01*
X163597382Y-94383229D01*
X163598107Y-94377255D01*
X163618245Y-94201089D01*
X165208364Y-94201089D01*
X165208364Y-94583551D01*
X165282978Y-94958665D01*
X165429341Y-95312015D01*
X165641826Y-95630021D01*
X165912268Y-95900463D01*
X166230274Y-96112948D01*
X166583624Y-96259311D01*
X166958738Y-96333925D01*
X167341200Y-96333925D01*
X167716314Y-96259311D01*
X168069664Y-96112948D01*
X168387670Y-95900463D01*
X168658112Y-95630021D01*
X168870597Y-95312015D01*
X169016960Y-94958665D01*
X169091574Y-94583551D01*
X169091574Y-94201089D01*
X169016960Y-93825975D01*
X168870597Y-93472625D01*
X168658112Y-93154619D01*
X168387670Y-92884177D01*
X168069664Y-92671692D01*
X167716314Y-92525329D01*
X167341200Y-92450715D01*
X166958738Y-92450715D01*
X166583624Y-92525329D01*
X166230274Y-92671692D01*
X165912268Y-92884177D01*
X165641826Y-93154619D01*
X165429341Y-93472625D01*
X165282978Y-93825975D01*
X165208364Y-94201089D01*
X163618245Y-94201089D01*
X163681541Y-93647394D01*
X163892288Y-92987892D01*
X164227118Y-92381886D01*
X164673279Y-91852457D01*
X165213776Y-91419769D01*
X165828021Y-91100305D01*
X166492622Y-90906234D01*
X167182259Y-90844946D01*
X167870664Y-90918777D01*
G37*
X167870664Y-90918777D02*
X168531619Y-91124913D01*
X169139950Y-91455506D01*
X169672479Y-91897956D01*
X170108929Y-92435420D01*
X170432674Y-93047423D01*
X170631950Y-93712546D01*
X170701403Y-94373357D01*
X170702557Y-94378980D01*
X170702749Y-94384701D01*
X170703578Y-94390662D01*
X170746639Y-94685161D01*
X170753947Y-94714652D01*
X170759640Y-94744492D01*
X170761379Y-94750254D01*
X170911431Y-95234991D01*
X170926566Y-95270996D01*
X170941202Y-95307221D01*
X170944027Y-95312535D01*
X171185373Y-95758896D01*
X171207229Y-95791298D01*
X171228607Y-95823968D01*
X171232405Y-95828625D01*
X171232410Y-95828632D01*
X171232416Y-95828638D01*
X171555860Y-96219614D01*
X171583575Y-96247137D01*
X171610909Y-96275049D01*
X171615535Y-96278875D01*
X171615546Y-96278886D01*
X171615558Y-96278894D01*
X172008778Y-96599596D01*
X172041308Y-96621209D01*
X172073546Y-96643283D01*
X172078836Y-96646144D01*
X172078844Y-96646148D01*
X172306429Y-96767157D01*
X170450000Y-96767157D01*
X170375311Y-96774513D01*
X170303492Y-96796299D01*
X170237304Y-96831678D01*
X170179289Y-96879289D01*
X170131678Y-96937304D01*
X170096299Y-97003492D01*
X170074513Y-97075311D01*
X170067157Y-97150000D01*
X170067157Y-98223771D01*
X170000000Y-98217157D01*
X168700000Y-98217157D01*
X168625311Y-98224513D01*
X168553492Y-98246299D01*
X168487304Y-98281678D01*
X168429289Y-98329289D01*
X168381678Y-98387304D01*
X168346299Y-98453492D01*
X168324513Y-98525311D01*
X168317157Y-98600000D01*
X168317157Y-99200000D01*
X168324513Y-99274689D01*
X168346299Y-99346508D01*
X168381678Y-99412696D01*
X168429289Y-99470711D01*
X168487304Y-99518322D01*
X168553492Y-99553701D01*
X168625311Y-99575487D01*
X168700000Y-99582843D01*
X169094001Y-99582843D01*
X169094000Y-100848390D01*
X169009523Y-100893544D01*
X168918360Y-100968360D01*
X168905158Y-100984447D01*
X168893322Y-100962304D01*
X168845711Y-100904289D01*
X168787696Y-100856678D01*
X168721508Y-100821299D01*
X168649689Y-100799513D01*
X168575000Y-100792157D01*
X168222250Y-100794000D01*
X168127000Y-100889250D01*
X168127000Y-101585500D01*
X168147000Y-101585500D01*
X168147000Y-101639500D01*
X168127000Y-101639500D01*
X168127000Y-101659500D01*
X168073000Y-101659500D01*
X168073000Y-101639500D01*
X168053000Y-101639500D01*
X168053000Y-101585500D01*
X168073000Y-101585500D01*
X168073000Y-100889250D01*
X167977750Y-100794000D01*
X167625000Y-100792157D01*
X167550311Y-100799513D01*
X167478492Y-100821299D01*
X167412304Y-100856678D01*
X167354289Y-100904289D01*
X167306678Y-100962304D01*
X167294842Y-100984447D01*
X167281640Y-100968360D01*
X167190477Y-100893544D01*
X167086470Y-100837951D01*
X166973615Y-100803716D01*
X166856250Y-100792157D01*
X166343750Y-100792157D01*
X166226385Y-100803716D01*
X166113530Y-100837951D01*
X166009523Y-100893544D01*
X165918360Y-100968360D01*
X165850000Y-101051656D01*
X165781640Y-100968360D01*
X165690477Y-100893544D01*
X165586470Y-100837951D01*
X165473615Y-100803716D01*
X165356250Y-100792157D01*
X164843750Y-100792157D01*
X164726385Y-100803716D01*
X164613530Y-100837951D01*
X164509523Y-100893544D01*
X164418360Y-100968360D01*
X164343544Y-101059523D01*
X164327399Y-101089728D01*
X164325487Y-101070311D01*
X164303701Y-100998492D01*
X164283126Y-100960000D01*
X164303701Y-100921508D01*
X164325487Y-100849689D01*
X164332843Y-100775000D01*
X164331000Y-100447250D01*
X164235750Y-100352000D01*
X162477000Y-100352000D01*
X162477000Y-100372000D01*
X162423000Y-100372000D01*
X162423000Y-100352000D01*
X160664250Y-100352000D01*
X160569000Y-100447250D01*
X160567157Y-100775000D01*
X160574513Y-100849689D01*
X160596299Y-100921508D01*
X160616874Y-100960000D01*
X160596299Y-100998492D01*
X160574513Y-101070311D01*
X160567157Y-101145000D01*
X160567157Y-102045000D01*
X160574513Y-102119689D01*
X160596299Y-102191508D01*
X160616874Y-102230000D01*
X160596299Y-102268492D01*
X160574513Y-102340311D01*
X160567157Y-102415000D01*
X160567157Y-103315000D01*
X160574513Y-103389689D01*
X160596299Y-103461508D01*
X160616874Y-103500000D01*
X160596299Y-103538492D01*
X160574513Y-103610311D01*
X160567157Y-103685000D01*
X160567157Y-104585000D01*
X160574513Y-104659689D01*
X160596299Y-104731508D01*
X160616874Y-104770000D01*
X160596299Y-104808492D01*
X160574513Y-104880311D01*
X160567157Y-104955000D01*
X160567157Y-105855000D01*
X160574513Y-105929689D01*
X160577329Y-105938972D01*
X160476922Y-105919000D01*
X160323078Y-105919000D01*
X160172191Y-105949013D01*
X160030058Y-106007887D01*
X159902141Y-106093358D01*
X159793358Y-106202141D01*
X159707887Y-106330058D01*
X159649013Y-106472191D01*
X159619000Y-106623078D01*
X159619000Y-106776922D01*
X159649013Y-106927809D01*
X159707887Y-107069942D01*
X159793358Y-107197859D01*
X159902141Y-107306642D01*
X159954124Y-107341375D01*
X159848358Y-107447141D01*
X159762887Y-107575058D01*
X159704013Y-107717191D01*
X159674000Y-107868078D01*
X159674000Y-108021922D01*
X159704013Y-108172809D01*
X159762887Y-108314942D01*
X159848358Y-108442859D01*
X159957141Y-108551642D01*
X160085058Y-108637113D01*
X160227191Y-108695987D01*
X160378078Y-108726000D01*
X160531922Y-108726000D01*
X160571779Y-108718072D01*
X160567157Y-108765000D01*
X160567157Y-109665000D01*
X160568242Y-109676019D01*
X156971500Y-106079278D01*
X156971500Y-105571500D01*
X159171926Y-105571500D01*
X159200000Y-105574265D01*
X159228074Y-105571500D01*
X159312034Y-105563231D01*
X159419762Y-105530552D01*
X159519045Y-105477484D01*
X159606067Y-105406067D01*
X159623970Y-105384252D01*
X160084257Y-104923966D01*
X160106067Y-104906067D01*
X160177484Y-104819045D01*
X160230552Y-104719762D01*
X160263231Y-104612034D01*
X160271500Y-104528074D01*
X160274265Y-104500000D01*
X160271500Y-104471926D01*
X160271500Y-103033001D01*
X160306642Y-102997859D01*
X160392113Y-102869942D01*
X160450987Y-102727809D01*
X160481000Y-102576922D01*
X160481000Y-102423078D01*
X160450987Y-102272191D01*
X160392113Y-102130058D01*
X160306642Y-102002141D01*
X160197859Y-101893358D01*
X160069942Y-101807887D01*
X159927809Y-101749013D01*
X159776922Y-101719000D01*
X159623078Y-101719000D01*
X159472191Y-101749013D01*
X159330058Y-101807887D01*
X159202141Y-101893358D01*
X159093358Y-102002141D01*
X159007887Y-102130058D01*
X158949013Y-102272191D01*
X158919000Y-102423078D01*
X158919000Y-102576922D01*
X158949013Y-102727809D01*
X159007887Y-102869942D01*
X159093358Y-102997859D01*
X159128500Y-103033001D01*
X159128500Y-103123999D01*
X159097859Y-103093358D01*
X158969942Y-103007887D01*
X158827809Y-102949013D01*
X158676922Y-102919000D01*
X158523078Y-102919000D01*
X158372191Y-102949013D01*
X158230058Y-103007887D01*
X158102141Y-103093358D01*
X158001499Y-103194000D01*
X155309592Y-103194000D01*
X154806000Y-102690409D01*
X154806000Y-102398501D01*
X154906642Y-102297859D01*
X154950000Y-102232969D01*
X154993358Y-102297859D01*
X155102141Y-102406642D01*
X155230058Y-102492113D01*
X155372191Y-102550987D01*
X155523078Y-102581000D01*
X155676922Y-102581000D01*
X155827809Y-102550987D01*
X155969942Y-102492113D01*
X156097859Y-102406642D01*
X156206642Y-102297859D01*
X156250000Y-102232969D01*
X156293358Y-102297859D01*
X156402141Y-102406642D01*
X156530058Y-102492113D01*
X156672191Y-102550987D01*
X156823078Y-102581000D01*
X156976922Y-102581000D01*
X157127809Y-102550987D01*
X157269942Y-102492113D01*
X157352734Y-102436793D01*
X157407887Y-102569942D01*
X157493358Y-102697859D01*
X157602141Y-102806642D01*
X157730058Y-102892113D01*
X157872191Y-102950987D01*
X158023078Y-102981000D01*
X158176922Y-102981000D01*
X158327809Y-102950987D01*
X158469942Y-102892113D01*
X158597859Y-102806642D01*
X158706642Y-102697859D01*
X158792113Y-102569942D01*
X158850987Y-102427809D01*
X158881000Y-102276922D01*
X158881000Y-102123078D01*
X158850987Y-101972191D01*
X158792113Y-101830058D01*
X158706642Y-101702141D01*
X158606000Y-101601499D01*
X158606000Y-101306267D01*
X158664689Y-101300487D01*
X158736508Y-101278701D01*
X158802696Y-101243322D01*
X158860711Y-101195711D01*
X158908322Y-101137696D01*
X158943701Y-101071508D01*
X158965487Y-100999689D01*
X158972843Y-100925000D01*
X158972843Y-99875000D01*
X160567157Y-99875000D01*
X160569000Y-100202750D01*
X160664250Y-100298000D01*
X162423000Y-100298000D01*
X162423000Y-99589250D01*
X162477000Y-99589250D01*
X162477000Y-100298000D01*
X164235750Y-100298000D01*
X164331000Y-100202750D01*
X164332843Y-99875000D01*
X164325487Y-99800311D01*
X164303701Y-99728492D01*
X164268322Y-99662304D01*
X164220711Y-99604289D01*
X164162696Y-99556678D01*
X164096508Y-99521299D01*
X164024689Y-99499513D01*
X163950000Y-99492157D01*
X162572250Y-99494000D01*
X162477000Y-99589250D01*
X162423000Y-99589250D01*
X162327750Y-99494000D01*
X160950000Y-99492157D01*
X160875311Y-99499513D01*
X160803492Y-99521299D01*
X160737304Y-99556678D01*
X160679289Y-99604289D01*
X160631678Y-99662304D01*
X160596299Y-99728492D01*
X160574513Y-99800311D01*
X160567157Y-99875000D01*
X158972843Y-99875000D01*
X158972843Y-97925000D01*
X158965487Y-97850311D01*
X158952045Y-97806000D01*
X163027909Y-97806000D01*
X164849628Y-99627720D01*
X164858089Y-99638029D01*
X164887951Y-99736470D01*
X164943544Y-99840477D01*
X165018360Y-99931640D01*
X165109523Y-100006456D01*
X165213530Y-100062049D01*
X165326385Y-100096284D01*
X165443750Y-100107843D01*
X165956250Y-100107843D01*
X166073615Y-100096284D01*
X166186470Y-100062049D01*
X166218245Y-100045065D01*
X166217157Y-100150000D01*
X166224513Y-100224689D01*
X166246299Y-100296508D01*
X166281678Y-100362696D01*
X166329289Y-100420711D01*
X166387304Y-100468322D01*
X166453492Y-100503701D01*
X166525311Y-100525487D01*
X166600000Y-100532843D01*
X167127750Y-100531000D01*
X167223000Y-100435750D01*
X167223000Y-99877000D01*
X167277000Y-99877000D01*
X167277000Y-100435750D01*
X167372250Y-100531000D01*
X167900000Y-100532843D01*
X167974689Y-100525487D01*
X168046508Y-100503701D01*
X168112696Y-100468322D01*
X168170711Y-100420711D01*
X168218322Y-100362696D01*
X168253701Y-100296508D01*
X168275487Y-100224689D01*
X168282843Y-100150000D01*
X168281000Y-99972250D01*
X168185750Y-99877000D01*
X167277000Y-99877000D01*
X167223000Y-99877000D01*
X167203000Y-99877000D01*
X167203000Y-99823000D01*
X167223000Y-99823000D01*
X167223000Y-99264250D01*
X167277000Y-99264250D01*
X167277000Y-99823000D01*
X168185750Y-99823000D01*
X168281000Y-99727750D01*
X168282843Y-99550000D01*
X168275487Y-99475311D01*
X168253701Y-99403492D01*
X168218322Y-99337304D01*
X168170711Y-99279289D01*
X168112696Y-99231678D01*
X168046508Y-99196299D01*
X167974689Y-99174513D01*
X167900000Y-99167157D01*
X167372250Y-99169000D01*
X167277000Y-99264250D01*
X167223000Y-99264250D01*
X167127750Y-99169000D01*
X166600000Y-99167157D01*
X166557843Y-99171309D01*
X166557843Y-99068750D01*
X166546284Y-98951385D01*
X166512049Y-98838530D01*
X166456456Y-98734523D01*
X166381640Y-98643360D01*
X166290477Y-98568544D01*
X166186470Y-98512951D01*
X166143777Y-98500000D01*
X166186470Y-98487049D01*
X166270646Y-98442056D01*
X166281678Y-98462696D01*
X166329289Y-98520711D01*
X166387304Y-98568322D01*
X166453492Y-98603701D01*
X166525311Y-98625487D01*
X166600000Y-98632843D01*
X167900000Y-98632843D01*
X167974689Y-98625487D01*
X168046508Y-98603701D01*
X168112696Y-98568322D01*
X168170711Y-98520711D01*
X168218322Y-98462696D01*
X168253701Y-98396508D01*
X168275487Y-98324689D01*
X168282843Y-98250000D01*
X168282843Y-97650000D01*
X168275487Y-97575311D01*
X168253701Y-97503492D01*
X168218322Y-97437304D01*
X168170711Y-97379289D01*
X168112696Y-97331678D01*
X168046508Y-97296299D01*
X167974689Y-97274513D01*
X167900000Y-97267157D01*
X167252728Y-97267157D01*
X167207075Y-97242755D01*
X167111693Y-97213822D01*
X167037354Y-97206500D01*
X167037346Y-97206500D01*
X167012500Y-97204053D01*
X166987654Y-97206500D01*
X166481566Y-97206500D01*
X166456456Y-97159523D01*
X166381640Y-97068360D01*
X166290477Y-96993544D01*
X166186470Y-96937951D01*
X166073615Y-96903716D01*
X165956250Y-96892157D01*
X165443750Y-96892157D01*
X165326385Y-96903716D01*
X165213530Y-96937951D01*
X165109523Y-96993544D01*
X165018360Y-97068360D01*
X164943544Y-97159523D01*
X164887951Y-97263530D01*
X164853716Y-97376385D01*
X164842157Y-97493750D01*
X164842157Y-97931250D01*
X164853716Y-98048615D01*
X164887951Y-98161470D01*
X164943544Y-98265477D01*
X165018360Y-98356640D01*
X165109523Y-98431456D01*
X165213530Y-98487049D01*
X165256223Y-98500000D01*
X165213530Y-98512951D01*
X165182584Y-98529492D01*
X163612876Y-96959785D01*
X163597027Y-96940473D01*
X163519979Y-96877241D01*
X163432075Y-96830255D01*
X163336693Y-96801322D01*
X163262354Y-96794000D01*
X163262346Y-96794000D01*
X163237500Y-96791553D01*
X163212654Y-96794000D01*
X161955465Y-96794000D01*
X162009863Y-96770502D01*
X162044032Y-96751592D01*
X162078480Y-96733150D01*
X162083452Y-96729775D01*
X162083460Y-96729771D01*
X162083466Y-96729766D01*
X162501334Y-96441902D01*
X162531178Y-96416715D01*
X162561389Y-96391933D01*
X162565617Y-96387651D01*
X162919619Y-96024101D01*
X162944002Y-95993598D01*
X162968825Y-95963418D01*
X162972137Y-95958402D01*
X162972141Y-95958397D01*
X162972144Y-95958392D01*
X163248787Y-95533009D01*
X163266795Y-95498325D01*
X163285269Y-95463925D01*
X163287542Y-95458364D01*
X163287547Y-95458355D01*
X163287550Y-95458346D01*
X163476298Y-94987337D01*
X163487215Y-94949854D01*
X163498667Y-94912483D01*
X163499819Y-94906576D01*
X163593489Y-94407865D01*
X163594587Y-94395413D01*
X163597382Y-94383229D01*
X163598107Y-94377255D01*
X163618245Y-94201089D01*
X165208364Y-94201089D01*
X165208364Y-94583551D01*
X165282978Y-94958665D01*
X165429341Y-95312015D01*
X165641826Y-95630021D01*
X165912268Y-95900463D01*
X166230274Y-96112948D01*
X166583624Y-96259311D01*
X166958738Y-96333925D01*
X167341200Y-96333925D01*
X167716314Y-96259311D01*
X168069664Y-96112948D01*
X168387670Y-95900463D01*
X168658112Y-95630021D01*
X168870597Y-95312015D01*
X169016960Y-94958665D01*
X169091574Y-94583551D01*
X169091574Y-94201089D01*
X169016960Y-93825975D01*
X168870597Y-93472625D01*
X168658112Y-93154619D01*
X168387670Y-92884177D01*
X168069664Y-92671692D01*
X167716314Y-92525329D01*
X167341200Y-92450715D01*
X166958738Y-92450715D01*
X166583624Y-92525329D01*
X166230274Y-92671692D01*
X165912268Y-92884177D01*
X165641826Y-93154619D01*
X165429341Y-93472625D01*
X165282978Y-93825975D01*
X165208364Y-94201089D01*
X163618245Y-94201089D01*
X163681541Y-93647394D01*
X163892288Y-92987892D01*
X164227118Y-92381886D01*
X164673279Y-91852457D01*
X165213776Y-91419769D01*
X165828021Y-91100305D01*
X166492622Y-90906234D01*
X167182259Y-90844946D01*
X167870664Y-90918777D01*
G36*
X173677942Y-97128943D02*
G01*
X173677948Y-97128943D01*
X173698832Y-97131000D01*
X177069028Y-97131000D01*
X177067157Y-97150000D01*
X177067157Y-99650000D01*
X177074513Y-99724689D01*
X177096299Y-99796508D01*
X177131678Y-99862696D01*
X177179289Y-99920711D01*
X177237304Y-99968322D01*
X177303492Y-100003701D01*
X177375311Y-100025487D01*
X177450000Y-100032843D01*
X178119000Y-100032843D01*
X178119000Y-100759342D01*
X177659343Y-101219000D01*
X176902460Y-101219000D01*
X176817104Y-101227407D01*
X176813501Y-101228500D01*
X172728071Y-101228500D01*
X172699999Y-101225735D01*
X172671927Y-101228500D01*
X172671926Y-101228500D01*
X172587966Y-101236769D01*
X172480238Y-101269448D01*
X172380955Y-101322516D01*
X172293933Y-101393933D01*
X172276034Y-101415743D01*
X171075778Y-102616000D01*
X170341254Y-102616000D01*
X170281640Y-102543360D01*
X170190477Y-102468544D01*
X170086470Y-102412951D01*
X170043777Y-102400000D01*
X170086470Y-102387049D01*
X170190477Y-102331456D01*
X170281640Y-102256640D01*
X170356456Y-102165477D01*
X170412049Y-102061470D01*
X170446284Y-101948615D01*
X170457843Y-101831250D01*
X170457843Y-101393750D01*
X170446284Y-101276385D01*
X170412049Y-101163530D01*
X170356456Y-101059523D01*
X170281640Y-100968360D01*
X170190477Y-100893544D01*
X170106000Y-100848390D01*
X170106000Y-99814657D01*
X170131678Y-99862696D01*
X170179289Y-99920711D01*
X170237304Y-99968322D01*
X170303492Y-100003701D01*
X170375311Y-100025487D01*
X170450000Y-100032843D01*
X172950000Y-100032843D01*
X173024689Y-100025487D01*
X173096508Y-100003701D01*
X173162696Y-99968322D01*
X173220711Y-99920711D01*
X173268322Y-99862696D01*
X173303701Y-99796508D01*
X173325487Y-99724689D01*
X173332843Y-99650000D01*
X173332843Y-97150000D01*
X173327384Y-97094570D01*
X173677942Y-97128943D01*
G37*
X173677942Y-97128943D02*
X173677948Y-97128943D01*
X173698832Y-97131000D01*
X177069028Y-97131000D01*
X177067157Y-97150000D01*
X177067157Y-99650000D01*
X177074513Y-99724689D01*
X177096299Y-99796508D01*
X177131678Y-99862696D01*
X177179289Y-99920711D01*
X177237304Y-99968322D01*
X177303492Y-100003701D01*
X177375311Y-100025487D01*
X177450000Y-100032843D01*
X178119000Y-100032843D01*
X178119000Y-100759342D01*
X177659343Y-101219000D01*
X176902460Y-101219000D01*
X176817104Y-101227407D01*
X176813501Y-101228500D01*
X172728071Y-101228500D01*
X172699999Y-101225735D01*
X172671927Y-101228500D01*
X172671926Y-101228500D01*
X172587966Y-101236769D01*
X172480238Y-101269448D01*
X172380955Y-101322516D01*
X172293933Y-101393933D01*
X172276034Y-101415743D01*
X171075778Y-102616000D01*
X170341254Y-102616000D01*
X170281640Y-102543360D01*
X170190477Y-102468544D01*
X170086470Y-102412951D01*
X170043777Y-102400000D01*
X170086470Y-102387049D01*
X170190477Y-102331456D01*
X170281640Y-102256640D01*
X170356456Y-102165477D01*
X170412049Y-102061470D01*
X170446284Y-101948615D01*
X170457843Y-101831250D01*
X170457843Y-101393750D01*
X170446284Y-101276385D01*
X170412049Y-101163530D01*
X170356456Y-101059523D01*
X170281640Y-100968360D01*
X170190477Y-100893544D01*
X170106000Y-100848390D01*
X170106000Y-99814657D01*
X170131678Y-99862696D01*
X170179289Y-99920711D01*
X170237304Y-99968322D01*
X170303492Y-100003701D01*
X170375311Y-100025487D01*
X170450000Y-100032843D01*
X172950000Y-100032843D01*
X173024689Y-100025487D01*
X173096508Y-100003701D01*
X173162696Y-99968322D01*
X173220711Y-99920711D01*
X173268322Y-99862696D01*
X173303701Y-99796508D01*
X173325487Y-99724689D01*
X173332843Y-99650000D01*
X173332843Y-97150000D01*
X173327384Y-97094570D01*
X173677942Y-97128943D01*
M02*
