M48
; DRILL file {KiCad (5.1.5)-3} date 8/13/2021 4:15:16 PM
; FORMAT={-:-/ absolute / inch / decimal}
; #@! TF.CreationDate,2021-08-13T16:15:16-07:00
; #@! TF.GenerationSoftware,Kicad,Pcbnew,(5.1.5)-3
FMAT,2
INCH
T1C0.0157
T2C0.0276
T3C0.0390
%
G90
G05
T1
X5.6535Y-3.9843
X5.6732Y-4.0591
X5.7441Y-4.4055
X5.7677Y-4.4409
X5.7756Y-4.1496
X5.7756Y-4.2992
X5.9409Y-4.1181
X5.9528Y-3.8937
X5.9606Y-4.3307
X5.9921Y-4.1181
X6.0118Y-4.4252
X6.0748Y-4.0079
X6.126Y-4.0079
X6.1575Y-4.1339
X6.1575Y-4.4331
X6.1772Y-4.0079
X6.189Y-4.3386
X6.2244Y-4.0236
X6.2441Y-4.0827
X6.2874Y-4.0354
X6.2913Y-4.378
X6.315Y-4.2008
X6.3171Y-4.2498
X6.3189Y-3.9488
X6.4724Y-3.9488
X6.5039Y-4.6181
X6.5157Y-4.3465
X6.5354Y-4.3937
X6.5472Y-4.5906
X6.554Y-4.1125
X6.5709Y-4.2953
X6.6142Y-4.1142
X6.6181Y-3.9606
X6.6535Y-4.4803
X6.6929Y-4.5197
X6.7047Y-4.2402
X6.8819Y-4.4449
X6.8898Y-4.0512
X6.8976Y-3.9291
X6.8976Y-3.9646
X6.9291Y-4.0512
X6.9331Y-3.9291
X6.9331Y-3.9646
X6.9685Y-4.0512
X7.1732Y-4.2835
X7.1732Y-4.4685
X7.2913Y-4.3661
X7.3307Y-4.0354
X7.3307Y-4.0906
X7.3543Y-4.5354
X7.3622Y-4.2559
X7.3819Y-3.8543
X7.3858Y-4.5354
X7.4055Y-4.2913
T2
X6.6539Y-4.5717
X6.6539Y-4.6504
X6.7327Y-4.5717
X6.7327Y-4.6504
X6.8114Y-4.5717
X6.8114Y-4.6504
X6.8902Y-4.5717
X6.8902Y-4.6504
X6.9689Y-4.5717
X6.9689Y-4.6504
X7.0476Y-4.5717
X7.0476Y-4.6504
X7.1264Y-4.5717
X7.1264Y-4.6504
T3
X5.6765Y-3.8843
X5.7165Y-4.0843
X5.7565Y-3.8843
T0
M30
