G04 #@! TF.GenerationSoftware,KiCad,Pcbnew,(5.1.5)-3*
G04 #@! TF.CreationDate,2021-08-13T16:15:14-07:00*
G04 #@! TF.ProjectId,Xenigotchi-v1.5,58656e69-676f-4746-9368-692d76312e35,rev?*
G04 #@! TF.SameCoordinates,Original*
G04 #@! TF.FileFunction,Soldermask,Top*
G04 #@! TF.FilePolarity,Negative*
%FSLAX46Y46*%
G04 Gerber Fmt 4.6, Leading zero omitted, Abs format (unit mm)*
G04 Created by KiCad (PCBNEW (5.1.5)-3) date 2021-08-13 16:15:14*
%MOMM*%
%LPD*%
G04 APERTURE LIST*
%ADD10C,0.100000*%
G04 APERTURE END LIST*
D10*
G36*
X169201055Y-117490171D02*
G01*
X169320257Y-117539546D01*
X169320259Y-117539547D01*
X169427538Y-117611228D01*
X169518772Y-117702462D01*
X169590453Y-117809741D01*
X169590454Y-117809743D01*
X169639829Y-117928945D01*
X169665000Y-118055487D01*
X169665000Y-118184513D01*
X169639829Y-118311055D01*
X169590454Y-118430257D01*
X169590453Y-118430259D01*
X169518772Y-118537538D01*
X169427538Y-118628772D01*
X169320259Y-118700453D01*
X169320258Y-118700454D01*
X169320257Y-118700454D01*
X169201055Y-118749829D01*
X169074513Y-118775000D01*
X168945487Y-118775000D01*
X168818945Y-118749829D01*
X168699743Y-118700454D01*
X168699742Y-118700454D01*
X168699741Y-118700453D01*
X168592462Y-118628772D01*
X168501228Y-118537538D01*
X168429547Y-118430259D01*
X168429546Y-118430257D01*
X168380171Y-118311055D01*
X168355000Y-118184513D01*
X168355000Y-118055487D01*
X168380171Y-117928945D01*
X168429546Y-117809743D01*
X168429547Y-117809741D01*
X168501228Y-117702462D01*
X168592462Y-117611228D01*
X168699741Y-117539547D01*
X168699743Y-117539546D01*
X168818945Y-117490171D01*
X168945487Y-117465000D01*
X169074513Y-117465000D01*
X169201055Y-117490171D01*
G37*
G36*
X179201055Y-117490171D02*
G01*
X179320257Y-117539546D01*
X179320259Y-117539547D01*
X179427538Y-117611228D01*
X179518772Y-117702462D01*
X179590453Y-117809741D01*
X179590454Y-117809743D01*
X179639829Y-117928945D01*
X179665000Y-118055487D01*
X179665000Y-118184513D01*
X179639829Y-118311055D01*
X179590454Y-118430257D01*
X179590453Y-118430259D01*
X179518772Y-118537538D01*
X179427538Y-118628772D01*
X179320259Y-118700453D01*
X179320258Y-118700454D01*
X179320257Y-118700454D01*
X179201055Y-118749829D01*
X179074513Y-118775000D01*
X178945487Y-118775000D01*
X178818945Y-118749829D01*
X178699743Y-118700454D01*
X178699742Y-118700454D01*
X178699741Y-118700453D01*
X178592462Y-118628772D01*
X178501228Y-118537538D01*
X178429547Y-118430259D01*
X178429546Y-118430257D01*
X178380171Y-118311055D01*
X178355000Y-118184513D01*
X178355000Y-118055487D01*
X178380171Y-117928945D01*
X178429546Y-117809743D01*
X178429547Y-117809741D01*
X178501228Y-117702462D01*
X178592462Y-117611228D01*
X178699741Y-117539547D01*
X178699743Y-117539546D01*
X178818945Y-117490171D01*
X178945487Y-117465000D01*
X179074513Y-117465000D01*
X179201055Y-117490171D01*
G37*
G36*
X181665000Y-118775000D02*
G01*
X180355000Y-118775000D01*
X180355000Y-117465000D01*
X181665000Y-117465000D01*
X181665000Y-118775000D01*
G37*
G36*
X177201055Y-117490171D02*
G01*
X177320257Y-117539546D01*
X177320259Y-117539547D01*
X177427538Y-117611228D01*
X177518772Y-117702462D01*
X177590453Y-117809741D01*
X177590454Y-117809743D01*
X177639829Y-117928945D01*
X177665000Y-118055487D01*
X177665000Y-118184513D01*
X177639829Y-118311055D01*
X177590454Y-118430257D01*
X177590453Y-118430259D01*
X177518772Y-118537538D01*
X177427538Y-118628772D01*
X177320259Y-118700453D01*
X177320258Y-118700454D01*
X177320257Y-118700454D01*
X177201055Y-118749829D01*
X177074513Y-118775000D01*
X176945487Y-118775000D01*
X176818945Y-118749829D01*
X176699743Y-118700454D01*
X176699742Y-118700454D01*
X176699741Y-118700453D01*
X176592462Y-118628772D01*
X176501228Y-118537538D01*
X176429547Y-118430259D01*
X176429546Y-118430257D01*
X176380171Y-118311055D01*
X176355000Y-118184513D01*
X176355000Y-118055487D01*
X176380171Y-117928945D01*
X176429546Y-117809743D01*
X176429547Y-117809741D01*
X176501228Y-117702462D01*
X176592462Y-117611228D01*
X176699741Y-117539547D01*
X176699743Y-117539546D01*
X176818945Y-117490171D01*
X176945487Y-117465000D01*
X177074513Y-117465000D01*
X177201055Y-117490171D01*
G37*
G36*
X173201055Y-117490171D02*
G01*
X173320257Y-117539546D01*
X173320259Y-117539547D01*
X173427538Y-117611228D01*
X173518772Y-117702462D01*
X173590453Y-117809741D01*
X173590454Y-117809743D01*
X173639829Y-117928945D01*
X173665000Y-118055487D01*
X173665000Y-118184513D01*
X173639829Y-118311055D01*
X173590454Y-118430257D01*
X173590453Y-118430259D01*
X173518772Y-118537538D01*
X173427538Y-118628772D01*
X173320259Y-118700453D01*
X173320258Y-118700454D01*
X173320257Y-118700454D01*
X173201055Y-118749829D01*
X173074513Y-118775000D01*
X172945487Y-118775000D01*
X172818945Y-118749829D01*
X172699743Y-118700454D01*
X172699742Y-118700454D01*
X172699741Y-118700453D01*
X172592462Y-118628772D01*
X172501228Y-118537538D01*
X172429547Y-118430259D01*
X172429546Y-118430257D01*
X172380171Y-118311055D01*
X172355000Y-118184513D01*
X172355000Y-118055487D01*
X172380171Y-117928945D01*
X172429546Y-117809743D01*
X172429547Y-117809741D01*
X172501228Y-117702462D01*
X172592462Y-117611228D01*
X172699741Y-117539547D01*
X172699743Y-117539546D01*
X172818945Y-117490171D01*
X172945487Y-117465000D01*
X173074513Y-117465000D01*
X173201055Y-117490171D01*
G37*
G36*
X175201055Y-117490171D02*
G01*
X175320257Y-117539546D01*
X175320259Y-117539547D01*
X175427538Y-117611228D01*
X175518772Y-117702462D01*
X175590453Y-117809741D01*
X175590454Y-117809743D01*
X175639829Y-117928945D01*
X175665000Y-118055487D01*
X175665000Y-118184513D01*
X175639829Y-118311055D01*
X175590454Y-118430257D01*
X175590453Y-118430259D01*
X175518772Y-118537538D01*
X175427538Y-118628772D01*
X175320259Y-118700453D01*
X175320258Y-118700454D01*
X175320257Y-118700454D01*
X175201055Y-118749829D01*
X175074513Y-118775000D01*
X174945487Y-118775000D01*
X174818945Y-118749829D01*
X174699743Y-118700454D01*
X174699742Y-118700454D01*
X174699741Y-118700453D01*
X174592462Y-118628772D01*
X174501228Y-118537538D01*
X174429547Y-118430259D01*
X174429546Y-118430257D01*
X174380171Y-118311055D01*
X174355000Y-118184513D01*
X174355000Y-118055487D01*
X174380171Y-117928945D01*
X174429546Y-117809743D01*
X174429547Y-117809741D01*
X174501228Y-117702462D01*
X174592462Y-117611228D01*
X174699741Y-117539547D01*
X174699743Y-117539546D01*
X174818945Y-117490171D01*
X174945487Y-117465000D01*
X175074513Y-117465000D01*
X175201055Y-117490171D01*
G37*
G36*
X171201055Y-117490171D02*
G01*
X171320257Y-117539546D01*
X171320259Y-117539547D01*
X171427538Y-117611228D01*
X171518772Y-117702462D01*
X171590453Y-117809741D01*
X171590454Y-117809743D01*
X171639829Y-117928945D01*
X171665000Y-118055487D01*
X171665000Y-118184513D01*
X171639829Y-118311055D01*
X171590454Y-118430257D01*
X171590453Y-118430259D01*
X171518772Y-118537538D01*
X171427538Y-118628772D01*
X171320259Y-118700453D01*
X171320258Y-118700454D01*
X171320257Y-118700454D01*
X171201055Y-118749829D01*
X171074513Y-118775000D01*
X170945487Y-118775000D01*
X170818945Y-118749829D01*
X170699743Y-118700454D01*
X170699742Y-118700454D01*
X170699741Y-118700453D01*
X170592462Y-118628772D01*
X170501228Y-118537538D01*
X170429547Y-118430259D01*
X170429546Y-118430257D01*
X170380171Y-118311055D01*
X170355000Y-118184513D01*
X170355000Y-118055487D01*
X170380171Y-117928945D01*
X170429546Y-117809743D01*
X170429547Y-117809741D01*
X170501228Y-117702462D01*
X170592462Y-117611228D01*
X170699741Y-117539547D01*
X170699743Y-117539546D01*
X170818945Y-117490171D01*
X170945487Y-117465000D01*
X171074513Y-117465000D01*
X171201055Y-117490171D01*
G37*
G36*
X179201055Y-115490171D02*
G01*
X179320257Y-115539546D01*
X179320259Y-115539547D01*
X179427538Y-115611228D01*
X179518772Y-115702462D01*
X179574348Y-115785638D01*
X179590454Y-115809743D01*
X179639829Y-115928945D01*
X179665000Y-116055487D01*
X179665000Y-116184513D01*
X179639829Y-116311055D01*
X179590454Y-116430257D01*
X179590453Y-116430259D01*
X179518772Y-116537538D01*
X179427538Y-116628772D01*
X179320259Y-116700453D01*
X179320258Y-116700454D01*
X179320257Y-116700454D01*
X179201055Y-116749829D01*
X179074513Y-116775000D01*
X178945487Y-116775000D01*
X178818945Y-116749829D01*
X178699743Y-116700454D01*
X178699742Y-116700454D01*
X178699741Y-116700453D01*
X178592462Y-116628772D01*
X178501228Y-116537538D01*
X178429547Y-116430259D01*
X178429546Y-116430257D01*
X178380171Y-116311055D01*
X178355000Y-116184513D01*
X178355000Y-116055487D01*
X178380171Y-115928945D01*
X178429546Y-115809743D01*
X178445652Y-115785638D01*
X178501228Y-115702462D01*
X178592462Y-115611228D01*
X178699741Y-115539547D01*
X178699743Y-115539546D01*
X178818945Y-115490171D01*
X178945487Y-115465000D01*
X179074513Y-115465000D01*
X179201055Y-115490171D01*
G37*
G36*
X177201055Y-115490171D02*
G01*
X177320257Y-115539546D01*
X177320259Y-115539547D01*
X177427538Y-115611228D01*
X177518772Y-115702462D01*
X177574348Y-115785638D01*
X177590454Y-115809743D01*
X177639829Y-115928945D01*
X177665000Y-116055487D01*
X177665000Y-116184513D01*
X177639829Y-116311055D01*
X177590454Y-116430257D01*
X177590453Y-116430259D01*
X177518772Y-116537538D01*
X177427538Y-116628772D01*
X177320259Y-116700453D01*
X177320258Y-116700454D01*
X177320257Y-116700454D01*
X177201055Y-116749829D01*
X177074513Y-116775000D01*
X176945487Y-116775000D01*
X176818945Y-116749829D01*
X176699743Y-116700454D01*
X176699742Y-116700454D01*
X176699741Y-116700453D01*
X176592462Y-116628772D01*
X176501228Y-116537538D01*
X176429547Y-116430259D01*
X176429546Y-116430257D01*
X176380171Y-116311055D01*
X176355000Y-116184513D01*
X176355000Y-116055487D01*
X176380171Y-115928945D01*
X176429546Y-115809743D01*
X176445652Y-115785638D01*
X176501228Y-115702462D01*
X176592462Y-115611228D01*
X176699741Y-115539547D01*
X176699743Y-115539546D01*
X176818945Y-115490171D01*
X176945487Y-115465000D01*
X177074513Y-115465000D01*
X177201055Y-115490171D01*
G37*
G36*
X175201055Y-115490171D02*
G01*
X175320257Y-115539546D01*
X175320259Y-115539547D01*
X175427538Y-115611228D01*
X175518772Y-115702462D01*
X175574348Y-115785638D01*
X175590454Y-115809743D01*
X175639829Y-115928945D01*
X175665000Y-116055487D01*
X175665000Y-116184513D01*
X175639829Y-116311055D01*
X175590454Y-116430257D01*
X175590453Y-116430259D01*
X175518772Y-116537538D01*
X175427538Y-116628772D01*
X175320259Y-116700453D01*
X175320258Y-116700454D01*
X175320257Y-116700454D01*
X175201055Y-116749829D01*
X175074513Y-116775000D01*
X174945487Y-116775000D01*
X174818945Y-116749829D01*
X174699743Y-116700454D01*
X174699742Y-116700454D01*
X174699741Y-116700453D01*
X174592462Y-116628772D01*
X174501228Y-116537538D01*
X174429547Y-116430259D01*
X174429546Y-116430257D01*
X174380171Y-116311055D01*
X174355000Y-116184513D01*
X174355000Y-116055487D01*
X174380171Y-115928945D01*
X174429546Y-115809743D01*
X174445652Y-115785638D01*
X174501228Y-115702462D01*
X174592462Y-115611228D01*
X174699741Y-115539547D01*
X174699743Y-115539546D01*
X174818945Y-115490171D01*
X174945487Y-115465000D01*
X175074513Y-115465000D01*
X175201055Y-115490171D01*
G37*
G36*
X173201055Y-115490171D02*
G01*
X173320257Y-115539546D01*
X173320259Y-115539547D01*
X173427538Y-115611228D01*
X173518772Y-115702462D01*
X173574348Y-115785638D01*
X173590454Y-115809743D01*
X173639829Y-115928945D01*
X173665000Y-116055487D01*
X173665000Y-116184513D01*
X173639829Y-116311055D01*
X173590454Y-116430257D01*
X173590453Y-116430259D01*
X173518772Y-116537538D01*
X173427538Y-116628772D01*
X173320259Y-116700453D01*
X173320258Y-116700454D01*
X173320257Y-116700454D01*
X173201055Y-116749829D01*
X173074513Y-116775000D01*
X172945487Y-116775000D01*
X172818945Y-116749829D01*
X172699743Y-116700454D01*
X172699742Y-116700454D01*
X172699741Y-116700453D01*
X172592462Y-116628772D01*
X172501228Y-116537538D01*
X172429547Y-116430259D01*
X172429546Y-116430257D01*
X172380171Y-116311055D01*
X172355000Y-116184513D01*
X172355000Y-116055487D01*
X172380171Y-115928945D01*
X172429546Y-115809743D01*
X172445652Y-115785638D01*
X172501228Y-115702462D01*
X172592462Y-115611228D01*
X172699741Y-115539547D01*
X172699743Y-115539546D01*
X172818945Y-115490171D01*
X172945487Y-115465000D01*
X173074513Y-115465000D01*
X173201055Y-115490171D01*
G37*
G36*
X171201055Y-115490171D02*
G01*
X171320257Y-115539546D01*
X171320259Y-115539547D01*
X171427538Y-115611228D01*
X171518772Y-115702462D01*
X171574348Y-115785638D01*
X171590454Y-115809743D01*
X171639829Y-115928945D01*
X171665000Y-116055487D01*
X171665000Y-116184513D01*
X171639829Y-116311055D01*
X171590454Y-116430257D01*
X171590453Y-116430259D01*
X171518772Y-116537538D01*
X171427538Y-116628772D01*
X171320259Y-116700453D01*
X171320258Y-116700454D01*
X171320257Y-116700454D01*
X171201055Y-116749829D01*
X171074513Y-116775000D01*
X170945487Y-116775000D01*
X170818945Y-116749829D01*
X170699743Y-116700454D01*
X170699742Y-116700454D01*
X170699741Y-116700453D01*
X170592462Y-116628772D01*
X170501228Y-116537538D01*
X170429547Y-116430259D01*
X170429546Y-116430257D01*
X170380171Y-116311055D01*
X170355000Y-116184513D01*
X170355000Y-116055487D01*
X170380171Y-115928945D01*
X170429546Y-115809743D01*
X170445652Y-115785638D01*
X170501228Y-115702462D01*
X170592462Y-115611228D01*
X170699741Y-115539547D01*
X170699743Y-115539546D01*
X170818945Y-115490171D01*
X170945487Y-115465000D01*
X171074513Y-115465000D01*
X171201055Y-115490171D01*
G37*
G36*
X169201055Y-115490171D02*
G01*
X169320257Y-115539546D01*
X169320259Y-115539547D01*
X169427538Y-115611228D01*
X169518772Y-115702462D01*
X169574348Y-115785638D01*
X169590454Y-115809743D01*
X169639829Y-115928945D01*
X169665000Y-116055487D01*
X169665000Y-116184513D01*
X169639829Y-116311055D01*
X169590454Y-116430257D01*
X169590453Y-116430259D01*
X169518772Y-116537538D01*
X169427538Y-116628772D01*
X169320259Y-116700453D01*
X169320258Y-116700454D01*
X169320257Y-116700454D01*
X169201055Y-116749829D01*
X169074513Y-116775000D01*
X168945487Y-116775000D01*
X168818945Y-116749829D01*
X168699743Y-116700454D01*
X168699742Y-116700454D01*
X168699741Y-116700453D01*
X168592462Y-116628772D01*
X168501228Y-116537538D01*
X168429547Y-116430259D01*
X168429546Y-116430257D01*
X168380171Y-116311055D01*
X168355000Y-116184513D01*
X168355000Y-116055487D01*
X168380171Y-115928945D01*
X168429546Y-115809743D01*
X168445652Y-115785638D01*
X168501228Y-115702462D01*
X168592462Y-115611228D01*
X168699741Y-115539547D01*
X168699743Y-115539546D01*
X168818945Y-115490171D01*
X168945487Y-115465000D01*
X169074513Y-115465000D01*
X169201055Y-115490171D01*
G37*
G36*
X181201055Y-115490171D02*
G01*
X181320257Y-115539546D01*
X181320259Y-115539547D01*
X181427538Y-115611228D01*
X181518772Y-115702462D01*
X181574348Y-115785638D01*
X181590454Y-115809743D01*
X181639829Y-115928945D01*
X181665000Y-116055487D01*
X181665000Y-116184513D01*
X181639829Y-116311055D01*
X181590454Y-116430257D01*
X181590453Y-116430259D01*
X181518772Y-116537538D01*
X181427538Y-116628772D01*
X181320259Y-116700453D01*
X181320258Y-116700454D01*
X181320257Y-116700454D01*
X181201055Y-116749829D01*
X181074513Y-116775000D01*
X180945487Y-116775000D01*
X180818945Y-116749829D01*
X180699743Y-116700454D01*
X180699742Y-116700454D01*
X180699741Y-116700453D01*
X180592462Y-116628772D01*
X180501228Y-116537538D01*
X180429547Y-116430259D01*
X180429546Y-116430257D01*
X180380171Y-116311055D01*
X180355000Y-116184513D01*
X180355000Y-116055487D01*
X180380171Y-115928945D01*
X180429546Y-115809743D01*
X180445652Y-115785638D01*
X180501228Y-115702462D01*
X180592462Y-115611228D01*
X180699741Y-115539547D01*
X180699743Y-115539546D01*
X180818945Y-115490171D01*
X180945487Y-115465000D01*
X181074513Y-115465000D01*
X181201055Y-115490171D01*
G37*
G36*
X185484468Y-114841065D02*
G01*
X185523138Y-114852796D01*
X185558777Y-114871846D01*
X185590017Y-114897483D01*
X185615654Y-114928723D01*
X185634704Y-114964362D01*
X185646435Y-115003032D01*
X185651000Y-115049388D01*
X185651000Y-115700612D01*
X185646435Y-115746968D01*
X185634704Y-115785638D01*
X185615654Y-115821277D01*
X185590017Y-115852517D01*
X185558777Y-115878154D01*
X185523138Y-115897204D01*
X185484468Y-115908935D01*
X185438112Y-115913500D01*
X184361888Y-115913500D01*
X184315532Y-115908935D01*
X184276862Y-115897204D01*
X184241223Y-115878154D01*
X184209983Y-115852517D01*
X184184346Y-115821277D01*
X184165296Y-115785638D01*
X184153565Y-115746968D01*
X184149000Y-115700612D01*
X184149000Y-115049388D01*
X184153565Y-115003032D01*
X184165296Y-114964362D01*
X184184346Y-114928723D01*
X184209983Y-114897483D01*
X184241223Y-114871846D01*
X184276862Y-114852796D01*
X184315532Y-114841065D01*
X184361888Y-114836500D01*
X185438112Y-114836500D01*
X185484468Y-114841065D01*
G37*
G36*
X185484468Y-112966065D02*
G01*
X185523138Y-112977796D01*
X185558777Y-112996846D01*
X185590017Y-113022483D01*
X185615654Y-113053723D01*
X185634704Y-113089362D01*
X185646435Y-113128032D01*
X185651000Y-113174388D01*
X185651000Y-113825612D01*
X185646435Y-113871968D01*
X185634704Y-113910638D01*
X185615654Y-113946277D01*
X185590017Y-113977517D01*
X185558777Y-114003154D01*
X185523138Y-114022204D01*
X185484468Y-114033935D01*
X185438112Y-114038500D01*
X184361888Y-114038500D01*
X184315532Y-114033935D01*
X184276862Y-114022204D01*
X184241223Y-114003154D01*
X184209983Y-113977517D01*
X184184346Y-113946277D01*
X184165296Y-113910638D01*
X184153565Y-113871968D01*
X184149000Y-113825612D01*
X184149000Y-113174388D01*
X184153565Y-113128032D01*
X184165296Y-113089362D01*
X184184346Y-113053723D01*
X184209983Y-113022483D01*
X184241223Y-112996846D01*
X184276862Y-112977796D01*
X184315532Y-112966065D01*
X184361888Y-112961500D01*
X185438112Y-112961500D01*
X185484468Y-112966065D01*
G37*
G36*
X186954591Y-112978085D02*
G01*
X186988569Y-112988393D01*
X187019890Y-113005134D01*
X187047339Y-113027661D01*
X187069866Y-113055110D01*
X187086607Y-113086431D01*
X187096915Y-113120409D01*
X187101000Y-113161890D01*
X187101000Y-113838110D01*
X187096915Y-113879591D01*
X187086607Y-113913569D01*
X187069866Y-113944890D01*
X187047339Y-113972339D01*
X187019890Y-113994866D01*
X186988569Y-114011607D01*
X186954591Y-114021915D01*
X186913110Y-114026000D01*
X186311890Y-114026000D01*
X186270409Y-114021915D01*
X186236431Y-114011607D01*
X186205110Y-113994866D01*
X186177661Y-113972339D01*
X186155134Y-113944890D01*
X186138393Y-113913569D01*
X186128085Y-113879591D01*
X186124000Y-113838110D01*
X186124000Y-113161890D01*
X186128085Y-113120409D01*
X186138393Y-113086431D01*
X186155134Y-113055110D01*
X186177661Y-113027661D01*
X186205110Y-113005134D01*
X186236431Y-112988393D01*
X186270409Y-112978085D01*
X186311890Y-112974000D01*
X186913110Y-112974000D01*
X186954591Y-112978085D01*
G37*
G36*
X188529591Y-112978085D02*
G01*
X188563569Y-112988393D01*
X188594890Y-113005134D01*
X188622339Y-113027661D01*
X188644866Y-113055110D01*
X188661607Y-113086431D01*
X188671915Y-113120409D01*
X188676000Y-113161890D01*
X188676000Y-113838110D01*
X188671915Y-113879591D01*
X188661607Y-113913569D01*
X188644866Y-113944890D01*
X188622339Y-113972339D01*
X188594890Y-113994866D01*
X188563569Y-114011607D01*
X188529591Y-114021915D01*
X188488110Y-114026000D01*
X187886890Y-114026000D01*
X187845409Y-114021915D01*
X187811431Y-114011607D01*
X187780110Y-113994866D01*
X187752661Y-113972339D01*
X187730134Y-113944890D01*
X187713393Y-113913569D01*
X187703085Y-113879591D01*
X187699000Y-113838110D01*
X187699000Y-113161890D01*
X187703085Y-113120409D01*
X187713393Y-113086431D01*
X187730134Y-113055110D01*
X187752661Y-113027661D01*
X187780110Y-113005134D01*
X187811431Y-112988393D01*
X187845409Y-112978085D01*
X187886890Y-112974000D01*
X188488110Y-112974000D01*
X188529591Y-112978085D01*
G37*
G36*
X173076000Y-113751000D02*
G01*
X170974000Y-113751000D01*
X170974000Y-108649000D01*
X173076000Y-108649000D01*
X173076000Y-113751000D01*
G37*
G36*
X150301000Y-113526000D02*
G01*
X147199000Y-113526000D01*
X147199000Y-112524000D01*
X150301000Y-112524000D01*
X150301000Y-113526000D01*
G37*
G36*
X183076000Y-113251000D02*
G01*
X181274000Y-113251000D01*
X181274000Y-109149000D01*
X183076000Y-109149000D01*
X183076000Y-113251000D01*
G37*
G36*
X186526000Y-112481000D02*
G01*
X183874000Y-112481000D01*
X183874000Y-111319000D01*
X186526000Y-111319000D01*
X186526000Y-112481000D01*
G37*
G36*
X188684468Y-111403565D02*
G01*
X188723138Y-111415296D01*
X188758777Y-111434346D01*
X188790017Y-111459983D01*
X188815654Y-111491223D01*
X188834704Y-111526862D01*
X188846435Y-111565532D01*
X188851000Y-111611888D01*
X188851000Y-112263112D01*
X188846435Y-112309468D01*
X188834704Y-112348138D01*
X188815654Y-112383777D01*
X188790017Y-112415017D01*
X188758777Y-112440654D01*
X188723138Y-112459704D01*
X188684468Y-112471435D01*
X188638112Y-112476000D01*
X187561888Y-112476000D01*
X187515532Y-112471435D01*
X187476862Y-112459704D01*
X187441223Y-112440654D01*
X187409983Y-112415017D01*
X187384346Y-112383777D01*
X187365296Y-112348138D01*
X187353565Y-112309468D01*
X187349000Y-112263112D01*
X187349000Y-111611888D01*
X187353565Y-111565532D01*
X187365296Y-111526862D01*
X187384346Y-111491223D01*
X187409983Y-111459983D01*
X187441223Y-111434346D01*
X187476862Y-111415296D01*
X187515532Y-111403565D01*
X187561888Y-111399000D01*
X188638112Y-111399000D01*
X188684468Y-111403565D01*
G37*
G36*
X167279591Y-111303085D02*
G01*
X167313569Y-111313393D01*
X167344890Y-111330134D01*
X167372339Y-111352661D01*
X167394866Y-111380110D01*
X167411607Y-111411431D01*
X167421915Y-111445409D01*
X167426000Y-111486890D01*
X167426000Y-112088110D01*
X167421915Y-112129591D01*
X167411607Y-112163569D01*
X167394866Y-112194890D01*
X167372339Y-112222339D01*
X167344890Y-112244866D01*
X167313569Y-112261607D01*
X167279591Y-112271915D01*
X167238110Y-112276000D01*
X166561890Y-112276000D01*
X166520409Y-112271915D01*
X166486431Y-112261607D01*
X166455110Y-112244866D01*
X166427661Y-112222339D01*
X166405134Y-112194890D01*
X166388393Y-112163569D01*
X166378085Y-112129591D01*
X166374000Y-112088110D01*
X166374000Y-111486890D01*
X166378085Y-111445409D01*
X166388393Y-111411431D01*
X166405134Y-111380110D01*
X166427661Y-111352661D01*
X166455110Y-111330134D01*
X166486431Y-111313393D01*
X166520409Y-111303085D01*
X166561890Y-111299000D01*
X167238110Y-111299000D01*
X167279591Y-111303085D01*
G37*
G36*
X150301000Y-112256000D02*
G01*
X147199000Y-112256000D01*
X147199000Y-111254000D01*
X150301000Y-111254000D01*
X150301000Y-112256000D01*
G37*
G36*
X164001000Y-112256000D02*
G01*
X160899000Y-112256000D01*
X160899000Y-111254000D01*
X164001000Y-111254000D01*
X164001000Y-112256000D01*
G37*
G36*
X168754591Y-111178085D02*
G01*
X168788569Y-111188393D01*
X168819890Y-111205134D01*
X168847339Y-111227661D01*
X168869866Y-111255110D01*
X168886607Y-111286431D01*
X168896915Y-111320409D01*
X168901000Y-111361890D01*
X168901000Y-112038110D01*
X168896915Y-112079591D01*
X168886607Y-112113569D01*
X168869866Y-112144890D01*
X168847339Y-112172339D01*
X168819890Y-112194866D01*
X168788569Y-112211607D01*
X168754591Y-112221915D01*
X168713110Y-112226000D01*
X168111890Y-112226000D01*
X168070409Y-112221915D01*
X168036431Y-112211607D01*
X168005110Y-112194866D01*
X167977661Y-112172339D01*
X167955134Y-112144890D01*
X167938393Y-112113569D01*
X167928085Y-112079591D01*
X167924000Y-112038110D01*
X167924000Y-111361890D01*
X167928085Y-111320409D01*
X167938393Y-111286431D01*
X167955134Y-111255110D01*
X167977661Y-111227661D01*
X168005110Y-111205134D01*
X168036431Y-111188393D01*
X168070409Y-111178085D01*
X168111890Y-111174000D01*
X168713110Y-111174000D01*
X168754591Y-111178085D01*
G37*
G36*
X170329591Y-111178085D02*
G01*
X170363569Y-111188393D01*
X170394890Y-111205134D01*
X170422339Y-111227661D01*
X170444866Y-111255110D01*
X170461607Y-111286431D01*
X170471915Y-111320409D01*
X170476000Y-111361890D01*
X170476000Y-112038110D01*
X170471915Y-112079591D01*
X170461607Y-112113569D01*
X170444866Y-112144890D01*
X170422339Y-112172339D01*
X170394890Y-112194866D01*
X170363569Y-112211607D01*
X170329591Y-112221915D01*
X170288110Y-112226000D01*
X169686890Y-112226000D01*
X169645409Y-112221915D01*
X169611431Y-112211607D01*
X169580110Y-112194866D01*
X169552661Y-112172339D01*
X169530134Y-112144890D01*
X169513393Y-112113569D01*
X169503085Y-112079591D01*
X169499000Y-112038110D01*
X169499000Y-111361890D01*
X169503085Y-111320409D01*
X169513393Y-111286431D01*
X169530134Y-111255110D01*
X169552661Y-111227661D01*
X169580110Y-111205134D01*
X169611431Y-111188393D01*
X169645409Y-111178085D01*
X169686890Y-111174000D01*
X170288110Y-111174000D01*
X170329591Y-111178085D01*
G37*
G36*
X150301000Y-110986000D02*
G01*
X147199000Y-110986000D01*
X147199000Y-109984000D01*
X150301000Y-109984000D01*
X150301000Y-110986000D01*
G37*
G36*
X164001000Y-110986000D02*
G01*
X160899000Y-110986000D01*
X160899000Y-109984000D01*
X164001000Y-109984000D01*
X164001000Y-110986000D01*
G37*
G36*
X170342091Y-109678085D02*
G01*
X170376069Y-109688393D01*
X170407390Y-109705134D01*
X170434839Y-109727661D01*
X170457366Y-109755110D01*
X170474107Y-109786431D01*
X170484415Y-109820409D01*
X170488500Y-109861890D01*
X170488500Y-110538110D01*
X170484415Y-110579591D01*
X170474107Y-110613569D01*
X170457366Y-110644890D01*
X170434839Y-110672339D01*
X170407390Y-110694866D01*
X170376069Y-110711607D01*
X170342091Y-110721915D01*
X170300610Y-110726000D01*
X169699390Y-110726000D01*
X169657909Y-110721915D01*
X169623931Y-110711607D01*
X169592610Y-110694866D01*
X169565161Y-110672339D01*
X169542634Y-110644890D01*
X169525893Y-110613569D01*
X169515585Y-110579591D01*
X169511500Y-110538110D01*
X169511500Y-109861890D01*
X169515585Y-109820409D01*
X169525893Y-109786431D01*
X169542634Y-109755110D01*
X169565161Y-109727661D01*
X169592610Y-109705134D01*
X169623931Y-109688393D01*
X169657909Y-109678085D01*
X169699390Y-109674000D01*
X170300610Y-109674000D01*
X170342091Y-109678085D01*
G37*
G36*
X168767091Y-109678085D02*
G01*
X168801069Y-109688393D01*
X168832390Y-109705134D01*
X168859839Y-109727661D01*
X168882366Y-109755110D01*
X168899107Y-109786431D01*
X168909415Y-109820409D01*
X168913500Y-109861890D01*
X168913500Y-110538110D01*
X168909415Y-110579591D01*
X168899107Y-110613569D01*
X168882366Y-110644890D01*
X168859839Y-110672339D01*
X168832390Y-110694866D01*
X168801069Y-110711607D01*
X168767091Y-110721915D01*
X168725610Y-110726000D01*
X168124390Y-110726000D01*
X168082909Y-110721915D01*
X168048931Y-110711607D01*
X168017610Y-110694866D01*
X167990161Y-110672339D01*
X167967634Y-110644890D01*
X167950893Y-110613569D01*
X167940585Y-110579591D01*
X167936500Y-110538110D01*
X167936500Y-109861890D01*
X167940585Y-109820409D01*
X167950893Y-109786431D01*
X167967634Y-109755110D01*
X167990161Y-109727661D01*
X168017610Y-109705134D01*
X168048931Y-109688393D01*
X168082909Y-109678085D01*
X168124390Y-109674000D01*
X168725610Y-109674000D01*
X168767091Y-109678085D01*
G37*
G36*
X167279591Y-109728085D02*
G01*
X167313569Y-109738393D01*
X167344890Y-109755134D01*
X167372339Y-109777661D01*
X167394866Y-109805110D01*
X167411607Y-109836431D01*
X167421915Y-109870409D01*
X167426000Y-109911890D01*
X167426000Y-110513110D01*
X167421915Y-110554591D01*
X167411607Y-110588569D01*
X167394866Y-110619890D01*
X167372339Y-110647339D01*
X167344890Y-110669866D01*
X167313569Y-110686607D01*
X167279591Y-110696915D01*
X167238110Y-110701000D01*
X166561890Y-110701000D01*
X166520409Y-110696915D01*
X166486431Y-110686607D01*
X166455110Y-110669866D01*
X166427661Y-110647339D01*
X166405134Y-110619890D01*
X166388393Y-110588569D01*
X166378085Y-110554591D01*
X166374000Y-110513110D01*
X166374000Y-109911890D01*
X166378085Y-109870409D01*
X166388393Y-109836431D01*
X166405134Y-109805110D01*
X166427661Y-109777661D01*
X166455110Y-109755134D01*
X166486431Y-109738393D01*
X166520409Y-109728085D01*
X166561890Y-109724000D01*
X167238110Y-109724000D01*
X167279591Y-109728085D01*
G37*
G36*
X188684468Y-109528565D02*
G01*
X188723138Y-109540296D01*
X188758777Y-109559346D01*
X188790017Y-109584983D01*
X188815654Y-109616223D01*
X188834704Y-109651862D01*
X188846435Y-109690532D01*
X188851000Y-109736888D01*
X188851000Y-110388112D01*
X188846435Y-110434468D01*
X188834704Y-110473138D01*
X188815654Y-110508777D01*
X188790017Y-110540017D01*
X188758777Y-110565654D01*
X188723138Y-110584704D01*
X188684468Y-110596435D01*
X188638112Y-110601000D01*
X187561888Y-110601000D01*
X187515532Y-110596435D01*
X187476862Y-110584704D01*
X187441223Y-110565654D01*
X187409983Y-110540017D01*
X187384346Y-110508777D01*
X187365296Y-110473138D01*
X187353565Y-110434468D01*
X187349000Y-110388112D01*
X187349000Y-109736888D01*
X187353565Y-109690532D01*
X187365296Y-109651862D01*
X187384346Y-109616223D01*
X187409983Y-109584983D01*
X187441223Y-109559346D01*
X187476862Y-109540296D01*
X187515532Y-109528565D01*
X187561888Y-109524000D01*
X188638112Y-109524000D01*
X188684468Y-109528565D01*
G37*
G36*
X186526000Y-110281000D02*
G01*
X185774000Y-110281000D01*
X185774000Y-109119000D01*
X186526000Y-109119000D01*
X186526000Y-110281000D01*
G37*
G36*
X184626000Y-110281000D02*
G01*
X183874000Y-110281000D01*
X183874000Y-109119000D01*
X184626000Y-109119000D01*
X184626000Y-110281000D01*
G37*
G36*
X150301000Y-109716000D02*
G01*
X147199000Y-109716000D01*
X147199000Y-108714000D01*
X150301000Y-108714000D01*
X150301000Y-109716000D01*
G37*
G36*
X164001000Y-109716000D02*
G01*
X160899000Y-109716000D01*
X160899000Y-108714000D01*
X164001000Y-108714000D01*
X164001000Y-109716000D01*
G37*
G36*
X184654591Y-107578085D02*
G01*
X184688569Y-107588393D01*
X184719890Y-107605134D01*
X184747339Y-107627661D01*
X184769866Y-107655110D01*
X184786607Y-107686431D01*
X184796915Y-107720409D01*
X184801000Y-107761890D01*
X184801000Y-108438110D01*
X184796915Y-108479591D01*
X184786607Y-108513569D01*
X184769866Y-108544890D01*
X184747339Y-108572339D01*
X184719890Y-108594866D01*
X184688569Y-108611607D01*
X184654591Y-108621915D01*
X184613110Y-108626000D01*
X184011890Y-108626000D01*
X183970409Y-108621915D01*
X183936431Y-108611607D01*
X183905110Y-108594866D01*
X183877661Y-108572339D01*
X183855134Y-108544890D01*
X183838393Y-108513569D01*
X183828085Y-108479591D01*
X183824000Y-108438110D01*
X183824000Y-107761890D01*
X183828085Y-107720409D01*
X183838393Y-107686431D01*
X183855134Y-107655110D01*
X183877661Y-107627661D01*
X183905110Y-107605134D01*
X183936431Y-107588393D01*
X183970409Y-107578085D01*
X184011890Y-107574000D01*
X184613110Y-107574000D01*
X184654591Y-107578085D01*
G37*
G36*
X186229591Y-107578085D02*
G01*
X186263569Y-107588393D01*
X186294890Y-107605134D01*
X186322339Y-107627661D01*
X186344866Y-107655110D01*
X186361607Y-107686431D01*
X186371915Y-107720409D01*
X186376000Y-107761890D01*
X186376000Y-108438110D01*
X186371915Y-108479591D01*
X186361607Y-108513569D01*
X186344866Y-108544890D01*
X186322339Y-108572339D01*
X186294890Y-108594866D01*
X186263569Y-108611607D01*
X186229591Y-108621915D01*
X186188110Y-108626000D01*
X185586890Y-108626000D01*
X185545409Y-108621915D01*
X185511431Y-108611607D01*
X185480110Y-108594866D01*
X185452661Y-108572339D01*
X185430134Y-108544890D01*
X185413393Y-108513569D01*
X185403085Y-108479591D01*
X185399000Y-108438110D01*
X185399000Y-107761890D01*
X185403085Y-107720409D01*
X185413393Y-107686431D01*
X185430134Y-107655110D01*
X185452661Y-107627661D01*
X185480110Y-107605134D01*
X185511431Y-107588393D01*
X185545409Y-107578085D01*
X185586890Y-107574000D01*
X186188110Y-107574000D01*
X186229591Y-107578085D01*
G37*
G36*
X164001000Y-108446000D02*
G01*
X160899000Y-108446000D01*
X160899000Y-107444000D01*
X164001000Y-107444000D01*
X164001000Y-108446000D01*
G37*
G36*
X150301000Y-108446000D02*
G01*
X147199000Y-108446000D01*
X147199000Y-107444000D01*
X150301000Y-107444000D01*
X150301000Y-108446000D01*
G37*
G36*
X169101000Y-108351000D02*
G01*
X165299000Y-108351000D01*
X165299000Y-107449000D01*
X169101000Y-107449000D01*
X169101000Y-108351000D01*
G37*
G36*
X150301000Y-107176000D02*
G01*
X147199000Y-107176000D01*
X147199000Y-106174000D01*
X150301000Y-106174000D01*
X150301000Y-107176000D01*
G37*
G36*
X164001000Y-107176000D02*
G01*
X160899000Y-107176000D01*
X160899000Y-106174000D01*
X164001000Y-106174000D01*
X164001000Y-107176000D01*
G37*
G36*
X180001000Y-106701000D02*
G01*
X177399000Y-106701000D01*
X177399000Y-104099000D01*
X180001000Y-104099000D01*
X180001000Y-106701000D01*
G37*
G36*
X173001000Y-106701000D02*
G01*
X170399000Y-106701000D01*
X170399000Y-104099000D01*
X173001000Y-104099000D01*
X173001000Y-106701000D01*
G37*
G36*
X188980001Y-106398699D02*
G01*
X186973001Y-106398699D01*
X186973001Y-105001299D01*
X188980001Y-105001299D01*
X188980001Y-106398699D01*
G37*
G36*
X169101000Y-106151000D02*
G01*
X165299000Y-106151000D01*
X165299000Y-105249000D01*
X169101000Y-105249000D01*
X169101000Y-106151000D01*
G37*
G36*
X164001000Y-105906000D02*
G01*
X160899000Y-105906000D01*
X160899000Y-104904000D01*
X164001000Y-104904000D01*
X164001000Y-105906000D01*
G37*
G36*
X150301000Y-105906000D02*
G01*
X147199000Y-105906000D01*
X147199000Y-104904000D01*
X150301000Y-104904000D01*
X150301000Y-105906000D01*
G37*
G36*
X184927200Y-104781200D02*
G01*
X183275800Y-104781200D01*
X183275800Y-101018800D01*
X184927200Y-101018800D01*
X184927200Y-104781200D01*
G37*
G36*
X164001000Y-104636000D02*
G01*
X160899000Y-104636000D01*
X160899000Y-103634000D01*
X164001000Y-103634000D01*
X164001000Y-104636000D01*
G37*
G36*
X150301000Y-104636000D02*
G01*
X147199000Y-104636000D01*
X147199000Y-103634000D01*
X150301000Y-103634000D01*
X150301000Y-104636000D01*
G37*
G36*
X145359408Y-103214501D02*
G01*
X145458863Y-103255697D01*
X145458865Y-103255698D01*
X145503923Y-103285805D01*
X145548372Y-103315505D01*
X145624495Y-103391628D01*
X145684303Y-103481137D01*
X145725499Y-103580592D01*
X145746500Y-103686173D01*
X145746500Y-103793827D01*
X145725499Y-103899408D01*
X145684303Y-103998863D01*
X145684302Y-103998865D01*
X145624494Y-104088373D01*
X145548373Y-104164494D01*
X145458865Y-104224302D01*
X145458864Y-104224303D01*
X145458863Y-104224303D01*
X145359408Y-104265499D01*
X145253827Y-104286500D01*
X145146173Y-104286500D01*
X145040592Y-104265499D01*
X144941137Y-104224303D01*
X144941136Y-104224303D01*
X144941135Y-104224302D01*
X144851627Y-104164494D01*
X144775506Y-104088373D01*
X144715698Y-103998865D01*
X144715697Y-103998863D01*
X144674501Y-103899408D01*
X144653500Y-103793827D01*
X144653500Y-103686173D01*
X144674501Y-103580592D01*
X144715697Y-103481137D01*
X144775505Y-103391628D01*
X144851628Y-103315505D01*
X144896077Y-103285805D01*
X144941135Y-103255698D01*
X144941137Y-103255697D01*
X145040592Y-103214501D01*
X145146173Y-103193500D01*
X145253827Y-103193500D01*
X145359408Y-103214501D01*
G37*
G36*
X165479591Y-102703085D02*
G01*
X165513569Y-102713393D01*
X165544890Y-102730134D01*
X165572339Y-102752661D01*
X165594866Y-102780110D01*
X165611607Y-102811431D01*
X165621915Y-102845409D01*
X165626000Y-102886890D01*
X165626000Y-103488110D01*
X165621915Y-103529591D01*
X165611607Y-103563569D01*
X165594866Y-103594890D01*
X165572339Y-103622339D01*
X165544890Y-103644866D01*
X165513569Y-103661607D01*
X165479591Y-103671915D01*
X165438110Y-103676000D01*
X164761890Y-103676000D01*
X164720409Y-103671915D01*
X164686431Y-103661607D01*
X164655110Y-103644866D01*
X164627661Y-103622339D01*
X164605134Y-103594890D01*
X164588393Y-103563569D01*
X164578085Y-103529591D01*
X164574000Y-103488110D01*
X164574000Y-102886890D01*
X164578085Y-102845409D01*
X164588393Y-102811431D01*
X164605134Y-102780110D01*
X164627661Y-102752661D01*
X164655110Y-102730134D01*
X164686431Y-102713393D01*
X164720409Y-102703085D01*
X164761890Y-102699000D01*
X165438110Y-102699000D01*
X165479591Y-102703085D01*
G37*
G36*
X168479591Y-102703085D02*
G01*
X168513569Y-102713393D01*
X168544890Y-102730134D01*
X168572339Y-102752661D01*
X168594866Y-102780110D01*
X168611607Y-102811431D01*
X168621915Y-102845409D01*
X168626000Y-102886890D01*
X168626000Y-103488110D01*
X168621915Y-103529591D01*
X168611607Y-103563569D01*
X168594866Y-103594890D01*
X168572339Y-103622339D01*
X168544890Y-103644866D01*
X168513569Y-103661607D01*
X168479591Y-103671915D01*
X168438110Y-103676000D01*
X167761890Y-103676000D01*
X167720409Y-103671915D01*
X167686431Y-103661607D01*
X167655110Y-103644866D01*
X167627661Y-103622339D01*
X167605134Y-103594890D01*
X167588393Y-103563569D01*
X167578085Y-103529591D01*
X167574000Y-103488110D01*
X167574000Y-102886890D01*
X167578085Y-102845409D01*
X167588393Y-102811431D01*
X167605134Y-102780110D01*
X167627661Y-102752661D01*
X167655110Y-102730134D01*
X167686431Y-102713393D01*
X167720409Y-102703085D01*
X167761890Y-102699000D01*
X168438110Y-102699000D01*
X168479591Y-102703085D01*
G37*
G36*
X166979591Y-102703085D02*
G01*
X167013569Y-102713393D01*
X167044890Y-102730134D01*
X167072339Y-102752661D01*
X167094866Y-102780110D01*
X167111607Y-102811431D01*
X167121915Y-102845409D01*
X167126000Y-102886890D01*
X167126000Y-103488110D01*
X167121915Y-103529591D01*
X167111607Y-103563569D01*
X167094866Y-103594890D01*
X167072339Y-103622339D01*
X167044890Y-103644866D01*
X167013569Y-103661607D01*
X166979591Y-103671915D01*
X166938110Y-103676000D01*
X166261890Y-103676000D01*
X166220409Y-103671915D01*
X166186431Y-103661607D01*
X166155110Y-103644866D01*
X166127661Y-103622339D01*
X166105134Y-103594890D01*
X166088393Y-103563569D01*
X166078085Y-103529591D01*
X166074000Y-103488110D01*
X166074000Y-102886890D01*
X166078085Y-102845409D01*
X166088393Y-102811431D01*
X166105134Y-102780110D01*
X166127661Y-102752661D01*
X166155110Y-102730134D01*
X166186431Y-102713393D01*
X166220409Y-102703085D01*
X166261890Y-102699000D01*
X166938110Y-102699000D01*
X166979591Y-102703085D01*
G37*
G36*
X169979591Y-102703085D02*
G01*
X170013569Y-102713393D01*
X170044890Y-102730134D01*
X170072339Y-102752661D01*
X170094866Y-102780110D01*
X170111607Y-102811431D01*
X170121915Y-102845409D01*
X170126000Y-102886890D01*
X170126000Y-103488110D01*
X170121915Y-103529591D01*
X170111607Y-103563569D01*
X170094866Y-103594890D01*
X170072339Y-103622339D01*
X170044890Y-103644866D01*
X170013569Y-103661607D01*
X169979591Y-103671915D01*
X169938110Y-103676000D01*
X169261890Y-103676000D01*
X169220409Y-103671915D01*
X169186431Y-103661607D01*
X169155110Y-103644866D01*
X169127661Y-103622339D01*
X169105134Y-103594890D01*
X169088393Y-103563569D01*
X169078085Y-103529591D01*
X169074000Y-103488110D01*
X169074000Y-102886890D01*
X169078085Y-102845409D01*
X169088393Y-102811431D01*
X169105134Y-102780110D01*
X169127661Y-102752661D01*
X169155110Y-102730134D01*
X169186431Y-102713393D01*
X169220409Y-102703085D01*
X169261890Y-102699000D01*
X169938110Y-102699000D01*
X169979591Y-102703085D01*
G37*
G36*
X164001000Y-103366000D02*
G01*
X160899000Y-103366000D01*
X160899000Y-102364000D01*
X164001000Y-102364000D01*
X164001000Y-103366000D01*
G37*
G36*
X150301000Y-103366000D02*
G01*
X147199000Y-103366000D01*
X147199000Y-102364000D01*
X150301000Y-102364000D01*
X150301000Y-103366000D01*
G37*
G36*
X165479591Y-101128085D02*
G01*
X165513569Y-101138393D01*
X165544890Y-101155134D01*
X165572339Y-101177661D01*
X165594866Y-101205110D01*
X165611607Y-101236431D01*
X165621915Y-101270409D01*
X165626000Y-101311890D01*
X165626000Y-101913110D01*
X165621915Y-101954591D01*
X165611607Y-101988569D01*
X165594866Y-102019890D01*
X165572339Y-102047339D01*
X165544890Y-102069866D01*
X165513569Y-102086607D01*
X165479591Y-102096915D01*
X165438110Y-102101000D01*
X164761890Y-102101000D01*
X164720409Y-102096915D01*
X164686431Y-102086607D01*
X164655110Y-102069866D01*
X164627661Y-102047339D01*
X164605134Y-102019890D01*
X164588393Y-101988569D01*
X164578085Y-101954591D01*
X164574000Y-101913110D01*
X164574000Y-101311890D01*
X164578085Y-101270409D01*
X164588393Y-101236431D01*
X164605134Y-101205110D01*
X164627661Y-101177661D01*
X164655110Y-101155134D01*
X164686431Y-101138393D01*
X164720409Y-101128085D01*
X164761890Y-101124000D01*
X165438110Y-101124000D01*
X165479591Y-101128085D01*
G37*
G36*
X166979591Y-101128085D02*
G01*
X167013569Y-101138393D01*
X167044890Y-101155134D01*
X167072339Y-101177661D01*
X167094866Y-101205110D01*
X167111607Y-101236431D01*
X167121915Y-101270409D01*
X167126000Y-101311890D01*
X167126000Y-101913110D01*
X167121915Y-101954591D01*
X167111607Y-101988569D01*
X167094866Y-102019890D01*
X167072339Y-102047339D01*
X167044890Y-102069866D01*
X167013569Y-102086607D01*
X166979591Y-102096915D01*
X166938110Y-102101000D01*
X166261890Y-102101000D01*
X166220409Y-102096915D01*
X166186431Y-102086607D01*
X166155110Y-102069866D01*
X166127661Y-102047339D01*
X166105134Y-102019890D01*
X166088393Y-101988569D01*
X166078085Y-101954591D01*
X166074000Y-101913110D01*
X166074000Y-101311890D01*
X166078085Y-101270409D01*
X166088393Y-101236431D01*
X166105134Y-101205110D01*
X166127661Y-101177661D01*
X166155110Y-101155134D01*
X166186431Y-101138393D01*
X166220409Y-101128085D01*
X166261890Y-101124000D01*
X166938110Y-101124000D01*
X166979591Y-101128085D01*
G37*
G36*
X168479591Y-101128085D02*
G01*
X168513569Y-101138393D01*
X168544890Y-101155134D01*
X168572339Y-101177661D01*
X168594866Y-101205110D01*
X168611607Y-101236431D01*
X168621915Y-101270409D01*
X168626000Y-101311890D01*
X168626000Y-101913110D01*
X168621915Y-101954591D01*
X168611607Y-101988569D01*
X168594866Y-102019890D01*
X168572339Y-102047339D01*
X168544890Y-102069866D01*
X168513569Y-102086607D01*
X168479591Y-102096915D01*
X168438110Y-102101000D01*
X167761890Y-102101000D01*
X167720409Y-102096915D01*
X167686431Y-102086607D01*
X167655110Y-102069866D01*
X167627661Y-102047339D01*
X167605134Y-102019890D01*
X167588393Y-101988569D01*
X167578085Y-101954591D01*
X167574000Y-101913110D01*
X167574000Y-101311890D01*
X167578085Y-101270409D01*
X167588393Y-101236431D01*
X167605134Y-101205110D01*
X167627661Y-101177661D01*
X167655110Y-101155134D01*
X167686431Y-101138393D01*
X167720409Y-101128085D01*
X167761890Y-101124000D01*
X168438110Y-101124000D01*
X168479591Y-101128085D01*
G37*
G36*
X169979591Y-101128085D02*
G01*
X170013569Y-101138393D01*
X170044890Y-101155134D01*
X170072339Y-101177661D01*
X170094866Y-101205110D01*
X170111607Y-101236431D01*
X170121915Y-101270409D01*
X170126000Y-101311890D01*
X170126000Y-101913110D01*
X170121915Y-101954591D01*
X170111607Y-101988569D01*
X170094866Y-102019890D01*
X170072339Y-102047339D01*
X170044890Y-102069866D01*
X170013569Y-102086607D01*
X169979591Y-102096915D01*
X169938110Y-102101000D01*
X169261890Y-102101000D01*
X169220409Y-102096915D01*
X169186431Y-102086607D01*
X169155110Y-102069866D01*
X169127661Y-102047339D01*
X169105134Y-102019890D01*
X169088393Y-101988569D01*
X169078085Y-101954591D01*
X169074000Y-101913110D01*
X169074000Y-101311890D01*
X169078085Y-101270409D01*
X169088393Y-101236431D01*
X169105134Y-101205110D01*
X169127661Y-101177661D01*
X169155110Y-101155134D01*
X169186431Y-101138393D01*
X169220409Y-101128085D01*
X169261890Y-101124000D01*
X169938110Y-101124000D01*
X169979591Y-101128085D01*
G37*
G36*
X150301000Y-102096000D02*
G01*
X147199000Y-102096000D01*
X147199000Y-101094000D01*
X150301000Y-101094000D01*
X150301000Y-102096000D01*
G37*
G36*
X164001000Y-102096000D02*
G01*
X160899000Y-102096000D01*
X160899000Y-101094000D01*
X164001000Y-101094000D01*
X164001000Y-102096000D01*
G37*
G36*
X182251000Y-101451000D02*
G01*
X180949000Y-101451000D01*
X180949000Y-100449000D01*
X182251000Y-100449000D01*
X182251000Y-101451000D01*
G37*
G36*
X158641000Y-100976000D02*
G01*
X157639000Y-100976000D01*
X157639000Y-97874000D01*
X158641000Y-97874000D01*
X158641000Y-100976000D01*
G37*
G36*
X154831000Y-100976000D02*
G01*
X153829000Y-100976000D01*
X153829000Y-97874000D01*
X154831000Y-97874000D01*
X154831000Y-100976000D01*
G37*
G36*
X156101000Y-100976000D02*
G01*
X155099000Y-100976000D01*
X155099000Y-97874000D01*
X156101000Y-97874000D01*
X156101000Y-100976000D01*
G37*
G36*
X157371000Y-100976000D02*
G01*
X156369000Y-100976000D01*
X156369000Y-97874000D01*
X157371000Y-97874000D01*
X157371000Y-100976000D01*
G37*
G36*
X153561000Y-100976000D02*
G01*
X152559000Y-100976000D01*
X152559000Y-97874000D01*
X153561000Y-97874000D01*
X153561000Y-100976000D01*
G37*
G36*
X150301000Y-100826000D02*
G01*
X147199000Y-100826000D01*
X147199000Y-99824000D01*
X150301000Y-99824000D01*
X150301000Y-100826000D01*
G37*
G36*
X164001000Y-100826000D02*
G01*
X160899000Y-100826000D01*
X160899000Y-99824000D01*
X164001000Y-99824000D01*
X164001000Y-100826000D01*
G37*
G36*
X188980001Y-100798701D02*
G01*
X186973001Y-100798701D01*
X186973001Y-99401301D01*
X188980001Y-99401301D01*
X188980001Y-100798701D01*
G37*
G36*
X167970000Y-100220000D02*
G01*
X166530000Y-100220000D01*
X166530000Y-99480000D01*
X167970000Y-99480000D01*
X167970000Y-100220000D01*
G37*
G36*
X166079591Y-98803085D02*
G01*
X166113569Y-98813393D01*
X166144890Y-98830134D01*
X166172339Y-98852661D01*
X166194866Y-98880110D01*
X166211607Y-98911431D01*
X166221915Y-98945409D01*
X166226000Y-98986890D01*
X166226000Y-99588110D01*
X166221915Y-99629591D01*
X166211607Y-99663569D01*
X166194866Y-99694890D01*
X166172339Y-99722339D01*
X166144890Y-99744866D01*
X166113569Y-99761607D01*
X166079591Y-99771915D01*
X166038110Y-99776000D01*
X165361890Y-99776000D01*
X165320409Y-99771915D01*
X165286431Y-99761607D01*
X165255110Y-99744866D01*
X165227661Y-99722339D01*
X165205134Y-99694890D01*
X165188393Y-99663569D01*
X165178085Y-99629591D01*
X165174000Y-99588110D01*
X165174000Y-98986890D01*
X165178085Y-98945409D01*
X165188393Y-98911431D01*
X165205134Y-98880110D01*
X165227661Y-98852661D01*
X165255110Y-98830134D01*
X165286431Y-98813393D01*
X165320409Y-98803085D01*
X165361890Y-98799000D01*
X166038110Y-98799000D01*
X166079591Y-98803085D01*
G37*
G36*
X173001000Y-99701000D02*
G01*
X170399000Y-99701000D01*
X170399000Y-97099000D01*
X173001000Y-97099000D01*
X173001000Y-99701000D01*
G37*
G36*
X180001000Y-99701000D02*
G01*
X177399000Y-99701000D01*
X177399000Y-97099000D01*
X180001000Y-97099000D01*
X180001000Y-99701000D01*
G37*
G36*
X170070000Y-99270000D02*
G01*
X168630000Y-99270000D01*
X168630000Y-98530000D01*
X170070000Y-98530000D01*
X170070000Y-99270000D01*
G37*
G36*
X146375408Y-98134501D02*
G01*
X146474863Y-98175697D01*
X146474865Y-98175698D01*
X146484907Y-98182408D01*
X146564372Y-98235505D01*
X146640495Y-98311628D01*
X146700303Y-98401137D01*
X146741499Y-98500592D01*
X146762500Y-98606173D01*
X146762500Y-98713827D01*
X146741499Y-98819408D01*
X146700303Y-98918863D01*
X146649030Y-98995599D01*
X146640494Y-99008373D01*
X146564373Y-99084494D01*
X146474865Y-99144302D01*
X146474864Y-99144303D01*
X146474863Y-99144303D01*
X146375408Y-99185499D01*
X146269827Y-99206500D01*
X146162173Y-99206500D01*
X146056592Y-99185499D01*
X145957137Y-99144303D01*
X145957136Y-99144303D01*
X145957135Y-99144302D01*
X145867627Y-99084494D01*
X145791506Y-99008373D01*
X145782971Y-98995599D01*
X145731697Y-98918863D01*
X145690501Y-98819408D01*
X145669500Y-98713827D01*
X145669500Y-98606173D01*
X145690501Y-98500592D01*
X145731697Y-98401137D01*
X145791505Y-98311628D01*
X145867628Y-98235505D01*
X145947093Y-98182408D01*
X145957135Y-98175698D01*
X145957137Y-98175697D01*
X146056592Y-98134501D01*
X146162173Y-98113500D01*
X146269827Y-98113500D01*
X146375408Y-98134501D01*
G37*
G36*
X144343408Y-98134501D02*
G01*
X144442863Y-98175697D01*
X144442865Y-98175698D01*
X144452907Y-98182408D01*
X144532372Y-98235505D01*
X144608495Y-98311628D01*
X144668303Y-98401137D01*
X144709499Y-98500592D01*
X144730500Y-98606173D01*
X144730500Y-98713827D01*
X144709499Y-98819408D01*
X144668303Y-98918863D01*
X144617030Y-98995599D01*
X144608494Y-99008373D01*
X144532373Y-99084494D01*
X144442865Y-99144302D01*
X144442864Y-99144303D01*
X144442863Y-99144303D01*
X144343408Y-99185499D01*
X144237827Y-99206500D01*
X144130173Y-99206500D01*
X144024592Y-99185499D01*
X143925137Y-99144303D01*
X143925136Y-99144303D01*
X143925135Y-99144302D01*
X143835627Y-99084494D01*
X143759506Y-99008373D01*
X143750971Y-98995599D01*
X143699697Y-98918863D01*
X143658501Y-98819408D01*
X143637500Y-98713827D01*
X143637500Y-98606173D01*
X143658501Y-98500592D01*
X143699697Y-98401137D01*
X143759505Y-98311628D01*
X143835628Y-98235505D01*
X143915093Y-98182408D01*
X143925135Y-98175698D01*
X143925137Y-98175697D01*
X144024592Y-98134501D01*
X144130173Y-98113500D01*
X144237827Y-98113500D01*
X144343408Y-98134501D01*
G37*
G36*
X167970000Y-98320000D02*
G01*
X166530000Y-98320000D01*
X166530000Y-97580000D01*
X167970000Y-97580000D01*
X167970000Y-98320000D01*
G37*
G36*
X166079591Y-97228085D02*
G01*
X166113569Y-97238393D01*
X166144890Y-97255134D01*
X166172339Y-97277661D01*
X166194866Y-97305110D01*
X166211607Y-97336431D01*
X166221915Y-97370409D01*
X166226000Y-97411890D01*
X166226000Y-98013110D01*
X166221915Y-98054591D01*
X166211607Y-98088569D01*
X166194866Y-98119890D01*
X166172339Y-98147339D01*
X166144890Y-98169866D01*
X166113569Y-98186607D01*
X166079591Y-98196915D01*
X166038110Y-98201000D01*
X165361890Y-98201000D01*
X165320409Y-98196915D01*
X165286431Y-98186607D01*
X165255110Y-98169866D01*
X165227661Y-98147339D01*
X165205134Y-98119890D01*
X165188393Y-98088569D01*
X165178085Y-98054591D01*
X165174000Y-98013110D01*
X165174000Y-97411890D01*
X165178085Y-97370409D01*
X165188393Y-97336431D01*
X165205134Y-97305110D01*
X165227661Y-97277661D01*
X165255110Y-97255134D01*
X165286431Y-97238393D01*
X165320409Y-97228085D01*
X165361890Y-97224000D01*
X166038110Y-97224000D01*
X166079591Y-97228085D01*
G37*
G36*
X182251000Y-98151000D02*
G01*
X180949000Y-98151000D01*
X180949000Y-97149000D01*
X182251000Y-97149000D01*
X182251000Y-98151000D01*
G37*
M02*
