G04 #@! TF.GenerationSoftware,KiCad,Pcbnew,(5.1.5)-3*
G04 #@! TF.CreationDate,2021-08-13T16:15:14-07:00*
G04 #@! TF.ProjectId,Xenigotchi-v1.5,58656e69-676f-4746-9368-692d76312e35,rev?*
G04 #@! TF.SameCoordinates,Original*
G04 #@! TF.FileFunction,Paste,Bot*
G04 #@! TF.FilePolarity,Positive*
%FSLAX46Y46*%
G04 Gerber Fmt 4.6, Leading zero omitted, Abs format (unit mm)*
G04 Created by KiCad (PCBNEW (5.1.5)-3) date 2021-08-13 16:15:14*
%MOMM*%
%LPD*%
G04 APERTURE LIST*
%ADD10C,0.010000*%
%ADD11R,1.295400X1.905000*%
%ADD12R,0.660400X1.549400*%
%ADD13C,0.100000*%
%ADD14R,0.440000X0.940000*%
G04 APERTURE END LIST*
D10*
G36*
X152150000Y-108275610D02*
G01*
X152150000Y-106125000D01*
X149449230Y-106125000D01*
X149449230Y-108275610D01*
X152150000Y-108275610D01*
G37*
X152150000Y-108275610D02*
X152150000Y-106125000D01*
X149449230Y-106125000D01*
X149449230Y-108275610D01*
X152150000Y-108275610D01*
D11*
X178399999Y-109876501D03*
X172800001Y-109876501D03*
D12*
X174100000Y-106001500D03*
X175100001Y-106001500D03*
X176099999Y-106001500D03*
X177100000Y-106001500D03*
D11*
X169499999Y-109876501D03*
X163900001Y-109876501D03*
D12*
X165200000Y-106001500D03*
X166200001Y-106001500D03*
X167199999Y-106001500D03*
X168200000Y-106001500D03*
D13*
G36*
X157427691Y-108626053D02*
G01*
X157448926Y-108629203D01*
X157469750Y-108634419D01*
X157489962Y-108641651D01*
X157509368Y-108650830D01*
X157527781Y-108661866D01*
X157545024Y-108674654D01*
X157560930Y-108689070D01*
X157575346Y-108704976D01*
X157588134Y-108722219D01*
X157599170Y-108740632D01*
X157608349Y-108760038D01*
X157615581Y-108780250D01*
X157620797Y-108801074D01*
X157623947Y-108822309D01*
X157625000Y-108843750D01*
X157625000Y-109356250D01*
X157623947Y-109377691D01*
X157620797Y-109398926D01*
X157615581Y-109419750D01*
X157608349Y-109439962D01*
X157599170Y-109459368D01*
X157588134Y-109477781D01*
X157575346Y-109495024D01*
X157560930Y-109510930D01*
X157545024Y-109525346D01*
X157527781Y-109538134D01*
X157509368Y-109549170D01*
X157489962Y-109558349D01*
X157469750Y-109565581D01*
X157448926Y-109570797D01*
X157427691Y-109573947D01*
X157406250Y-109575000D01*
X156968750Y-109575000D01*
X156947309Y-109573947D01*
X156926074Y-109570797D01*
X156905250Y-109565581D01*
X156885038Y-109558349D01*
X156865632Y-109549170D01*
X156847219Y-109538134D01*
X156829976Y-109525346D01*
X156814070Y-109510930D01*
X156799654Y-109495024D01*
X156786866Y-109477781D01*
X156775830Y-109459368D01*
X156766651Y-109439962D01*
X156759419Y-109419750D01*
X156754203Y-109398926D01*
X156751053Y-109377691D01*
X156750000Y-109356250D01*
X156750000Y-108843750D01*
X156751053Y-108822309D01*
X156754203Y-108801074D01*
X156759419Y-108780250D01*
X156766651Y-108760038D01*
X156775830Y-108740632D01*
X156786866Y-108722219D01*
X156799654Y-108704976D01*
X156814070Y-108689070D01*
X156829976Y-108674654D01*
X156847219Y-108661866D01*
X156865632Y-108650830D01*
X156885038Y-108641651D01*
X156905250Y-108634419D01*
X156926074Y-108629203D01*
X156947309Y-108626053D01*
X156968750Y-108625000D01*
X157406250Y-108625000D01*
X157427691Y-108626053D01*
G37*
G36*
X155852691Y-108626053D02*
G01*
X155873926Y-108629203D01*
X155894750Y-108634419D01*
X155914962Y-108641651D01*
X155934368Y-108650830D01*
X155952781Y-108661866D01*
X155970024Y-108674654D01*
X155985930Y-108689070D01*
X156000346Y-108704976D01*
X156013134Y-108722219D01*
X156024170Y-108740632D01*
X156033349Y-108760038D01*
X156040581Y-108780250D01*
X156045797Y-108801074D01*
X156048947Y-108822309D01*
X156050000Y-108843750D01*
X156050000Y-109356250D01*
X156048947Y-109377691D01*
X156045797Y-109398926D01*
X156040581Y-109419750D01*
X156033349Y-109439962D01*
X156024170Y-109459368D01*
X156013134Y-109477781D01*
X156000346Y-109495024D01*
X155985930Y-109510930D01*
X155970024Y-109525346D01*
X155952781Y-109538134D01*
X155934368Y-109549170D01*
X155914962Y-109558349D01*
X155894750Y-109565581D01*
X155873926Y-109570797D01*
X155852691Y-109573947D01*
X155831250Y-109575000D01*
X155393750Y-109575000D01*
X155372309Y-109573947D01*
X155351074Y-109570797D01*
X155330250Y-109565581D01*
X155310038Y-109558349D01*
X155290632Y-109549170D01*
X155272219Y-109538134D01*
X155254976Y-109525346D01*
X155239070Y-109510930D01*
X155224654Y-109495024D01*
X155211866Y-109477781D01*
X155200830Y-109459368D01*
X155191651Y-109439962D01*
X155184419Y-109419750D01*
X155179203Y-109398926D01*
X155176053Y-109377691D01*
X155175000Y-109356250D01*
X155175000Y-108843750D01*
X155176053Y-108822309D01*
X155179203Y-108801074D01*
X155184419Y-108780250D01*
X155191651Y-108760038D01*
X155200830Y-108740632D01*
X155211866Y-108722219D01*
X155224654Y-108704976D01*
X155239070Y-108689070D01*
X155254976Y-108674654D01*
X155272219Y-108661866D01*
X155290632Y-108650830D01*
X155310038Y-108641651D01*
X155330250Y-108634419D01*
X155351074Y-108629203D01*
X155372309Y-108626053D01*
X155393750Y-108625000D01*
X155831250Y-108625000D01*
X155852691Y-108626053D01*
G37*
D14*
X151435000Y-111095000D03*
X150165000Y-111095000D03*
X148895000Y-111095000D03*
X152705000Y-111095000D03*
X151435000Y-103305000D03*
X150165000Y-103305000D03*
X148895000Y-103305000D03*
X152705000Y-103305000D03*
M02*
