G04 #@! TF.GenerationSoftware,KiCad,Pcbnew,(5.1.5)-3*
G04 #@! TF.CreationDate,2021-08-13T16:15:14-07:00*
G04 #@! TF.ProjectId,Xenigotchi-v1.5,58656e69-676f-4746-9368-692d76312e35,rev?*
G04 #@! TF.SameCoordinates,Original*
G04 #@! TF.FileFunction,Soldermask,Bot*
G04 #@! TF.FilePolarity,Negative*
%FSLAX46Y46*%
G04 Gerber Fmt 4.6, Leading zero omitted, Abs format (unit mm)*
G04 Created by KiCad (PCBNEW (5.1.5)-3) date 2021-08-13 16:15:14*
%MOMM*%
%LPD*%
G04 APERTURE LIST*
%ADD10C,0.100000*%
G04 APERTURE END LIST*
D10*
G36*
X179201055Y-117490171D02*
G01*
X179320257Y-117539546D01*
X179320259Y-117539547D01*
X179427538Y-117611228D01*
X179518772Y-117702462D01*
X179590453Y-117809741D01*
X179590454Y-117809743D01*
X179639829Y-117928945D01*
X179665000Y-118055487D01*
X179665000Y-118184513D01*
X179639829Y-118311055D01*
X179590454Y-118430257D01*
X179590453Y-118430259D01*
X179518772Y-118537538D01*
X179427538Y-118628772D01*
X179320259Y-118700453D01*
X179320258Y-118700454D01*
X179320257Y-118700454D01*
X179201055Y-118749829D01*
X179074513Y-118775000D01*
X178945487Y-118775000D01*
X178818945Y-118749829D01*
X178699743Y-118700454D01*
X178699742Y-118700454D01*
X178699741Y-118700453D01*
X178592462Y-118628772D01*
X178501228Y-118537538D01*
X178429547Y-118430259D01*
X178429546Y-118430257D01*
X178380171Y-118311055D01*
X178355000Y-118184513D01*
X178355000Y-118055487D01*
X178380171Y-117928945D01*
X178429546Y-117809743D01*
X178429547Y-117809741D01*
X178501228Y-117702462D01*
X178592462Y-117611228D01*
X178699741Y-117539547D01*
X178699743Y-117539546D01*
X178818945Y-117490171D01*
X178945487Y-117465000D01*
X179074513Y-117465000D01*
X179201055Y-117490171D01*
G37*
G36*
X181665000Y-118775000D02*
G01*
X180355000Y-118775000D01*
X180355000Y-117465000D01*
X181665000Y-117465000D01*
X181665000Y-118775000D01*
G37*
G36*
X169201055Y-117490171D02*
G01*
X169320257Y-117539546D01*
X169320259Y-117539547D01*
X169427538Y-117611228D01*
X169518772Y-117702462D01*
X169590453Y-117809741D01*
X169590454Y-117809743D01*
X169639829Y-117928945D01*
X169665000Y-118055487D01*
X169665000Y-118184513D01*
X169639829Y-118311055D01*
X169590454Y-118430257D01*
X169590453Y-118430259D01*
X169518772Y-118537538D01*
X169427538Y-118628772D01*
X169320259Y-118700453D01*
X169320258Y-118700454D01*
X169320257Y-118700454D01*
X169201055Y-118749829D01*
X169074513Y-118775000D01*
X168945487Y-118775000D01*
X168818945Y-118749829D01*
X168699743Y-118700454D01*
X168699742Y-118700454D01*
X168699741Y-118700453D01*
X168592462Y-118628772D01*
X168501228Y-118537538D01*
X168429547Y-118430259D01*
X168429546Y-118430257D01*
X168380171Y-118311055D01*
X168355000Y-118184513D01*
X168355000Y-118055487D01*
X168380171Y-117928945D01*
X168429546Y-117809743D01*
X168429547Y-117809741D01*
X168501228Y-117702462D01*
X168592462Y-117611228D01*
X168699741Y-117539547D01*
X168699743Y-117539546D01*
X168818945Y-117490171D01*
X168945487Y-117465000D01*
X169074513Y-117465000D01*
X169201055Y-117490171D01*
G37*
G36*
X171201055Y-117490171D02*
G01*
X171320257Y-117539546D01*
X171320259Y-117539547D01*
X171427538Y-117611228D01*
X171518772Y-117702462D01*
X171590453Y-117809741D01*
X171590454Y-117809743D01*
X171639829Y-117928945D01*
X171665000Y-118055487D01*
X171665000Y-118184513D01*
X171639829Y-118311055D01*
X171590454Y-118430257D01*
X171590453Y-118430259D01*
X171518772Y-118537538D01*
X171427538Y-118628772D01*
X171320259Y-118700453D01*
X171320258Y-118700454D01*
X171320257Y-118700454D01*
X171201055Y-118749829D01*
X171074513Y-118775000D01*
X170945487Y-118775000D01*
X170818945Y-118749829D01*
X170699743Y-118700454D01*
X170699742Y-118700454D01*
X170699741Y-118700453D01*
X170592462Y-118628772D01*
X170501228Y-118537538D01*
X170429547Y-118430259D01*
X170429546Y-118430257D01*
X170380171Y-118311055D01*
X170355000Y-118184513D01*
X170355000Y-118055487D01*
X170380171Y-117928945D01*
X170429546Y-117809743D01*
X170429547Y-117809741D01*
X170501228Y-117702462D01*
X170592462Y-117611228D01*
X170699741Y-117539547D01*
X170699743Y-117539546D01*
X170818945Y-117490171D01*
X170945487Y-117465000D01*
X171074513Y-117465000D01*
X171201055Y-117490171D01*
G37*
G36*
X173201055Y-117490171D02*
G01*
X173320257Y-117539546D01*
X173320259Y-117539547D01*
X173427538Y-117611228D01*
X173518772Y-117702462D01*
X173590453Y-117809741D01*
X173590454Y-117809743D01*
X173639829Y-117928945D01*
X173665000Y-118055487D01*
X173665000Y-118184513D01*
X173639829Y-118311055D01*
X173590454Y-118430257D01*
X173590453Y-118430259D01*
X173518772Y-118537538D01*
X173427538Y-118628772D01*
X173320259Y-118700453D01*
X173320258Y-118700454D01*
X173320257Y-118700454D01*
X173201055Y-118749829D01*
X173074513Y-118775000D01*
X172945487Y-118775000D01*
X172818945Y-118749829D01*
X172699743Y-118700454D01*
X172699742Y-118700454D01*
X172699741Y-118700453D01*
X172592462Y-118628772D01*
X172501228Y-118537538D01*
X172429547Y-118430259D01*
X172429546Y-118430257D01*
X172380171Y-118311055D01*
X172355000Y-118184513D01*
X172355000Y-118055487D01*
X172380171Y-117928945D01*
X172429546Y-117809743D01*
X172429547Y-117809741D01*
X172501228Y-117702462D01*
X172592462Y-117611228D01*
X172699741Y-117539547D01*
X172699743Y-117539546D01*
X172818945Y-117490171D01*
X172945487Y-117465000D01*
X173074513Y-117465000D01*
X173201055Y-117490171D01*
G37*
G36*
X175201055Y-117490171D02*
G01*
X175320257Y-117539546D01*
X175320259Y-117539547D01*
X175427538Y-117611228D01*
X175518772Y-117702462D01*
X175590453Y-117809741D01*
X175590454Y-117809743D01*
X175639829Y-117928945D01*
X175665000Y-118055487D01*
X175665000Y-118184513D01*
X175639829Y-118311055D01*
X175590454Y-118430257D01*
X175590453Y-118430259D01*
X175518772Y-118537538D01*
X175427538Y-118628772D01*
X175320259Y-118700453D01*
X175320258Y-118700454D01*
X175320257Y-118700454D01*
X175201055Y-118749829D01*
X175074513Y-118775000D01*
X174945487Y-118775000D01*
X174818945Y-118749829D01*
X174699743Y-118700454D01*
X174699742Y-118700454D01*
X174699741Y-118700453D01*
X174592462Y-118628772D01*
X174501228Y-118537538D01*
X174429547Y-118430259D01*
X174429546Y-118430257D01*
X174380171Y-118311055D01*
X174355000Y-118184513D01*
X174355000Y-118055487D01*
X174380171Y-117928945D01*
X174429546Y-117809743D01*
X174429547Y-117809741D01*
X174501228Y-117702462D01*
X174592462Y-117611228D01*
X174699741Y-117539547D01*
X174699743Y-117539546D01*
X174818945Y-117490171D01*
X174945487Y-117465000D01*
X175074513Y-117465000D01*
X175201055Y-117490171D01*
G37*
G36*
X177201055Y-117490171D02*
G01*
X177320257Y-117539546D01*
X177320259Y-117539547D01*
X177427538Y-117611228D01*
X177518772Y-117702462D01*
X177590453Y-117809741D01*
X177590454Y-117809743D01*
X177639829Y-117928945D01*
X177665000Y-118055487D01*
X177665000Y-118184513D01*
X177639829Y-118311055D01*
X177590454Y-118430257D01*
X177590453Y-118430259D01*
X177518772Y-118537538D01*
X177427538Y-118628772D01*
X177320259Y-118700453D01*
X177320258Y-118700454D01*
X177320257Y-118700454D01*
X177201055Y-118749829D01*
X177074513Y-118775000D01*
X176945487Y-118775000D01*
X176818945Y-118749829D01*
X176699743Y-118700454D01*
X176699742Y-118700454D01*
X176699741Y-118700453D01*
X176592462Y-118628772D01*
X176501228Y-118537538D01*
X176429547Y-118430259D01*
X176429546Y-118430257D01*
X176380171Y-118311055D01*
X176355000Y-118184513D01*
X176355000Y-118055487D01*
X176380171Y-117928945D01*
X176429546Y-117809743D01*
X176429547Y-117809741D01*
X176501228Y-117702462D01*
X176592462Y-117611228D01*
X176699741Y-117539547D01*
X176699743Y-117539546D01*
X176818945Y-117490171D01*
X176945487Y-117465000D01*
X177074513Y-117465000D01*
X177201055Y-117490171D01*
G37*
G36*
X177201055Y-115490171D02*
G01*
X177320257Y-115539546D01*
X177320259Y-115539547D01*
X177427538Y-115611228D01*
X177518772Y-115702462D01*
X177590453Y-115809741D01*
X177590454Y-115809743D01*
X177639829Y-115928945D01*
X177665000Y-116055487D01*
X177665000Y-116184513D01*
X177639829Y-116311055D01*
X177590454Y-116430257D01*
X177590453Y-116430259D01*
X177518772Y-116537538D01*
X177427538Y-116628772D01*
X177320259Y-116700453D01*
X177320258Y-116700454D01*
X177320257Y-116700454D01*
X177201055Y-116749829D01*
X177074513Y-116775000D01*
X176945487Y-116775000D01*
X176818945Y-116749829D01*
X176699743Y-116700454D01*
X176699742Y-116700454D01*
X176699741Y-116700453D01*
X176592462Y-116628772D01*
X176501228Y-116537538D01*
X176429547Y-116430259D01*
X176429546Y-116430257D01*
X176380171Y-116311055D01*
X176355000Y-116184513D01*
X176355000Y-116055487D01*
X176380171Y-115928945D01*
X176429546Y-115809743D01*
X176429547Y-115809741D01*
X176501228Y-115702462D01*
X176592462Y-115611228D01*
X176699741Y-115539547D01*
X176699743Y-115539546D01*
X176818945Y-115490171D01*
X176945487Y-115465000D01*
X177074513Y-115465000D01*
X177201055Y-115490171D01*
G37*
G36*
X181201055Y-115490171D02*
G01*
X181320257Y-115539546D01*
X181320259Y-115539547D01*
X181427538Y-115611228D01*
X181518772Y-115702462D01*
X181590453Y-115809741D01*
X181590454Y-115809743D01*
X181639829Y-115928945D01*
X181665000Y-116055487D01*
X181665000Y-116184513D01*
X181639829Y-116311055D01*
X181590454Y-116430257D01*
X181590453Y-116430259D01*
X181518772Y-116537538D01*
X181427538Y-116628772D01*
X181320259Y-116700453D01*
X181320258Y-116700454D01*
X181320257Y-116700454D01*
X181201055Y-116749829D01*
X181074513Y-116775000D01*
X180945487Y-116775000D01*
X180818945Y-116749829D01*
X180699743Y-116700454D01*
X180699742Y-116700454D01*
X180699741Y-116700453D01*
X180592462Y-116628772D01*
X180501228Y-116537538D01*
X180429547Y-116430259D01*
X180429546Y-116430257D01*
X180380171Y-116311055D01*
X180355000Y-116184513D01*
X180355000Y-116055487D01*
X180380171Y-115928945D01*
X180429546Y-115809743D01*
X180429547Y-115809741D01*
X180501228Y-115702462D01*
X180592462Y-115611228D01*
X180699741Y-115539547D01*
X180699743Y-115539546D01*
X180818945Y-115490171D01*
X180945487Y-115465000D01*
X181074513Y-115465000D01*
X181201055Y-115490171D01*
G37*
G36*
X179201055Y-115490171D02*
G01*
X179320257Y-115539546D01*
X179320259Y-115539547D01*
X179427538Y-115611228D01*
X179518772Y-115702462D01*
X179590453Y-115809741D01*
X179590454Y-115809743D01*
X179639829Y-115928945D01*
X179665000Y-116055487D01*
X179665000Y-116184513D01*
X179639829Y-116311055D01*
X179590454Y-116430257D01*
X179590453Y-116430259D01*
X179518772Y-116537538D01*
X179427538Y-116628772D01*
X179320259Y-116700453D01*
X179320258Y-116700454D01*
X179320257Y-116700454D01*
X179201055Y-116749829D01*
X179074513Y-116775000D01*
X178945487Y-116775000D01*
X178818945Y-116749829D01*
X178699743Y-116700454D01*
X178699742Y-116700454D01*
X178699741Y-116700453D01*
X178592462Y-116628772D01*
X178501228Y-116537538D01*
X178429547Y-116430259D01*
X178429546Y-116430257D01*
X178380171Y-116311055D01*
X178355000Y-116184513D01*
X178355000Y-116055487D01*
X178380171Y-115928945D01*
X178429546Y-115809743D01*
X178429547Y-115809741D01*
X178501228Y-115702462D01*
X178592462Y-115611228D01*
X178699741Y-115539547D01*
X178699743Y-115539546D01*
X178818945Y-115490171D01*
X178945487Y-115465000D01*
X179074513Y-115465000D01*
X179201055Y-115490171D01*
G37*
G36*
X175201055Y-115490171D02*
G01*
X175320257Y-115539546D01*
X175320259Y-115539547D01*
X175427538Y-115611228D01*
X175518772Y-115702462D01*
X175590453Y-115809741D01*
X175590454Y-115809743D01*
X175639829Y-115928945D01*
X175665000Y-116055487D01*
X175665000Y-116184513D01*
X175639829Y-116311055D01*
X175590454Y-116430257D01*
X175590453Y-116430259D01*
X175518772Y-116537538D01*
X175427538Y-116628772D01*
X175320259Y-116700453D01*
X175320258Y-116700454D01*
X175320257Y-116700454D01*
X175201055Y-116749829D01*
X175074513Y-116775000D01*
X174945487Y-116775000D01*
X174818945Y-116749829D01*
X174699743Y-116700454D01*
X174699742Y-116700454D01*
X174699741Y-116700453D01*
X174592462Y-116628772D01*
X174501228Y-116537538D01*
X174429547Y-116430259D01*
X174429546Y-116430257D01*
X174380171Y-116311055D01*
X174355000Y-116184513D01*
X174355000Y-116055487D01*
X174380171Y-115928945D01*
X174429546Y-115809743D01*
X174429547Y-115809741D01*
X174501228Y-115702462D01*
X174592462Y-115611228D01*
X174699741Y-115539547D01*
X174699743Y-115539546D01*
X174818945Y-115490171D01*
X174945487Y-115465000D01*
X175074513Y-115465000D01*
X175201055Y-115490171D01*
G37*
G36*
X173201055Y-115490171D02*
G01*
X173320257Y-115539546D01*
X173320259Y-115539547D01*
X173427538Y-115611228D01*
X173518772Y-115702462D01*
X173590453Y-115809741D01*
X173590454Y-115809743D01*
X173639829Y-115928945D01*
X173665000Y-116055487D01*
X173665000Y-116184513D01*
X173639829Y-116311055D01*
X173590454Y-116430257D01*
X173590453Y-116430259D01*
X173518772Y-116537538D01*
X173427538Y-116628772D01*
X173320259Y-116700453D01*
X173320258Y-116700454D01*
X173320257Y-116700454D01*
X173201055Y-116749829D01*
X173074513Y-116775000D01*
X172945487Y-116775000D01*
X172818945Y-116749829D01*
X172699743Y-116700454D01*
X172699742Y-116700454D01*
X172699741Y-116700453D01*
X172592462Y-116628772D01*
X172501228Y-116537538D01*
X172429547Y-116430259D01*
X172429546Y-116430257D01*
X172380171Y-116311055D01*
X172355000Y-116184513D01*
X172355000Y-116055487D01*
X172380171Y-115928945D01*
X172429546Y-115809743D01*
X172429547Y-115809741D01*
X172501228Y-115702462D01*
X172592462Y-115611228D01*
X172699741Y-115539547D01*
X172699743Y-115539546D01*
X172818945Y-115490171D01*
X172945487Y-115465000D01*
X173074513Y-115465000D01*
X173201055Y-115490171D01*
G37*
G36*
X171201055Y-115490171D02*
G01*
X171320257Y-115539546D01*
X171320259Y-115539547D01*
X171427538Y-115611228D01*
X171518772Y-115702462D01*
X171590453Y-115809741D01*
X171590454Y-115809743D01*
X171639829Y-115928945D01*
X171665000Y-116055487D01*
X171665000Y-116184513D01*
X171639829Y-116311055D01*
X171590454Y-116430257D01*
X171590453Y-116430259D01*
X171518772Y-116537538D01*
X171427538Y-116628772D01*
X171320259Y-116700453D01*
X171320258Y-116700454D01*
X171320257Y-116700454D01*
X171201055Y-116749829D01*
X171074513Y-116775000D01*
X170945487Y-116775000D01*
X170818945Y-116749829D01*
X170699743Y-116700454D01*
X170699742Y-116700454D01*
X170699741Y-116700453D01*
X170592462Y-116628772D01*
X170501228Y-116537538D01*
X170429547Y-116430259D01*
X170429546Y-116430257D01*
X170380171Y-116311055D01*
X170355000Y-116184513D01*
X170355000Y-116055487D01*
X170380171Y-115928945D01*
X170429546Y-115809743D01*
X170429547Y-115809741D01*
X170501228Y-115702462D01*
X170592462Y-115611228D01*
X170699741Y-115539547D01*
X170699743Y-115539546D01*
X170818945Y-115490171D01*
X170945487Y-115465000D01*
X171074513Y-115465000D01*
X171201055Y-115490171D01*
G37*
G36*
X169201055Y-115490171D02*
G01*
X169320257Y-115539546D01*
X169320259Y-115539547D01*
X169427538Y-115611228D01*
X169518772Y-115702462D01*
X169590453Y-115809741D01*
X169590454Y-115809743D01*
X169639829Y-115928945D01*
X169665000Y-116055487D01*
X169665000Y-116184513D01*
X169639829Y-116311055D01*
X169590454Y-116430257D01*
X169590453Y-116430259D01*
X169518772Y-116537538D01*
X169427538Y-116628772D01*
X169320259Y-116700453D01*
X169320258Y-116700454D01*
X169320257Y-116700454D01*
X169201055Y-116749829D01*
X169074513Y-116775000D01*
X168945487Y-116775000D01*
X168818945Y-116749829D01*
X168699743Y-116700454D01*
X168699742Y-116700454D01*
X168699741Y-116700453D01*
X168592462Y-116628772D01*
X168501228Y-116537538D01*
X168429547Y-116430259D01*
X168429546Y-116430257D01*
X168380171Y-116311055D01*
X168355000Y-116184513D01*
X168355000Y-116055487D01*
X168380171Y-115928945D01*
X168429546Y-115809743D01*
X168429547Y-115809741D01*
X168501228Y-115702462D01*
X168592462Y-115611228D01*
X168699741Y-115539547D01*
X168699743Y-115539546D01*
X168818945Y-115490171D01*
X168945487Y-115465000D01*
X169074513Y-115465000D01*
X169201055Y-115490171D01*
G37*
G36*
X149166000Y-111616000D02*
G01*
X148624000Y-111616000D01*
X148624000Y-110574000D01*
X149166000Y-110574000D01*
X149166000Y-111616000D01*
G37*
G36*
X152976000Y-111616000D02*
G01*
X152434000Y-111616000D01*
X152434000Y-110574000D01*
X152976000Y-110574000D01*
X152976000Y-111616000D01*
G37*
G36*
X151706000Y-111616000D02*
G01*
X151164000Y-111616000D01*
X151164000Y-110574000D01*
X151706000Y-110574000D01*
X151706000Y-111616000D01*
G37*
G36*
X150436000Y-111616000D02*
G01*
X149894000Y-111616000D01*
X149894000Y-110574000D01*
X150436000Y-110574000D01*
X150436000Y-111616000D01*
G37*
G36*
X179098699Y-110880001D02*
G01*
X177701299Y-110880001D01*
X177701299Y-108873001D01*
X179098699Y-108873001D01*
X179098699Y-110880001D01*
G37*
G36*
X173498701Y-110880001D02*
G01*
X172101301Y-110880001D01*
X172101301Y-108873001D01*
X173498701Y-108873001D01*
X173498701Y-110880001D01*
G37*
G36*
X170198699Y-110880001D02*
G01*
X168801299Y-110880001D01*
X168801299Y-108873001D01*
X170198699Y-108873001D01*
X170198699Y-110880001D01*
G37*
G36*
X164598701Y-110880001D02*
G01*
X163201301Y-110880001D01*
X163201301Y-108873001D01*
X164598701Y-108873001D01*
X164598701Y-110880001D01*
G37*
G36*
X155954591Y-108578085D02*
G01*
X155988569Y-108588393D01*
X156019890Y-108605134D01*
X156047339Y-108627661D01*
X156069866Y-108655110D01*
X156086607Y-108686431D01*
X156096915Y-108720409D01*
X156101000Y-108761890D01*
X156101000Y-109438110D01*
X156096915Y-109479591D01*
X156086607Y-109513569D01*
X156069866Y-109544890D01*
X156047339Y-109572339D01*
X156019890Y-109594866D01*
X155988569Y-109611607D01*
X155954591Y-109621915D01*
X155913110Y-109626000D01*
X155311890Y-109626000D01*
X155270409Y-109621915D01*
X155236431Y-109611607D01*
X155205110Y-109594866D01*
X155177661Y-109572339D01*
X155155134Y-109544890D01*
X155138393Y-109513569D01*
X155128085Y-109479591D01*
X155124000Y-109438110D01*
X155124000Y-108761890D01*
X155128085Y-108720409D01*
X155138393Y-108686431D01*
X155155134Y-108655110D01*
X155177661Y-108627661D01*
X155205110Y-108605134D01*
X155236431Y-108588393D01*
X155270409Y-108578085D01*
X155311890Y-108574000D01*
X155913110Y-108574000D01*
X155954591Y-108578085D01*
G37*
G36*
X157529591Y-108578085D02*
G01*
X157563569Y-108588393D01*
X157594890Y-108605134D01*
X157622339Y-108627661D01*
X157644866Y-108655110D01*
X157661607Y-108686431D01*
X157671915Y-108720409D01*
X157676000Y-108761890D01*
X157676000Y-109438110D01*
X157671915Y-109479591D01*
X157661607Y-109513569D01*
X157644866Y-109544890D01*
X157622339Y-109572339D01*
X157594890Y-109594866D01*
X157563569Y-109611607D01*
X157529591Y-109621915D01*
X157488110Y-109626000D01*
X156886890Y-109626000D01*
X156845409Y-109621915D01*
X156811431Y-109611607D01*
X156780110Y-109594866D01*
X156752661Y-109572339D01*
X156730134Y-109544890D01*
X156713393Y-109513569D01*
X156703085Y-109479591D01*
X156699000Y-109438110D01*
X156699000Y-108761890D01*
X156703085Y-108720409D01*
X156713393Y-108686431D01*
X156730134Y-108655110D01*
X156752661Y-108627661D01*
X156780110Y-108605134D01*
X156811431Y-108588393D01*
X156845409Y-108578085D01*
X156886890Y-108574000D01*
X157488110Y-108574000D01*
X157529591Y-108578085D01*
G37*
G36*
X153001000Y-108951000D02*
G01*
X148599000Y-108951000D01*
X148599000Y-105449000D01*
X153001000Y-105449000D01*
X153001000Y-108951000D01*
G37*
G36*
X168581200Y-106827200D02*
G01*
X164818800Y-106827200D01*
X164818800Y-105175800D01*
X168581200Y-105175800D01*
X168581200Y-106827200D01*
G37*
G36*
X177481200Y-106827200D02*
G01*
X173718800Y-106827200D01*
X173718800Y-105175800D01*
X177481200Y-105175800D01*
X177481200Y-106827200D01*
G37*
G36*
X145359408Y-103214501D02*
G01*
X145458863Y-103255697D01*
X145458865Y-103255698D01*
X145503923Y-103285805D01*
X145548372Y-103315505D01*
X145624495Y-103391628D01*
X145684303Y-103481137D01*
X145725499Y-103580592D01*
X145746500Y-103686173D01*
X145746500Y-103793827D01*
X145725499Y-103899408D01*
X145684303Y-103998863D01*
X145684302Y-103998865D01*
X145624494Y-104088373D01*
X145548373Y-104164494D01*
X145458865Y-104224302D01*
X145458864Y-104224303D01*
X145458863Y-104224303D01*
X145359408Y-104265499D01*
X145253827Y-104286500D01*
X145146173Y-104286500D01*
X145040592Y-104265499D01*
X144941137Y-104224303D01*
X144941136Y-104224303D01*
X144941135Y-104224302D01*
X144851627Y-104164494D01*
X144775506Y-104088373D01*
X144715698Y-103998865D01*
X144715697Y-103998863D01*
X144674501Y-103899408D01*
X144653500Y-103793827D01*
X144653500Y-103686173D01*
X144674501Y-103580592D01*
X144715697Y-103481137D01*
X144775505Y-103391628D01*
X144851628Y-103315505D01*
X144896077Y-103285805D01*
X144941135Y-103255698D01*
X144941137Y-103255697D01*
X145040592Y-103214501D01*
X145146173Y-103193500D01*
X145253827Y-103193500D01*
X145359408Y-103214501D01*
G37*
G36*
X150436000Y-103826000D02*
G01*
X149894000Y-103826000D01*
X149894000Y-102784000D01*
X150436000Y-102784000D01*
X150436000Y-103826000D01*
G37*
G36*
X151706000Y-103826000D02*
G01*
X151164000Y-103826000D01*
X151164000Y-102784000D01*
X151706000Y-102784000D01*
X151706000Y-103826000D01*
G37*
G36*
X149166000Y-103826000D02*
G01*
X148624000Y-103826000D01*
X148624000Y-102784000D01*
X149166000Y-102784000D01*
X149166000Y-103826000D01*
G37*
G36*
X152976000Y-103826000D02*
G01*
X152434000Y-103826000D01*
X152434000Y-102784000D01*
X152976000Y-102784000D01*
X152976000Y-103826000D01*
G37*
G36*
X144694656Y-102042581D02*
G01*
X144775548Y-102076088D01*
X144775550Y-102076089D01*
X144848352Y-102124734D01*
X144910266Y-102186648D01*
X144958912Y-102259452D01*
X144992419Y-102340344D01*
X145009500Y-102426219D01*
X145009500Y-102513781D01*
X144992419Y-102599656D01*
X144958912Y-102680548D01*
X144958911Y-102680550D01*
X144910266Y-102753352D01*
X144848352Y-102815266D01*
X144775550Y-102863911D01*
X144775549Y-102863912D01*
X144775548Y-102863912D01*
X144694656Y-102897419D01*
X144608781Y-102914500D01*
X144521219Y-102914500D01*
X144435344Y-102897419D01*
X144354452Y-102863912D01*
X144354451Y-102863912D01*
X144354450Y-102863911D01*
X144281648Y-102815266D01*
X144219734Y-102753352D01*
X144171089Y-102680550D01*
X144171088Y-102680548D01*
X144137581Y-102599656D01*
X144120500Y-102513781D01*
X144120500Y-102426219D01*
X144137581Y-102340344D01*
X144171088Y-102259452D01*
X144219734Y-102186648D01*
X144281648Y-102124734D01*
X144354450Y-102076089D01*
X144354452Y-102076088D01*
X144435344Y-102042581D01*
X144521219Y-102025500D01*
X144608781Y-102025500D01*
X144694656Y-102042581D01*
G37*
G36*
X145964656Y-102042581D02*
G01*
X146045548Y-102076088D01*
X146045550Y-102076089D01*
X146118352Y-102124734D01*
X146180266Y-102186648D01*
X146228912Y-102259452D01*
X146262419Y-102340344D01*
X146279500Y-102426219D01*
X146279500Y-102513781D01*
X146262419Y-102599656D01*
X146228912Y-102680548D01*
X146228911Y-102680550D01*
X146180266Y-102753352D01*
X146118352Y-102815266D01*
X146045550Y-102863911D01*
X146045549Y-102863912D01*
X146045548Y-102863912D01*
X145964656Y-102897419D01*
X145878781Y-102914500D01*
X145791219Y-102914500D01*
X145705344Y-102897419D01*
X145624452Y-102863912D01*
X145624451Y-102863912D01*
X145624450Y-102863911D01*
X145551648Y-102815266D01*
X145489734Y-102753352D01*
X145441089Y-102680550D01*
X145441088Y-102680548D01*
X145407581Y-102599656D01*
X145390500Y-102513781D01*
X145390500Y-102426219D01*
X145407581Y-102340344D01*
X145441088Y-102259452D01*
X145489734Y-102186648D01*
X145551648Y-102124734D01*
X145624450Y-102076089D01*
X145624452Y-102076088D01*
X145705344Y-102042581D01*
X145791219Y-102025500D01*
X145878781Y-102025500D01*
X145964656Y-102042581D01*
G37*
G36*
X145964656Y-100772581D02*
G01*
X146045548Y-100806088D01*
X146045550Y-100806089D01*
X146118352Y-100854734D01*
X146180266Y-100916648D01*
X146228912Y-100989452D01*
X146262419Y-101070344D01*
X146279500Y-101156219D01*
X146279500Y-101243781D01*
X146262419Y-101329656D01*
X146228912Y-101410548D01*
X146228911Y-101410550D01*
X146180266Y-101483352D01*
X146118352Y-101545266D01*
X146045550Y-101593911D01*
X146045549Y-101593912D01*
X146045548Y-101593912D01*
X145964656Y-101627419D01*
X145878781Y-101644500D01*
X145791219Y-101644500D01*
X145705344Y-101627419D01*
X145624452Y-101593912D01*
X145624451Y-101593912D01*
X145624450Y-101593911D01*
X145551648Y-101545266D01*
X145489734Y-101483352D01*
X145441089Y-101410550D01*
X145441088Y-101410548D01*
X145407581Y-101329656D01*
X145390500Y-101243781D01*
X145390500Y-101156219D01*
X145407581Y-101070344D01*
X145441088Y-100989452D01*
X145489734Y-100916648D01*
X145551648Y-100854734D01*
X145624450Y-100806089D01*
X145624452Y-100806088D01*
X145705344Y-100772581D01*
X145791219Y-100755500D01*
X145878781Y-100755500D01*
X145964656Y-100772581D01*
G37*
G36*
X144694656Y-100772581D02*
G01*
X144775548Y-100806088D01*
X144775550Y-100806089D01*
X144848352Y-100854734D01*
X144910266Y-100916648D01*
X144958912Y-100989452D01*
X144992419Y-101070344D01*
X145009500Y-101156219D01*
X145009500Y-101243781D01*
X144992419Y-101329656D01*
X144958912Y-101410548D01*
X144958911Y-101410550D01*
X144910266Y-101483352D01*
X144848352Y-101545266D01*
X144775550Y-101593911D01*
X144775549Y-101593912D01*
X144775548Y-101593912D01*
X144694656Y-101627419D01*
X144608781Y-101644500D01*
X144521219Y-101644500D01*
X144435344Y-101627419D01*
X144354452Y-101593912D01*
X144354451Y-101593912D01*
X144354450Y-101593911D01*
X144281648Y-101545266D01*
X144219734Y-101483352D01*
X144171089Y-101410550D01*
X144171088Y-101410548D01*
X144137581Y-101329656D01*
X144120500Y-101243781D01*
X144120500Y-101156219D01*
X144137581Y-101070344D01*
X144171088Y-100989452D01*
X144219734Y-100916648D01*
X144281648Y-100854734D01*
X144354450Y-100806089D01*
X144354452Y-100806088D01*
X144435344Y-100772581D01*
X144521219Y-100755500D01*
X144608781Y-100755500D01*
X144694656Y-100772581D01*
G37*
G36*
X145964656Y-99502581D02*
G01*
X146045548Y-99536088D01*
X146045550Y-99536089D01*
X146118352Y-99584734D01*
X146180266Y-99646648D01*
X146228912Y-99719452D01*
X146262419Y-99800344D01*
X146279500Y-99886219D01*
X146279500Y-99973781D01*
X146262419Y-100059656D01*
X146228912Y-100140548D01*
X146228911Y-100140550D01*
X146180266Y-100213352D01*
X146118352Y-100275266D01*
X146045550Y-100323911D01*
X146045549Y-100323912D01*
X146045548Y-100323912D01*
X145964656Y-100357419D01*
X145878781Y-100374500D01*
X145791219Y-100374500D01*
X145705344Y-100357419D01*
X145624452Y-100323912D01*
X145624451Y-100323912D01*
X145624450Y-100323911D01*
X145551648Y-100275266D01*
X145489734Y-100213352D01*
X145441089Y-100140550D01*
X145441088Y-100140548D01*
X145407581Y-100059656D01*
X145390500Y-99973781D01*
X145390500Y-99886219D01*
X145407581Y-99800344D01*
X145441088Y-99719452D01*
X145489734Y-99646648D01*
X145551648Y-99584734D01*
X145624450Y-99536089D01*
X145624452Y-99536088D01*
X145705344Y-99502581D01*
X145791219Y-99485500D01*
X145878781Y-99485500D01*
X145964656Y-99502581D01*
G37*
G36*
X144694656Y-99502581D02*
G01*
X144775548Y-99536088D01*
X144775550Y-99536089D01*
X144848352Y-99584734D01*
X144910266Y-99646648D01*
X144958912Y-99719452D01*
X144992419Y-99800344D01*
X145009500Y-99886219D01*
X145009500Y-99973781D01*
X144992419Y-100059656D01*
X144958912Y-100140548D01*
X144958911Y-100140550D01*
X144910266Y-100213352D01*
X144848352Y-100275266D01*
X144775550Y-100323911D01*
X144775549Y-100323912D01*
X144775548Y-100323912D01*
X144694656Y-100357419D01*
X144608781Y-100374500D01*
X144521219Y-100374500D01*
X144435344Y-100357419D01*
X144354452Y-100323912D01*
X144354451Y-100323912D01*
X144354450Y-100323911D01*
X144281648Y-100275266D01*
X144219734Y-100213352D01*
X144171089Y-100140550D01*
X144171088Y-100140548D01*
X144137581Y-100059656D01*
X144120500Y-99973781D01*
X144120500Y-99886219D01*
X144137581Y-99800344D01*
X144171088Y-99719452D01*
X144219734Y-99646648D01*
X144281648Y-99584734D01*
X144354450Y-99536089D01*
X144354452Y-99536088D01*
X144435344Y-99502581D01*
X144521219Y-99485500D01*
X144608781Y-99485500D01*
X144694656Y-99502581D01*
G37*
G36*
X146375408Y-98134501D02*
G01*
X146474863Y-98175697D01*
X146474865Y-98175698D01*
X146519923Y-98205805D01*
X146564372Y-98235505D01*
X146640495Y-98311628D01*
X146700303Y-98401137D01*
X146741499Y-98500592D01*
X146762500Y-98606173D01*
X146762500Y-98713827D01*
X146741499Y-98819408D01*
X146700303Y-98918863D01*
X146700302Y-98918865D01*
X146640494Y-99008373D01*
X146564373Y-99084494D01*
X146474865Y-99144302D01*
X146474864Y-99144303D01*
X146474863Y-99144303D01*
X146375408Y-99185499D01*
X146269827Y-99206500D01*
X146162173Y-99206500D01*
X146056592Y-99185499D01*
X145957137Y-99144303D01*
X145957136Y-99144303D01*
X145957135Y-99144302D01*
X145867627Y-99084494D01*
X145791506Y-99008373D01*
X145731698Y-98918865D01*
X145731697Y-98918863D01*
X145690501Y-98819408D01*
X145669500Y-98713827D01*
X145669500Y-98606173D01*
X145690501Y-98500592D01*
X145731697Y-98401137D01*
X145791505Y-98311628D01*
X145867628Y-98235505D01*
X145912077Y-98205805D01*
X145957135Y-98175698D01*
X145957137Y-98175697D01*
X146056592Y-98134501D01*
X146162173Y-98113500D01*
X146269827Y-98113500D01*
X146375408Y-98134501D01*
G37*
G36*
X144343408Y-98134501D02*
G01*
X144442863Y-98175697D01*
X144442865Y-98175698D01*
X144487923Y-98205805D01*
X144532372Y-98235505D01*
X144608495Y-98311628D01*
X144668303Y-98401137D01*
X144709499Y-98500592D01*
X144730500Y-98606173D01*
X144730500Y-98713827D01*
X144709499Y-98819408D01*
X144668303Y-98918863D01*
X144668302Y-98918865D01*
X144608494Y-99008373D01*
X144532373Y-99084494D01*
X144442865Y-99144302D01*
X144442864Y-99144303D01*
X144442863Y-99144303D01*
X144343408Y-99185499D01*
X144237827Y-99206500D01*
X144130173Y-99206500D01*
X144024592Y-99185499D01*
X143925137Y-99144303D01*
X143925136Y-99144303D01*
X143925135Y-99144302D01*
X143835627Y-99084494D01*
X143759506Y-99008373D01*
X143699698Y-98918865D01*
X143699697Y-98918863D01*
X143658501Y-98819408D01*
X143637500Y-98713827D01*
X143637500Y-98606173D01*
X143658501Y-98500592D01*
X143699697Y-98401137D01*
X143759505Y-98311628D01*
X143835628Y-98235505D01*
X143880077Y-98205805D01*
X143925135Y-98175698D01*
X143925137Y-98175697D01*
X144024592Y-98134501D01*
X144130173Y-98113500D01*
X144237827Y-98113500D01*
X144343408Y-98134501D01*
G37*
M02*
