M48
; DRILL file {KiCad (5.1.5)-3} date 8/13/2021 12:39:53 PM
; FORMAT={-:-/ absolute / inch / decimal}
; #@! TF.CreationDate,2021-08-13T12:39:53-07:00
; #@! TF.GenerationSoftware,Kicad,Pcbnew,(5.1.5)-3
FMAT,2
INCH
T1C0.0157
T2C0.0295
T3C0.0394
T4C0.0390
%
G90
G05
T1
X4.9921Y-4.5787
X5.0157Y-4.9094
X5.0315Y-4.437
X5.0433Y-4.6811
X5.0669Y-3.622
X5.0669Y-3.8583
X5.1339Y-4.1142
X5.1693Y-3.8622
X5.1772Y-4.7835
X5.1811Y-4.0984
X5.2106Y-3.6358
X5.2165Y-4.7205
X5.2165Y-4.9134
X5.2205Y-4.5
X5.2402Y-4.0039
X5.248Y-3.315
X5.2638Y-3.5512
X5.2874Y-3.3031
X5.435Y-4.1476
X5.435Y-4.2087
X5.4409Y-3.6142
X5.4409Y-4.3228
X5.4409Y-4.5197
X5.4665Y-3.5531
X5.4685Y-3.3543
X5.4764Y-3.7087
X5.4764Y-3.8622
X5.4961Y-3.6142
X5.5433Y-3.9213
X5.5433Y-3.9882
X5.5945Y-4.437
X5.5945Y-4.7087
X5.6102Y-3.7087
X5.6102Y-4.0157
X5.6299Y-4.2913
X5.687Y-4.2933
X5.7638Y-3.8071
X5.7638Y-4.4724
X5.7638Y-4.5236
X5.7638Y-4.622
X5.7835Y-4.6693
X5.8386Y-3.9331
X5.8661Y-4.1772
X5.8701Y-4.7126
X5.9094Y-4.1772
X5.9134Y-3.9331
X5.9173Y-3.2638
X5.9449Y-4.0118
X5.9488Y-4.6732
T2
X5.5945Y-3.3504
X5.6732Y-3.3504
X5.752Y-3.3504
X5.8307Y-3.3504
T3
X5.5528Y-3.5059
X5.6528Y-3.5059
X5.7528Y-3.5059
X5.8528Y-3.5059
T4
X5.0663Y-4.6323
X5.1063Y-4.8323
X5.1463Y-4.6323
T0
M30
