G04 #@! TF.GenerationSoftware,KiCad,Pcbnew,(5.1.5)-3*
G04 #@! TF.CreationDate,2021-08-13T12:39:49-07:00*
G04 #@! TF.ProjectId,Freesk8-Robogotchi-v1.5,46726565-736b-4382-9d52-6f626f676f74,rev?*
G04 #@! TF.SameCoordinates,Original*
G04 #@! TF.FileFunction,Soldermask,Top*
G04 #@! TF.FilePolarity,Negative*
%FSLAX46Y46*%
G04 Gerber Fmt 4.6, Leading zero omitted, Abs format (unit mm)*
G04 Created by KiCad (PCBNEW (5.1.5)-3) date 2021-08-13 12:39:49*
%MOMM*%
%LPD*%
G04 APERTURE LIST*
%ADD10C,0.100000*%
G04 APERTURE END LIST*
D10*
G36*
X129859408Y-122214501D02*
G01*
X129958863Y-122255697D01*
X129958865Y-122255698D01*
X130003923Y-122285805D01*
X130048372Y-122315505D01*
X130124495Y-122391628D01*
X130184303Y-122481137D01*
X130225499Y-122580592D01*
X130246500Y-122686173D01*
X130246500Y-122793827D01*
X130225499Y-122899408D01*
X130184303Y-122998863D01*
X130184302Y-122998865D01*
X130124494Y-123088373D01*
X130048373Y-123164494D01*
X129958865Y-123224302D01*
X129958864Y-123224303D01*
X129958863Y-123224303D01*
X129859408Y-123265499D01*
X129753827Y-123286500D01*
X129646173Y-123286500D01*
X129540592Y-123265499D01*
X129441137Y-123224303D01*
X129441136Y-123224303D01*
X129441135Y-123224302D01*
X129351627Y-123164494D01*
X129275506Y-123088373D01*
X129215698Y-122998865D01*
X129215697Y-122998863D01*
X129174501Y-122899408D01*
X129153500Y-122793827D01*
X129153500Y-122686173D01*
X129174501Y-122580592D01*
X129215697Y-122481137D01*
X129275505Y-122391628D01*
X129351628Y-122315505D01*
X129396077Y-122285805D01*
X129441135Y-122255698D01*
X129441137Y-122255697D01*
X129540592Y-122214501D01*
X129646173Y-122193500D01*
X129753827Y-122193500D01*
X129859408Y-122214501D01*
G37*
G36*
X136901000Y-120426000D02*
G01*
X133799000Y-120426000D01*
X133799000Y-119424000D01*
X136901000Y-119424000D01*
X136901000Y-120426000D01*
G37*
G36*
X136901000Y-119156000D02*
G01*
X133799000Y-119156000D01*
X133799000Y-118154000D01*
X136901000Y-118154000D01*
X136901000Y-119156000D01*
G37*
G36*
X150601000Y-119156000D02*
G01*
X147499000Y-119156000D01*
X147499000Y-118154000D01*
X150601000Y-118154000D01*
X150601000Y-119156000D01*
G37*
G36*
X130875408Y-117134501D02*
G01*
X130974863Y-117175697D01*
X130974865Y-117175698D01*
X131019923Y-117205805D01*
X131064372Y-117235505D01*
X131140495Y-117311628D01*
X131200303Y-117401137D01*
X131241499Y-117500592D01*
X131262500Y-117606173D01*
X131262500Y-117713827D01*
X131241499Y-117819408D01*
X131213915Y-117886000D01*
X131200302Y-117918865D01*
X131140494Y-118008373D01*
X131064373Y-118084494D01*
X130974865Y-118144302D01*
X130974864Y-118144303D01*
X130974863Y-118144303D01*
X130875408Y-118185499D01*
X130769827Y-118206500D01*
X130662173Y-118206500D01*
X130556592Y-118185499D01*
X130457137Y-118144303D01*
X130457136Y-118144303D01*
X130457135Y-118144302D01*
X130367627Y-118084494D01*
X130291506Y-118008373D01*
X130231698Y-117918865D01*
X130218085Y-117886000D01*
X130190501Y-117819408D01*
X130169500Y-117713827D01*
X130169500Y-117606173D01*
X130190501Y-117500592D01*
X130231697Y-117401137D01*
X130291505Y-117311628D01*
X130367628Y-117235505D01*
X130412077Y-117205805D01*
X130457135Y-117175698D01*
X130457137Y-117175697D01*
X130556592Y-117134501D01*
X130662173Y-117113500D01*
X130769827Y-117113500D01*
X130875408Y-117134501D01*
G37*
G36*
X128843408Y-117134501D02*
G01*
X128942863Y-117175697D01*
X128942865Y-117175698D01*
X128987923Y-117205805D01*
X129032372Y-117235505D01*
X129108495Y-117311628D01*
X129168303Y-117401137D01*
X129209499Y-117500592D01*
X129230500Y-117606173D01*
X129230500Y-117713827D01*
X129209499Y-117819408D01*
X129181915Y-117886000D01*
X129168302Y-117918865D01*
X129108494Y-118008373D01*
X129032373Y-118084494D01*
X128942865Y-118144302D01*
X128942864Y-118144303D01*
X128942863Y-118144303D01*
X128843408Y-118185499D01*
X128737827Y-118206500D01*
X128630173Y-118206500D01*
X128524592Y-118185499D01*
X128425137Y-118144303D01*
X128425136Y-118144303D01*
X128425135Y-118144302D01*
X128335627Y-118084494D01*
X128259506Y-118008373D01*
X128199698Y-117918865D01*
X128186085Y-117886000D01*
X128158501Y-117819408D01*
X128137500Y-117713827D01*
X128137500Y-117606173D01*
X128158501Y-117500592D01*
X128199697Y-117401137D01*
X128259505Y-117311628D01*
X128335628Y-117235505D01*
X128380077Y-117205805D01*
X128425135Y-117175698D01*
X128425137Y-117175697D01*
X128524592Y-117134501D01*
X128630173Y-117113500D01*
X128737827Y-117113500D01*
X128843408Y-117134501D01*
G37*
G36*
X150601000Y-117886000D02*
G01*
X147499000Y-117886000D01*
X147499000Y-116884000D01*
X150601000Y-116884000D01*
X150601000Y-117886000D01*
G37*
G36*
X136901000Y-117886000D02*
G01*
X133799000Y-117886000D01*
X133799000Y-116884000D01*
X136901000Y-116884000D01*
X136901000Y-117886000D01*
G37*
G36*
X136901000Y-116616000D02*
G01*
X133799000Y-116616000D01*
X133799000Y-115614000D01*
X136901000Y-115614000D01*
X136901000Y-116616000D01*
G37*
G36*
X150601000Y-116616000D02*
G01*
X147499000Y-116616000D01*
X147499000Y-115614000D01*
X150601000Y-115614000D01*
X150601000Y-116616000D01*
G37*
G36*
X150601000Y-115346000D02*
G01*
X147499000Y-115346000D01*
X147499000Y-114344000D01*
X150601000Y-114344000D01*
X150601000Y-115346000D01*
G37*
G36*
X136901000Y-115346000D02*
G01*
X133799000Y-115346000D01*
X133799000Y-114344000D01*
X136901000Y-114344000D01*
X136901000Y-115346000D01*
G37*
G36*
X131876000Y-114516000D02*
G01*
X131334000Y-114516000D01*
X131334000Y-113474000D01*
X131876000Y-113474000D01*
X131876000Y-114516000D01*
G37*
G36*
X128066000Y-114516000D02*
G01*
X127524000Y-114516000D01*
X127524000Y-113474000D01*
X128066000Y-113474000D01*
X128066000Y-114516000D01*
G37*
G36*
X130606000Y-114516000D02*
G01*
X130064000Y-114516000D01*
X130064000Y-113474000D01*
X130606000Y-113474000D01*
X130606000Y-114516000D01*
G37*
G36*
X129336000Y-114516000D02*
G01*
X128794000Y-114516000D01*
X128794000Y-113474000D01*
X129336000Y-113474000D01*
X129336000Y-114516000D01*
G37*
G36*
X150601000Y-114076000D02*
G01*
X147499000Y-114076000D01*
X147499000Y-113074000D01*
X150601000Y-113074000D01*
X150601000Y-114076000D01*
G37*
G36*
X136901000Y-114076000D02*
G01*
X133799000Y-114076000D01*
X133799000Y-113074000D01*
X136901000Y-113074000D01*
X136901000Y-114076000D01*
G37*
G36*
X136901000Y-112806000D02*
G01*
X133799000Y-112806000D01*
X133799000Y-111804000D01*
X136901000Y-111804000D01*
X136901000Y-112806000D01*
G37*
G36*
X150601000Y-112806000D02*
G01*
X147499000Y-112806000D01*
X147499000Y-111804000D01*
X150601000Y-111804000D01*
X150601000Y-112806000D01*
G37*
G36*
X131901000Y-111851000D02*
G01*
X127499000Y-111851000D01*
X127499000Y-108349000D01*
X131901000Y-108349000D01*
X131901000Y-111851000D01*
G37*
G36*
X136901000Y-111536000D02*
G01*
X133799000Y-111536000D01*
X133799000Y-110534000D01*
X136901000Y-110534000D01*
X136901000Y-111536000D01*
G37*
G36*
X150601000Y-111536000D02*
G01*
X147499000Y-111536000D01*
X147499000Y-110534000D01*
X150601000Y-110534000D01*
X150601000Y-111536000D01*
G37*
G36*
X136901000Y-110266000D02*
G01*
X133799000Y-110266000D01*
X133799000Y-109264000D01*
X136901000Y-109264000D01*
X136901000Y-110266000D01*
G37*
G36*
X150601000Y-110266000D02*
G01*
X147499000Y-110266000D01*
X147499000Y-109264000D01*
X150601000Y-109264000D01*
X150601000Y-110266000D01*
G37*
G36*
X150601000Y-108996000D02*
G01*
X147499000Y-108996000D01*
X147499000Y-107994000D01*
X150601000Y-107994000D01*
X150601000Y-108996000D01*
G37*
G36*
X136901000Y-108996000D02*
G01*
X133799000Y-108996000D01*
X133799000Y-107994000D01*
X136901000Y-107994000D01*
X136901000Y-108996000D01*
G37*
G36*
X145241000Y-107876000D02*
G01*
X144239000Y-107876000D01*
X144239000Y-104774000D01*
X145241000Y-104774000D01*
X145241000Y-107876000D01*
G37*
G36*
X143971000Y-107876000D02*
G01*
X142969000Y-107876000D01*
X142969000Y-104774000D01*
X143971000Y-104774000D01*
X143971000Y-107876000D01*
G37*
G36*
X142701000Y-107876000D02*
G01*
X141699000Y-107876000D01*
X141699000Y-104774000D01*
X142701000Y-104774000D01*
X142701000Y-107876000D01*
G37*
G36*
X141431000Y-107876000D02*
G01*
X140429000Y-107876000D01*
X140429000Y-104774000D01*
X141431000Y-104774000D01*
X141431000Y-107876000D01*
G37*
G36*
X140161000Y-107876000D02*
G01*
X139159000Y-107876000D01*
X139159000Y-104774000D01*
X140161000Y-104774000D01*
X140161000Y-107876000D01*
G37*
G36*
X150601000Y-107726000D02*
G01*
X147499000Y-107726000D01*
X147499000Y-106724000D01*
X150601000Y-106724000D01*
X150601000Y-107726000D01*
G37*
G36*
X136901000Y-107726000D02*
G01*
X133799000Y-107726000D01*
X133799000Y-106724000D01*
X136901000Y-106724000D01*
X136901000Y-107726000D01*
G37*
G36*
X131876000Y-106726000D02*
G01*
X131334000Y-106726000D01*
X131334000Y-105684000D01*
X131876000Y-105684000D01*
X131876000Y-106726000D01*
G37*
G36*
X130606000Y-106726000D02*
G01*
X130064000Y-106726000D01*
X130064000Y-105684000D01*
X130606000Y-105684000D01*
X130606000Y-106726000D01*
G37*
G36*
X128066000Y-106726000D02*
G01*
X127524000Y-106726000D01*
X127524000Y-105684000D01*
X128066000Y-105684000D01*
X128066000Y-106726000D01*
G37*
G36*
X129336000Y-106726000D02*
G01*
X128794000Y-106726000D01*
X128794000Y-105684000D01*
X129336000Y-105684000D01*
X129336000Y-106726000D01*
G37*
G36*
X129029591Y-103978085D02*
G01*
X129063569Y-103988393D01*
X129094890Y-104005134D01*
X129122339Y-104027661D01*
X129144866Y-104055110D01*
X129161607Y-104086431D01*
X129171915Y-104120409D01*
X129176000Y-104161890D01*
X129176000Y-104838110D01*
X129171915Y-104879591D01*
X129161607Y-104913569D01*
X129144866Y-104944890D01*
X129122339Y-104972339D01*
X129094890Y-104994866D01*
X129063569Y-105011607D01*
X129029591Y-105021915D01*
X128988110Y-105026000D01*
X128386890Y-105026000D01*
X128345409Y-105021915D01*
X128311431Y-105011607D01*
X128280110Y-104994866D01*
X128252661Y-104972339D01*
X128230134Y-104944890D01*
X128213393Y-104913569D01*
X128203085Y-104879591D01*
X128199000Y-104838110D01*
X128199000Y-104161890D01*
X128203085Y-104120409D01*
X128213393Y-104086431D01*
X128230134Y-104055110D01*
X128252661Y-104027661D01*
X128280110Y-104005134D01*
X128311431Y-103988393D01*
X128345409Y-103978085D01*
X128386890Y-103974000D01*
X128988110Y-103974000D01*
X129029591Y-103978085D01*
G37*
G36*
X127454591Y-103978085D02*
G01*
X127488569Y-103988393D01*
X127519890Y-104005134D01*
X127547339Y-104027661D01*
X127569866Y-104055110D01*
X127586607Y-104086431D01*
X127596915Y-104120409D01*
X127601000Y-104161890D01*
X127601000Y-104838110D01*
X127596915Y-104879591D01*
X127586607Y-104913569D01*
X127569866Y-104944890D01*
X127547339Y-104972339D01*
X127519890Y-104994866D01*
X127488569Y-105011607D01*
X127454591Y-105021915D01*
X127413110Y-105026000D01*
X126811890Y-105026000D01*
X126770409Y-105021915D01*
X126736431Y-105011607D01*
X126705110Y-104994866D01*
X126677661Y-104972339D01*
X126655134Y-104944890D01*
X126638393Y-104913569D01*
X126628085Y-104879591D01*
X126624000Y-104838110D01*
X126624000Y-104161890D01*
X126628085Y-104120409D01*
X126638393Y-104086431D01*
X126655134Y-104055110D01*
X126677661Y-104027661D01*
X126705110Y-104005134D01*
X126736431Y-103988393D01*
X126770409Y-103978085D01*
X126811890Y-103974000D01*
X127413110Y-103974000D01*
X127454591Y-103978085D01*
G37*
G36*
X148604591Y-103078085D02*
G01*
X148638569Y-103088393D01*
X148669890Y-103105134D01*
X148697339Y-103127661D01*
X148719866Y-103155110D01*
X148736607Y-103186431D01*
X148746915Y-103220409D01*
X148751000Y-103261890D01*
X148751000Y-103938110D01*
X148746915Y-103979591D01*
X148736607Y-104013569D01*
X148719866Y-104044890D01*
X148697339Y-104072339D01*
X148669890Y-104094866D01*
X148638569Y-104111607D01*
X148604591Y-104121915D01*
X148563110Y-104126000D01*
X147961890Y-104126000D01*
X147920409Y-104121915D01*
X147886431Y-104111607D01*
X147855110Y-104094866D01*
X147827661Y-104072339D01*
X147805134Y-104044890D01*
X147788393Y-104013569D01*
X147778085Y-103979591D01*
X147774000Y-103938110D01*
X147774000Y-103261890D01*
X147778085Y-103220409D01*
X147788393Y-103186431D01*
X147805134Y-103155110D01*
X147827661Y-103127661D01*
X147855110Y-103105134D01*
X147886431Y-103088393D01*
X147920409Y-103078085D01*
X147961890Y-103074000D01*
X148563110Y-103074000D01*
X148604591Y-103078085D01*
G37*
G36*
X150179591Y-103078085D02*
G01*
X150213569Y-103088393D01*
X150244890Y-103105134D01*
X150272339Y-103127661D01*
X150294866Y-103155110D01*
X150311607Y-103186431D01*
X150321915Y-103220409D01*
X150326000Y-103261890D01*
X150326000Y-103938110D01*
X150321915Y-103979591D01*
X150311607Y-104013569D01*
X150294866Y-104044890D01*
X150272339Y-104072339D01*
X150244890Y-104094866D01*
X150213569Y-104111607D01*
X150179591Y-104121915D01*
X150138110Y-104126000D01*
X149536890Y-104126000D01*
X149495409Y-104121915D01*
X149461431Y-104111607D01*
X149430110Y-104094866D01*
X149402661Y-104072339D01*
X149380134Y-104044890D01*
X149363393Y-104013569D01*
X149353085Y-103979591D01*
X149349000Y-103938110D01*
X149349000Y-103261890D01*
X149353085Y-103220409D01*
X149363393Y-103186431D01*
X149380134Y-103155110D01*
X149402661Y-103127661D01*
X149430110Y-103105134D01*
X149461431Y-103088393D01*
X149495409Y-103078085D01*
X149536890Y-103074000D01*
X150138110Y-103074000D01*
X150179591Y-103078085D01*
G37*
G36*
X137254591Y-102828085D02*
G01*
X137288569Y-102838393D01*
X137319890Y-102855134D01*
X137347339Y-102877661D01*
X137369866Y-102905110D01*
X137386607Y-102936431D01*
X137396915Y-102970409D01*
X137401000Y-103011890D01*
X137401000Y-103688110D01*
X137396915Y-103729591D01*
X137386607Y-103763569D01*
X137369866Y-103794890D01*
X137347339Y-103822339D01*
X137319890Y-103844866D01*
X137288569Y-103861607D01*
X137254591Y-103871915D01*
X137213110Y-103876000D01*
X136611890Y-103876000D01*
X136570409Y-103871915D01*
X136536431Y-103861607D01*
X136505110Y-103844866D01*
X136477661Y-103822339D01*
X136455134Y-103794890D01*
X136438393Y-103763569D01*
X136428085Y-103729591D01*
X136424000Y-103688110D01*
X136424000Y-103011890D01*
X136428085Y-102970409D01*
X136438393Y-102936431D01*
X136455134Y-102905110D01*
X136477661Y-102877661D01*
X136505110Y-102855134D01*
X136536431Y-102838393D01*
X136570409Y-102828085D01*
X136611890Y-102824000D01*
X137213110Y-102824000D01*
X137254591Y-102828085D01*
G37*
G36*
X138829591Y-102828085D02*
G01*
X138863569Y-102838393D01*
X138894890Y-102855134D01*
X138922339Y-102877661D01*
X138944866Y-102905110D01*
X138961607Y-102936431D01*
X138971915Y-102970409D01*
X138976000Y-103011890D01*
X138976000Y-103688110D01*
X138971915Y-103729591D01*
X138961607Y-103763569D01*
X138944866Y-103794890D01*
X138922339Y-103822339D01*
X138894890Y-103844866D01*
X138863569Y-103861607D01*
X138829591Y-103871915D01*
X138788110Y-103876000D01*
X138186890Y-103876000D01*
X138145409Y-103871915D01*
X138111431Y-103861607D01*
X138080110Y-103844866D01*
X138052661Y-103822339D01*
X138030134Y-103794890D01*
X138013393Y-103763569D01*
X138003085Y-103729591D01*
X137999000Y-103688110D01*
X137999000Y-103011890D01*
X138003085Y-102970409D01*
X138013393Y-102936431D01*
X138030134Y-102905110D01*
X138052661Y-102877661D01*
X138080110Y-102855134D01*
X138111431Y-102838393D01*
X138145409Y-102828085D01*
X138186890Y-102824000D01*
X138788110Y-102824000D01*
X138829591Y-102828085D01*
G37*
G36*
X135229591Y-102828085D02*
G01*
X135263569Y-102838393D01*
X135294890Y-102855134D01*
X135322339Y-102877661D01*
X135344866Y-102905110D01*
X135361607Y-102936431D01*
X135371915Y-102970409D01*
X135376000Y-103011890D01*
X135376000Y-103688110D01*
X135371915Y-103729591D01*
X135361607Y-103763569D01*
X135344866Y-103794890D01*
X135322339Y-103822339D01*
X135294890Y-103844866D01*
X135263569Y-103861607D01*
X135229591Y-103871915D01*
X135188110Y-103876000D01*
X134586890Y-103876000D01*
X134545409Y-103871915D01*
X134511431Y-103861607D01*
X134480110Y-103844866D01*
X134452661Y-103822339D01*
X134430134Y-103794890D01*
X134413393Y-103763569D01*
X134403085Y-103729591D01*
X134399000Y-103688110D01*
X134399000Y-103011890D01*
X134403085Y-102970409D01*
X134413393Y-102936431D01*
X134430134Y-102905110D01*
X134452661Y-102877661D01*
X134480110Y-102855134D01*
X134511431Y-102838393D01*
X134545409Y-102828085D01*
X134586890Y-102824000D01*
X135188110Y-102824000D01*
X135229591Y-102828085D01*
G37*
G36*
X133654591Y-102828085D02*
G01*
X133688569Y-102838393D01*
X133719890Y-102855134D01*
X133747339Y-102877661D01*
X133769866Y-102905110D01*
X133786607Y-102936431D01*
X133796915Y-102970409D01*
X133801000Y-103011890D01*
X133801000Y-103688110D01*
X133796915Y-103729591D01*
X133786607Y-103763569D01*
X133769866Y-103794890D01*
X133747339Y-103822339D01*
X133719890Y-103844866D01*
X133688569Y-103861607D01*
X133654591Y-103871915D01*
X133613110Y-103876000D01*
X133011890Y-103876000D01*
X132970409Y-103871915D01*
X132936431Y-103861607D01*
X132905110Y-103844866D01*
X132877661Y-103822339D01*
X132855134Y-103794890D01*
X132838393Y-103763569D01*
X132828085Y-103729591D01*
X132824000Y-103688110D01*
X132824000Y-103011890D01*
X132828085Y-102970409D01*
X132838393Y-102936431D01*
X132855134Y-102905110D01*
X132877661Y-102877661D01*
X132905110Y-102855134D01*
X132936431Y-102838393D01*
X132970409Y-102828085D01*
X133011890Y-102824000D01*
X133613110Y-102824000D01*
X133654591Y-102828085D01*
G37*
G36*
X148604591Y-101378085D02*
G01*
X148638569Y-101388393D01*
X148669890Y-101405134D01*
X148697339Y-101427661D01*
X148719866Y-101455110D01*
X148736607Y-101486431D01*
X148746915Y-101520409D01*
X148751000Y-101561890D01*
X148751000Y-102238110D01*
X148746915Y-102279591D01*
X148736607Y-102313569D01*
X148719866Y-102344890D01*
X148697339Y-102372339D01*
X148669890Y-102394866D01*
X148638569Y-102411607D01*
X148604591Y-102421915D01*
X148563110Y-102426000D01*
X147961890Y-102426000D01*
X147920409Y-102421915D01*
X147886431Y-102411607D01*
X147855110Y-102394866D01*
X147827661Y-102372339D01*
X147805134Y-102344890D01*
X147788393Y-102313569D01*
X147778085Y-102279591D01*
X147774000Y-102238110D01*
X147774000Y-101561890D01*
X147778085Y-101520409D01*
X147788393Y-101486431D01*
X147805134Y-101455110D01*
X147827661Y-101427661D01*
X147855110Y-101405134D01*
X147886431Y-101388393D01*
X147920409Y-101378085D01*
X147961890Y-101374000D01*
X148563110Y-101374000D01*
X148604591Y-101378085D01*
G37*
G36*
X150179591Y-101378085D02*
G01*
X150213569Y-101388393D01*
X150244890Y-101405134D01*
X150272339Y-101427661D01*
X150294866Y-101455110D01*
X150311607Y-101486431D01*
X150321915Y-101520409D01*
X150326000Y-101561890D01*
X150326000Y-102238110D01*
X150321915Y-102279591D01*
X150311607Y-102313569D01*
X150294866Y-102344890D01*
X150272339Y-102372339D01*
X150244890Y-102394866D01*
X150213569Y-102411607D01*
X150179591Y-102421915D01*
X150138110Y-102426000D01*
X149536890Y-102426000D01*
X149495409Y-102421915D01*
X149461431Y-102411607D01*
X149430110Y-102394866D01*
X149402661Y-102372339D01*
X149380134Y-102344890D01*
X149363393Y-102313569D01*
X149353085Y-102279591D01*
X149349000Y-102238110D01*
X149349000Y-101561890D01*
X149353085Y-101520409D01*
X149363393Y-101486431D01*
X149380134Y-101455110D01*
X149402661Y-101427661D01*
X149430110Y-101405134D01*
X149461431Y-101388393D01*
X149495409Y-101378085D01*
X149536890Y-101374000D01*
X150138110Y-101374000D01*
X150179591Y-101378085D01*
G37*
G36*
X137570000Y-101620000D02*
G01*
X136130000Y-101620000D01*
X136130000Y-100880000D01*
X137570000Y-100880000D01*
X137570000Y-101620000D01*
G37*
G36*
X131701000Y-101076000D02*
G01*
X127599000Y-101076000D01*
X127599000Y-99274000D01*
X131701000Y-99274000D01*
X131701000Y-101076000D01*
G37*
G36*
X135470000Y-100670000D02*
G01*
X134030000Y-100670000D01*
X134030000Y-99930000D01*
X135470000Y-99930000D01*
X135470000Y-100670000D01*
G37*
G36*
X137570000Y-99720000D02*
G01*
X136130000Y-99720000D01*
X136130000Y-98980000D01*
X137570000Y-98980000D01*
X137570000Y-99720000D01*
G37*
G36*
X143584468Y-97203565D02*
G01*
X143623138Y-97215296D01*
X143658777Y-97234346D01*
X143690017Y-97259983D01*
X143715654Y-97291223D01*
X143734704Y-97326862D01*
X143746435Y-97365532D01*
X143751000Y-97411888D01*
X143751000Y-98063112D01*
X143746435Y-98109468D01*
X143734704Y-98148138D01*
X143715654Y-98183777D01*
X143690017Y-98215017D01*
X143658777Y-98240654D01*
X143623138Y-98259704D01*
X143584468Y-98271435D01*
X143538112Y-98276000D01*
X142461888Y-98276000D01*
X142415532Y-98271435D01*
X142376862Y-98259704D01*
X142341223Y-98240654D01*
X142309983Y-98215017D01*
X142284346Y-98183777D01*
X142265296Y-98148138D01*
X142253565Y-98109468D01*
X142249000Y-98063112D01*
X142249000Y-97411888D01*
X142253565Y-97365532D01*
X142265296Y-97326862D01*
X142284346Y-97291223D01*
X142309983Y-97259983D01*
X142341223Y-97234346D01*
X142376862Y-97215296D01*
X142415532Y-97203565D01*
X142461888Y-97199000D01*
X143538112Y-97199000D01*
X143584468Y-97203565D01*
G37*
G36*
X149984468Y-97103565D02*
G01*
X150023138Y-97115296D01*
X150058777Y-97134346D01*
X150090017Y-97159983D01*
X150115654Y-97191223D01*
X150134704Y-97226862D01*
X150146435Y-97265532D01*
X150151000Y-97311888D01*
X150151000Y-97963112D01*
X150146435Y-98009468D01*
X150134704Y-98048138D01*
X150115654Y-98083777D01*
X150090017Y-98115017D01*
X150058777Y-98140654D01*
X150023138Y-98159704D01*
X149984468Y-98171435D01*
X149938112Y-98176000D01*
X148861888Y-98176000D01*
X148815532Y-98171435D01*
X148776862Y-98159704D01*
X148741223Y-98140654D01*
X148709983Y-98115017D01*
X148684346Y-98083777D01*
X148665296Y-98048138D01*
X148653565Y-98009468D01*
X148649000Y-97963112D01*
X148649000Y-97311888D01*
X148653565Y-97265532D01*
X148665296Y-97226862D01*
X148684346Y-97191223D01*
X148709983Y-97159983D01*
X148741223Y-97134346D01*
X148776862Y-97115296D01*
X148815532Y-97103565D01*
X148861888Y-97099000D01*
X149938112Y-97099000D01*
X149984468Y-97103565D01*
G37*
G36*
X145601000Y-97996000D02*
G01*
X144289000Y-97996000D01*
X144289000Y-97304000D01*
X145601000Y-97304000D01*
X145601000Y-97996000D01*
G37*
G36*
X148111000Y-97996000D02*
G01*
X146799000Y-97996000D01*
X146799000Y-97304000D01*
X148111000Y-97304000D01*
X148111000Y-97996000D01*
G37*
G36*
X134642091Y-96578085D02*
G01*
X134676069Y-96588393D01*
X134707390Y-96605134D01*
X134734839Y-96627661D01*
X134757366Y-96655110D01*
X134774107Y-96686431D01*
X134784415Y-96720409D01*
X134788500Y-96761890D01*
X134788500Y-97438110D01*
X134784415Y-97479591D01*
X134774107Y-97513569D01*
X134757366Y-97544890D01*
X134734839Y-97572339D01*
X134707390Y-97594866D01*
X134676069Y-97611607D01*
X134642091Y-97621915D01*
X134600610Y-97626000D01*
X133999390Y-97626000D01*
X133957909Y-97621915D01*
X133923931Y-97611607D01*
X133892610Y-97594866D01*
X133865161Y-97572339D01*
X133842634Y-97544890D01*
X133825893Y-97513569D01*
X133815585Y-97479591D01*
X133811500Y-97438110D01*
X133811500Y-96761890D01*
X133815585Y-96720409D01*
X133825893Y-96686431D01*
X133842634Y-96655110D01*
X133865161Y-96627661D01*
X133892610Y-96605134D01*
X133923931Y-96588393D01*
X133957909Y-96578085D01*
X133999390Y-96574000D01*
X134600610Y-96574000D01*
X134642091Y-96578085D01*
G37*
G36*
X139454591Y-96578085D02*
G01*
X139488569Y-96588393D01*
X139519890Y-96605134D01*
X139547339Y-96627661D01*
X139569866Y-96655110D01*
X139586607Y-96686431D01*
X139596915Y-96720409D01*
X139601000Y-96761890D01*
X139601000Y-97438110D01*
X139596915Y-97479591D01*
X139586607Y-97513569D01*
X139569866Y-97544890D01*
X139547339Y-97572339D01*
X139519890Y-97594866D01*
X139488569Y-97611607D01*
X139454591Y-97621915D01*
X139413110Y-97626000D01*
X138811890Y-97626000D01*
X138770409Y-97621915D01*
X138736431Y-97611607D01*
X138705110Y-97594866D01*
X138677661Y-97572339D01*
X138655134Y-97544890D01*
X138638393Y-97513569D01*
X138628085Y-97479591D01*
X138624000Y-97438110D01*
X138624000Y-96761890D01*
X138628085Y-96720409D01*
X138638393Y-96686431D01*
X138655134Y-96655110D01*
X138677661Y-96627661D01*
X138705110Y-96605134D01*
X138736431Y-96588393D01*
X138770409Y-96578085D01*
X138811890Y-96574000D01*
X139413110Y-96574000D01*
X139454591Y-96578085D01*
G37*
G36*
X136217091Y-96578085D02*
G01*
X136251069Y-96588393D01*
X136282390Y-96605134D01*
X136309839Y-96627661D01*
X136332366Y-96655110D01*
X136349107Y-96686431D01*
X136359415Y-96720409D01*
X136363500Y-96761890D01*
X136363500Y-97438110D01*
X136359415Y-97479591D01*
X136349107Y-97513569D01*
X136332366Y-97544890D01*
X136309839Y-97572339D01*
X136282390Y-97594866D01*
X136251069Y-97611607D01*
X136217091Y-97621915D01*
X136175610Y-97626000D01*
X135574390Y-97626000D01*
X135532909Y-97621915D01*
X135498931Y-97611607D01*
X135467610Y-97594866D01*
X135440161Y-97572339D01*
X135417634Y-97544890D01*
X135400893Y-97513569D01*
X135390585Y-97479591D01*
X135386500Y-97438110D01*
X135386500Y-96761890D01*
X135390585Y-96720409D01*
X135400893Y-96686431D01*
X135417634Y-96655110D01*
X135440161Y-96627661D01*
X135467610Y-96605134D01*
X135498931Y-96588393D01*
X135532909Y-96578085D01*
X135574390Y-96574000D01*
X136175610Y-96574000D01*
X136217091Y-96578085D01*
G37*
G36*
X141029591Y-96578085D02*
G01*
X141063569Y-96588393D01*
X141094890Y-96605134D01*
X141122339Y-96627661D01*
X141144866Y-96655110D01*
X141161607Y-96686431D01*
X141171915Y-96720409D01*
X141176000Y-96761890D01*
X141176000Y-97438110D01*
X141171915Y-97479591D01*
X141161607Y-97513569D01*
X141144866Y-97544890D01*
X141122339Y-97572339D01*
X141094890Y-97594866D01*
X141063569Y-97611607D01*
X141029591Y-97621915D01*
X140988110Y-97626000D01*
X140386890Y-97626000D01*
X140345409Y-97621915D01*
X140311431Y-97611607D01*
X140280110Y-97594866D01*
X140252661Y-97572339D01*
X140230134Y-97544890D01*
X140213393Y-97513569D01*
X140203085Y-97479591D01*
X140199000Y-97438110D01*
X140199000Y-96761890D01*
X140203085Y-96720409D01*
X140213393Y-96686431D01*
X140230134Y-96655110D01*
X140252661Y-96627661D01*
X140280110Y-96605134D01*
X140311431Y-96588393D01*
X140345409Y-96578085D01*
X140386890Y-96574000D01*
X140988110Y-96574000D01*
X141029591Y-96578085D01*
G37*
G36*
X137879591Y-96603085D02*
G01*
X137913569Y-96613393D01*
X137944890Y-96630134D01*
X137972339Y-96652661D01*
X137994866Y-96680110D01*
X138011607Y-96711431D01*
X138021915Y-96745409D01*
X138026000Y-96786890D01*
X138026000Y-97388110D01*
X138021915Y-97429591D01*
X138011607Y-97463569D01*
X137994866Y-97494890D01*
X137972339Y-97522339D01*
X137944890Y-97544866D01*
X137913569Y-97561607D01*
X137879591Y-97571915D01*
X137838110Y-97576000D01*
X137161890Y-97576000D01*
X137120409Y-97571915D01*
X137086431Y-97561607D01*
X137055110Y-97544866D01*
X137027661Y-97522339D01*
X137005134Y-97494890D01*
X136988393Y-97463569D01*
X136978085Y-97429591D01*
X136974000Y-97388110D01*
X136974000Y-96786890D01*
X136978085Y-96745409D01*
X136988393Y-96711431D01*
X137005134Y-96680110D01*
X137027661Y-96652661D01*
X137055110Y-96630134D01*
X137086431Y-96613393D01*
X137120409Y-96603085D01*
X137161890Y-96599000D01*
X137838110Y-96599000D01*
X137879591Y-96603085D01*
G37*
G36*
X148111000Y-97046000D02*
G01*
X146799000Y-97046000D01*
X146799000Y-96354000D01*
X148111000Y-96354000D01*
X148111000Y-97046000D01*
G37*
G36*
X143584468Y-95328565D02*
G01*
X143623138Y-95340296D01*
X143658777Y-95359346D01*
X143690017Y-95384983D01*
X143715654Y-95416223D01*
X143734704Y-95451862D01*
X143746435Y-95490532D01*
X143751000Y-95536888D01*
X143751000Y-96188112D01*
X143746435Y-96234468D01*
X143734704Y-96273138D01*
X143715654Y-96308777D01*
X143690017Y-96340017D01*
X143658777Y-96365654D01*
X143623138Y-96384704D01*
X143584468Y-96396435D01*
X143538112Y-96401000D01*
X142461888Y-96401000D01*
X142415532Y-96396435D01*
X142376862Y-96384704D01*
X142341223Y-96365654D01*
X142309983Y-96340017D01*
X142284346Y-96308777D01*
X142265296Y-96273138D01*
X142253565Y-96234468D01*
X142249000Y-96188112D01*
X142249000Y-95536888D01*
X142253565Y-95490532D01*
X142265296Y-95451862D01*
X142284346Y-95416223D01*
X142309983Y-95384983D01*
X142341223Y-95359346D01*
X142376862Y-95340296D01*
X142415532Y-95328565D01*
X142461888Y-95324000D01*
X143538112Y-95324000D01*
X143584468Y-95328565D01*
G37*
G36*
X149984468Y-95228565D02*
G01*
X150023138Y-95240296D01*
X150058777Y-95259346D01*
X150090017Y-95284983D01*
X150115654Y-95316223D01*
X150134704Y-95351862D01*
X150146435Y-95390532D01*
X150151000Y-95436888D01*
X150151000Y-96088112D01*
X150146435Y-96134468D01*
X150134704Y-96173138D01*
X150115654Y-96208777D01*
X150090017Y-96240017D01*
X150058777Y-96265654D01*
X150023138Y-96284704D01*
X149984468Y-96296435D01*
X149938112Y-96301000D01*
X148861888Y-96301000D01*
X148815532Y-96296435D01*
X148776862Y-96284704D01*
X148741223Y-96265654D01*
X148709983Y-96240017D01*
X148684346Y-96208777D01*
X148665296Y-96173138D01*
X148653565Y-96134468D01*
X148649000Y-96088112D01*
X148649000Y-95436888D01*
X148653565Y-95390532D01*
X148665296Y-95351862D01*
X148684346Y-95316223D01*
X148709983Y-95284983D01*
X148741223Y-95259346D01*
X148776862Y-95240296D01*
X148815532Y-95228565D01*
X148861888Y-95224000D01*
X149938112Y-95224000D01*
X149984468Y-95228565D01*
G37*
G36*
X134654591Y-95078085D02*
G01*
X134688569Y-95088393D01*
X134719890Y-95105134D01*
X134747339Y-95127661D01*
X134769866Y-95155110D01*
X134786607Y-95186431D01*
X134796915Y-95220409D01*
X134801000Y-95261890D01*
X134801000Y-95938110D01*
X134796915Y-95979591D01*
X134786607Y-96013569D01*
X134769866Y-96044890D01*
X134747339Y-96072339D01*
X134719890Y-96094866D01*
X134688569Y-96111607D01*
X134654591Y-96121915D01*
X134613110Y-96126000D01*
X134011890Y-96126000D01*
X133970409Y-96121915D01*
X133936431Y-96111607D01*
X133905110Y-96094866D01*
X133877661Y-96072339D01*
X133855134Y-96044890D01*
X133838393Y-96013569D01*
X133828085Y-95979591D01*
X133824000Y-95938110D01*
X133824000Y-95261890D01*
X133828085Y-95220409D01*
X133838393Y-95186431D01*
X133855134Y-95155110D01*
X133877661Y-95127661D01*
X133905110Y-95105134D01*
X133936431Y-95088393D01*
X133970409Y-95078085D01*
X134011890Y-95074000D01*
X134613110Y-95074000D01*
X134654591Y-95078085D01*
G37*
G36*
X141029591Y-95078085D02*
G01*
X141063569Y-95088393D01*
X141094890Y-95105134D01*
X141122339Y-95127661D01*
X141144866Y-95155110D01*
X141161607Y-95186431D01*
X141171915Y-95220409D01*
X141176000Y-95261890D01*
X141176000Y-95938110D01*
X141171915Y-95979591D01*
X141161607Y-96013569D01*
X141144866Y-96044890D01*
X141122339Y-96072339D01*
X141094890Y-96094866D01*
X141063569Y-96111607D01*
X141029591Y-96121915D01*
X140988110Y-96126000D01*
X140386890Y-96126000D01*
X140345409Y-96121915D01*
X140311431Y-96111607D01*
X140280110Y-96094866D01*
X140252661Y-96072339D01*
X140230134Y-96044890D01*
X140213393Y-96013569D01*
X140203085Y-95979591D01*
X140199000Y-95938110D01*
X140199000Y-95261890D01*
X140203085Y-95220409D01*
X140213393Y-95186431D01*
X140230134Y-95155110D01*
X140252661Y-95127661D01*
X140280110Y-95105134D01*
X140311431Y-95088393D01*
X140345409Y-95078085D01*
X140386890Y-95074000D01*
X140988110Y-95074000D01*
X141029591Y-95078085D01*
G37*
G36*
X139454591Y-95078085D02*
G01*
X139488569Y-95088393D01*
X139519890Y-95105134D01*
X139547339Y-95127661D01*
X139569866Y-95155110D01*
X139586607Y-95186431D01*
X139596915Y-95220409D01*
X139601000Y-95261890D01*
X139601000Y-95938110D01*
X139596915Y-95979591D01*
X139586607Y-96013569D01*
X139569866Y-96044890D01*
X139547339Y-96072339D01*
X139519890Y-96094866D01*
X139488569Y-96111607D01*
X139454591Y-96121915D01*
X139413110Y-96126000D01*
X138811890Y-96126000D01*
X138770409Y-96121915D01*
X138736431Y-96111607D01*
X138705110Y-96094866D01*
X138677661Y-96072339D01*
X138655134Y-96044890D01*
X138638393Y-96013569D01*
X138628085Y-95979591D01*
X138624000Y-95938110D01*
X138624000Y-95261890D01*
X138628085Y-95220409D01*
X138638393Y-95186431D01*
X138655134Y-95155110D01*
X138677661Y-95127661D01*
X138705110Y-95105134D01*
X138736431Y-95088393D01*
X138770409Y-95078085D01*
X138811890Y-95074000D01*
X139413110Y-95074000D01*
X139454591Y-95078085D01*
G37*
G36*
X136229591Y-95078085D02*
G01*
X136263569Y-95088393D01*
X136294890Y-95105134D01*
X136322339Y-95127661D01*
X136344866Y-95155110D01*
X136361607Y-95186431D01*
X136371915Y-95220409D01*
X136376000Y-95261890D01*
X136376000Y-95938110D01*
X136371915Y-95979591D01*
X136361607Y-96013569D01*
X136344866Y-96044890D01*
X136322339Y-96072339D01*
X136294890Y-96094866D01*
X136263569Y-96111607D01*
X136229591Y-96121915D01*
X136188110Y-96126000D01*
X135586890Y-96126000D01*
X135545409Y-96121915D01*
X135511431Y-96111607D01*
X135480110Y-96094866D01*
X135452661Y-96072339D01*
X135430134Y-96044890D01*
X135413393Y-96013569D01*
X135403085Y-95979591D01*
X135399000Y-95938110D01*
X135399000Y-95261890D01*
X135403085Y-95220409D01*
X135413393Y-95186431D01*
X135430134Y-95155110D01*
X135452661Y-95127661D01*
X135480110Y-95105134D01*
X135511431Y-95088393D01*
X135545409Y-95078085D01*
X135586890Y-95074000D01*
X136188110Y-95074000D01*
X136229591Y-95078085D01*
G37*
G36*
X148111000Y-96096000D02*
G01*
X146799000Y-96096000D01*
X146799000Y-95404000D01*
X148111000Y-95404000D01*
X148111000Y-96096000D01*
G37*
G36*
X145601000Y-96096000D02*
G01*
X144289000Y-96096000D01*
X144289000Y-95404000D01*
X145601000Y-95404000D01*
X145601000Y-96096000D01*
G37*
G36*
X137879591Y-95028085D02*
G01*
X137913569Y-95038393D01*
X137944890Y-95055134D01*
X137972339Y-95077661D01*
X137994866Y-95105110D01*
X138011607Y-95136431D01*
X138021915Y-95170409D01*
X138026000Y-95211890D01*
X138026000Y-95813110D01*
X138021915Y-95854591D01*
X138011607Y-95888569D01*
X137994866Y-95919890D01*
X137972339Y-95947339D01*
X137944890Y-95969866D01*
X137913569Y-95986607D01*
X137879591Y-95996915D01*
X137838110Y-96001000D01*
X137161890Y-96001000D01*
X137120409Y-95996915D01*
X137086431Y-95986607D01*
X137055110Y-95969866D01*
X137027661Y-95947339D01*
X137005134Y-95919890D01*
X136988393Y-95888569D01*
X136978085Y-95854591D01*
X136974000Y-95813110D01*
X136974000Y-95211890D01*
X136978085Y-95170409D01*
X136988393Y-95136431D01*
X137005134Y-95105110D01*
X137027661Y-95077661D01*
X137055110Y-95055134D01*
X137086431Y-95038393D01*
X137120409Y-95028085D01*
X137161890Y-95024000D01*
X137838110Y-95024000D01*
X137879591Y-95028085D01*
G37*
G36*
X149529591Y-93678085D02*
G01*
X149563569Y-93688393D01*
X149594890Y-93705134D01*
X149622339Y-93727661D01*
X149644866Y-93755110D01*
X149661607Y-93786431D01*
X149671915Y-93820409D01*
X149676000Y-93861890D01*
X149676000Y-94538110D01*
X149671915Y-94579591D01*
X149661607Y-94613569D01*
X149644866Y-94644890D01*
X149622339Y-94672339D01*
X149594890Y-94694866D01*
X149563569Y-94711607D01*
X149529591Y-94721915D01*
X149488110Y-94726000D01*
X148886890Y-94726000D01*
X148845409Y-94721915D01*
X148811431Y-94711607D01*
X148780110Y-94694866D01*
X148752661Y-94672339D01*
X148730134Y-94644890D01*
X148713393Y-94613569D01*
X148703085Y-94579591D01*
X148699000Y-94538110D01*
X148699000Y-93861890D01*
X148703085Y-93820409D01*
X148713393Y-93786431D01*
X148730134Y-93755110D01*
X148752661Y-93727661D01*
X148780110Y-93705134D01*
X148811431Y-93688393D01*
X148845409Y-93678085D01*
X148886890Y-93674000D01*
X149488110Y-93674000D01*
X149529591Y-93678085D01*
G37*
G36*
X147954591Y-93678085D02*
G01*
X147988569Y-93688393D01*
X148019890Y-93705134D01*
X148047339Y-93727661D01*
X148069866Y-93755110D01*
X148086607Y-93786431D01*
X148096915Y-93820409D01*
X148101000Y-93861890D01*
X148101000Y-94538110D01*
X148096915Y-94579591D01*
X148086607Y-94613569D01*
X148069866Y-94644890D01*
X148047339Y-94672339D01*
X148019890Y-94694866D01*
X147988569Y-94711607D01*
X147954591Y-94721915D01*
X147913110Y-94726000D01*
X147311890Y-94726000D01*
X147270409Y-94721915D01*
X147236431Y-94711607D01*
X147205110Y-94694866D01*
X147177661Y-94672339D01*
X147155134Y-94644890D01*
X147138393Y-94613569D01*
X147128085Y-94579591D01*
X147124000Y-94538110D01*
X147124000Y-93861890D01*
X147128085Y-93820409D01*
X147138393Y-93786431D01*
X147155134Y-93755110D01*
X147177661Y-93727661D01*
X147205110Y-93705134D01*
X147236431Y-93688393D01*
X147270409Y-93678085D01*
X147311890Y-93674000D01*
X147913110Y-93674000D01*
X147954591Y-93678085D01*
G37*
G36*
X135251000Y-93751000D02*
G01*
X134349000Y-93751000D01*
X134349000Y-89949000D01*
X135251000Y-89949000D01*
X135251000Y-93751000D01*
G37*
G36*
X137451000Y-93751000D02*
G01*
X136549000Y-93751000D01*
X136549000Y-89949000D01*
X137451000Y-89949000D01*
X137451000Y-93751000D01*
G37*
G36*
X141279591Y-92403085D02*
G01*
X141313569Y-92413393D01*
X141344890Y-92430134D01*
X141372339Y-92452661D01*
X141394866Y-92480110D01*
X141411607Y-92511431D01*
X141421915Y-92545409D01*
X141426000Y-92586890D01*
X141426000Y-93188110D01*
X141421915Y-93229591D01*
X141411607Y-93263569D01*
X141394866Y-93294890D01*
X141372339Y-93322339D01*
X141344890Y-93344866D01*
X141313569Y-93361607D01*
X141279591Y-93371915D01*
X141238110Y-93376000D01*
X140561890Y-93376000D01*
X140520409Y-93371915D01*
X140486431Y-93361607D01*
X140455110Y-93344866D01*
X140427661Y-93322339D01*
X140405134Y-93294890D01*
X140388393Y-93263569D01*
X140378085Y-93229591D01*
X140374000Y-93188110D01*
X140374000Y-92586890D01*
X140378085Y-92545409D01*
X140388393Y-92511431D01*
X140405134Y-92480110D01*
X140427661Y-92452661D01*
X140455110Y-92430134D01*
X140486431Y-92413393D01*
X140520409Y-92403085D01*
X140561890Y-92399000D01*
X141238110Y-92399000D01*
X141279591Y-92403085D01*
G37*
G36*
X142779591Y-92403085D02*
G01*
X142813569Y-92413393D01*
X142844890Y-92430134D01*
X142872339Y-92452661D01*
X142894866Y-92480110D01*
X142911607Y-92511431D01*
X142921915Y-92545409D01*
X142926000Y-92586890D01*
X142926000Y-93188110D01*
X142921915Y-93229591D01*
X142911607Y-93263569D01*
X142894866Y-93294890D01*
X142872339Y-93322339D01*
X142844890Y-93344866D01*
X142813569Y-93361607D01*
X142779591Y-93371915D01*
X142738110Y-93376000D01*
X142061890Y-93376000D01*
X142020409Y-93371915D01*
X141986431Y-93361607D01*
X141955110Y-93344866D01*
X141927661Y-93322339D01*
X141905134Y-93294890D01*
X141888393Y-93263569D01*
X141878085Y-93229591D01*
X141874000Y-93188110D01*
X141874000Y-92586890D01*
X141878085Y-92545409D01*
X141888393Y-92511431D01*
X141905134Y-92480110D01*
X141927661Y-92452661D01*
X141955110Y-92430134D01*
X141986431Y-92413393D01*
X142020409Y-92403085D01*
X142061890Y-92399000D01*
X142738110Y-92399000D01*
X142779591Y-92403085D01*
G37*
G36*
X149871968Y-91653565D02*
G01*
X149910638Y-91665296D01*
X149946277Y-91684346D01*
X149977517Y-91709983D01*
X150003154Y-91741223D01*
X150022204Y-91776862D01*
X150033935Y-91815532D01*
X150038500Y-91861888D01*
X150038500Y-92938112D01*
X150033935Y-92984468D01*
X150022204Y-93023138D01*
X150003154Y-93058777D01*
X149977517Y-93090017D01*
X149946277Y-93115654D01*
X149910638Y-93134704D01*
X149871968Y-93146435D01*
X149825612Y-93151000D01*
X149174388Y-93151000D01*
X149128032Y-93146435D01*
X149089362Y-93134704D01*
X149053723Y-93115654D01*
X149022483Y-93090017D01*
X148996846Y-93058777D01*
X148977796Y-93023138D01*
X148966065Y-92984468D01*
X148961500Y-92938112D01*
X148961500Y-91861888D01*
X148966065Y-91815532D01*
X148977796Y-91776862D01*
X148996846Y-91741223D01*
X149022483Y-91709983D01*
X149053723Y-91684346D01*
X149089362Y-91665296D01*
X149128032Y-91653565D01*
X149174388Y-91649000D01*
X149825612Y-91649000D01*
X149871968Y-91653565D01*
G37*
G36*
X147996968Y-91653565D02*
G01*
X148035638Y-91665296D01*
X148071277Y-91684346D01*
X148102517Y-91709983D01*
X148128154Y-91741223D01*
X148147204Y-91776862D01*
X148158935Y-91815532D01*
X148163500Y-91861888D01*
X148163500Y-92938112D01*
X148158935Y-92984468D01*
X148147204Y-93023138D01*
X148128154Y-93058777D01*
X148102517Y-93090017D01*
X148071277Y-93115654D01*
X148035638Y-93134704D01*
X147996968Y-93146435D01*
X147950612Y-93151000D01*
X147299388Y-93151000D01*
X147253032Y-93146435D01*
X147214362Y-93134704D01*
X147178723Y-93115654D01*
X147147483Y-93090017D01*
X147121846Y-93058777D01*
X147102796Y-93023138D01*
X147091065Y-92984468D01*
X147086500Y-92938112D01*
X147086500Y-91861888D01*
X147091065Y-91815532D01*
X147102796Y-91776862D01*
X147121846Y-91741223D01*
X147147483Y-91709983D01*
X147178723Y-91684346D01*
X147214362Y-91665296D01*
X147253032Y-91653565D01*
X147299388Y-91649000D01*
X147950612Y-91649000D01*
X147996968Y-91653565D01*
G37*
G36*
X142779591Y-90828085D02*
G01*
X142813569Y-90838393D01*
X142844890Y-90855134D01*
X142872339Y-90877661D01*
X142894866Y-90905110D01*
X142911607Y-90936431D01*
X142921915Y-90970409D01*
X142926000Y-91011890D01*
X142926000Y-91613110D01*
X142921915Y-91654591D01*
X142911607Y-91688569D01*
X142894866Y-91719890D01*
X142872339Y-91747339D01*
X142844890Y-91769866D01*
X142813569Y-91786607D01*
X142779591Y-91796915D01*
X142738110Y-91801000D01*
X142061890Y-91801000D01*
X142020409Y-91796915D01*
X141986431Y-91786607D01*
X141955110Y-91769866D01*
X141927661Y-91747339D01*
X141905134Y-91719890D01*
X141888393Y-91688569D01*
X141878085Y-91654591D01*
X141874000Y-91613110D01*
X141874000Y-91011890D01*
X141878085Y-90970409D01*
X141888393Y-90936431D01*
X141905134Y-90905110D01*
X141927661Y-90877661D01*
X141955110Y-90855134D01*
X141986431Y-90838393D01*
X142020409Y-90828085D01*
X142061890Y-90824000D01*
X142738110Y-90824000D01*
X142779591Y-90828085D01*
G37*
G36*
X141279591Y-90828085D02*
G01*
X141313569Y-90838393D01*
X141344890Y-90855134D01*
X141372339Y-90877661D01*
X141394866Y-90905110D01*
X141411607Y-90936431D01*
X141421915Y-90970409D01*
X141426000Y-91011890D01*
X141426000Y-91613110D01*
X141421915Y-91654591D01*
X141411607Y-91688569D01*
X141394866Y-91719890D01*
X141372339Y-91747339D01*
X141344890Y-91769866D01*
X141313569Y-91786607D01*
X141279591Y-91796915D01*
X141238110Y-91801000D01*
X140561890Y-91801000D01*
X140520409Y-91796915D01*
X140486431Y-91786607D01*
X140455110Y-91769866D01*
X140427661Y-91747339D01*
X140405134Y-91719890D01*
X140388393Y-91688569D01*
X140378085Y-91654591D01*
X140374000Y-91613110D01*
X140374000Y-91011890D01*
X140378085Y-90970409D01*
X140388393Y-90936431D01*
X140405134Y-90905110D01*
X140427661Y-90877661D01*
X140455110Y-90855134D01*
X140486431Y-90838393D01*
X140520409Y-90828085D01*
X140561890Y-90824000D01*
X141238110Y-90824000D01*
X141279591Y-90828085D01*
G37*
G36*
X132201000Y-91076000D02*
G01*
X127099000Y-91076000D01*
X127099000Y-88974000D01*
X132201000Y-88974000D01*
X132201000Y-91076000D01*
G37*
G36*
X148817023Y-88010590D02*
G01*
X148917682Y-88041125D01*
X148968013Y-88056392D01*
X149107165Y-88130771D01*
X149229133Y-88230867D01*
X149329229Y-88352835D01*
X149403608Y-88491987D01*
X149403608Y-88491988D01*
X149449410Y-88642977D01*
X149461000Y-88760655D01*
X149461000Y-89339345D01*
X149449410Y-89457023D01*
X149418875Y-89557682D01*
X149403608Y-89608013D01*
X149329230Y-89747164D01*
X149329229Y-89747165D01*
X149229133Y-89869133D01*
X149131813Y-89949000D01*
X149107164Y-89969229D01*
X148968012Y-90043608D01*
X148917681Y-90058875D01*
X148817022Y-90089410D01*
X148660000Y-90104875D01*
X148502977Y-90089410D01*
X148402318Y-90058875D01*
X148351987Y-90043608D01*
X148212835Y-89969229D01*
X148188186Y-89949000D01*
X148090867Y-89869133D01*
X147990771Y-89747164D01*
X147916393Y-89608013D01*
X147916392Y-89608012D01*
X147901125Y-89557681D01*
X147870590Y-89457022D01*
X147859000Y-89339344D01*
X147859000Y-88760655D01*
X147870590Y-88642977D01*
X147916392Y-88491988D01*
X147916392Y-88491987D01*
X147935607Y-88456039D01*
X147990771Y-88352835D01*
X148090868Y-88230867D01*
X148212836Y-88130771D01*
X148351988Y-88056392D01*
X148402319Y-88041125D01*
X148502978Y-88010590D01*
X148660000Y-87995125D01*
X148817023Y-88010590D01*
G37*
G36*
X141197023Y-88010590D02*
G01*
X141297682Y-88041125D01*
X141348013Y-88056392D01*
X141487165Y-88130771D01*
X141609133Y-88230867D01*
X141709229Y-88352835D01*
X141783608Y-88491987D01*
X141783608Y-88491988D01*
X141829410Y-88642977D01*
X141841000Y-88760655D01*
X141841000Y-89339345D01*
X141829410Y-89457023D01*
X141798875Y-89557682D01*
X141783608Y-89608013D01*
X141709230Y-89747164D01*
X141709229Y-89747165D01*
X141609133Y-89869133D01*
X141511813Y-89949000D01*
X141487164Y-89969229D01*
X141348012Y-90043608D01*
X141297681Y-90058875D01*
X141197022Y-90089410D01*
X141040000Y-90104875D01*
X140882977Y-90089410D01*
X140782318Y-90058875D01*
X140731987Y-90043608D01*
X140592835Y-89969229D01*
X140568186Y-89949000D01*
X140470867Y-89869133D01*
X140370771Y-89747164D01*
X140296393Y-89608013D01*
X140296392Y-89608012D01*
X140281125Y-89557681D01*
X140250590Y-89457022D01*
X140239000Y-89339344D01*
X140239000Y-88760655D01*
X140250590Y-88642977D01*
X140296392Y-88491988D01*
X140296392Y-88491987D01*
X140315607Y-88456039D01*
X140370771Y-88352835D01*
X140470868Y-88230867D01*
X140592836Y-88130771D01*
X140731988Y-88056392D01*
X140782319Y-88041125D01*
X140882978Y-88010590D01*
X141040000Y-87995125D01*
X141197023Y-88010590D01*
G37*
G36*
X143737023Y-88010590D02*
G01*
X143837682Y-88041125D01*
X143888013Y-88056392D01*
X144027165Y-88130771D01*
X144149133Y-88230867D01*
X144249229Y-88352835D01*
X144323608Y-88491987D01*
X144323608Y-88491988D01*
X144369410Y-88642977D01*
X144381000Y-88760655D01*
X144381000Y-89339345D01*
X144369410Y-89457023D01*
X144338875Y-89557682D01*
X144323608Y-89608013D01*
X144249230Y-89747164D01*
X144249229Y-89747165D01*
X144149133Y-89869133D01*
X144051813Y-89949000D01*
X144027164Y-89969229D01*
X143888012Y-90043608D01*
X143837681Y-90058875D01*
X143737022Y-90089410D01*
X143580000Y-90104875D01*
X143422977Y-90089410D01*
X143322318Y-90058875D01*
X143271987Y-90043608D01*
X143132835Y-89969229D01*
X143108186Y-89949000D01*
X143010867Y-89869133D01*
X142910771Y-89747164D01*
X142836393Y-89608013D01*
X142836392Y-89608012D01*
X142821125Y-89557681D01*
X142790590Y-89457022D01*
X142779000Y-89339344D01*
X142779000Y-88760655D01*
X142790590Y-88642977D01*
X142836392Y-88491988D01*
X142836392Y-88491987D01*
X142855607Y-88456039D01*
X142910771Y-88352835D01*
X143010868Y-88230867D01*
X143132836Y-88130771D01*
X143271988Y-88056392D01*
X143322319Y-88041125D01*
X143422978Y-88010590D01*
X143580000Y-87995125D01*
X143737023Y-88010590D01*
G37*
G36*
X146277023Y-88010590D02*
G01*
X146377682Y-88041125D01*
X146428013Y-88056392D01*
X146567165Y-88130771D01*
X146689133Y-88230867D01*
X146789229Y-88352835D01*
X146863608Y-88491987D01*
X146863608Y-88491988D01*
X146909410Y-88642977D01*
X146921000Y-88760655D01*
X146921000Y-89339345D01*
X146909410Y-89457023D01*
X146878875Y-89557682D01*
X146863608Y-89608013D01*
X146789230Y-89747164D01*
X146789229Y-89747165D01*
X146689133Y-89869133D01*
X146591813Y-89949000D01*
X146567164Y-89969229D01*
X146428012Y-90043608D01*
X146377681Y-90058875D01*
X146277022Y-90089410D01*
X146120000Y-90104875D01*
X145962977Y-90089410D01*
X145862318Y-90058875D01*
X145811987Y-90043608D01*
X145672835Y-89969229D01*
X145648186Y-89949000D01*
X145550867Y-89869133D01*
X145450771Y-89747164D01*
X145376393Y-89608013D01*
X145376392Y-89608012D01*
X145361125Y-89557681D01*
X145330590Y-89457022D01*
X145319000Y-89339344D01*
X145319000Y-88760655D01*
X145330590Y-88642977D01*
X145376392Y-88491988D01*
X145376392Y-88491987D01*
X145395607Y-88456039D01*
X145450771Y-88352835D01*
X145550868Y-88230867D01*
X145672836Y-88130771D01*
X145811988Y-88056392D01*
X145862319Y-88041125D01*
X145962978Y-88010590D01*
X146120000Y-87995125D01*
X146277023Y-88010590D01*
G37*
G36*
X129051000Y-87751000D02*
G01*
X127749000Y-87751000D01*
X127749000Y-86749000D01*
X129051000Y-86749000D01*
X129051000Y-87751000D01*
G37*
G36*
X135681200Y-86924200D02*
G01*
X131918800Y-86924200D01*
X131918800Y-85272800D01*
X135681200Y-85272800D01*
X135681200Y-86924200D01*
G37*
G36*
X146227618Y-84183420D02*
G01*
X146308400Y-84207925D01*
X146350336Y-84220646D01*
X146463425Y-84281094D01*
X146562554Y-84362446D01*
X146643906Y-84461575D01*
X146704354Y-84574664D01*
X146704355Y-84574668D01*
X146741580Y-84697382D01*
X146751000Y-84793027D01*
X146751000Y-85406973D01*
X146741580Y-85502618D01*
X146714040Y-85593404D01*
X146704354Y-85625336D01*
X146643906Y-85738425D01*
X146562554Y-85837553D01*
X146463424Y-85918906D01*
X146350335Y-85979354D01*
X146318403Y-85989040D01*
X146227617Y-86016580D01*
X146100000Y-86029149D01*
X145972382Y-86016580D01*
X145881596Y-85989040D01*
X145849664Y-85979354D01*
X145736575Y-85918906D01*
X145637447Y-85837554D01*
X145556094Y-85738424D01*
X145495646Y-85625335D01*
X145485960Y-85593403D01*
X145458420Y-85502617D01*
X145449000Y-85406972D01*
X145449000Y-84793027D01*
X145458420Y-84697382D01*
X145495645Y-84574668D01*
X145495645Y-84574667D01*
X145527957Y-84514217D01*
X145556095Y-84461574D01*
X145569493Y-84445249D01*
X145637447Y-84362446D01*
X145736576Y-84281094D01*
X145849665Y-84220646D01*
X145891601Y-84207925D01*
X145972383Y-84183420D01*
X146100000Y-84170851D01*
X146227618Y-84183420D01*
G37*
G36*
X144227618Y-84183420D02*
G01*
X144308400Y-84207925D01*
X144350336Y-84220646D01*
X144463425Y-84281094D01*
X144562554Y-84362446D01*
X144643906Y-84461575D01*
X144704354Y-84574664D01*
X144704355Y-84574668D01*
X144741580Y-84697382D01*
X144751000Y-84793027D01*
X144751000Y-85406973D01*
X144741580Y-85502618D01*
X144714040Y-85593404D01*
X144704354Y-85625336D01*
X144643906Y-85738425D01*
X144562554Y-85837553D01*
X144463424Y-85918906D01*
X144350335Y-85979354D01*
X144318403Y-85989040D01*
X144227617Y-86016580D01*
X144100000Y-86029149D01*
X143972382Y-86016580D01*
X143881596Y-85989040D01*
X143849664Y-85979354D01*
X143736575Y-85918906D01*
X143637447Y-85837554D01*
X143556094Y-85738424D01*
X143495646Y-85625335D01*
X143485960Y-85593403D01*
X143458420Y-85502617D01*
X143449000Y-85406972D01*
X143449000Y-84793027D01*
X143458420Y-84697382D01*
X143495645Y-84574668D01*
X143495645Y-84574667D01*
X143527957Y-84514217D01*
X143556095Y-84461574D01*
X143569493Y-84445249D01*
X143637447Y-84362446D01*
X143736576Y-84281094D01*
X143849665Y-84220646D01*
X143891601Y-84207925D01*
X143972383Y-84183420D01*
X144100000Y-84170851D01*
X144227618Y-84183420D01*
G37*
G36*
X142227618Y-84183420D02*
G01*
X142308400Y-84207925D01*
X142350336Y-84220646D01*
X142463425Y-84281094D01*
X142562554Y-84362446D01*
X142643906Y-84461575D01*
X142704354Y-84574664D01*
X142704355Y-84574668D01*
X142741580Y-84697382D01*
X142751000Y-84793027D01*
X142751000Y-85406973D01*
X142741580Y-85502618D01*
X142714040Y-85593404D01*
X142704354Y-85625336D01*
X142643906Y-85738425D01*
X142562554Y-85837553D01*
X142463424Y-85918906D01*
X142350335Y-85979354D01*
X142318403Y-85989040D01*
X142227617Y-86016580D01*
X142100000Y-86029149D01*
X141972382Y-86016580D01*
X141881596Y-85989040D01*
X141849664Y-85979354D01*
X141736575Y-85918906D01*
X141637447Y-85837554D01*
X141556094Y-85738424D01*
X141495646Y-85625335D01*
X141485960Y-85593403D01*
X141458420Y-85502617D01*
X141449000Y-85406972D01*
X141449000Y-84793027D01*
X141458420Y-84697382D01*
X141495645Y-84574668D01*
X141495645Y-84574667D01*
X141527957Y-84514217D01*
X141556095Y-84461574D01*
X141569493Y-84445249D01*
X141637447Y-84362446D01*
X141736576Y-84281094D01*
X141849665Y-84220646D01*
X141891601Y-84207925D01*
X141972383Y-84183420D01*
X142100000Y-84170851D01*
X142227618Y-84183420D01*
G37*
G36*
X148591242Y-84178404D02*
G01*
X148628337Y-84189657D01*
X148662515Y-84207925D01*
X148692481Y-84232519D01*
X148717075Y-84262485D01*
X148735343Y-84296663D01*
X148746596Y-84333758D01*
X148751000Y-84378474D01*
X148751000Y-85821526D01*
X148746596Y-85866242D01*
X148735343Y-85903337D01*
X148717075Y-85937515D01*
X148692481Y-85967481D01*
X148662515Y-85992075D01*
X148628337Y-86010343D01*
X148591242Y-86021596D01*
X148546526Y-86026000D01*
X147653474Y-86026000D01*
X147608758Y-86021596D01*
X147571663Y-86010343D01*
X147537485Y-85992075D01*
X147507519Y-85967481D01*
X147482925Y-85937515D01*
X147464657Y-85903337D01*
X147453404Y-85866242D01*
X147449000Y-85821526D01*
X147449000Y-84378474D01*
X147453404Y-84333758D01*
X147464657Y-84296663D01*
X147482925Y-84262485D01*
X147507519Y-84232519D01*
X147537485Y-84207925D01*
X147571663Y-84189657D01*
X147608758Y-84178404D01*
X147653474Y-84174000D01*
X148546526Y-84174000D01*
X148591242Y-84178404D01*
G37*
G36*
X129051000Y-84451000D02*
G01*
X127749000Y-84451000D01*
X127749000Y-83449000D01*
X129051000Y-83449000D01*
X129051000Y-84451000D01*
G37*
G36*
X131698701Y-83226999D02*
G01*
X130301301Y-83226999D01*
X130301301Y-81219999D01*
X131698701Y-81219999D01*
X131698701Y-83226999D01*
G37*
G36*
X137298699Y-83226999D02*
G01*
X135901299Y-83226999D01*
X135901299Y-81219999D01*
X137298699Y-81219999D01*
X137298699Y-83226999D01*
G37*
M02*
