G04 #@! TF.GenerationSoftware,KiCad,Pcbnew,(5.1.5)-3*
G04 #@! TF.CreationDate,2021-08-13T12:39:49-07:00*
G04 #@! TF.ProjectId,Freesk8-Robogotchi-v1.5,46726565-736b-4382-9d52-6f626f676f74,rev?*
G04 #@! TF.SameCoordinates,Original*
G04 #@! TF.FileFunction,Soldermask,Bot*
G04 #@! TF.FilePolarity,Negative*
%FSLAX46Y46*%
G04 Gerber Fmt 4.6, Leading zero omitted, Abs format (unit mm)*
G04 Created by KiCad (PCBNEW (5.1.5)-3) date 2021-08-13 12:39:49*
%MOMM*%
%LPD*%
G04 APERTURE LIST*
%ADD10C,0.100000*%
G04 APERTURE END LIST*
D10*
G36*
X129859408Y-122214501D02*
G01*
X129958863Y-122255697D01*
X129958865Y-122255698D01*
X130003923Y-122285805D01*
X130048372Y-122315505D01*
X130124495Y-122391628D01*
X130184303Y-122481137D01*
X130225499Y-122580592D01*
X130246500Y-122686173D01*
X130246500Y-122793827D01*
X130225499Y-122899408D01*
X130184303Y-122998863D01*
X130184302Y-122998865D01*
X130124494Y-123088373D01*
X130048373Y-123164494D01*
X129958865Y-123224302D01*
X129958864Y-123224303D01*
X129958863Y-123224303D01*
X129859408Y-123265499D01*
X129753827Y-123286500D01*
X129646173Y-123286500D01*
X129540592Y-123265499D01*
X129441137Y-123224303D01*
X129441136Y-123224303D01*
X129441135Y-123224302D01*
X129351627Y-123164494D01*
X129275506Y-123088373D01*
X129215698Y-122998865D01*
X129215697Y-122998863D01*
X129174501Y-122899408D01*
X129153500Y-122793827D01*
X129153500Y-122686173D01*
X129174501Y-122580592D01*
X129215697Y-122481137D01*
X129275505Y-122391628D01*
X129351628Y-122315505D01*
X129396077Y-122285805D01*
X129441135Y-122255698D01*
X129441137Y-122255697D01*
X129540592Y-122214501D01*
X129646173Y-122193500D01*
X129753827Y-122193500D01*
X129859408Y-122214501D01*
G37*
G36*
X130464656Y-121042581D02*
G01*
X130545548Y-121076088D01*
X130545550Y-121076089D01*
X130618352Y-121124734D01*
X130680266Y-121186648D01*
X130728912Y-121259452D01*
X130762419Y-121340344D01*
X130779500Y-121426219D01*
X130779500Y-121513781D01*
X130762419Y-121599656D01*
X130728912Y-121680548D01*
X130728911Y-121680550D01*
X130680266Y-121753352D01*
X130618352Y-121815266D01*
X130545550Y-121863911D01*
X130545549Y-121863912D01*
X130545548Y-121863912D01*
X130464656Y-121897419D01*
X130378781Y-121914500D01*
X130291219Y-121914500D01*
X130205344Y-121897419D01*
X130124452Y-121863912D01*
X130124451Y-121863912D01*
X130124450Y-121863911D01*
X130051648Y-121815266D01*
X129989734Y-121753352D01*
X129941089Y-121680550D01*
X129941088Y-121680548D01*
X129907581Y-121599656D01*
X129890500Y-121513781D01*
X129890500Y-121426219D01*
X129907581Y-121340344D01*
X129941088Y-121259452D01*
X129989734Y-121186648D01*
X130051648Y-121124734D01*
X130124450Y-121076089D01*
X130124452Y-121076088D01*
X130205344Y-121042581D01*
X130291219Y-121025500D01*
X130378781Y-121025500D01*
X130464656Y-121042581D01*
G37*
G36*
X129194656Y-121042581D02*
G01*
X129275548Y-121076088D01*
X129275550Y-121076089D01*
X129348352Y-121124734D01*
X129410266Y-121186648D01*
X129458912Y-121259452D01*
X129492419Y-121340344D01*
X129509500Y-121426219D01*
X129509500Y-121513781D01*
X129492419Y-121599656D01*
X129458912Y-121680548D01*
X129458911Y-121680550D01*
X129410266Y-121753352D01*
X129348352Y-121815266D01*
X129275550Y-121863911D01*
X129275549Y-121863912D01*
X129275548Y-121863912D01*
X129194656Y-121897419D01*
X129108781Y-121914500D01*
X129021219Y-121914500D01*
X128935344Y-121897419D01*
X128854452Y-121863912D01*
X128854451Y-121863912D01*
X128854450Y-121863911D01*
X128781648Y-121815266D01*
X128719734Y-121753352D01*
X128671089Y-121680550D01*
X128671088Y-121680548D01*
X128637581Y-121599656D01*
X128620500Y-121513781D01*
X128620500Y-121426219D01*
X128637581Y-121340344D01*
X128671088Y-121259452D01*
X128719734Y-121186648D01*
X128781648Y-121124734D01*
X128854450Y-121076089D01*
X128854452Y-121076088D01*
X128935344Y-121042581D01*
X129021219Y-121025500D01*
X129108781Y-121025500D01*
X129194656Y-121042581D01*
G37*
G36*
X130464656Y-119772581D02*
G01*
X130545548Y-119806088D01*
X130545550Y-119806089D01*
X130618352Y-119854734D01*
X130680266Y-119916648D01*
X130728912Y-119989452D01*
X130762419Y-120070344D01*
X130779500Y-120156219D01*
X130779500Y-120243781D01*
X130762419Y-120329656D01*
X130728912Y-120410548D01*
X130728911Y-120410550D01*
X130680266Y-120483352D01*
X130618352Y-120545266D01*
X130545550Y-120593911D01*
X130545549Y-120593912D01*
X130545548Y-120593912D01*
X130464656Y-120627419D01*
X130378781Y-120644500D01*
X130291219Y-120644500D01*
X130205344Y-120627419D01*
X130124452Y-120593912D01*
X130124451Y-120593912D01*
X130124450Y-120593911D01*
X130051648Y-120545266D01*
X129989734Y-120483352D01*
X129941089Y-120410550D01*
X129941088Y-120410548D01*
X129907581Y-120329656D01*
X129890500Y-120243781D01*
X129890500Y-120156219D01*
X129907581Y-120070344D01*
X129941088Y-119989452D01*
X129989734Y-119916648D01*
X130051648Y-119854734D01*
X130124450Y-119806089D01*
X130124452Y-119806088D01*
X130205344Y-119772581D01*
X130291219Y-119755500D01*
X130378781Y-119755500D01*
X130464656Y-119772581D01*
G37*
G36*
X129194656Y-119772581D02*
G01*
X129275548Y-119806088D01*
X129275550Y-119806089D01*
X129348352Y-119854734D01*
X129410266Y-119916648D01*
X129458912Y-119989452D01*
X129492419Y-120070344D01*
X129509500Y-120156219D01*
X129509500Y-120243781D01*
X129492419Y-120329656D01*
X129458912Y-120410548D01*
X129458911Y-120410550D01*
X129410266Y-120483352D01*
X129348352Y-120545266D01*
X129275550Y-120593911D01*
X129275549Y-120593912D01*
X129275548Y-120593912D01*
X129194656Y-120627419D01*
X129108781Y-120644500D01*
X129021219Y-120644500D01*
X128935344Y-120627419D01*
X128854452Y-120593912D01*
X128854451Y-120593912D01*
X128854450Y-120593911D01*
X128781648Y-120545266D01*
X128719734Y-120483352D01*
X128671089Y-120410550D01*
X128671088Y-120410548D01*
X128637581Y-120329656D01*
X128620500Y-120243781D01*
X128620500Y-120156219D01*
X128637581Y-120070344D01*
X128671088Y-119989452D01*
X128719734Y-119916648D01*
X128781648Y-119854734D01*
X128854450Y-119806089D01*
X128854452Y-119806088D01*
X128935344Y-119772581D01*
X129021219Y-119755500D01*
X129108781Y-119755500D01*
X129194656Y-119772581D01*
G37*
G36*
X130464656Y-118502581D02*
G01*
X130545548Y-118536088D01*
X130545550Y-118536089D01*
X130618352Y-118584734D01*
X130680266Y-118646648D01*
X130728912Y-118719452D01*
X130762419Y-118800344D01*
X130779500Y-118886219D01*
X130779500Y-118973781D01*
X130762419Y-119059656D01*
X130728912Y-119140548D01*
X130728911Y-119140550D01*
X130680266Y-119213352D01*
X130618352Y-119275266D01*
X130545550Y-119323911D01*
X130545549Y-119323912D01*
X130545548Y-119323912D01*
X130464656Y-119357419D01*
X130378781Y-119374500D01*
X130291219Y-119374500D01*
X130205344Y-119357419D01*
X130124452Y-119323912D01*
X130124451Y-119323912D01*
X130124450Y-119323911D01*
X130051648Y-119275266D01*
X129989734Y-119213352D01*
X129941089Y-119140550D01*
X129941088Y-119140548D01*
X129907581Y-119059656D01*
X129890500Y-118973781D01*
X129890500Y-118886219D01*
X129907581Y-118800344D01*
X129941088Y-118719452D01*
X129989734Y-118646648D01*
X130051648Y-118584734D01*
X130124450Y-118536089D01*
X130124452Y-118536088D01*
X130205344Y-118502581D01*
X130291219Y-118485500D01*
X130378781Y-118485500D01*
X130464656Y-118502581D01*
G37*
G36*
X129194656Y-118502581D02*
G01*
X129275548Y-118536088D01*
X129275550Y-118536089D01*
X129348352Y-118584734D01*
X129410266Y-118646648D01*
X129458912Y-118719452D01*
X129492419Y-118800344D01*
X129509500Y-118886219D01*
X129509500Y-118973781D01*
X129492419Y-119059656D01*
X129458912Y-119140548D01*
X129458911Y-119140550D01*
X129410266Y-119213352D01*
X129348352Y-119275266D01*
X129275550Y-119323911D01*
X129275549Y-119323912D01*
X129275548Y-119323912D01*
X129194656Y-119357419D01*
X129108781Y-119374500D01*
X129021219Y-119374500D01*
X128935344Y-119357419D01*
X128854452Y-119323912D01*
X128854451Y-119323912D01*
X128854450Y-119323911D01*
X128781648Y-119275266D01*
X128719734Y-119213352D01*
X128671089Y-119140550D01*
X128671088Y-119140548D01*
X128637581Y-119059656D01*
X128620500Y-118973781D01*
X128620500Y-118886219D01*
X128637581Y-118800344D01*
X128671088Y-118719452D01*
X128719734Y-118646648D01*
X128781648Y-118584734D01*
X128854450Y-118536089D01*
X128854452Y-118536088D01*
X128935344Y-118502581D01*
X129021219Y-118485500D01*
X129108781Y-118485500D01*
X129194656Y-118502581D01*
G37*
G36*
X128843408Y-117134501D02*
G01*
X128942863Y-117175697D01*
X128942865Y-117175698D01*
X128987923Y-117205805D01*
X129032372Y-117235505D01*
X129108495Y-117311628D01*
X129168303Y-117401137D01*
X129209499Y-117500592D01*
X129230500Y-117606173D01*
X129230500Y-117713827D01*
X129209499Y-117819408D01*
X129168303Y-117918863D01*
X129168302Y-117918865D01*
X129108494Y-118008373D01*
X129032373Y-118084494D01*
X128942865Y-118144302D01*
X128942864Y-118144303D01*
X128942863Y-118144303D01*
X128843408Y-118185499D01*
X128737827Y-118206500D01*
X128630173Y-118206500D01*
X128524592Y-118185499D01*
X128425137Y-118144303D01*
X128425136Y-118144303D01*
X128425135Y-118144302D01*
X128335627Y-118084494D01*
X128259506Y-118008373D01*
X128199698Y-117918865D01*
X128199697Y-117918863D01*
X128158501Y-117819408D01*
X128137500Y-117713827D01*
X128137500Y-117606173D01*
X128158501Y-117500592D01*
X128199697Y-117401137D01*
X128259505Y-117311628D01*
X128335628Y-117235505D01*
X128380077Y-117205805D01*
X128425135Y-117175698D01*
X128425137Y-117175697D01*
X128524592Y-117134501D01*
X128630173Y-117113500D01*
X128737827Y-117113500D01*
X128843408Y-117134501D01*
G37*
G36*
X130875408Y-117134501D02*
G01*
X130974863Y-117175697D01*
X130974865Y-117175698D01*
X131019923Y-117205805D01*
X131064372Y-117235505D01*
X131140495Y-117311628D01*
X131200303Y-117401137D01*
X131241499Y-117500592D01*
X131262500Y-117606173D01*
X131262500Y-117713827D01*
X131241499Y-117819408D01*
X131200303Y-117918863D01*
X131200302Y-117918865D01*
X131140494Y-118008373D01*
X131064373Y-118084494D01*
X130974865Y-118144302D01*
X130974864Y-118144303D01*
X130974863Y-118144303D01*
X130875408Y-118185499D01*
X130769827Y-118206500D01*
X130662173Y-118206500D01*
X130556592Y-118185499D01*
X130457137Y-118144303D01*
X130457136Y-118144303D01*
X130457135Y-118144302D01*
X130367627Y-118084494D01*
X130291506Y-118008373D01*
X130231698Y-117918865D01*
X130231697Y-117918863D01*
X130190501Y-117819408D01*
X130169500Y-117713827D01*
X130169500Y-117606173D01*
X130190501Y-117500592D01*
X130231697Y-117401137D01*
X130291505Y-117311628D01*
X130367628Y-117235505D01*
X130412077Y-117205805D01*
X130457135Y-117175698D01*
X130457137Y-117175697D01*
X130556592Y-117134501D01*
X130662173Y-117113500D01*
X130769827Y-117113500D01*
X130875408Y-117134501D01*
G37*
G36*
X136701000Y-111901000D02*
G01*
X134099000Y-111901000D01*
X134099000Y-109299000D01*
X136701000Y-109299000D01*
X136701000Y-111901000D01*
G37*
G36*
X129701000Y-111901000D02*
G01*
X127099000Y-111901000D01*
X127099000Y-109299000D01*
X129701000Y-109299000D01*
X129701000Y-111901000D01*
G37*
G36*
X136701000Y-104901000D02*
G01*
X134099000Y-104901000D01*
X134099000Y-102299000D01*
X136701000Y-102299000D01*
X136701000Y-104901000D01*
G37*
G36*
X129701000Y-104901000D02*
G01*
X127099000Y-104901000D01*
X127099000Y-102299000D01*
X129701000Y-102299000D01*
X129701000Y-104901000D01*
G37*
G36*
X137351000Y-100351000D02*
G01*
X135649000Y-100351000D01*
X135649000Y-98849000D01*
X137351000Y-98849000D01*
X137351000Y-100351000D01*
G37*
G36*
X130151000Y-100351000D02*
G01*
X128449000Y-100351000D01*
X128449000Y-98849000D01*
X130151000Y-98849000D01*
X130151000Y-100351000D01*
G37*
G36*
X137351000Y-97351000D02*
G01*
X135649000Y-97351000D01*
X135649000Y-95849000D01*
X137351000Y-95849000D01*
X137351000Y-97351000D01*
G37*
G36*
X130151000Y-97351000D02*
G01*
X128449000Y-97351000D01*
X128449000Y-95849000D01*
X130151000Y-95849000D01*
X130151000Y-97351000D01*
G37*
G36*
X137351000Y-94351000D02*
G01*
X135649000Y-94351000D01*
X135649000Y-92849000D01*
X137351000Y-92849000D01*
X137351000Y-94351000D01*
G37*
G36*
X130151000Y-94351000D02*
G01*
X128449000Y-94351000D01*
X128449000Y-92849000D01*
X130151000Y-92849000D01*
X130151000Y-94351000D01*
G37*
G36*
X137351000Y-91351000D02*
G01*
X135649000Y-91351000D01*
X135649000Y-89849000D01*
X137351000Y-89849000D01*
X137351000Y-91351000D01*
G37*
G36*
X130151000Y-91351000D02*
G01*
X128449000Y-91351000D01*
X128449000Y-89849000D01*
X130151000Y-89849000D01*
X130151000Y-91351000D01*
G37*
G36*
X146277023Y-88010590D02*
G01*
X146377682Y-88041125D01*
X146428013Y-88056392D01*
X146567165Y-88130771D01*
X146689133Y-88230867D01*
X146789229Y-88352835D01*
X146863608Y-88491987D01*
X146863608Y-88491988D01*
X146909410Y-88642977D01*
X146921000Y-88760655D01*
X146921000Y-89339345D01*
X146909410Y-89457023D01*
X146878875Y-89557682D01*
X146863608Y-89608013D01*
X146789230Y-89747164D01*
X146789229Y-89747165D01*
X146689133Y-89869133D01*
X146567164Y-89969229D01*
X146428012Y-90043608D01*
X146377681Y-90058875D01*
X146277022Y-90089410D01*
X146120000Y-90104875D01*
X145962977Y-90089410D01*
X145862318Y-90058875D01*
X145811987Y-90043608D01*
X145672835Y-89969229D01*
X145550867Y-89869133D01*
X145450771Y-89747164D01*
X145376393Y-89608013D01*
X145376392Y-89608012D01*
X145361125Y-89557681D01*
X145330590Y-89457022D01*
X145319000Y-89339344D01*
X145319000Y-88760655D01*
X145330590Y-88642977D01*
X145376392Y-88491988D01*
X145376392Y-88491987D01*
X145395607Y-88456039D01*
X145450771Y-88352835D01*
X145550868Y-88230867D01*
X145672836Y-88130771D01*
X145811988Y-88056392D01*
X145862319Y-88041125D01*
X145962978Y-88010590D01*
X146120000Y-87995125D01*
X146277023Y-88010590D01*
G37*
G36*
X141197023Y-88010590D02*
G01*
X141297682Y-88041125D01*
X141348013Y-88056392D01*
X141487165Y-88130771D01*
X141609133Y-88230867D01*
X141709229Y-88352835D01*
X141783608Y-88491987D01*
X141783608Y-88491988D01*
X141829410Y-88642977D01*
X141841000Y-88760655D01*
X141841000Y-89339345D01*
X141829410Y-89457023D01*
X141798875Y-89557682D01*
X141783608Y-89608013D01*
X141709230Y-89747164D01*
X141709229Y-89747165D01*
X141609133Y-89869133D01*
X141487164Y-89969229D01*
X141348012Y-90043608D01*
X141297681Y-90058875D01*
X141197022Y-90089410D01*
X141040000Y-90104875D01*
X140882977Y-90089410D01*
X140782318Y-90058875D01*
X140731987Y-90043608D01*
X140592835Y-89969229D01*
X140470867Y-89869133D01*
X140370771Y-89747164D01*
X140296393Y-89608013D01*
X140296392Y-89608012D01*
X140281125Y-89557681D01*
X140250590Y-89457022D01*
X140239000Y-89339344D01*
X140239000Y-88760655D01*
X140250590Y-88642977D01*
X140296392Y-88491988D01*
X140296392Y-88491987D01*
X140315607Y-88456039D01*
X140370771Y-88352835D01*
X140470868Y-88230867D01*
X140592836Y-88130771D01*
X140731988Y-88056392D01*
X140782319Y-88041125D01*
X140882978Y-88010590D01*
X141040000Y-87995125D01*
X141197023Y-88010590D01*
G37*
G36*
X143737023Y-88010590D02*
G01*
X143837682Y-88041125D01*
X143888013Y-88056392D01*
X144027165Y-88130771D01*
X144149133Y-88230867D01*
X144249229Y-88352835D01*
X144323608Y-88491987D01*
X144323608Y-88491988D01*
X144369410Y-88642977D01*
X144381000Y-88760655D01*
X144381000Y-89339345D01*
X144369410Y-89457023D01*
X144338875Y-89557682D01*
X144323608Y-89608013D01*
X144249230Y-89747164D01*
X144249229Y-89747165D01*
X144149133Y-89869133D01*
X144027164Y-89969229D01*
X143888012Y-90043608D01*
X143837681Y-90058875D01*
X143737022Y-90089410D01*
X143580000Y-90104875D01*
X143422977Y-90089410D01*
X143322318Y-90058875D01*
X143271987Y-90043608D01*
X143132835Y-89969229D01*
X143010867Y-89869133D01*
X142910771Y-89747164D01*
X142836393Y-89608013D01*
X142836392Y-89608012D01*
X142821125Y-89557681D01*
X142790590Y-89457022D01*
X142779000Y-89339344D01*
X142779000Y-88760655D01*
X142790590Y-88642977D01*
X142836392Y-88491988D01*
X142836392Y-88491987D01*
X142855607Y-88456039D01*
X142910771Y-88352835D01*
X143010868Y-88230867D01*
X143132836Y-88130771D01*
X143271988Y-88056392D01*
X143322319Y-88041125D01*
X143422978Y-88010590D01*
X143580000Y-87995125D01*
X143737023Y-88010590D01*
G37*
G36*
X148817023Y-88010590D02*
G01*
X148917682Y-88041125D01*
X148968013Y-88056392D01*
X149107165Y-88130771D01*
X149229133Y-88230867D01*
X149329229Y-88352835D01*
X149403608Y-88491987D01*
X149403608Y-88491988D01*
X149449410Y-88642977D01*
X149461000Y-88760655D01*
X149461000Y-89339345D01*
X149449410Y-89457023D01*
X149418875Y-89557682D01*
X149403608Y-89608013D01*
X149329230Y-89747164D01*
X149329229Y-89747165D01*
X149229133Y-89869133D01*
X149107164Y-89969229D01*
X148968012Y-90043608D01*
X148917681Y-90058875D01*
X148817022Y-90089410D01*
X148660000Y-90104875D01*
X148502977Y-90089410D01*
X148402318Y-90058875D01*
X148351987Y-90043608D01*
X148212835Y-89969229D01*
X148090867Y-89869133D01*
X147990771Y-89747164D01*
X147916393Y-89608013D01*
X147916392Y-89608012D01*
X147901125Y-89557681D01*
X147870590Y-89457022D01*
X147859000Y-89339344D01*
X147859000Y-88760655D01*
X147870590Y-88642977D01*
X147916392Y-88491988D01*
X147916392Y-88491987D01*
X147935607Y-88456039D01*
X147990771Y-88352835D01*
X148090868Y-88230867D01*
X148212836Y-88130771D01*
X148351988Y-88056392D01*
X148402319Y-88041125D01*
X148502978Y-88010590D01*
X148660000Y-87995125D01*
X148817023Y-88010590D01*
G37*
G36*
X144227618Y-84183420D02*
G01*
X144308400Y-84207925D01*
X144350336Y-84220646D01*
X144463425Y-84281094D01*
X144562554Y-84362446D01*
X144643906Y-84461575D01*
X144704354Y-84574664D01*
X144704355Y-84574668D01*
X144741580Y-84697382D01*
X144751000Y-84793027D01*
X144751000Y-85406973D01*
X144741580Y-85502618D01*
X144714040Y-85593404D01*
X144704354Y-85625336D01*
X144643906Y-85738425D01*
X144562554Y-85837553D01*
X144463424Y-85918906D01*
X144350335Y-85979354D01*
X144318403Y-85989040D01*
X144227617Y-86016580D01*
X144100000Y-86029149D01*
X143972382Y-86016580D01*
X143881596Y-85989040D01*
X143849664Y-85979354D01*
X143736575Y-85918906D01*
X143637447Y-85837554D01*
X143556094Y-85738424D01*
X143495646Y-85625335D01*
X143485960Y-85593403D01*
X143458420Y-85502617D01*
X143449000Y-85406972D01*
X143449000Y-84793027D01*
X143458420Y-84697382D01*
X143495645Y-84574668D01*
X143495645Y-84574667D01*
X143527957Y-84514217D01*
X143556095Y-84461574D01*
X143569493Y-84445249D01*
X143637447Y-84362446D01*
X143736576Y-84281094D01*
X143849665Y-84220646D01*
X143891601Y-84207925D01*
X143972383Y-84183420D01*
X144100000Y-84170851D01*
X144227618Y-84183420D01*
G37*
G36*
X146227618Y-84183420D02*
G01*
X146308400Y-84207925D01*
X146350336Y-84220646D01*
X146463425Y-84281094D01*
X146562554Y-84362446D01*
X146643906Y-84461575D01*
X146704354Y-84574664D01*
X146704355Y-84574668D01*
X146741580Y-84697382D01*
X146751000Y-84793027D01*
X146751000Y-85406973D01*
X146741580Y-85502618D01*
X146714040Y-85593404D01*
X146704354Y-85625336D01*
X146643906Y-85738425D01*
X146562554Y-85837553D01*
X146463424Y-85918906D01*
X146350335Y-85979354D01*
X146318403Y-85989040D01*
X146227617Y-86016580D01*
X146100000Y-86029149D01*
X145972382Y-86016580D01*
X145881596Y-85989040D01*
X145849664Y-85979354D01*
X145736575Y-85918906D01*
X145637447Y-85837554D01*
X145556094Y-85738424D01*
X145495646Y-85625335D01*
X145485960Y-85593403D01*
X145458420Y-85502617D01*
X145449000Y-85406972D01*
X145449000Y-84793027D01*
X145458420Y-84697382D01*
X145495645Y-84574668D01*
X145495645Y-84574667D01*
X145527957Y-84514217D01*
X145556095Y-84461574D01*
X145569493Y-84445249D01*
X145637447Y-84362446D01*
X145736576Y-84281094D01*
X145849665Y-84220646D01*
X145891601Y-84207925D01*
X145972383Y-84183420D01*
X146100000Y-84170851D01*
X146227618Y-84183420D01*
G37*
G36*
X142227618Y-84183420D02*
G01*
X142308400Y-84207925D01*
X142350336Y-84220646D01*
X142463425Y-84281094D01*
X142562554Y-84362446D01*
X142643906Y-84461575D01*
X142704354Y-84574664D01*
X142704355Y-84574668D01*
X142741580Y-84697382D01*
X142751000Y-84793027D01*
X142751000Y-85406973D01*
X142741580Y-85502618D01*
X142714040Y-85593404D01*
X142704354Y-85625336D01*
X142643906Y-85738425D01*
X142562554Y-85837553D01*
X142463424Y-85918906D01*
X142350335Y-85979354D01*
X142318403Y-85989040D01*
X142227617Y-86016580D01*
X142100000Y-86029149D01*
X141972382Y-86016580D01*
X141881596Y-85989040D01*
X141849664Y-85979354D01*
X141736575Y-85918906D01*
X141637447Y-85837554D01*
X141556094Y-85738424D01*
X141495646Y-85625335D01*
X141485960Y-85593403D01*
X141458420Y-85502617D01*
X141449000Y-85406972D01*
X141449000Y-84793027D01*
X141458420Y-84697382D01*
X141495645Y-84574668D01*
X141495645Y-84574667D01*
X141527957Y-84514217D01*
X141556095Y-84461574D01*
X141569493Y-84445249D01*
X141637447Y-84362446D01*
X141736576Y-84281094D01*
X141849665Y-84220646D01*
X141891601Y-84207925D01*
X141972383Y-84183420D01*
X142100000Y-84170851D01*
X142227618Y-84183420D01*
G37*
G36*
X148591242Y-84178404D02*
G01*
X148628337Y-84189657D01*
X148662515Y-84207925D01*
X148692481Y-84232519D01*
X148717075Y-84262485D01*
X148735343Y-84296663D01*
X148746596Y-84333758D01*
X148751000Y-84378474D01*
X148751000Y-85821526D01*
X148746596Y-85866242D01*
X148735343Y-85903337D01*
X148717075Y-85937515D01*
X148692481Y-85967481D01*
X148662515Y-85992075D01*
X148628337Y-86010343D01*
X148591242Y-86021596D01*
X148546526Y-86026000D01*
X147653474Y-86026000D01*
X147608758Y-86021596D01*
X147571663Y-86010343D01*
X147537485Y-85992075D01*
X147507519Y-85967481D01*
X147482925Y-85937515D01*
X147464657Y-85903337D01*
X147453404Y-85866242D01*
X147449000Y-85821526D01*
X147449000Y-84378474D01*
X147453404Y-84333758D01*
X147464657Y-84296663D01*
X147482925Y-84262485D01*
X147507519Y-84232519D01*
X147537485Y-84207925D01*
X147571663Y-84189657D01*
X147608758Y-84178404D01*
X147653474Y-84174000D01*
X148546526Y-84174000D01*
X148591242Y-84178404D01*
G37*
M02*
